<?xml version="1.0" encoding="UTF-8" standalone="no"?>
<!DOCTYPE svg PUBLIC "-//W3C//DTD SVG 1.1//EN"
 "http://www.w3.org/Graphics/SVG/1.1/DTD/svg11.dtd">
<!-- Generated by graphviz version 2.38.0 (20140413.2041)
 -->
<!-- Title: dbcolinfo Pages: 1 -->
<svg width="520pt" height="503pt"
 viewBox="0.00 0.00 520.00 503.00" xmlns="http://www.w3.org/2000/svg" xmlns:xlink="http://www.w3.org/1999/xlink">
<g id="graph0" class="graph" transform="scale(1 1) rotate(0) translate(4 499)">
<title>dbcolinfo</title>
<polygon fill="white" stroke="none" points="-4,4 -4,-499 516,-499 516,4 -4,4"/>
<!-- Node1 -->
<g id="node1" class="node"><title>Node1</title>
<polygon fill="#bfbfbf" stroke="black" points="0,-209.5 0,-228.5 59,-228.5 59,-209.5 0,-209.5"/>
<text text-anchor="middle" x="29.5" y="-216.5" font-family="Helvetica,sans-Serif" font-size="10.00">dbcolinfo</text>
</g>
<!-- Node2 -->
<g id="node2" class="node"><title>Node2</title>
<g id="a_node2"><a xlink:href="a00219.html#ab45c291105027e69836002e1dd586141" target="_top" xlink:title="Write a message to the debug log. ">
<polygon fill="white" stroke="black" points="425,-190.5 425,-209.5 502,-209.5 502,-190.5 425,-190.5"/>
<text text-anchor="middle" x="463.5" y="-197.5" font-family="Helvetica,sans-Serif" font-size="10.00">tdsdump_log</text>
</a>
</g>
</g>
<!-- Node1&#45;&gt;Node2 -->
<g id="edge1" class="edge"><title>Node1&#45;&gt;Node2</title>
<path fill="none" stroke="midnightblue" d="M31.7238,-209.173C35.5502,-183.087 49.8652,-111.979 95,-81 177.607,-24.3014 219.844,-69.7295 320,-67 346.212,-66.2856 356.052,-54.3115 379,-67 422.987,-91.3215 446.924,-149.589 456.877,-180.297"/>
<polygon fill="midnightblue" stroke="midnightblue" points="453.649,-181.711 459.922,-190.249 460.343,-179.662 453.649,-181.711"/>
</g>
<!-- Node3 -->
<g id="node3" class="node"><title>Node3</title>
<g id="a_node3"><a xlink:href="a00382.html#ga0fc84c7073ed4876d9596c3eccac3609" target="_top" xlink:title="Sanity checks for column&#45;oriented functions. ">
<polygon fill="white" stroke="black" points="220,-266.5 220,-285.5 274,-285.5 274,-266.5 220,-266.5"/>
<text text-anchor="middle" x="247" y="-273.5" font-family="Helvetica,sans-Serif" font-size="10.00">dbcolptr</text>
</a>
</g>
</g>
<!-- Node1&#45;&gt;Node3 -->
<g id="edge2" class="edge"><title>Node1&#45;&gt;Node3</title>
<path fill="none" stroke="midnightblue" d="M43.0754,-228.528C55.5507,-237.448 75.565,-250.369 95,-257 132.692,-269.859 178.346,-274.163 209.519,-275.527"/>
<polygon fill="midnightblue" stroke="midnightblue" points="209.787,-279.039 219.905,-275.897 210.036,-272.043 209.787,-279.039"/>
</g>
<!-- Node6 -->
<g id="node6" class="node"><title>Node6</title>
<g id="a_node6"><a xlink:href="a00393.html#ga3340b488ed37845018e34572450e64c6" target="_top" xlink:title="Returns a C version (NUL terminated string) of dstr. ">
<polygon fill="white" stroke="black" points="424.5,-475.5 424.5,-494.5 502.5,-494.5 502.5,-475.5 424.5,-475.5"/>
<text text-anchor="middle" x="463.5" y="-482.5" font-family="Helvetica,sans-Serif" font-size="10.00">tds_dstr_cstr</text>
</a>
</g>
</g>
<!-- Node1&#45;&gt;Node6 -->
<g id="edge26" class="edge"><title>Node1&#45;&gt;Node6</title>
<path fill="none" stroke="midnightblue" d="M30.7171,-228.58C31.9608,-259.631 40.243,-358.414 95,-409 183.737,-490.977 336.73,-494.072 414.341,-489.548"/>
<polygon fill="midnightblue" stroke="midnightblue" points="414.574,-493.04 424.326,-488.899 414.12,-486.055 414.574,-493.04"/>
</g>
<!-- Node7 -->
<g id="node7" class="node"><title>Node7</title>
<g id="a_node7"><a xlink:href="a00376.html#gad06f5deddac18604dfa858b2580e232f" target="_top" xlink:title="Return name of a regular result column. ">
<polygon fill="white" stroke="black" points="100.5,-380.5 100.5,-399.5 168.5,-399.5 168.5,-380.5 100.5,-380.5"/>
<text text-anchor="middle" x="134.5" y="-387.5" font-family="Helvetica,sans-Serif" font-size="10.00">dbcolname</text>
</a>
</g>
</g>
<!-- Node1&#45;&gt;Node7 -->
<g id="edge7" class="edge"><title>Node1&#45;&gt;Node7</title>
<path fill="none" stroke="midnightblue" d="M32.2064,-228.833C37.2311,-255.104 54.256,-327.859 95,-371 96.3434,-372.422 97.8162,-373.753 99.3775,-374.995"/>
<polygon fill="midnightblue" stroke="midnightblue" points="97.4568,-377.921 107.735,-380.492 101.303,-372.073 97.4568,-377.921"/>
</g>
<!-- Node9 -->
<g id="node9" class="node"><title>Node9</title>
<g id="a_node9"><a xlink:href="a00376.html#ga636e6f1b64743f3cf22158a56eef371f" target="_top" xlink:title="Get the datatype of a regular result set column. ">
<polygon fill="white" stroke="black" points="103.5,-342.5 103.5,-361.5 165.5,-361.5 165.5,-342.5 103.5,-342.5"/>
<text text-anchor="middle" x="134.5" y="-349.5" font-family="Helvetica,sans-Serif" font-size="10.00">dbcoltype</text>
</a>
</g>
</g>
<!-- Node1&#45;&gt;Node9 -->
<g id="edge11" class="edge"><title>Node1&#45;&gt;Node9</title>
<path fill="none" stroke="midnightblue" d="M33.7775,-228.815C41.3794,-250.273 62.1115,-301.917 95,-333 96.4626,-334.382 98.045,-335.684 99.7056,-336.908"/>
<polygon fill="midnightblue" stroke="midnightblue" points="98.1314,-340.051 108.468,-342.376 101.838,-334.113 98.1314,-340.051"/>
</g>
<!-- Node10 -->
<g id="node10" class="node"><title>Node10</title>
<g id="a_node10"><a xlink:href="a00376.html#gab33d2f4fd44f50e55b6c71902db4fdae" target="_top" xlink:title="Get user&#45;defined datatype of a regular result column. ">
<polygon fill="white" stroke="black" points="101,-304.5 101,-323.5 168,-323.5 168,-304.5 101,-304.5"/>
<text text-anchor="middle" x="134.5" y="-311.5" font-family="Helvetica,sans-Serif" font-size="10.00">dbcolutype</text>
</a>
</g>
</g>
<!-- Node1&#45;&gt;Node10 -->
<g id="edge14" class="edge"><title>Node1&#45;&gt;Node10</title>
<path fill="none" stroke="midnightblue" d="M37.719,-228.5C48.9458,-242.888 71.7284,-270.582 95,-290 98.8062,-293.176 103.068,-296.241 107.331,-299.057"/>
<polygon fill="midnightblue" stroke="midnightblue" points="105.605,-302.106 115.938,-304.446 109.32,-296.173 105.605,-302.106"/>
</g>
<!-- Node11 -->
<g id="node11" class="node"><title>Node11</title>
<g id="a_node11"><a xlink:href="a00376.html#ga89fc5589b4bf41932324d2cfc6ad6433" target="_top" xlink:title="Get size of a regular result column. ">
<polygon fill="white" stroke="black" points="106.5,-228.5 106.5,-247.5 162.5,-247.5 162.5,-228.5 106.5,-228.5"/>
<text text-anchor="middle" x="134.5" y="-235.5" font-family="Helvetica,sans-Serif" font-size="10.00">dbcollen</text>
</a>
</g>
</g>
<!-- Node1&#45;&gt;Node11 -->
<g id="edge17" class="edge"><title>Node1&#45;&gt;Node11</title>
<path fill="none" stroke="midnightblue" d="M59.1912,-224.293C70.7242,-226.42 84.1697,-228.9 96.4286,-231.162"/>
<polygon fill="midnightblue" stroke="midnightblue" points="95.91,-234.625 106.379,-232.997 97.1799,-227.741 95.91,-234.625"/>
</g>
<!-- Node12 -->
<g id="node12" class="node"><title>Node12</title>
<g id="a_node12"><a xlink:href="a00376.html#ga57c856964a9a0b4cc43f5192647c51e7" target="_top" xlink:title="Determine whether a column can vary in size. ">
<polygon fill="white" stroke="black" points="103.5,-190.5 103.5,-209.5 165.5,-209.5 165.5,-190.5 103.5,-190.5"/>
<text text-anchor="middle" x="134.5" y="-197.5" font-family="Helvetica,sans-Serif" font-size="10.00">dbvarylen</text>
</a>
</g>
</g>
<!-- Node1&#45;&gt;Node12 -->
<g id="edge20" class="edge"><title>Node1&#45;&gt;Node12</title>
<path fill="none" stroke="midnightblue" d="M59.1912,-213.707C69.6732,-211.774 81.735,-209.549 93.05,-207.462"/>
<polygon fill="midnightblue" stroke="midnightblue" points="93.9654,-210.852 103.165,-205.596 92.6955,-203.968 93.9654,-210.852"/>
</g>
<!-- Node13 -->
<g id="node13" class="node"><title>Node13</title>
<g id="a_node13"><a xlink:href="a00376.html#ga3c33e72c41b40e08dbcfdfa0d16bc399" target="_top" xlink:title="Get precision and scale information for a regular result column. ">
<polygon fill="white" stroke="black" points="95,-152.5 95,-171.5 174,-171.5 174,-152.5 95,-152.5"/>
<text text-anchor="middle" x="134.5" y="-159.5" font-family="Helvetica,sans-Serif" font-size="10.00">dbcoltypeinfo</text>
</a>
</g>
</g>
<!-- Node1&#45;&gt;Node13 -->
<g id="edge23" class="edge"><title>Node1&#45;&gt;Node13</title>
<path fill="none" stroke="midnightblue" d="M45.9557,-209.459C58.9082,-201.569 77.9631,-190.206 95,-181 97.9509,-179.405 101.054,-177.784 104.165,-176.195"/>
<polygon fill="midnightblue" stroke="midnightblue" points="106,-179.191 113.374,-171.583 102.865,-172.932 106,-179.191"/>
</g>
<!-- Node14 -->
<g id="node14" class="node"><title>Node14</title>
<g id="a_node14"><a xlink:href="a00376.html#gaa85171e020dc606f2bd3395ad1d3ab4f" target="_top" xlink:title="Get datatype for a compute column. ">
<polygon fill="white" stroke="black" points="320,-76.5 320,-95.5 379,-95.5 379,-76.5 320,-76.5"/>
<text text-anchor="middle" x="349.5" y="-83.5" font-family="Helvetica,sans-Serif" font-size="10.00">dbalttype</text>
</a>
</g>
</g>
<!-- Node1&#45;&gt;Node14 -->
<g id="edge27" class="edge"><title>Node1&#45;&gt;Node14</title>
<path fill="none" stroke="midnightblue" d="M33.3573,-209.194C40.1212,-187.921 59.2861,-137.629 95,-115 161.125,-73.101 256.756,-75.2292 309.646,-80.5659"/>
<polygon fill="midnightblue" stroke="midnightblue" points="309.31,-84.0499 319.633,-81.6639 310.075,-77.0919 309.31,-84.0499"/>
</g>
<!-- Node15 -->
<g id="node15" class="node"><title>Node15</title>
<g id="a_node15"><a xlink:href="a00376.html#gaf1c00d83dfa88dc99a3fb449c49660ea" target="_top" xlink:title="Get user&#45;defined datatype of a compute column. ">
<polygon fill="white" stroke="black" points="214.5,-0.5 214.5,-19.5 279.5,-19.5 279.5,-0.5 214.5,-0.5"/>
<text text-anchor="middle" x="247" y="-7.5" font-family="Helvetica,sans-Serif" font-size="10.00">dbaltutype</text>
</a>
</g>
</g>
<!-- Node1&#45;&gt;Node15 -->
<g id="edge29" class="edge"><title>Node1&#45;&gt;Node15</title>
<path fill="none" stroke="midnightblue" d="M30.6298,-209.466C31.6061,-178.599 39.1619,-80.6962 95,-34 125.133,-8.80028 170.886,-4.71487 204.132,-5.75361"/>
<polygon fill="midnightblue" stroke="midnightblue" points="204.294,-9.26538 214.45,-6.25065 204.63,-2.27348 204.294,-9.26538"/>
</g>
<!-- Node16 -->
<g id="node16" class="node"><title>Node16</title>
<g id="a_node16"><a xlink:href="a00376.html#ga9a35c8d3cd0e35c10555baf8f6a01e93" target="_top" xlink:title="Get size of data in compute column. ">
<polygon fill="white" stroke="black" points="323,-114.5 323,-133.5 376,-133.5 376,-114.5 323,-114.5"/>
<text text-anchor="middle" x="349.5" y="-121.5" font-family="Helvetica,sans-Serif" font-size="10.00">dbaltlen</text>
</a>
</g>
</g>
<!-- Node1&#45;&gt;Node16 -->
<g id="edge31" class="edge"><title>Node1&#45;&gt;Node16</title>
<path fill="none" stroke="midnightblue" d="M35.3081,-209.425C44.3621,-192.557 65.6985,-157.919 95,-143 165.462,-107.125 261.456,-112.157 312.736,-118.411"/>
<polygon fill="midnightblue" stroke="midnightblue" points="312.307,-121.884 322.675,-119.708 313.212,-114.943 312.307,-121.884"/>
</g>
<!-- Node4 -->
<g id="node4" class="node"><title>Node4</title>
<g id="a_node4"><a xlink:href="a00382.html#ga302a4ce6559b81808e3be51615cd1b67" target="_top" xlink:title="Call client&#45;installed error handler. ">
<polygon fill="white" stroke="black" points="321,-437.5 321,-456.5 378,-456.5 378,-437.5 321,-437.5"/>
<text text-anchor="middle" x="349.5" y="-444.5" font-family="Helvetica,sans-Serif" font-size="10.00">dbperror</text>
</a>
</g>
</g>
<!-- Node3&#45;&gt;Node4 -->
<g id="edge3" class="edge"><title>Node3&#45;&gt;Node4</title>
<path fill="none" stroke="midnightblue" d="M253.691,-285.684C269.86,-313.195 316.273,-392.166 337.575,-428.411"/>
<polygon fill="midnightblue" stroke="midnightblue" points="334.787,-430.575 342.871,-437.423 340.822,-427.028 334.787,-430.575"/>
</g>
<!-- Node4&#45;&gt;Node2 -->
<g id="edge4" class="edge"><title>Node4&#45;&gt;Node2</title>
<path fill="none" stroke="midnightblue" d="M364.608,-437.478C369.69,-433.488 375.121,-428.496 379,-423 425.847,-356.623 449.976,-260.74 458.659,-219.769"/>
<polygon fill="midnightblue" stroke="midnightblue" points="462.135,-220.238 460.705,-209.74 455.277,-218.839 462.135,-220.238"/>
</g>
<!-- Node5 -->
<g id="node5" class="node"><title>Node5</title>
<g id="a_node5"><a xlink:href="a00393.html#gae6d3d12bd1f5f0c56df934a377c245d3" target="_top" xlink:title="test if string is empty ">
<polygon fill="white" stroke="black" points="415,-437.5 415,-456.5 512,-456.5 512,-437.5 415,-437.5"/>
<text text-anchor="middle" x="463.5" y="-444.5" font-family="Helvetica,sans-Serif" font-size="10.00">tds_dstr_isempty</text>
</a>
</g>
</g>
<!-- Node4&#45;&gt;Node5 -->
<g id="edge5" class="edge"><title>Node4&#45;&gt;Node5</title>
<path fill="none" stroke="midnightblue" d="M378.185,-447C386.187,-447 395.234,-447 404.358,-447"/>
<polygon fill="midnightblue" stroke="midnightblue" points="404.639,-450.5 414.639,-447 404.639,-443.5 404.639,-450.5"/>
</g>
<!-- Node4&#45;&gt;Node6 -->
<g id="edge6" class="edge"><title>Node4&#45;&gt;Node6</title>
<path fill="none" stroke="midnightblue" d="M378.185,-456.393C392.214,-461.153 409.459,-467.004 424.691,-472.172"/>
<polygon fill="midnightblue" stroke="midnightblue" points="423.761,-475.552 434.355,-475.451 426.01,-468.923 423.761,-475.552"/>
</g>
<!-- Node7&#45;&gt;Node2 -->
<g id="edge8" class="edge"><title>Node7&#45;&gt;Node2</title>
<path fill="none" stroke="midnightblue" d="M157.373,-399.595C187.229,-411.209 241.846,-427.097 284,-409 372.493,-371.009 432.397,-263.023 453.79,-219.017"/>
<polygon fill="midnightblue" stroke="midnightblue" points="457.068,-220.271 458.187,-209.735 450.742,-217.274 457.068,-220.271"/>
</g>
<!-- Node7&#45;&gt;Node3 -->
<g id="edge9" class="edge"><title>Node7&#45;&gt;Node3</title>
<path fill="none" stroke="midnightblue" d="M159.357,-380.38C164.465,-377.747 169.632,-374.607 174,-371 200.723,-348.929 223.296,-315.077 235.712,-294.305"/>
<polygon fill="midnightblue" stroke="midnightblue" points="238.82,-295.923 240.823,-285.519 232.77,-292.403 238.82,-295.923"/>
</g>
<!-- Node8 -->
<g id="node8" class="node"><title>Node8</title>
<g id="a_node8"><a xlink:href="a00393.html#ga8fa35e3ff06ef0b7d0d642cf50282ab8" target="_top" xlink:title="Returns a buffer to edit the string. ">
<polygon fill="white" stroke="black" points="210,-380.5 210,-399.5 284,-399.5 284,-380.5 210,-380.5"/>
<text text-anchor="middle" x="247" y="-387.5" font-family="Helvetica,sans-Serif" font-size="10.00">tds_dstr_buf</text>
</a>
</g>
</g>
<!-- Node7&#45;&gt;Node8 -->
<g id="edge10" class="edge"><title>Node7&#45;&gt;Node8</title>
<path fill="none" stroke="midnightblue" d="M168.654,-390C178.38,-390 189.2,-390 199.592,-390"/>
<polygon fill="midnightblue" stroke="midnightblue" points="199.785,-393.5 209.785,-390 199.785,-386.5 199.785,-393.5"/>
</g>
<!-- Node9&#45;&gt;Node2 -->
<g id="edge12" class="edge"><title>Node9&#45;&gt;Node2</title>
<path fill="none" stroke="midnightblue" d="M165.781,-348.603C214.111,-342.046 310.235,-324.266 379,-281 406.765,-263.531 432.911,-235.623 448.315,-217.554"/>
<polygon fill="midnightblue" stroke="midnightblue" points="451.261,-219.486 454.974,-209.563 445.884,-215.005 451.261,-219.486"/>
</g>
<!-- Node9&#45;&gt;Node3 -->
<g id="edge13" class="edge"><title>Node9&#45;&gt;Node3</title>
<path fill="none" stroke="midnightblue" d="M157.119,-342.327C162.745,-339.543 168.709,-336.347 174,-333 193.191,-320.86 213.316,-304.583 227.395,-292.532"/>
<polygon fill="midnightblue" stroke="midnightblue" points="230.063,-294.849 235.317,-285.648 225.472,-289.565 230.063,-294.849"/>
</g>
<!-- Node10&#45;&gt;Node2 -->
<g id="edge15" class="edge"><title>Node10&#45;&gt;Node2</title>
<path fill="none" stroke="midnightblue" d="M168.089,-313.197C198.672,-311.664 245.364,-307.298 284,-295 343.93,-275.924 407.401,-237.02 440.105,-215.384"/>
<polygon fill="midnightblue" stroke="midnightblue" points="442.125,-218.244 448.485,-209.77 438.229,-212.428 442.125,-218.244"/>
</g>
<!-- Node10&#45;&gt;Node3 -->
<g id="edge16" class="edge"><title>Node10&#45;&gt;Node3</title>
<path fill="none" stroke="midnightblue" d="M163.384,-304.411C177.544,-299.541 194.914,-293.568 210.066,-288.357"/>
<polygon fill="midnightblue" stroke="midnightblue" points="211.328,-291.625 219.647,-285.063 209.052,-285.005 211.328,-291.625"/>
</g>
<!-- Node11&#45;&gt;Node2 -->
<g id="edge18" class="edge"><title>Node11&#45;&gt;Node2</title>
<path fill="none" stroke="midnightblue" d="M162.594,-235.934C207.626,-232.364 300.678,-224.414 379,-214 390.608,-212.457 403.077,-210.518 414.747,-208.58"/>
<polygon fill="midnightblue" stroke="midnightblue" points="415.48,-212.006 424.756,-206.886 414.312,-205.104 415.48,-212.006"/>
</g>
<!-- Node11&#45;&gt;Node3 -->
<g id="edge19" class="edge"><title>Node11&#45;&gt;Node3</title>
<path fill="none" stroke="midnightblue" d="M162.531,-247.296C176.788,-252.198 194.47,-258.279 209.885,-263.58"/>
<polygon fill="midnightblue" stroke="midnightblue" points="209.034,-266.989 219.629,-266.931 211.311,-260.369 209.034,-266.989"/>
</g>
<!-- Node12&#45;&gt;Node2 -->
<g id="edge21" class="edge"><title>Node12&#45;&gt;Node2</title>
<path fill="none" stroke="midnightblue" d="M165.677,-200C222.675,-200 346.557,-200 414.882,-200"/>
<polygon fill="midnightblue" stroke="midnightblue" points="414.949,-203.5 424.949,-200 414.949,-196.5 414.949,-203.5"/>
</g>
<!-- Node12&#45;&gt;Node3 -->
<g id="edge22" class="edge"><title>Node12&#45;&gt;Node3</title>
<path fill="none" stroke="midnightblue" d="M157.119,-209.673C162.745,-212.457 168.709,-215.653 174,-219 193.191,-231.14 213.316,-247.417 227.395,-259.468"/>
<polygon fill="midnightblue" stroke="midnightblue" points="225.472,-262.435 235.317,-266.352 230.063,-257.151 225.472,-262.435"/>
</g>
<!-- Node13&#45;&gt;Node2 -->
<g id="edge24" class="edge"><title>Node13&#45;&gt;Node2</title>
<path fill="none" stroke="midnightblue" d="M174.295,-166.508C234.355,-173.488 349.686,-186.89 414.767,-194.453"/>
<polygon fill="midnightblue" stroke="midnightblue" points="414.427,-197.937 424.764,-195.615 415.235,-190.984 414.427,-197.937"/>
</g>
<!-- Node13&#45;&gt;Node3 -->
<g id="edge25" class="edge"><title>Node13&#45;&gt;Node3</title>
<path fill="none" stroke="midnightblue" d="M159.357,-171.62C164.465,-174.253 169.632,-177.393 174,-181 200.723,-203.071 223.296,-236.923 235.712,-257.695"/>
<polygon fill="midnightblue" stroke="midnightblue" points="232.77,-259.597 240.823,-266.481 238.82,-256.077 232.77,-259.597"/>
</g>
<!-- Node14&#45;&gt;Node2 -->
<g id="edge28" class="edge"><title>Node14&#45;&gt;Node2</title>
<path fill="none" stroke="midnightblue" d="M366.42,-95.5526C370.672,-98.3829 375.151,-101.632 379,-105 406.638,-129.185 433.803,-162.317 449.317,-182.383"/>
<polygon fill="midnightblue" stroke="midnightblue" points="446.554,-184.533 455.402,-190.362 452.12,-180.288 446.554,-184.533"/>
</g>
<!-- Node15&#45;&gt;Node2 -->
<g id="edge30" class="edge"><title>Node15&#45;&gt;Node2</title>
<path fill="none" stroke="midnightblue" d="M279.689,-8.22538C308.344,-8.24655 350.318,-12.5122 379,-34 428.157,-70.8267 450.381,-144.695 458.544,-180.137"/>
<polygon fill="midnightblue" stroke="midnightblue" points="455.185,-181.163 460.717,-190.199 462.027,-179.685 455.185,-181.163"/>
</g>
<!-- Node16&#45;&gt;Node2 -->
<g id="edge32" class="edge"><title>Node16&#45;&gt;Node2</title>
<path fill="none" stroke="midnightblue" d="M364.685,-133.625C383.704,-146.531 417.673,-169.582 440.149,-184.833"/>
<polygon fill="midnightblue" stroke="midnightblue" points="438.19,-187.734 448.43,-190.453 442.121,-181.941 438.19,-187.734"/>
</g>
</g>
</svg>
