<?xml version="1.0" encoding="UTF-8" standalone="no"?>
<!DOCTYPE svg PUBLIC "-//W3C//DTD SVG 1.1//EN"
 "http://www.w3.org/Graphics/SVG/1.1/DTD/svg11.dtd">
<!-- Generated by graphviz version 2.38.0 (20140413.2041)
 -->
<!-- Title: tds_get_conversion_type Pages: 1 -->
<svg width="1000pt" height="541pt"
 viewBox="0.00 0.00 1000.00 541.00" xmlns="http://www.w3.org/2000/svg" xmlns:xlink="http://www.w3.org/1999/xlink">
<g id="graph0" class="graph" transform="scale(1 1) rotate(0) translate(4 537)">
<title>tds_get_conversion_type</title>
<polygon fill="white" stroke="none" points="-4,4 -4,-537 996,-537 996,4 -4,4"/>
<!-- Node1 -->
<g id="node1" class="node"><title>Node1</title>
<polygon fill="#bfbfbf" stroke="black" points="0,-266.5 0,-285.5 136,-285.5 136,-266.5 0,-266.5"/>
<text text-anchor="middle" x="68" y="-273.5" font-family="Helvetica,sans-Serif" font-size="10.00">tds_get_conversion_type</text>
</g>
<!-- Node2 -->
<g id="node2" class="node"><title>Node2</title>
<g id="a_node2"><a xlink:href="a00379.html#ga065757a7d0dce354660900de4aa79e2f" target="_top" xlink:title="_bcp_read_hostfile">
<polygon fill="white" stroke="black" points="193,-513.5 193,-532.5 300,-532.5 300,-513.5 193,-513.5"/>
<text text-anchor="middle" x="246.5" y="-520.5" font-family="Helvetica,sans-Serif" font-size="10.00">_bcp_read_hostfile</text>
</a>
</g>
</g>
<!-- Node1&#45;&gt;Node2 -->
<g id="edge1" class="edge"><title>Node1&#45;&gt;Node2</title>
<path fill="none" stroke="midnightblue" d="M72.025,-295.566C79.9206,-339.779 105.362,-447.903 172,-504 178.05,-509.093 185.301,-512.842 192.859,-515.598"/>
<polygon fill="midnightblue" stroke="midnightblue" points="75.4511,-294.833 70.3464,-285.549 68.5474,-295.99 75.4511,-294.833"/>
</g>
<!-- Node5 -->
<g id="node5" class="node"><title>Node5</title>
<g id="a_node5"><a xlink:href="a00379.html#ga0f8def4cad04c5c1e27c2b653d482dd8" target="_top" xlink:title="For a bcp in from program variables, get the data from the host variable. ">
<polygon fill="white" stroke="black" points="193,-475.5 193,-494.5 300,-494.5 300,-475.5 193,-475.5"/>
<text text-anchor="middle" x="246.5" y="-482.5" font-family="Helvetica,sans-Serif" font-size="10.00">_bcp_get_col_data</text>
</a>
</g>
</g>
<!-- Node1&#45;&gt;Node5 -->
<g id="edge4" class="edge"><title>Node1&#45;&gt;Node5</title>
<path fill="none" stroke="midnightblue" d="M73.9765,-295.682C84.8358,-334.486 114.423,-420.991 172,-466 178.126,-470.789 185.333,-474.38 192.796,-477.071"/>
<polygon fill="midnightblue" stroke="midnightblue" points="77.2641,-294.427 71.2993,-285.671 70.5017,-296.236 77.2641,-294.427"/>
</g>
<!-- Node7 -->
<g id="node7" class="node"><title>Node7</title>
<g id="a_node7"><a xlink:href="a00376.html#ga873bc0f4663165e711655ade1dfae795" target="_top" xlink:title="Tie a host variable to a resultset column. ">
<polygon fill="white" stroke="black" points="223,-437.5 223,-456.5 270,-456.5 270,-437.5 223,-437.5"/>
<text text-anchor="middle" x="246.5" y="-444.5" font-family="Helvetica,sans-Serif" font-size="10.00">dbbind</text>
</a>
</g>
</g>
<!-- Node1&#45;&gt;Node7 -->
<g id="edge6" class="edge"><title>Node1&#45;&gt;Node7</title>
<path fill="none" stroke="midnightblue" d="M76.444,-294.862C90.227,-327.267 122.867,-393.359 172,-428 186.973,-438.556 207.355,-443.251 222.858,-445.337"/>
<polygon fill="midnightblue" stroke="midnightblue" points="79.6775,-293.522 72.6346,-285.607 73.2044,-296.187 79.6775,-293.522"/>
</g>
<!-- Node9 -->
<g id="node9" class="node"><title>Node9</title>
<g id="a_node9"><a xlink:href="a00376.html#gaf641c8e3d34607ca8b7ac2afed3e6d67" target="_top" xlink:title="Print a regular result row to a buffer. ">
<polygon fill="white" stroke="black" points="213.5,-399.5 213.5,-418.5 279.5,-418.5 279.5,-399.5 213.5,-399.5"/>
<text text-anchor="middle" x="246.5" y="-406.5" font-family="Helvetica,sans-Serif" font-size="10.00">dbspr1row</text>
</a>
</g>
</g>
<!-- Node1&#45;&gt;Node9 -->
<g id="edge8" class="edge"><title>Node1&#45;&gt;Node9</title>
<path fill="none" stroke="midnightblue" d="M80.4827,-294.352C97.3675,-319.781 131.335,-365.374 172,-390 184.401,-397.51 199.716,-402.074 213.15,-404.837"/>
<polygon fill="midnightblue" stroke="midnightblue" points="83.2413,-292.173 74.8695,-285.679 77.3648,-295.976 83.2413,-292.173"/>
</g>
<!-- Node10 -->
<g id="node10" class="node"><title>Node10</title>
<g id="a_node10"><a xlink:href="a00376.html#gaa30be3414a97aac6139af2e928db91ca" target="_top" xlink:title="Print a result set to stdout. ">
<polygon fill="white" stroke="black" points="219,-361.5 219,-380.5 274,-380.5 274,-361.5 219,-361.5"/>
<text text-anchor="middle" x="246.5" y="-368.5" font-family="Helvetica,sans-Serif" font-size="10.00">dbprrow</text>
</a>
</g>
</g>
<!-- Node1&#45;&gt;Node10 -->
<g id="edge9" class="edge"><title>Node1&#45;&gt;Node10</title>
<path fill="none" stroke="midnightblue" d="M86.7304,-292.44C106.228,-309.672 139.169,-336.37 172,-352 186.756,-359.025 204.462,-363.702 218.798,-366.658"/>
<polygon fill="midnightblue" stroke="midnightblue" points="89.0107,-289.783 79.2368,-285.694 84.3273,-294.986 89.0107,-289.783"/>
</g>
<!-- Node11 -->
<g id="node11" class="node"><title>Node11</title>
<g id="a_node11"><a xlink:href="a00376.html#gafefd17e15b22adda84366c817178dd7d" target="_top" xlink:title="Bind a compute column to a program variable. ">
<polygon fill="white" stroke="black" points="217,-323.5 217,-342.5 276,-342.5 276,-323.5 217,-323.5"/>
<text text-anchor="middle" x="246.5" y="-330.5" font-family="Helvetica,sans-Serif" font-size="10.00">dbaltbind</text>
</a>
</g>
</g>
<!-- Node1&#45;&gt;Node11 -->
<g id="edge10" class="edge"><title>Node1&#45;&gt;Node11</title>
<path fill="none" stroke="midnightblue" d="M102.489,-289.326C122.493,-297.041 148.502,-306.649 172,-314 186.591,-318.565 203.05,-322.894 216.689,-326.264"/>
<polygon fill="midnightblue" stroke="midnightblue" points="103.494,-285.961 92.9059,-285.597 100.956,-292.485 103.494,-285.961"/>
</g>
<!-- Node12 -->
<g id="node12" class="node"><title>Node12</title>
<g id="a_node12"><a xlink:href="a00377.html#gaa478c8b96923bca02d158d966172ec1b" target="_top" xlink:title="Get datatype of a stored procedure&#39;s return parameter. ">
<polygon fill="white" stroke="black" points="216,-285.5 216,-304.5 277,-304.5 277,-285.5 216,-285.5"/>
<text text-anchor="middle" x="246.5" y="-292.5" font-family="Helvetica,sans-Serif" font-size="10.00">dbrettype</text>
</a>
</g>
</g>
<!-- Node1&#45;&gt;Node12 -->
<g id="edge11" class="edge"><title>Node1&#45;&gt;Node12</title>
<path fill="none" stroke="midnightblue" d="M146.317,-284.323C170.929,-286.972 196.692,-289.746 215.791,-291.802"/>
<polygon fill="midnightblue" stroke="midnightblue" points="146.548,-280.828 136.231,-283.237 145.799,-287.788 146.548,-280.828"/>
</g>
<!-- Node13 -->
<g id="node13" class="node"><title>Node13</title>
<g id="a_node13"><a xlink:href="a00376.html#ga9804fc70ae6ed35c92cd75d410dad570" target="_top" xlink:title="describe table column attributes with a single call (Freetds&#45;only API function modelled on dbcolinfo)...">
<polygon fill="white" stroke="black" points="392.5,-365.5 392.5,-384.5 473.5,-384.5 473.5,-365.5 392.5,-365.5"/>
<text text-anchor="middle" x="433" y="-372.5" font-family="Helvetica,sans-Serif" font-size="10.00">dbtablecolinfo</text>
</a>
</g>
</g>
<!-- Node1&#45;&gt;Node13 -->
<g id="edge12" class="edge"><title>Node1&#45;&gt;Node13</title>
<path fill="none" stroke="midnightblue" d="M108.371,-263.786C161.319,-249.896 256.285,-234.156 321,-276 353.742,-297.17 327.13,-330.941 357,-356 366.879,-364.288 379.896,-369.031 392.307,-371.724"/>
<polygon fill="midnightblue" stroke="midnightblue" points="107.401,-260.423 98.6762,-266.433 109.245,-267.176 107.401,-260.423"/>
</g>
<!-- Node14 -->
<g id="node14" class="node"><title>Node14</title>
<g id="a_node14"><a xlink:href="a00391.html#ga50d62edeb2a432e2dc668263f3f958ff" target="_top" xlink:title="Return declaration for column (like &quot;varchar(20)&quot;) ">
<polygon fill="white" stroke="black" points="172,-209.5 172,-228.5 321,-228.5 321,-209.5 172,-209.5"/>
<text text-anchor="middle" x="246.5" y="-216.5" font-family="Helvetica,sans-Serif" font-size="10.00">tds_get_column_declaration</text>
</a>
</g>
</g>
<!-- Node1&#45;&gt;Node14 -->
<g id="edge13" class="edge"><title>Node1&#45;&gt;Node14</title>
<path fill="none" stroke="midnightblue" d="M108.189,-263.344C140.724,-252.837 186.3,-238.118 215.861,-228.572"/>
<polygon fill="midnightblue" stroke="midnightblue" points="106.983,-260.056 98.5421,-266.459 109.134,-266.717 106.983,-260.056"/>
</g>
<!-- Node25 -->
<g id="node25" class="node"><title>Node25</title>
<g id="a_node25"><a xlink:href="a00391.html#ga0e2e7230c425e925402d7856ff5b4b18" target="_top" xlink:title="Send a parameter to server. ">
<polygon fill="white" stroke="black" points="178,-171.5 178,-190.5 315,-190.5 315,-171.5 178,-171.5"/>
<text text-anchor="middle" x="246.5" y="-178.5" font-family="Helvetica,sans-Serif" font-size="10.00">tds_put_param_as_string</text>
</a>
</g>
</g>
<!-- Node1&#45;&gt;Node25 -->
<g id="edge26" class="edge"><title>Node1&#45;&gt;Node25</title>
<path fill="none" stroke="midnightblue" d="M86.7304,-259.56C106.228,-242.328 139.169,-215.63 172,-200 179.973,-196.204 188.807,-193.094 197.506,-190.57"/>
<polygon fill="midnightblue" stroke="midnightblue" points="84.3273,-257.014 79.2368,-266.306 89.0107,-262.217 84.3273,-257.014"/>
</g>
<!-- Node28 -->
<g id="node28" class="node"><title>Node28</title>
<g id="a_node28"><a xlink:href="a00391.html#gaf0da49585d39e99780a004ee2ca23479" target="_top" xlink:title="Send option commands to server. ">
<polygon fill="white" stroke="black" points="871,-95.5 871,-114.5 992,-114.5 992,-95.5 871,-95.5"/>
<text text-anchor="middle" x="931.5" y="-102.5" font-family="Helvetica,sans-Serif" font-size="10.00">tds_submit_optioncmd</text>
</a>
</g>
</g>
<!-- Node1&#45;&gt;Node28 -->
<g id="edge31" class="edge"><title>Node1&#45;&gt;Node28</title>
<path fill="none" stroke="midnightblue" d="M79.6717,-257.764C95.9685,-231.742 129.673,-184.609 172,-162 275.009,-106.978 315.217,-124 432,-124 432,-124 432,-124 617,-124 705.47,-124 807.727,-116.368 870.757,-110.778"/>
<polygon fill="midnightblue" stroke="midnightblue" points="76.679,-255.949 74.4715,-266.311 82.6592,-259.587 76.679,-255.949"/>
</g>
<!-- Node29 -->
<g id="node29" class="node"><title>Node29</title>
<g id="a_node29"><a xlink:href="a00328.html#abac4d689e0e31e80587f89247c6395a4" target="_top" xlink:title="Read a data from wire. ">
<polygon fill="white" stroke="black" points="200,-38.5 200,-57.5 293,-57.5 293,-38.5 200,-38.5"/>
<text text-anchor="middle" x="246.5" y="-45.5" font-family="Helvetica,sans-Serif" font-size="10.00">tds_generic_get</text>
</a>
</g>
</g>
<!-- Node1&#45;&gt;Node29 -->
<g id="edge32" class="edge"><title>Node1&#45;&gt;Node29</title>
<path fill="none" stroke="midnightblue" d="M72.9177,-256.372C82.2709,-214.79 109.913,-117.51 172,-67 179.975,-60.5124 189.913,-56.2143 199.878,-53.3738"/>
<polygon fill="midnightblue" stroke="midnightblue" points="69.4577,-255.815 70.7938,-266.326 76.3036,-257.276 69.4577,-255.815"/>
</g>
<!-- Node30 -->
<g id="node30" class="node"><title>Node30</title>
<g id="a_node30"><a xlink:href="a00328.html#a84e17808683ba2dd956e811a42e23176" target="_top" xlink:title="Write data to wire. ">
<polygon fill="white" stroke="black" points="200.5,-0.5 200.5,-19.5 292.5,-19.5 292.5,-0.5 200.5,-0.5"/>
<text text-anchor="middle" x="246.5" y="-7.5" font-family="Helvetica,sans-Serif" font-size="10.00">tds_generic_put</text>
</a>
</g>
</g>
<!-- Node1&#45;&gt;Node30 -->
<g id="edge33" class="edge"><title>Node1&#45;&gt;Node30</title>
<path fill="none" stroke="midnightblue" d="M71.2747,-256.416C77.7783,-209.64 100.819,-90.7213 172,-29 179.966,-22.0925 190.131,-17.6467 200.343,-14.7986"/>
<polygon fill="midnightblue" stroke="midnightblue" points="67.7894,-256.078 69.9855,-266.443 74.7323,-256.971 67.7894,-256.078"/>
</g>
<!-- Node31 -->
<g id="node31" class="node"><title>Node31</title>
<g id="a_node31"><a xlink:href="a00219.html#aaee3fe5c514ce5570c9548de9b16e0d9" target="_top" xlink:title="Write a column value to the debug log. ">
<polygon fill="white" stroke="black" points="208.5,-76.5 208.5,-95.5 284.5,-95.5 284.5,-76.5 208.5,-76.5"/>
<text text-anchor="middle" x="246.5" y="-83.5" font-family="Helvetica,sans-Serif" font-size="10.00">tdsdump_col</text>
</a>
</g>
</g>
<!-- Node1&#45;&gt;Node31 -->
<g id="edge34" class="edge"><title>Node1&#45;&gt;Node31</title>
<path fill="none" stroke="midnightblue" d="M75.8358,-256.693C89.0211,-222.195 121.228,-149.857 172,-110 182.453,-101.794 195.813,-96.3458 208.269,-92.7494"/>
<polygon fill="midnightblue" stroke="midnightblue" points="72.5404,-255.514 72.3551,-266.107 79.106,-257.941 72.5404,-255.514"/>
</g>
<!-- Node3 -->
<g id="node3" class="node"><title>Node3</title>
<g id="a_node3"><a xlink:href="a00379.html#ga7370f1223f13510d6b33e98f2de09fb5" target="_top" xlink:title="_bcp_exec_in">
<polygon fill="white" stroke="black" points="392,-513.5 392,-532.5 474,-532.5 474,-513.5 392,-513.5"/>
<text text-anchor="middle" x="433" y="-520.5" font-family="Helvetica,sans-Serif" font-size="10.00">_bcp_exec_in</text>
</a>
</g>
</g>
<!-- Node2&#45;&gt;Node3 -->
<g id="edge2" class="edge"><title>Node2&#45;&gt;Node3</title>
<path fill="none" stroke="midnightblue" d="M310.475,-523C337.37,-523 367.969,-523 391.734,-523"/>
<polygon fill="midnightblue" stroke="midnightblue" points="310.37,-519.5 300.37,-523 310.37,-526.5 310.37,-519.5"/>
</g>
<!-- Node4 -->
<g id="node4" class="node"><title>Node4</title>
<g id="a_node4"><a xlink:href="a00378.html#ga7a184158b27a50f713e9cfae3b746209" target="_top" xlink:title="Write a datafile to a table. ">
<polygon fill="white" stroke="black" points="585,-513.5 585,-532.5 647,-532.5 647,-513.5 585,-513.5"/>
<text text-anchor="middle" x="616" y="-520.5" font-family="Helvetica,sans-Serif" font-size="10.00">bcp_exec</text>
</a>
</g>
</g>
<!-- Node3&#45;&gt;Node4 -->
<g id="edge3" class="edge"><title>Node3&#45;&gt;Node4</title>
<path fill="none" stroke="midnightblue" d="M484.321,-523C516.597,-523 557.43,-523 584.784,-523"/>
<polygon fill="midnightblue" stroke="midnightblue" points="484.17,-519.5 474.17,-523 484.17,-526.5 484.17,-519.5"/>
</g>
<!-- Node6 -->
<g id="node6" class="node"><title>Node6</title>
<g id="a_node6"><a xlink:href="a00378.html#gaf1130ac97f6af55e86ec70b0aa4f5b40" target="_top" xlink:title="Write data in host variables to the table. ">
<polygon fill="white" stroke="black" points="393,-475.5 393,-494.5 473,-494.5 473,-475.5 393,-475.5"/>
<text text-anchor="middle" x="433" y="-482.5" font-family="Helvetica,sans-Serif" font-size="10.00">bcp_sendrow</text>
</a>
</g>
</g>
<!-- Node5&#45;&gt;Node6 -->
<g id="edge5" class="edge"><title>Node5&#45;&gt;Node6</title>
<path fill="none" stroke="midnightblue" d="M310.626,-485C337.929,-485 369.025,-485 392.907,-485"/>
<polygon fill="midnightblue" stroke="midnightblue" points="310.37,-481.5 300.37,-485 310.37,-488.5 310.37,-481.5"/>
</g>
<!-- Node8 -->
<g id="node8" class="node"><title>Node8</title>
<g id="a_node8"><a xlink:href="a00235.html#af8ada101cd189eff87b3533cbeaaa23b" target="_top" xlink:title="Pivot the rows, creating a new resultset. ">
<polygon fill="white" stroke="black" points="408,-437.5 408,-456.5 458,-456.5 458,-437.5 408,-437.5"/>
<text text-anchor="middle" x="433" y="-444.5" font-family="Helvetica,sans-Serif" font-size="10.00">dbpivot</text>
</a>
</g>
</g>
<!-- Node7&#45;&gt;Node8 -->
<g id="edge7" class="edge"><title>Node7&#45;&gt;Node8</title>
<path fill="none" stroke="midnightblue" d="M280.263,-447C316.801,-447 375.048,-447 407.726,-447"/>
<polygon fill="midnightblue" stroke="midnightblue" points="280.123,-443.5 270.123,-447 280.123,-450.5 280.123,-443.5"/>
</g>
<!-- Node14&#45;&gt;Node13 -->
<g id="edge14" class="edge"><title>Node14&#45;&gt;Node13</title>
<path fill="none" stroke="midnightblue" d="M307.654,-233.036C312.546,-235.784 317.099,-239.071 321,-243 358.137,-280.405 318.622,-319.869 357,-356 366.487,-364.931 379.552,-369.822 392.122,-372.452"/>
<polygon fill="midnightblue" stroke="midnightblue" points="309.076,-229.836 298.548,-228.647 306.037,-236.142 309.076,-229.836"/>
</g>
<!-- Node15 -->
<g id="node15" class="node"><title>Node15</title>
<g id="a_node15"><a xlink:href="a00391.html#gab775332d378c7fe083750d624441b303" target="_top" xlink:title="Return string with parameters definition, useful for TDS7+ Looks like &quot;@P1 INT, @P2 VARCHAR(100)&quot;...">
<polygon fill="white" stroke="black" points="372.5,-229 372.5,-259 493.5,-259 493.5,-229 372.5,-229"/>
<text text-anchor="start" x="380.5" y="-247" font-family="Helvetica,sans-Serif" font-size="10.00">tds7_build_param_def</text>
<text text-anchor="middle" x="433" y="-236" font-family="Helvetica,sans-Serif" font-size="10.00">_from_query</text>
</a>
</g>
</g>
<!-- Node14&#45;&gt;Node15 -->
<g id="edge15" class="edge"><title>Node14&#45;&gt;Node15</title>
<path fill="none" stroke="midnightblue" d="M328.023,-229.911C342.945,-231.933 358.283,-234.011 372.441,-235.93"/>
<polygon fill="midnightblue" stroke="midnightblue" points="328.157,-226.397 317.778,-228.523 327.217,-233.334 328.157,-226.397"/>
</g>
<!-- Node20 -->
<g id="node20" class="node"><title>Node20</title>
<g id="a_node20"><a xlink:href="a00391.html#gac8d5497c2d1b9fadb724111660bd03bd" target="_top" xlink:title="Return string with parameters definition, useful for TDS7+. ">
<polygon fill="white" stroke="black" points="372.5,-278 372.5,-308 493.5,-308 493.5,-278 372.5,-278"/>
<text text-anchor="start" x="380.5" y="-296" font-family="Helvetica,sans-Serif" font-size="10.00">tds7_build_param_def</text>
<text text-anchor="middle" x="433" y="-285" font-family="Helvetica,sans-Serif" font-size="10.00">_from_params</text>
</a>
</g>
</g>
<!-- Node14&#45;&gt;Node20 -->
<g id="edge20" class="edge"><title>Node14&#45;&gt;Node20</title>
<path fill="none" stroke="midnightblue" d="M294.061,-231.784C303.202,-234.962 312.565,-238.709 321,-243 338.592,-251.948 339.382,-260.104 357,-269 363.59,-272.328 370.737,-275.319 377.913,-277.969"/>
<polygon fill="midnightblue" stroke="midnightblue" points="294.877,-228.367 284.284,-228.56 292.685,-235.015 294.877,-228.367"/>
</g>
<!-- Node21 -->
<g id="node21" class="node"><title>Node21</title>
<g id="a_node21"><a xlink:href="a00391.html#gaf614c75ea8f7ad411e53dac0e2f91be4" target="_top" xlink:title="Send RPC as string query. ">
<polygon fill="white" stroke="black" points="368,-190.5 368,-209.5 498,-209.5 498,-190.5 368,-190.5"/>
<text text-anchor="middle" x="433" y="-197.5" font-family="Helvetica,sans-Serif" font-size="10.00">tds_send_emulated_rpc</text>
</a>
</g>
</g>
<!-- Node14&#45;&gt;Node21 -->
<g id="edge22" class="edge"><title>Node14&#45;&gt;Node21</title>
<path fill="none" stroke="midnightblue" d="M331.443,-210.355C343.698,-209.093 356.15,-207.811 367.925,-206.599"/>
<polygon fill="midnightblue" stroke="midnightblue" points="330.804,-206.903 321.215,-211.409 331.521,-213.866 330.804,-206.903"/>
</g>
<!-- Node23 -->
<g id="node23" class="node"><title>Node23</title>
<g id="a_node23"><a xlink:href="a00324.html#a3118c7232bc9c3e47f8ba872bb39e967" target="_top" xlink:title="Help to build query to be sent to server. ">
<polygon fill="white" stroke="black" points="360,-327.5 360,-346.5 506,-346.5 506,-327.5 360,-327.5"/>
<text text-anchor="middle" x="433" y="-334.5" font-family="Helvetica,sans-Serif" font-size="10.00">tds7_build_bulk_insert_stmt</text>
</a>
</g>
</g>
<!-- Node14&#45;&gt;Node23 -->
<g id="edge24" class="edge"><title>Node14&#45;&gt;Node23</title>
<path fill="none" stroke="midnightblue" d="M304.896,-232.512C310.716,-235.366 316.229,-238.82 321,-243 348.811,-267.365 328.383,-294.587 357,-318 361.678,-321.827 367.029,-324.896 372.672,-327.355"/>
<polygon fill="midnightblue" stroke="midnightblue" points="306.132,-229.233 295.562,-228.502 303.369,-235.665 306.132,-229.233"/>
</g>
<!-- Node16 -->
<g id="node16" class="node"><title>Node16</title>
<g id="a_node16"><a xlink:href="a00391.html#ga95e0fccedc459a4404f496eec74a369a" target="_top" xlink:title="tds_submit_query_params() sends a language string to the database server for processing. ">
<polygon fill="white" stroke="red" points="546,-342.5 546,-361.5 686,-361.5 686,-342.5 546,-342.5"/>
<text text-anchor="middle" x="616" y="-349.5" font-family="Helvetica,sans-Serif" font-size="10.00">tds_submit_query_params</text>
</a>
</g>
</g>
<!-- Node15&#45;&gt;Node16 -->
<g id="edge16" class="edge"><title>Node15&#45;&gt;Node16</title>
<path fill="none" stroke="midnightblue" d="M502.564,-264.282C504.807,-265.748 506.962,-267.318 509,-269 534.168,-289.776 519.253,-312.946 545,-333 549.967,-336.869 555.665,-339.951 561.617,-342.407"/>
<polygon fill="midnightblue" stroke="midnightblue" points="503.953,-261.045 493.533,-259.129 500.484,-267.125 503.953,-261.045"/>
</g>
<!-- Node17 -->
<g id="node17" class="node"><title>Node17</title>
<g id="a_node17"><a xlink:href="a00391.html#ga74eb08c3a1c85be8ac9db428842c8b9d" target="_top" xlink:title="tds_submit_prepare() creates a temporary stored procedure in the server. ">
<polygon fill="white" stroke="black" points="561,-266.5 561,-285.5 671,-285.5 671,-266.5 561,-266.5"/>
<text text-anchor="middle" x="616" y="-273.5" font-family="Helvetica,sans-Serif" font-size="10.00">tds_submit_prepare</text>
</a>
</g>
</g>
<!-- Node15&#45;&gt;Node17 -->
<g id="edge17" class="edge"><title>Node15&#45;&gt;Node17</title>
<path fill="none" stroke="midnightblue" d="M503.405,-256.271C522.586,-259.662 543.106,-263.289 561.251,-266.497"/>
<polygon fill="midnightblue" stroke="midnightblue" points="503.974,-252.817 493.517,-254.522 502.755,-259.71 503.974,-252.817"/>
</g>
<!-- Node18 -->
<g id="node18" class="node"><title>Node18</title>
<g id="a_node18"><a xlink:href="a00391.html#gae603aed795a4c5bb26ab159a11256996" target="_top" xlink:title="Submit a prepared query with parameters. ">
<polygon fill="white" stroke="black" points="555.5,-228.5 555.5,-247.5 676.5,-247.5 676.5,-228.5 555.5,-228.5"/>
<text text-anchor="middle" x="616" y="-235.5" font-family="Helvetica,sans-Serif" font-size="10.00">tds_submit_execdirect</text>
</a>
</g>
</g>
<!-- Node15&#45;&gt;Node18 -->
<g id="edge18" class="edge"><title>Node15&#45;&gt;Node18</title>
<path fill="none" stroke="midnightblue" d="M503.949,-241.681C520.952,-241.118 538.977,-240.52 555.447,-239.974"/>
<polygon fill="midnightblue" stroke="midnightblue" points="503.395,-238.198 493.517,-242.027 503.627,-245.194 503.395,-238.198"/>
</g>
<!-- Node19 -->
<g id="node19" class="node"><title>Node19</title>
<g id="a_node19"><a xlink:href="a00391.html#ga08877c101704bebe4fa57e0849dc272d" target="_top" xlink:title="tds71_submit_prepexec() creates a temporary stored procedure in the server. ">
<polygon fill="white" stroke="black" points="552,-304.5 552,-323.5 680,-323.5 680,-304.5 552,-304.5"/>
<text text-anchor="middle" x="616" y="-311.5" font-family="Helvetica,sans-Serif" font-size="10.00">tds71_submit_prepexec</text>
</a>
</g>
</g>
<!-- Node15&#45;&gt;Node19 -->
<g id="edge19" class="edge"><title>Node15&#45;&gt;Node19</title>
<path fill="none" stroke="midnightblue" d="M495.607,-262.822C500.209,-264.746 504.721,-266.807 509,-269 526.564,-278.002 527.188,-286.5 545,-295 552.955,-298.796 561.794,-301.937 570.438,-304.497"/>
<polygon fill="midnightblue" stroke="midnightblue" points="496.669,-259.479 486.083,-259.067 494.102,-265.991 496.669,-259.479"/>
</g>
<!-- Node20&#45;&gt;Node16 -->
<g id="edge21" class="edge"><title>Node20&#45;&gt;Node16</title>
<path fill="none" stroke="midnightblue" d="M490.695,-311.408C496.895,-313.567 503.095,-315.789 509,-318 525.233,-324.078 528.601,-327.385 545,-333 555.007,-336.427 565.984,-339.65 576.216,-342.435"/>
<polygon fill="midnightblue" stroke="midnightblue" points="491.589,-308.015 480.995,-308.079 489.317,-314.636 491.589,-308.015"/>
</g>
<!-- Node22 -->
<g id="node22" class="node"><title>Node22</title>
<g id="a_node22"><a xlink:href="a00391.html#ga5f071b94ad7889690762dc85646c74ab" target="_top" xlink:title="tds_submit_rpc() call a RPC from server. ">
<polygon fill="white" stroke="red" points="572.5,-190.5 572.5,-209.5 659.5,-209.5 659.5,-190.5 572.5,-190.5"/>
<text text-anchor="middle" x="616" y="-197.5" font-family="Helvetica,sans-Serif" font-size="10.00">tds_submit_rpc</text>
</a>
</g>
</g>
<!-- Node21&#45;&gt;Node22 -->
<g id="edge23" class="edge"><title>Node21&#45;&gt;Node22</title>
<path fill="none" stroke="midnightblue" d="M508.302,-200C530.09,-200 553.173,-200 572.275,-200"/>
<polygon fill="midnightblue" stroke="midnightblue" points="508.069,-196.5 498.069,-200 508.069,-203.5 508.069,-196.5"/>
</g>
<!-- Node24 -->
<g id="node24" class="node"><title>Node24</title>
<g id="a_node24"><a xlink:href="a00324.html#ab4d7e5309152f54613d52c8469a07fd8" target="_top" xlink:title="Prepare the query to be sent to server to request BCP information. ">
<polygon fill="white" stroke="red" points="547,-380.5 547,-399.5 685,-399.5 685,-380.5 547,-380.5"/>
<text text-anchor="middle" x="616" y="-387.5" font-family="Helvetica,sans-Serif" font-size="10.00">tds_bcp_start_insert_stmt</text>
</a>
</g>
</g>
<!-- Node23&#45;&gt;Node24 -->
<g id="edge25" class="edge"><title>Node23&#45;&gt;Node24</title>
<path fill="none" stroke="midnightblue" d="M486.068,-349.136C493.81,-351.245 501.652,-353.553 509,-356 525.445,-361.476 528.601,-365.385 545,-371 555.007,-374.427 565.984,-377.65 576.216,-380.435"/>
<polygon fill="midnightblue" stroke="midnightblue" points="486.923,-345.742 476.361,-346.578 485.139,-352.511 486.923,-345.742"/>
</g>
<!-- Node25&#45;&gt;Node21 -->
<g id="edge27" class="edge"><title>Node25&#45;&gt;Node21</title>
<path fill="none" stroke="midnightblue" d="M325.338,-189.016C339.463,-190.47 354.051,-191.973 367.732,-193.382"/>
<polygon fill="midnightblue" stroke="midnightblue" points="325.459,-185.51 315.153,-187.967 324.742,-192.473 325.459,-185.51"/>
</g>
<!-- Node26 -->
<g id="node26" class="node"><title>Node26</title>
<g id="a_node26"><a xlink:href="a00391.html#ga02c6ce3ff96369603a6ee4efee64caae" target="_top" xlink:title="Emulate prepared execute traslating to a normal language. ">
<polygon fill="white" stroke="black" points="357,-152.5 357,-171.5 509,-171.5 509,-152.5 357,-152.5"/>
<text text-anchor="middle" x="433" y="-159.5" font-family="Helvetica,sans-Serif" font-size="10.00">tds_send_emulated_execute</text>
</a>
</g>
</g>
<!-- Node25&#45;&gt;Node26 -->
<g id="edge28" class="edge"><title>Node25&#45;&gt;Node26</title>
<path fill="none" stroke="midnightblue" d="M325.133,-173.005C335.645,-171.923 346.416,-170.814 356.882,-169.736"/>
<polygon fill="midnightblue" stroke="midnightblue" points="324.742,-169.527 315.153,-174.033 325.459,-176.49 324.742,-169.527"/>
</g>
<!-- Node26&#45;&gt;Node18 -->
<g id="edge29" class="edge"><title>Node26&#45;&gt;Node18</title>
<path fill="none" stroke="midnightblue" d="M497.237,-175.18C501.324,-176.891 505.285,-178.822 509,-181 529.07,-192.766 525.031,-207.064 545,-219 551.485,-222.876 558.776,-225.979 566.138,-228.459"/>
<polygon fill="midnightblue" stroke="midnightblue" points="498.121,-171.775 487.528,-171.574 495.683,-178.337 498.121,-171.775"/>
</g>
<!-- Node27 -->
<g id="node27" class="node"><title>Node27</title>
<g id="a_node27"><a xlink:href="a00391.html#ga3e7b4793c6f799fbc6c174f673bb5b32" target="_top" xlink:title="tds_submit_execute() sends a previously prepared dynamic statement to the server. ...">
<polygon fill="white" stroke="black" points="561.5,-152.5 561.5,-171.5 670.5,-171.5 670.5,-152.5 561.5,-152.5"/>
<text text-anchor="middle" x="616" y="-159.5" font-family="Helvetica,sans-Serif" font-size="10.00">tds_submit_execute</text>
</a>
</g>
</g>
<!-- Node26&#45;&gt;Node27 -->
<g id="edge30" class="edge"><title>Node26&#45;&gt;Node27</title>
<path fill="none" stroke="midnightblue" d="M519.501,-162C533.733,-162 548.131,-162 561.28,-162"/>
<polygon fill="midnightblue" stroke="midnightblue" points="519.188,-158.5 509.188,-162 519.188,-165.5 519.188,-158.5"/>
</g>
<!-- Node32 -->
<g id="node32" class="node"><title>Node32</title>
<g id="a_node32"><a xlink:href="a00394.html#gacb3354443bcefe7a500a500a4904cc05" target="_top" xlink:title="process output parameters of a stored procedure. ">
<polygon fill="white" stroke="black" points="362,-76.5 362,-95.5 504,-95.5 504,-76.5 362,-76.5"/>
<text text-anchor="middle" x="433" y="-83.5" font-family="Helvetica,sans-Serif" font-size="10.00">tds_process_param_result</text>
</a>
</g>
</g>
<!-- Node31&#45;&gt;Node32 -->
<g id="edge35" class="edge"><title>Node31&#45;&gt;Node32</title>
<path fill="none" stroke="midnightblue" d="M295.091,-86C315.422,-86 339.568,-86 361.878,-86"/>
<polygon fill="midnightblue" stroke="midnightblue" points="294.836,-82.5001 284.836,-86 294.836,-89.5001 294.836,-82.5001"/>
</g>
<!-- Node33 -->
<g id="node33" class="node"><title>Node33</title>
<g id="a_node33"><a xlink:href="a00394.html#gabfc9de1d1fe718818caf63a4be4035a6" target="_top" xlink:title="process all streams. ">
<polygon fill="white" stroke="red" points="723,-76.5 723,-95.5 835,-95.5 835,-76.5 723,-76.5"/>
<text text-anchor="middle" x="779" y="-83.5" font-family="Helvetica,sans-Serif" font-size="10.00">tds_process_tokens</text>
</a>
</g>
</g>
<!-- Node32&#45;&gt;Node33 -->
<g id="edge36" class="edge"><title>Node32&#45;&gt;Node33</title>
<path fill="none" stroke="midnightblue" d="M514.098,-86C578.186,-86 666.372,-86 722.789,-86"/>
<polygon fill="midnightblue" stroke="midnightblue" points="514.028,-82.5001 504.028,-86 514.028,-89.5001 514.028,-82.5001"/>
</g>
<!-- Node34 -->
<g id="node34" class="node"><title>Node34</title>
<g id="a_node34"><a xlink:href="a00394.html#ga9fdef8228d29cab7fa9098f07fa73fba" target="_top" xlink:title="Process parameters from networks. ">
<polygon fill="white" stroke="red" points="545,-27 545,-57 687,-57 687,-27 545,-27"/>
<text text-anchor="start" x="553" y="-45" font-family="Helvetica,sans-Serif" font-size="10.00">tds_process_param_result</text>
<text text-anchor="middle" x="616" y="-34" font-family="Helvetica,sans-Serif" font-size="10.00">_tokens</text>
</a>
</g>
</g>
<!-- Node32&#45;&gt;Node34 -->
<g id="edge38" class="edge"><title>Node32&#45;&gt;Node34</title>
<path fill="none" stroke="midnightblue" d="M483.179,-74.045C504.71,-68.8108 530.215,-62.6107 553.027,-57.0654"/>
<polygon fill="midnightblue" stroke="midnightblue" points="482.165,-70.6895 473.274,-76.4527 483.818,-77.4914 482.165,-70.6895"/>
</g>
<!-- Node33&#45;&gt;Node28 -->
<g id="edge37" class="edge"><title>Node33&#45;&gt;Node28</title>
<path fill="none" stroke="midnightblue" d="M845.368,-94.2524C853.807,-95.3179 862.416,-96.4046 870.758,-97.4579"/>
<polygon fill="midnightblue" stroke="midnightblue" points="845.546,-90.7472 835.186,-92.967 844.669,-97.6921 845.546,-90.7472"/>
</g>
<!-- Node34&#45;&gt;Node33 -->
<g id="edge39" class="edge"><title>Node34&#45;&gt;Node33</title>
<path fill="none" stroke="midnightblue" d="M681.755,-59.6969C702.66,-65.4101 725.039,-71.5262 742.952,-76.4217"/>
<polygon fill="midnightblue" stroke="midnightblue" points="682.526,-56.2794 671.957,-57.0192 680.68,-63.0317 682.526,-56.2794"/>
</g>
</g>
</svg>
