<?xml version="1.0" encoding="UTF-8" standalone="no"?>
<!DOCTYPE svg PUBLIC "-//W3C//DTD SVG 1.1//EN"
 "http://www.w3.org/Graphics/SVG/1.1/DTD/svg11.dtd">
<!-- Generated by graphviz version 2.38.0 (20140413.2041)
 -->
<!-- Title: dbpivot Pages: 1 -->
<svg width="571pt" height="384pt"
 viewBox="0.00 0.00 571.00 383.64" xmlns="http://www.w3.org/2000/svg" xmlns:xlink="http://www.w3.org/1999/xlink">
<g id="graph0" class="graph" transform="scale(1 1) rotate(0) translate(4 379.638)">
<title>dbpivot</title>
<polygon fill="white" stroke="none" points="-4,4 -4,-379.638 567,-379.638 567,4 -4,4"/>
<!-- Node1 -->
<g id="node1" class="node"><title>Node1</title>
<polygon fill="#bfbfbf" stroke="black" points="0,-285.5 0,-304.5 50,-304.5 50,-285.5 0,-285.5"/>
<text text-anchor="middle" x="25" y="-292.5" font-family="Helvetica,sans-Serif" font-size="10.00">dbpivot</text>
</g>
<!-- Node2 -->
<g id="node2" class="node"><title>Node2</title>
<g id="a_node2"><a xlink:href="a00219.html#ab45c291105027e69836002e1dd586141" target="_top" xlink:title="Write a message to the debug log. ">
<polygon fill="white" stroke="black" points="486,-247.5 486,-266.5 563,-266.5 563,-247.5 486,-247.5"/>
<text text-anchor="middle" x="524.5" y="-254.5" font-family="Helvetica,sans-Serif" font-size="10.00">tdsdump_log</text>
</a>
</g>
</g>
<!-- Node1&#45;&gt;Node2 -->
<g id="edge1" class="edge"><title>Node1&#45;&gt;Node2</title>
<path fill="none" stroke="midnightblue" d="M30.217,-304.69C38.2339,-321.741 57.4606,-356.658 86,-371 99.525,-377.797 311.019,-375.378 326,-374 381.816,-368.867 402.078,-380.072 450,-351 480.104,-332.737 502.634,-297.289 514.376,-275.525"/>
<polygon fill="midnightblue" stroke="midnightblue" points="517.508,-277.089 519.001,-266.6 511.293,-273.868 517.508,-277.089"/>
</g>
<!-- Node3 -->
<g id="node3" class="node"><title>Node3</title>
<g id="a_node3"><a xlink:href="a00376.html#ga636e6f1b64743f3cf22158a56eef371f" target="_top" xlink:title="Get the datatype of a regular result set column. ">
<polygon fill="white" stroke="black" points="89,-342.5 89,-361.5 151,-361.5 151,-342.5 89,-342.5"/>
<text text-anchor="middle" x="120" y="-349.5" font-family="Helvetica,sans-Serif" font-size="10.00">dbcoltype</text>
</a>
</g>
</g>
<!-- Node1&#45;&gt;Node3 -->
<g id="edge2" class="edge"><title>Node1&#45;&gt;Node3</title>
<path fill="none" stroke="midnightblue" d="M40.6864,-304.545C52.7677,-312.337 70.3809,-323.563 86,-333 88.3588,-334.425 90.8245,-335.89 93.2997,-337.344"/>
<polygon fill="midnightblue" stroke="midnightblue" points="91.7261,-340.477 102.132,-342.47 95.2401,-334.423 91.7261,-340.477"/>
</g>
<!-- Node6 -->
<g id="node6" class="node"><title>Node6</title>
<g id="a_node6"><a xlink:href="a00376.html#ga89fc5589b4bf41932324d2cfc6ad6433" target="_top" xlink:title="Get size of a regular result column. ">
<polygon fill="white" stroke="black" points="92,-304.5 92,-323.5 148,-323.5 148,-304.5 92,-304.5"/>
<text text-anchor="middle" x="120" y="-311.5" font-family="Helvetica,sans-Serif" font-size="10.00">dbcollen</text>
</a>
</g>
</g>
<!-- Node1&#45;&gt;Node6 -->
<g id="edge7" class="edge"><title>Node1&#45;&gt;Node6</title>
<path fill="none" stroke="midnightblue" d="M50.4347,-299.992C60.0595,-301.958 71.3262,-304.26 81.9135,-306.423"/>
<polygon fill="midnightblue" stroke="midnightblue" points="81.2819,-309.866 91.7801,-308.439 82.6831,-303.008 81.2819,-309.866"/>
</g>
<!-- Node7 -->
<g id="node7" class="node"><title>Node7</title>
<g id="a_node7"><a xlink:href="a00376.html#ga873bc0f4663165e711655ade1dfae795" target="_top" xlink:title="Tie a host variable to a resultset column. ">
<polygon fill="white" stroke="black" points="96.5,-114.5 96.5,-133.5 143.5,-133.5 143.5,-114.5 96.5,-114.5"/>
<text text-anchor="middle" x="120" y="-121.5" font-family="Helvetica,sans-Serif" font-size="10.00">dbbind</text>
</a>
</g>
</g>
<!-- Node1&#45;&gt;Node7 -->
<g id="edge10" class="edge"><title>Node1&#45;&gt;Node7</title>
<path fill="none" stroke="midnightblue" d="M31.2665,-285.316C46.2289,-257.805 89.178,-178.834 108.89,-142.589"/>
<polygon fill="midnightblue" stroke="midnightblue" points="112.088,-144.035 113.791,-133.577 105.939,-140.69 112.088,-144.035"/>
</g>
<!-- Node12 -->
<g id="node12" class="node"><title>Node12</title>
<g id="a_node12"><a xlink:href="a00376.html#ga85dcc40c3615f94be96b09b2ec043533" target="_top" xlink:title="Tie a null&#45;indicator to a regular result column. ">
<polygon fill="white" stroke="black" points="88.5,-266.5 88.5,-285.5 151.5,-285.5 151.5,-266.5 88.5,-266.5"/>
<text text-anchor="middle" x="120" y="-273.5" font-family="Helvetica,sans-Serif" font-size="10.00">dbnullbind</text>
</a>
</g>
</g>
<!-- Node1&#45;&gt;Node12 -->
<g id="edge19" class="edge"><title>Node1&#45;&gt;Node12</title>
<path fill="none" stroke="midnightblue" d="M50.4347,-290.008C59.0622,-288.245 69.009,-286.213 78.6031,-284.253"/>
<polygon fill="midnightblue" stroke="midnightblue" points="79.3064,-287.682 88.4034,-282.251 77.9052,-280.823 79.3064,-287.682"/>
</g>
<!-- Node13 -->
<g id="node13" class="node"><title>Node13</title>
<g id="a_node13"><a xlink:href="a00376.html#gad06f5deddac18604dfa858b2580e232f" target="_top" xlink:title="Return name of a regular result column. ">
<polygon fill="white" stroke="black" points="86,-228.5 86,-247.5 154,-247.5 154,-228.5 86,-228.5"/>
<text text-anchor="middle" x="120" y="-235.5" font-family="Helvetica,sans-Serif" font-size="10.00">dbcolname</text>
</a>
</g>
</g>
<!-- Node1&#45;&gt;Node13 -->
<g id="edge22" class="edge"><title>Node1&#45;&gt;Node13</title>
<path fill="none" stroke="midnightblue" d="M40.6864,-285.455C52.7677,-277.663 70.3809,-266.437 86,-257 88.3588,-255.575 90.8245,-254.11 93.2997,-252.656"/>
<polygon fill="midnightblue" stroke="midnightblue" points="95.2401,-255.577 102.132,-247.53 91.7261,-249.523 95.2401,-255.577"/>
</g>
<!-- Node3&#45;&gt;Node2 -->
<g id="edge3" class="edge"><title>Node3&#45;&gt;Node2</title>
<path fill="none" stroke="midnightblue" d="M151.184,-356.522C211.675,-364.103 350.466,-373.941 450,-323 473.444,-311.001 495.209,-289.649 508.874,-274.482"/>
<polygon fill="midnightblue" stroke="midnightblue" points="511.649,-276.626 515.591,-266.791 506.377,-272.021 511.649,-276.626"/>
</g>
<!-- Node4 -->
<g id="node4" class="node"><title>Node4</title>
<g id="a_node4"><a xlink:href="a00382.html#ga0fc84c7073ed4876d9596c3eccac3609" target="_top" xlink:title="Sanity checks for column&#45;oriented functions. ">
<polygon fill="white" stroke="black" points="231,-304.5 231,-323.5 285,-323.5 285,-304.5 231,-304.5"/>
<text text-anchor="middle" x="258" y="-311.5" font-family="Helvetica,sans-Serif" font-size="10.00">dbcolptr</text>
</a>
</g>
</g>
<!-- Node3&#45;&gt;Node4 -->
<g id="edge4" class="edge"><title>Node3&#45;&gt;Node4</title>
<path fill="none" stroke="midnightblue" d="M151.183,-343.567C171.72,-337.828 199.005,-330.204 220.725,-324.136"/>
<polygon fill="midnightblue" stroke="midnightblue" points="221.887,-327.445 230.576,-321.383 220.003,-320.703 221.887,-327.445"/>
</g>
<!-- Node5 -->
<g id="node5" class="node"><title>Node5</title>
<g id="a_node5"><a xlink:href="a00382.html#ga302a4ce6559b81808e3be51615cd1b67" target="_top" xlink:title="Call client&#45;installed error handler. ">
<polygon fill="white" stroke="red" points="377.5,-247.5 377.5,-266.5 434.5,-266.5 434.5,-247.5 377.5,-247.5"/>
<text text-anchor="middle" x="406" y="-254.5" font-family="Helvetica,sans-Serif" font-size="10.00">dbperror</text>
</a>
</g>
</g>
<!-- Node4&#45;&gt;Node5 -->
<g id="edge5" class="edge"><title>Node4&#45;&gt;Node5</title>
<path fill="none" stroke="midnightblue" d="M283.437,-304.459C307.44,-295.088 344.263,-280.712 371.093,-270.238"/>
<polygon fill="midnightblue" stroke="midnightblue" points="372.441,-273.469 380.483,-266.572 369.895,-266.948 372.441,-273.469"/>
</g>
<!-- Node5&#45;&gt;Node2 -->
<g id="edge6" class="edge"><title>Node5&#45;&gt;Node2</title>
<path fill="none" stroke="midnightblue" d="M434.609,-257C446.954,-257 461.866,-257 475.919,-257"/>
<polygon fill="midnightblue" stroke="midnightblue" points="475.952,-260.5 485.952,-257 475.952,-253.5 475.952,-260.5"/>
</g>
<!-- Node6&#45;&gt;Node2 -->
<g id="edge8" class="edge"><title>Node6&#45;&gt;Node2</title>
<path fill="none" stroke="midnightblue" d="M148.181,-323.301C160.745,-327.127 175.963,-331.103 190,-333 249.9,-341.096 266.29,-342.392 326,-333 390.3,-322.886 460.193,-290.371 497.142,-271.304"/>
<polygon fill="midnightblue" stroke="midnightblue" points="498.998,-274.283 506.23,-266.541 495.748,-268.083 498.998,-274.283"/>
</g>
<!-- Node6&#45;&gt;Node4 -->
<g id="edge9" class="edge"><title>Node6&#45;&gt;Node4</title>
<path fill="none" stroke="midnightblue" d="M148.195,-314C168.939,-314 197.724,-314 220.476,-314"/>
<polygon fill="midnightblue" stroke="midnightblue" points="220.777,-317.5 230.777,-314 220.777,-310.5 220.777,-317.5"/>
</g>
<!-- Node7&#45;&gt;Node2 -->
<g id="edge11" class="edge"><title>Node7&#45;&gt;Node2</title>
<path fill="none" stroke="midnightblue" d="M143.783,-122.134C182.317,-119.723 262.375,-117.953 326,-138 397.5,-160.528 470.077,-213.774 503.896,-240.743"/>
<polygon fill="midnightblue" stroke="midnightblue" points="502.029,-243.735 512.005,-247.303 506.431,-238.292 502.029,-243.735"/>
</g>
<!-- Node7&#45;&gt;Node5 -->
<g id="edge12" class="edge"><title>Node7&#45;&gt;Node5</title>
<path fill="none" stroke="midnightblue" d="M143.612,-128.813C190.037,-138.932 294.398,-162.964 326,-181 352.321,-196.022 376.464,-221.763 390.955,-239.074"/>
<polygon fill="midnightblue" stroke="midnightblue" points="388.587,-241.709 397.613,-247.257 394.016,-237.292 388.587,-241.709"/>
</g>
<!-- Node8 -->
<g id="node8" class="node"><title>Node8</title>
<g id="a_node8"><a xlink:href="a00219.html#a0383d5dcb629582266a442f0f0dbd13a" target="_top" xlink:title="Return type suitable for conversions (convert all nullable types to fixed type) ">
<polygon fill="white" stroke="black" points="190,-76.5 190,-95.5 326,-95.5 326,-76.5 190,-76.5"/>
<text text-anchor="middle" x="258" y="-83.5" font-family="Helvetica,sans-Serif" font-size="10.00">tds_get_conversion_type</text>
</a>
</g>
</g>
<!-- Node7&#45;&gt;Node8 -->
<g id="edge13" class="edge"><title>Node7&#45;&gt;Node8</title>
<path fill="none" stroke="midnightblue" d="M143.763,-117.64C162.602,-112.376 189.918,-104.743 213.001,-98.2938"/>
<polygon fill="midnightblue" stroke="midnightblue" points="214.24,-101.582 222.93,-95.5197 212.357,-94.8399 214.24,-101.582"/>
</g>
<!-- Node9 -->
<g id="node9" class="node"><title>Node9</title>
<g id="a_node9"><a xlink:href="a00376.html#gaaf8349999c16b3c36caf5947747a2915" target="_top" xlink:title="Test whether or not a datatype can be converted to another datatype. ">
<polygon fill="white" stroke="black" points="219.5,-38.5 219.5,-57.5 296.5,-57.5 296.5,-38.5 219.5,-38.5"/>
<text text-anchor="middle" x="258" y="-45.5" font-family="Helvetica,sans-Serif" font-size="10.00">dbwillconvert</text>
</a>
</g>
</g>
<!-- Node7&#45;&gt;Node9 -->
<g id="edge14" class="edge"><title>Node7&#45;&gt;Node9</title>
<path fill="none" stroke="midnightblue" d="M130.335,-114.07C142.788,-101.383 166.062,-79.5658 190,-67 196.114,-63.7907 202.834,-61.0678 209.586,-58.7739"/>
<polygon fill="midnightblue" stroke="midnightblue" points="210.924,-62.0235 219.434,-55.7134 208.846,-55.3388 210.924,-62.0235"/>
</g>
<!-- Node9&#45;&gt;Node2 -->
<g id="edge15" class="edge"><title>Node9&#45;&gt;Node2</title>
<path fill="none" stroke="midnightblue" d="M296.545,-56.4501C345.313,-68.045 426.945,-89.7595 450,-110 489.705,-144.857 510.425,-206.197 518.852,-237.472"/>
<polygon fill="midnightblue" stroke="midnightblue" points="515.467,-238.363 521.331,-247.188 522.25,-236.633 515.467,-238.363"/>
</g>
<!-- Node10 -->
<g id="node10" class="node"><title>Node10</title>
<g id="a_node10"><a xlink:href="a00266.html#ac7a199aaeb82935f6d1dda2be551a089" target="_top" xlink:title="Returns type in string. ">
<polygon fill="white" stroke="black" points="362,-38.5 362,-57.5 450,-57.5 450,-38.5 362,-38.5"/>
<text text-anchor="middle" x="406" y="-45.5" font-family="Helvetica,sans-Serif" font-size="10.00">tds_prdatatype</text>
</a>
</g>
</g>
<!-- Node9&#45;&gt;Node10 -->
<g id="edge16" class="edge"><title>Node9&#45;&gt;Node10</title>
<path fill="none" stroke="midnightblue" d="M296.599,-48C313.345,-48 333.37,-48 351.627,-48"/>
<polygon fill="midnightblue" stroke="midnightblue" points="351.843,-51.5001 361.843,-48 351.843,-44.5001 351.843,-51.5001"/>
</g>
<!-- Node11 -->
<g id="node11" class="node"><title>Node11</title>
<g id="a_node11"><a xlink:href="a00388.html#ga80487b313213f60d8be71a50a002bb2c" target="_top" xlink:title="Test if a conversion is possible. ">
<polygon fill="white" stroke="black" points="363,-0.5 363,-19.5 449,-19.5 449,-0.5 363,-0.5"/>
<text text-anchor="middle" x="406" y="-7.5" font-family="Helvetica,sans-Serif" font-size="10.00">tds_willconvert</text>
</a>
</g>
</g>
<!-- Node9&#45;&gt;Node11 -->
<g id="edge17" class="edge"><title>Node9&#45;&gt;Node11</title>
<path fill="none" stroke="midnightblue" d="M295.842,-38.411C314.848,-33.4642 338.229,-27.3789 358.469,-22.1108"/>
<polygon fill="midnightblue" stroke="midnightblue" points="359.627,-25.4261 368.423,-19.5201 357.864,-18.6518 359.627,-25.4261"/>
</g>
<!-- Node11&#45;&gt;Node2 -->
<g id="edge18" class="edge"><title>Node11&#45;&gt;Node2</title>
<path fill="none" stroke="midnightblue" d="M437.82,-19.7193C442.345,-22.1874 446.613,-25.2404 450,-29 505.45,-90.5522 519.109,-194.362 522.44,-237.398"/>
<polygon fill="midnightblue" stroke="midnightblue" points="518.95,-237.662 523.108,-247.406 525.934,-237.195 518.95,-237.662"/>
</g>
<!-- Node12&#45;&gt;Node2 -->
<g id="edge20" class="edge"><title>Node12&#45;&gt;Node2</title>
<path fill="none" stroke="midnightblue" d="M151.552,-278.56C209.861,-282.881 340.926,-289.87 450,-276 461.211,-274.574 473.159,-271.972 484.091,-269.141"/>
<polygon fill="midnightblue" stroke="midnightblue" points="485.063,-272.504 493.795,-266.504 483.227,-265.749 485.063,-272.504"/>
</g>
<!-- Node12&#45;&gt;Node4 -->
<g id="edge21" class="edge"><title>Node12&#45;&gt;Node4</title>
<path fill="none" stroke="midnightblue" d="M151.521,-284.528C172.074,-290.271 199.27,-297.869 220.899,-303.913"/>
<polygon fill="midnightblue" stroke="midnightblue" points="220.134,-307.333 230.707,-306.654 222.018,-300.592 220.134,-307.333"/>
</g>
<!-- Node13&#45;&gt;Node2 -->
<g id="edge23" class="edge"><title>Node13&#45;&gt;Node2</title>
<path fill="none" stroke="midnightblue" d="M154.331,-235.236C213.941,-230.906 342.626,-224.346 450,-238 461.211,-239.426 473.159,-242.028 484.091,-244.859"/>
<polygon fill="midnightblue" stroke="midnightblue" points="483.227,-248.251 493.795,-247.496 485.063,-241.496 483.227,-248.251"/>
</g>
<!-- Node13&#45;&gt;Node4 -->
<g id="edge24" class="edge"><title>Node13&#45;&gt;Node4</title>
<path fill="none" stroke="midnightblue" d="M138.224,-247.625C161.626,-260.703 203.666,-284.196 230.939,-299.437"/>
<polygon fill="midnightblue" stroke="midnightblue" points="229.479,-302.63 239.915,-304.453 232.893,-296.519 229.479,-302.63"/>
</g>
<!-- Node14 -->
<g id="node14" class="node"><title>Node14</title>
<g id="a_node14"><a xlink:href="a00393.html#ga8fa35e3ff06ef0b7d0d642cf50282ab8" target="_top" xlink:title="Returns a buffer to edit the string. ">
<polygon fill="white" stroke="black" points="221,-190.5 221,-209.5 295,-209.5 295,-190.5 221,-190.5"/>
<text text-anchor="middle" x="258" y="-197.5" font-family="Helvetica,sans-Serif" font-size="10.00">tds_dstr_buf</text>
</a>
</g>
</g>
<!-- Node13&#45;&gt;Node14 -->
<g id="edge25" class="edge"><title>Node13&#45;&gt;Node14</title>
<path fill="none" stroke="midnightblue" d="M154.269,-228.704C171.948,-223.764 193.908,-217.629 212.981,-212.299"/>
<polygon fill="midnightblue" stroke="midnightblue" points="213.965,-215.659 222.654,-209.597 212.081,-208.917 213.965,-215.659"/>
</g>
</g>
</svg>
