<?xml version="1.0" encoding="UTF-8" standalone="no"?>
<!DOCTYPE svg PUBLIC "-//W3C//DTD SVG 1.1//EN"
 "http://www.w3.org/Graphics/SVG/1.1/DTD/svg11.dtd">
<!-- Generated by graphviz version 2.38.0 (20140413.2041)
 -->
<!-- Title: tds_setup_socket Pages: 1 -->
<svg width="293pt" height="104pt"
 viewBox="0.00 0.00 293.00 104.00" xmlns="http://www.w3.org/2000/svg" xmlns:xlink="http://www.w3.org/1999/xlink">
<g id="graph0" class="graph" transform="scale(1 1) rotate(0) translate(4 100)">
<title>tds_setup_socket</title>
<polygon fill="white" stroke="none" points="-4,4 -4,-100 289,-100 289,4 -4,4"/>
<!-- Node1 -->
<g id="node1" class="node"><title>Node1</title>
<polygon fill="#bfbfbf" stroke="black" points="0,-38.5 0,-57.5 99,-57.5 99,-38.5 0,-38.5"/>
<text text-anchor="middle" x="49.5" y="-45.5" font-family="Helvetica,sans-Serif" font-size="10.00">tds_setup_socket</text>
</g>
<!-- Node2 -->
<g id="node2" class="node"><title>Node2</title>
<g id="a_node2"><a xlink:href="a00219.html#ab45c291105027e69836002e1dd586141" target="_top" xlink:title="Write a message to the debug log. ">
<polygon fill="white" stroke="black" points="171.5,-76.5 171.5,-95.5 248.5,-95.5 248.5,-76.5 171.5,-76.5"/>
<text text-anchor="middle" x="210" y="-83.5" font-family="Helvetica,sans-Serif" font-size="10.00">tdsdump_log</text>
</a>
</g>
</g>
<!-- Node1&#45;&gt;Node2 -->
<g id="edge1" class="edge"><title>Node1&#45;&gt;Node2</title>
<path fill="none" stroke="midnightblue" d="M90.4962,-57.589C112.145,-62.7793 139.023,-69.2232 161.705,-74.6612"/>
<polygon fill="midnightblue" stroke="midnightblue" points="160.929,-78.0741 171.469,-77.0021 162.561,-71.267 160.929,-78.0741"/>
</g>
<!-- Node3 -->
<g id="node3" class="node"><title>Node3</title>
<g id="a_node3"><a xlink:href="a00392.html#ga2a7429ff031f77023d1bf31339a266db" target="_top" xlink:title="Set socket to non&#45;blocking. ">
<polygon fill="white" stroke="black" points="135,-38.5 135,-57.5 285,-57.5 285,-38.5 135,-38.5"/>
<text text-anchor="middle" x="210" y="-45.5" font-family="Helvetica,sans-Serif" font-size="10.00">tds_socket_set_nonblocking</text>
</a>
</g>
</g>
<!-- Node1&#45;&gt;Node3 -->
<g id="edge2" class="edge"><title>Node1&#45;&gt;Node3</title>
<path fill="none" stroke="midnightblue" d="M99.3485,-48C107.455,-48 116.062,-48 124.75,-48"/>
<polygon fill="midnightblue" stroke="midnightblue" points="124.96,-51.5001 134.96,-48 124.96,-44.5001 124.96,-51.5001"/>
</g>
<!-- Node4 -->
<g id="node4" class="node"><title>Node4</title>
<g id="a_node4"><a xlink:href="a00219.html#a79449d2f35a8acc8ed0585044f75524d" target="_top" xlink:title="Dump the contents of data into the log file in a human readable format. ">
<polygon fill="white" stroke="black" points="156.5,-0.5 156.5,-19.5 263.5,-19.5 263.5,-0.5 156.5,-0.5"/>
<text text-anchor="middle" x="210" y="-7.5" font-family="Helvetica,sans-Serif" font-size="10.00">tdsdump_dump_buf</text>
</a>
</g>
</g>
<!-- Node1&#45;&gt;Node4 -->
<g id="edge3" class="edge"><title>Node1&#45;&gt;Node4</title>
<path fill="none" stroke="midnightblue" d="M90.4962,-38.411C111.412,-33.3965 137.208,-27.2119 159.386,-21.8947"/>
<polygon fill="midnightblue" stroke="midnightblue" points="160.383,-25.2551 169.291,-19.5201 158.751,-18.448 160.383,-25.2551"/>
</g>
</g>
</svg>
