<?xml version="1.0" encoding="UTF-8" standalone="no"?>
<!DOCTYPE svg PUBLIC "-//W3C//DTD SVG 1.1//EN"
 "http://www.w3.org/Graphics/SVG/1.1/DTD/svg11.dtd">
<!-- Generated by graphviz version 2.38.0 (20140413.2041)
 -->
<!-- Title: tds_read_interfaces Pages: 1 -->
<svg width="530pt" height="195pt"
 viewBox="0.00 0.00 530.00 195.32" xmlns="http://www.w3.org/2000/svg" xmlns:xlink="http://www.w3.org/1999/xlink">
<g id="graph0" class="graph" transform="scale(1 1) rotate(0) translate(4 191.319)">
<title>tds_read_interfaces</title>
<polygon fill="white" stroke="none" points="-4,4 -4,-191.319 526,-191.319 526,4 -4,4"/>
<!-- Node1 -->
<g id="node1" class="node"><title>Node1</title>
<polygon fill="#bfbfbf" stroke="black" points="0,-76.5 0,-95.5 111,-95.5 111,-76.5 0,-76.5"/>
<text text-anchor="middle" x="55.5" y="-83.5" font-family="Helvetica,sans-Serif" font-size="10.00">tds_read_interfaces</text>
</g>
<!-- Node2 -->
<g id="node2" class="node"><title>Node2</title>
<g id="a_node2"><a xlink:href="a00219.html#ab45c291105027e69836002e1dd586141" target="_top" xlink:title="Write a message to the debug log. ">
<polygon fill="white" stroke="black" points="439,-152.5 439,-171.5 516,-171.5 516,-152.5 439,-152.5"/>
<text text-anchor="middle" x="477.5" y="-159.5" font-family="Helvetica,sans-Serif" font-size="10.00">tdsdump_log</text>
</a>
</g>
</g>
<!-- Node1&#45;&gt;Node2 -->
<g id="edge1" class="edge"><title>Node1&#45;&gt;Node2</title>
<path fill="none" stroke="midnightblue" d="M68.9716,-95.676C85.7977,-108.29 117.115,-130.241 147,-143 250.361,-187.13 285.385,-194.152 397,-181 409.332,-179.547 422.521,-176.867 434.541,-173.97"/>
<polygon fill="midnightblue" stroke="midnightblue" points="435.477,-177.343 444.319,-171.506 433.767,-170.556 435.477,-177.343"/>
</g>
<!-- Node3 -->
<g id="node3" class="node"><title>Node3</title>
<g id="a_node3"><a xlink:href="a00387.html#gaca20b6e5f5a5ac1727126712dd39564b" target="_top" xlink:title="Open and read the file &#39;file&#39; searching for a logical server by the name of &#39;host&#39;. ">
<polygon fill="white" stroke="black" points="147,-114.5 147,-133.5 263,-133.5 263,-114.5 147,-114.5"/>
<text text-anchor="middle" x="205" y="-121.5" font-family="Helvetica,sans-Serif" font-size="10.00">search_interface_file</text>
</a>
</g>
</g>
<!-- Node1&#45;&gt;Node3 -->
<g id="edge2" class="edge"><title>Node1&#45;&gt;Node3</title>
<path fill="none" stroke="midnightblue" d="M93.7205,-95.589C113.009,-100.558 136.758,-106.677 157.271,-111.961"/>
<polygon fill="midnightblue" stroke="midnightblue" points="156.49,-115.374 167.047,-114.48 158.237,-108.596 156.49,-115.374"/>
</g>
<!-- Node4 -->
<g id="node4" class="node"><title>Node4</title>
<g id="a_node4"><a xlink:href="a00393.html#gad96366d9fa93bfc283cef1299fbe97ab" target="_top" xlink:title="copy a string from another ">
<polygon fill="white" stroke="black" points="306.5,-76.5 306.5,-95.5 389.5,-95.5 389.5,-76.5 306.5,-76.5"/>
<text text-anchor="middle" x="348" y="-83.5" font-family="Helvetica,sans-Serif" font-size="10.00">tds_dstr_copy</text>
</a>
</g>
</g>
<!-- Node1&#45;&gt;Node4 -->
<g id="edge11" class="edge"><title>Node1&#45;&gt;Node4</title>
<path fill="none" stroke="midnightblue" d="M111.141,-86C164.189,-86 244.085,-86 295.898,-86"/>
<polygon fill="midnightblue" stroke="midnightblue" points="296.189,-89.5001 306.189,-86 296.189,-82.5001 296.189,-89.5001"/>
</g>
<!-- Node6 -->
<g id="node6" class="node"><title>Node6</title>
<g id="a_node6"><a xlink:href="a00387.html#ga45281d1cb2ac649db65d80bb3ff06b66" target="_top" xlink:title="Given a portname lookup the port. ">
<polygon fill="white" stroke="black" points="302,-38.5 302,-57.5 394,-57.5 394,-38.5 302,-38.5"/>
<text text-anchor="middle" x="348" y="-45.5" font-family="Helvetica,sans-Serif" font-size="10.00">tds_lookup_port</text>
</a>
</g>
</g>
<!-- Node1&#45;&gt;Node6 -->
<g id="edge10" class="edge"><title>Node1&#45;&gt;Node6</title>
<path fill="none" stroke="midnightblue" d="M111.141,-78.8525C162.759,-72.1003 239.797,-62.0231 291.647,-55.2406"/>
<polygon fill="midnightblue" stroke="midnightblue" points="292.205,-58.6976 301.667,-53.93 291.297,-51.7567 292.205,-58.6976"/>
</g>
<!-- Node8 -->
<g id="node8" class="node"><title>Node8</title>
<g id="a_node8"><a xlink:href="a00387.html#gaf49eca946d1b2457e189de7207e3670c" target="_top" xlink:title="Return filename from HOME directory. ">
<polygon fill="white" stroke="black" points="153,-0.5 153,-19.5 257,-19.5 257,-0.5 153,-0.5"/>
<text text-anchor="middle" x="205" y="-7.5" font-family="Helvetica,sans-Serif" font-size="10.00">tds_get_home_file</text>
</a>
</g>
</g>
<!-- Node1&#45;&gt;Node8 -->
<g id="edge9" class="edge"><title>Node1&#45;&gt;Node8</title>
<path fill="none" stroke="midnightblue" d="M71.8773,-76.3866C89.6336,-65.4704 119.884,-47.4352 147,-34 154.374,-30.3465 162.441,-26.7296 170.126,-23.4547"/>
<polygon fill="midnightblue" stroke="midnightblue" points="171.693,-26.5932 179.574,-19.5124 168.998,-20.133 171.693,-26.5932"/>
</g>
<!-- Node3&#45;&gt;Node2 -->
<g id="edge3" class="edge"><title>Node3&#45;&gt;Node2</title>
<path fill="none" stroke="midnightblue" d="M263.1,-127.649C301.198,-130.581 352.31,-135.472 397,-143 408.142,-144.877 420.045,-147.424 431.156,-150.044"/>
<polygon fill="midnightblue" stroke="midnightblue" points="430.55,-153.498 441.093,-152.452 432.199,-146.695 430.55,-153.498"/>
</g>
<!-- Node3&#45;&gt;Node4 -->
<g id="edge4" class="edge"><title>Node3&#45;&gt;Node4</title>
<path fill="none" stroke="midnightblue" d="M241.58,-114.411C259.782,-109.506 282.138,-103.48 301.572,-98.2429"/>
<polygon fill="midnightblue" stroke="midnightblue" points="302.686,-101.568 311.431,-95.5859 300.865,-94.8088 302.686,-101.568"/>
</g>
<!-- Node3&#45;&gt;Node6 -->
<g id="edge6" class="edge"><title>Node3&#45;&gt;Node6</title>
<path fill="none" stroke="midnightblue" d="M220.057,-114.319C237.897,-102.285 269.863,-81.5588 299,-67 302.833,-65.0846 306.909,-63.222 311.003,-61.4591"/>
<polygon fill="midnightblue" stroke="midnightblue" points="312.573,-64.5977 320.483,-57.5492 309.904,-58.1265 312.573,-64.5977"/>
</g>
<!-- Node7 -->
<g id="node7" class="node"><title>Node7</title>
<g id="a_node7"><a xlink:href="a00387.html#gade94d7e89ba1f668c82be0b00a7f5cd7" target="_top" xlink:title="Set TDS version from given string. ">
<polygon fill="white" stroke="black" points="299,-152.5 299,-171.5 397,-171.5 397,-152.5 299,-152.5"/>
<text text-anchor="middle" x="348" y="-159.5" font-family="Helvetica,sans-Serif" font-size="10.00">tds_config_verstr</text>
</a>
</g>
</g>
<!-- Node3&#45;&gt;Node7 -->
<g id="edge7" class="edge"><title>Node3&#45;&gt;Node7</title>
<path fill="none" stroke="midnightblue" d="M241.58,-133.589C259.782,-138.494 282.138,-144.52 301.572,-149.757"/>
<polygon fill="midnightblue" stroke="midnightblue" points="300.865,-153.191 311.431,-152.414 302.686,-146.432 300.865,-153.191"/>
</g>
<!-- Node5 -->
<g id="node5" class="node"><title>Node5</title>
<g id="a_node5"><a xlink:href="a00393.html#ga656718f240d7403f986ae887d84a6ca1" target="_top" xlink:title="Set string to a given buffer of characters. ">
<polygon fill="white" stroke="black" points="433,-76.5 433,-95.5 522,-95.5 522,-76.5 433,-76.5"/>
<text text-anchor="middle" x="477.5" y="-83.5" font-family="Helvetica,sans-Serif" font-size="10.00">tds_dstr_copyn</text>
</a>
</g>
</g>
<!-- Node4&#45;&gt;Node5 -->
<g id="edge5" class="edge"><title>Node4&#45;&gt;Node5</title>
<path fill="none" stroke="midnightblue" d="M389.692,-86C400.075,-86 411.401,-86 422.342,-86"/>
<polygon fill="midnightblue" stroke="midnightblue" points="422.669,-89.5001 432.669,-86 422.669,-82.5001 422.669,-89.5001"/>
</g>
<!-- Node7&#45;&gt;Node2 -->
<g id="edge8" class="edge"><title>Node7&#45;&gt;Node2</title>
<path fill="none" stroke="midnightblue" d="M397.202,-162C407.569,-162 418.519,-162 428.864,-162"/>
<polygon fill="midnightblue" stroke="midnightblue" points="428.962,-165.5 438.962,-162 428.962,-158.5 428.962,-165.5"/>
</g>
</g>
</svg>
