<?xml version="1.0" encoding="UTF-8" standalone="no"?>
<!DOCTYPE svg PUBLIC "-//W3C//DTD SVG 1.1//EN"
 "http://www.w3.org/Graphics/SVG/1.1/DTD/svg11.dtd">
<!-- Generated by graphviz version 2.38.0 (20140413.2041)
 -->
<!-- Title: tds_read_config_info Pages: 1 -->
<svg width="797pt" height="674pt"
 viewBox="0.00 0.00 797.00 674.00" xmlns="http://www.w3.org/2000/svg" xmlns:xlink="http://www.w3.org/1999/xlink">
<g id="graph0" class="graph" transform="scale(1 1) rotate(0) translate(4 670)">
<title>tds_read_config_info</title>
<polygon fill="white" stroke="none" points="-4,4 -4,-670 793,-670 793,4 -4,4"/>
<!-- Node1 -->
<g id="node1" class="node"><title>Node1</title>
<polygon fill="#bfbfbf" stroke="black" points="0,-266.5 0,-285.5 116,-285.5 116,-266.5 0,-266.5"/>
<text text-anchor="middle" x="58" y="-273.5" font-family="Helvetica,sans-Serif" font-size="10.00">tds_read_config_info</text>
</g>
<!-- Node2 -->
<g id="node2" class="node"><title>Node2</title>
<g id="a_node2"><a xlink:href="a00390.html#ga2ef389ac3b0cddec76bf8f1c0951bc9c" target="_top" xlink:title="Initialize login structure with locale information and other stuff for connection. ">
<polygon fill="white" stroke="black" points="190,-579.5 190,-598.5 269,-598.5 269,-579.5 190,-579.5"/>
<text text-anchor="middle" x="229.5" y="-586.5" font-family="Helvetica,sans-Serif" font-size="10.00">tds_init_login</text>
</a>
</g>
</g>
<!-- Node1&#45;&gt;Node2 -->
<g id="edge1" class="edge"><title>Node1&#45;&gt;Node2</title>
<path fill="none" stroke="midnightblue" d="M59.4496,-285.592C61.7716,-324.515 75.4935,-472.566 152,-556 159.788,-564.493 170.137,-570.896 180.698,-575.687"/>
<polygon fill="midnightblue" stroke="midnightblue" points="179.396,-578.935 189.976,-579.494 182.054,-572.459 179.396,-578.935"/>
</g>
<!-- Node7 -->
<g id="node7" class="node"><title>Node7</title>
<g id="a_node7"><a xlink:href="a00393.html#gae6d3d12bd1f5f0c56df934a377c245d3" target="_top" xlink:title="test if string is empty ">
<polygon fill="white" stroke="black" points="372,-646.5 372,-665.5 469,-665.5 469,-646.5 372,-646.5"/>
<text text-anchor="middle" x="420.5" y="-653.5" font-family="Helvetica,sans-Serif" font-size="10.00">tds_dstr_isempty</text>
</a>
</g>
</g>
<!-- Node1&#45;&gt;Node7 -->
<g id="edge38" class="edge"><title>Node1&#45;&gt;Node7</title>
<path fill="none" stroke="midnightblue" d="M60.3277,-285.726C67.3347,-335.611 101.61,-562.209 152,-608 208.941,-659.743 301.877,-665.044 361.849,-662.073"/>
<polygon fill="midnightblue" stroke="midnightblue" points="362.136,-665.562 371.913,-661.481 361.725,-658.574 362.136,-665.562"/>
</g>
<!-- Node8 -->
<g id="node8" class="node"><title>Node8</title>
<g id="a_node8"><a xlink:href="a00219.html#a24471508ddfde7cc0f8577801e70c42f" target="_top" xlink:title="Create and truncate a human readable dump file for the TDS traffic. ">
<polygon fill="white" stroke="black" points="377.5,-152.5 377.5,-171.5 463.5,-171.5 463.5,-152.5 377.5,-152.5"/>
<text text-anchor="middle" x="420.5" y="-159.5" font-family="Helvetica,sans-Serif" font-size="10.00">tdsdump_open</text>
</a>
</g>
</g>
<!-- Node1&#45;&gt;Node8 -->
<g id="edge7" class="edge"><title>Node1&#45;&gt;Node8</title>
<path fill="none" stroke="midnightblue" d="M71.5015,-266.401C88.6973,-253.666 121.047,-231.359 152,-219 223.671,-190.382 312.156,-175.127 367.218,-167.802"/>
<polygon fill="midnightblue" stroke="midnightblue" points="367.965,-171.235 377.435,-166.484 367.069,-164.293 367.965,-171.235"/>
</g>
<!-- Node9 -->
<g id="node9" class="node"><title>Node9</title>
<g id="a_node9"><a xlink:href="a00219.html#ab45c291105027e69836002e1dd586141" target="_top" xlink:title="Write a message to the debug log. ">
<polygon fill="white" stroke="black" points="702.5,-171.5 702.5,-190.5 779.5,-190.5 779.5,-171.5 702.5,-171.5"/>
<text text-anchor="middle" x="741" y="-178.5" font-family="Helvetica,sans-Serif" font-size="10.00">tdsdump_log</text>
</a>
</g>
</g>
<!-- Node1&#45;&gt;Node9 -->
<g id="edge9" class="edge"><title>Node1&#45;&gt;Node9</title>
<path fill="none" stroke="midnightblue" d="M64.7673,-266.257C77.5617,-245.602 110.499,-197.473 152,-175 336.027,-75.3466 602.368,-139.138 701.193,-168.513"/>
<polygon fill="midnightblue" stroke="midnightblue" points="700.46,-171.948 711.045,-171.494 702.487,-165.248 700.46,-171.948"/>
</g>
<!-- Node10 -->
<g id="node10" class="node"><title>Node10</title>
<g id="a_node10"><a xlink:href="a00393.html#ga3340b488ed37845018e34572450e64c6" target="_top" xlink:title="Returns a C version (NUL terminated string) of dstr. ">
<polygon fill="white" stroke="black" points="381.5,-418.5 381.5,-437.5 459.5,-437.5 459.5,-418.5 381.5,-418.5"/>
<text text-anchor="middle" x="420.5" y="-425.5" font-family="Helvetica,sans-Serif" font-size="10.00">tds_dstr_cstr</text>
</a>
</g>
</g>
<!-- Node1&#45;&gt;Node10 -->
<g id="edge10" class="edge"><title>Node1&#45;&gt;Node10</title>
<path fill="none" stroke="midnightblue" d="M78.2865,-285.663C123.686,-308.192 241.154,-365.232 343,-404 353.657,-408.057 365.327,-411.975 376.271,-415.427"/>
<polygon fill="midnightblue" stroke="midnightblue" points="375.48,-418.846 386.068,-418.458 377.549,-412.159 375.48,-418.846"/>
</g>
<!-- Node11 -->
<g id="node11" class="node"><title>Node11</title>
<g id="a_node11"><a xlink:href="a00387.html#ga0a63cb612f245fd85e56cfea98ff8f3b" target="_top" xlink:title="Read configuration info for given server return 0 on error. ">
<polygon fill="white" stroke="black" points="177.5,-228.5 177.5,-247.5 281.5,-247.5 281.5,-228.5 177.5,-228.5"/>
<text text-anchor="middle" x="229.5" y="-235.5" font-family="Helvetica,sans-Serif" font-size="10.00">tds_read_conf_file</text>
</a>
</g>
</g>
<!-- Node1&#45;&gt;Node11 -->
<g id="edge11" class="edge"><title>Node1&#45;&gt;Node11</title>
<path fill="none" stroke="midnightblue" d="M101.772,-266.411C124.341,-261.351 152.223,-255.1 176.083,-249.751"/>
<polygon fill="midnightblue" stroke="midnightblue" points="177.043,-253.123 186.036,-247.52 175.512,-246.292 177.043,-253.123"/>
</g>
<!-- Node13 -->
<g id="node13" class="node"><title>Node13</title>
<g id="a_node13"><a xlink:href="a00387.html#gaa9670914093b354e7a123b10ba877813" target="_top" xlink:title="Check the server name to find port info first Warning: connection&#45;&gt; &amp; login&#45;&gt; are all modified when n...">
<polygon fill="white" stroke="black" points="152,-437.5 152,-456.5 307,-456.5 307,-437.5 152,-437.5"/>
<text text-anchor="middle" x="229.5" y="-444.5" font-family="Helvetica,sans-Serif" font-size="10.00">parse_server_name_for_port</text>
</a>
</g>
</g>
<!-- Node1&#45;&gt;Node13 -->
<g id="edge14" class="edge"><title>Node1&#45;&gt;Node13</title>
<path fill="none" stroke="midnightblue" d="M68.5987,-285.684C96.3349,-313.665 176.838,-394.881 211.879,-430.232"/>
<polygon fill="midnightblue" stroke="midnightblue" points="209.481,-432.784 219.007,-437.423 214.452,-427.856 209.481,-432.784"/>
</g>
<!-- Node14 -->
<g id="node14" class="node"><title>Node14</title>
<g id="a_node14"><a xlink:href="a00393.html#ga4e6d9fa6f9b9551a5a3390e10a5322e6" target="_top" xlink:title="Duplicate a string from another dynamic string. ">
<polygon fill="white" stroke="black" points="556.5,-532.5 556.5,-551.5 634.5,-551.5 634.5,-532.5 556.5,-532.5"/>
<text text-anchor="middle" x="595.5" y="-539.5" font-family="Helvetica,sans-Serif" font-size="10.00">tds_dstr_dup</text>
</a>
</g>
</g>
<!-- Node1&#45;&gt;Node14 -->
<g id="edge18" class="edge"><title>Node1&#45;&gt;Node14</title>
<path fill="none" stroke="midnightblue" d="M60.6088,-285.86C66.3717,-317.77 89.095,-418.885 152,-466 271.004,-555.132 458.334,-553.632 546.101,-547.077"/>
<polygon fill="midnightblue" stroke="midnightblue" points="546.612,-550.547 556.3,-546.258 546.052,-543.57 546.612,-550.547"/>
</g>
<!-- Node15 -->
<g id="node15" class="node"><title>Node15</title>
<g id="a_node15"><a xlink:href="a00387.html#ga6631af35ee817f93827c62bbda41674a" target="_top" xlink:title="Try to find the IP number and port for a (possibly) logical server name. ">
<polygon fill="white" stroke="black" points="174,-285.5 174,-304.5 285,-304.5 285,-285.5 174,-285.5"/>
<text text-anchor="middle" x="229.5" y="-292.5" font-family="Helvetica,sans-Serif" font-size="10.00">tds_read_interfaces</text>
</a>
</g>
</g>
<!-- Node1&#45;&gt;Node15 -->
<g id="edge20" class="edge"><title>Node1&#45;&gt;Node15</title>
<path fill="none" stroke="midnightblue" d="M116.385,-282.433C131.59,-284.137 148.112,-285.989 163.682,-287.734"/>
<polygon fill="midnightblue" stroke="midnightblue" points="163.426,-291.227 173.753,-288.863 164.206,-284.271 163.426,-291.227"/>
</g>
<!-- Node19 -->
<g id="node19" class="node"><title>Node19</title>
<g id="a_node19"><a xlink:href="a00219.html#abf18b98efef6ce2dc0b97d658a3a1918" target="_top" xlink:title="Call the client library&#39;s error handler (for library&#45;generated errors only) ">
<polygon fill="white" stroke="black" points="393.5,-76.5 393.5,-95.5 447.5,-95.5 447.5,-76.5 393.5,-76.5"/>
<text text-anchor="middle" x="420.5" y="-83.5" font-family="Helvetica,sans-Serif" font-size="10.00">tdserror</text>
</a>
</g>
</g>
<!-- Node1&#45;&gt;Node19 -->
<g id="edge31" class="edge"><title>Node1&#45;&gt;Node19</title>
<path fill="none" stroke="midnightblue" d="M61.0885,-266.349C68.0165,-236.929 93.222,-148.074 152,-110 223.324,-63.7988 328.673,-71.2173 383.451,-79.3254"/>
<polygon fill="midnightblue" stroke="midnightblue" points="382.967,-82.7923 393.389,-80.8876 384.054,-75.8772 382.967,-82.7923"/>
</g>
<!-- Node22 -->
<g id="node22" class="node"><title>Node22</title>
<g id="a_node22"><a xlink:href="a00387.html#gacee4f06ba749b10ee9f2e5bb1c4a8910" target="_top" xlink:title="Fix configuration after reading it. ">
<polygon fill="white" stroke="black" points="191.5,-38.5 191.5,-57.5 267.5,-57.5 267.5,-38.5 191.5,-38.5"/>
<text text-anchor="middle" x="229.5" y="-45.5" font-family="Helvetica,sans-Serif" font-size="10.00">tds_fix_login</text>
</a>
</g>
</g>
<!-- Node1&#45;&gt;Node22 -->
<g id="edge36" class="edge"><title>Node1&#45;&gt;Node22</title>
<path fill="none" stroke="midnightblue" d="M60.566,-266.241C66.3137,-233.635 89.2802,-127.403 152,-72 160.387,-64.5918 171.05,-59.4697 181.733,-55.9284"/>
<polygon fill="midnightblue" stroke="midnightblue" points="182.855,-59.2472 191.484,-53.1003 180.905,-52.5242 182.855,-59.2472"/>
</g>
<!-- Node23 -->
<g id="node23" class="node"><title>Node23</title>
<g id="a_node23"><a xlink:href="a00219.html#a2f00fc0907d3bb04ce0eeb9738e08d0c" target="_top" xlink:title="Close the TDS dump log file. ">
<polygon fill="white" stroke="black" points="186,-0.5 186,-19.5 273,-19.5 273,-0.5 186,-0.5"/>
<text text-anchor="middle" x="229.5" y="-7.5" font-family="Helvetica,sans-Serif" font-size="10.00">tdsdump_close</text>
</a>
</g>
</g>
<!-- Node1&#45;&gt;Node23 -->
<g id="edge37" class="edge"><title>Node1&#45;&gt;Node23</title>
<path fill="none" stroke="midnightblue" d="M59.5499,-266.445C62.2013,-229.651 76.8564,-95.8515 152,-29 158.76,-22.986 167.131,-18.8111 175.83,-15.9265"/>
<polygon fill="midnightblue" stroke="midnightblue" points="177.018,-19.2293 185.722,-13.1887 175.151,-12.4829 177.018,-19.2293"/>
</g>
<!-- Node3 -->
<g id="node3" class="node"><title>Node3</title>
<g id="a_node3"><a xlink:href="a00389.html#ga6561d1dba1a04c168431b16ec17d7e4c" target="_top" xlink:title="Determine canonical iconv character set name. ">
<polygon fill="white" stroke="black" points="343,-608.5 343,-627.5 498,-627.5 498,-608.5 343,-608.5"/>
<text text-anchor="middle" x="420.5" y="-615.5" font-family="Helvetica,sans-Serif" font-size="10.00">tds_canonical_charset_name</text>
</a>
</g>
</g>
<!-- Node2&#45;&gt;Node3 -->
<g id="edge2" class="edge"><title>Node2&#45;&gt;Node3</title>
<path fill="none" stroke="midnightblue" d="M269.203,-594.939C291.707,-598.392 320.789,-602.854 347.366,-606.932"/>
<polygon fill="midnightblue" stroke="midnightblue" points="346.996,-610.416 357.411,-608.473 348.057,-603.497 346.996,-610.416"/>
</g>
<!-- Node5 -->
<g id="node5" class="node"><title>Node5</title>
<g id="a_node5"><a xlink:href="a00393.html#gad96366d9fa93bfc283cef1299fbe97ab" target="_top" xlink:title="copy a string from another ">
<polygon fill="white" stroke="black" points="554,-456.5 554,-475.5 637,-475.5 637,-456.5 554,-456.5"/>
<text text-anchor="middle" x="595.5" y="-463.5" font-family="Helvetica,sans-Serif" font-size="10.00">tds_dstr_copy</text>
</a>
</g>
</g>
<!-- Node2&#45;&gt;Node5 -->
<g id="edge4" class="edge"><title>Node2&#45;&gt;Node5</title>
<path fill="none" stroke="midnightblue" d="M258.76,-579.451C323.61,-557.537 483.158,-503.624 556.5,-478.841"/>
<polygon fill="midnightblue" stroke="midnightblue" points="557.905,-482.06 566.258,-475.543 555.664,-475.429 557.905,-482.06"/>
</g>
<!-- Node2&#45;&gt;Node7 -->
<g id="edge6" class="edge"><title>Node2&#45;&gt;Node7</title>
<path fill="none" stroke="midnightblue" d="M250.446,-598.663C272.647,-609.145 309.779,-625.867 343,-637 350.39,-639.477 358.278,-641.792 366.077,-643.894"/>
<polygon fill="midnightblue" stroke="midnightblue" points="365.305,-647.31 375.864,-646.441 367.067,-640.535 365.305,-647.31"/>
</g>
<!-- Node4 -->
<g id="node4" class="node"><title>Node4</title>
<g id="a_node4"><a xlink:href="a00389.html#ga38c0ac641a8c6e25e91ee9205c3c50c5" target="_top" xlink:title="Determine canonical iconv character set. ">
<polygon fill="white" stroke="black" points="534,-608.5 534,-627.5 657,-627.5 657,-608.5 534,-608.5"/>
<text text-anchor="middle" x="595.5" y="-615.5" font-family="Helvetica,sans-Serif" font-size="10.00">tds_canonical_charset</text>
</a>
</g>
</g>
<!-- Node3&#45;&gt;Node4 -->
<g id="edge3" class="edge"><title>Node3&#45;&gt;Node4</title>
<path fill="none" stroke="midnightblue" d="M498.136,-618C506.617,-618 515.227,-618 523.633,-618"/>
<polygon fill="midnightblue" stroke="midnightblue" points="523.763,-621.5 533.763,-618 523.763,-614.5 523.763,-621.5"/>
</g>
<!-- Node6 -->
<g id="node6" class="node"><title>Node6</title>
<g id="a_node6"><a xlink:href="a00393.html#ga656718f240d7403f986ae887d84a6ca1" target="_top" xlink:title="Set string to a given buffer of characters. ">
<polygon fill="white" stroke="black" points="696.5,-494.5 696.5,-513.5 785.5,-513.5 785.5,-494.5 696.5,-494.5"/>
<text text-anchor="middle" x="741" y="-501.5" font-family="Helvetica,sans-Serif" font-size="10.00">tds_dstr_copyn</text>
</a>
</g>
</g>
<!-- Node5&#45;&gt;Node6 -->
<g id="edge5" class="edge"><title>Node5&#45;&gt;Node6</title>
<path fill="none" stroke="midnightblue" d="M632.711,-475.589C651.321,-480.517 674.197,-486.575 694.039,-491.829"/>
<polygon fill="midnightblue" stroke="midnightblue" points="693.238,-495.238 703.8,-494.414 695.03,-488.471 693.238,-495.238"/>
</g>
<!-- Node8&#45;&gt;Node9 -->
<g id="edge8" class="edge"><title>Node8&#45;&gt;Node9</title>
<path fill="none" stroke="midnightblue" d="M463.794,-164.523C522.98,-168.054 630.2,-174.45 692.206,-178.149"/>
<polygon fill="midnightblue" stroke="midnightblue" points="692.305,-181.661 702.496,-178.763 692.722,-174.673 692.305,-181.661"/>
</g>
<!-- Node11&#45;&gt;Node9 -->
<g id="edge12" class="edge"><title>Node11&#45;&gt;Node9</title>
<path fill="none" stroke="midnightblue" d="M281.627,-228.567C300.827,-225.235 322.872,-221.66 343,-219 468.708,-202.39 617.729,-190.098 692.375,-184.446"/>
<polygon fill="midnightblue" stroke="midnightblue" points="692.694,-187.932 702.404,-183.693 692.17,-180.952 692.694,-187.932"/>
</g>
<!-- Node12 -->
<g id="node12" class="node"><title>Node12</title>
<g id="a_node12"><a xlink:href="a00387.html#gaf49eca946d1b2457e189de7207e3670c" target="_top" xlink:title="Return filename from HOME directory. ">
<polygon fill="white" stroke="black" points="368.5,-228.5 368.5,-247.5 472.5,-247.5 472.5,-228.5 368.5,-228.5"/>
<text text-anchor="middle" x="420.5" y="-235.5" font-family="Helvetica,sans-Serif" font-size="10.00">tds_get_home_file</text>
</a>
</g>
</g>
<!-- Node11&#45;&gt;Node12 -->
<g id="edge13" class="edge"><title>Node11&#45;&gt;Node12</title>
<path fill="none" stroke="midnightblue" d="M281.646,-238C305.283,-238 333.54,-238 358.299,-238"/>
<polygon fill="midnightblue" stroke="midnightblue" points="358.313,-241.5 368.313,-238 358.313,-234.5 358.313,-241.5"/>
</g>
<!-- Node13&#45;&gt;Node5 -->
<g id="edge16" class="edge"><title>Node13&#45;&gt;Node5</title>
<path fill="none" stroke="midnightblue" d="M307.25,-451.006C378.43,-454.722 482.335,-460.145 543.719,-463.349"/>
<polygon fill="midnightblue" stroke="midnightblue" points="543.762,-466.856 553.931,-463.882 544.127,-459.866 543.762,-466.856"/>
</g>
<!-- Node13&#45;&gt;Node6 -->
<g id="edge17" class="edge"><title>Node13&#45;&gt;Node6</title>
<path fill="none" stroke="midnightblue" d="M269.327,-456.558C290.903,-461.547 318.304,-467.354 343,-471 464.871,-488.99 609.346,-497.922 685.969,-501.691"/>
<polygon fill="midnightblue" stroke="midnightblue" points="686.164,-505.204 696.321,-502.189 686.501,-498.212 686.164,-505.204"/>
</g>
<!-- Node13&#45;&gt;Node10 -->
<g id="edge15" class="edge"><title>Node13&#45;&gt;Node10</title>
<path fill="none" stroke="midnightblue" d="M307.101,-439.299C328.785,-437.119 351.774,-434.808 371.274,-432.848"/>
<polygon fill="midnightblue" stroke="midnightblue" points="371.821,-436.311 381.421,-431.828 371.121,-429.346 371.821,-436.311"/>
</g>
<!-- Node14&#45;&gt;Node6 -->
<g id="edge19" class="edge"><title>Node14&#45;&gt;Node6</title>
<path fill="none" stroke="midnightblue" d="M632.711,-532.411C651.321,-527.483 674.197,-521.425 694.039,-516.171"/>
<polygon fill="midnightblue" stroke="midnightblue" points="695.03,-519.529 703.8,-513.586 693.238,-512.762 695.03,-519.529"/>
</g>
<!-- Node15&#45;&gt;Node5 -->
<g id="edge30" class="edge"><title>Node15&#45;&gt;Node5</title>
<path fill="none" stroke="midnightblue" d="M282.6,-304.611C291.249,-307.67 299.749,-311.698 307,-317 330.283,-334.026 319.384,-354.438 343,-371 401.071,-411.726 432.316,-382.232 498,-409 525.099,-420.043 553.662,-437.783 572.617,-450.54"/>
<polygon fill="midnightblue" stroke="midnightblue" points="570.873,-453.588 581.101,-456.351 574.829,-447.813 570.873,-453.588"/>
</g>
<!-- Node15&#45;&gt;Node9 -->
<g id="edge21" class="edge"><title>Node15&#45;&gt;Node9</title>
<path fill="none" stroke="midnightblue" d="M285.025,-289.889C339.417,-284.176 425.145,-273.499 498,-257 572.825,-240.055 657.885,-210.976 704.596,-194.125"/>
<polygon fill="midnightblue" stroke="midnightblue" points="706.035,-197.327 714.239,-190.623 703.645,-190.747 706.035,-197.327"/>
</g>
<!-- Node15&#45;&gt;Node12 -->
<g id="edge28" class="edge"><title>Node15&#45;&gt;Node12</title>
<path fill="none" stroke="midnightblue" d="M262.134,-285.459C293.888,-275.883 342.973,-261.079 377.873,-250.554"/>
<polygon fill="midnightblue" stroke="midnightblue" points="379.199,-253.81 387.762,-247.572 377.178,-247.108 379.199,-253.81"/>
</g>
<!-- Node16 -->
<g id="node16" class="node"><title>Node16</title>
<g id="a_node16"><a xlink:href="a00387.html#gaca20b6e5f5a5ac1727126712dd39564b" target="_top" xlink:title="Open and read the file &#39;file&#39; searching for a logical server by the name of &#39;host&#39;. ">
<polygon fill="white" stroke="black" points="362.5,-342.5 362.5,-361.5 478.5,-361.5 478.5,-342.5 362.5,-342.5"/>
<text text-anchor="middle" x="420.5" y="-349.5" font-family="Helvetica,sans-Serif" font-size="10.00">search_interface_file</text>
</a>
</g>
</g>
<!-- Node15&#45;&gt;Node16 -->
<g id="edge22" class="edge"><title>Node15&#45;&gt;Node16</title>
<path fill="none" stroke="midnightblue" d="M262.134,-304.541C293.888,-314.117 342.973,-328.921 377.873,-339.446"/>
<polygon fill="midnightblue" stroke="midnightblue" points="377.178,-342.892 387.762,-342.428 379.199,-336.19 377.178,-342.892"/>
</g>
<!-- Node17 -->
<g id="node17" class="node"><title>Node17</title>
<g id="a_node17"><a xlink:href="a00387.html#ga45281d1cb2ac649db65d80bb3ff06b66" target="_top" xlink:title="Given a portname lookup the port. ">
<polygon fill="white" stroke="black" points="549.5,-304.5 549.5,-323.5 641.5,-323.5 641.5,-304.5 549.5,-304.5"/>
<text text-anchor="middle" x="595.5" y="-311.5" font-family="Helvetica,sans-Serif" font-size="10.00">tds_lookup_port</text>
</a>
</g>
</g>
<!-- Node15&#45;&gt;Node17 -->
<g id="edge29" class="edge"><title>Node15&#45;&gt;Node17</title>
<path fill="none" stroke="midnightblue" d="M285.389,-297.865C353.868,-301.44 470.302,-307.517 539.045,-311.105"/>
<polygon fill="midnightblue" stroke="midnightblue" points="539.073,-314.611 549.241,-311.638 539.438,-307.621 539.073,-314.611"/>
</g>
<!-- Node16&#45;&gt;Node5 -->
<g id="edge24" class="edge"><title>Node16&#45;&gt;Node5</title>
<path fill="none" stroke="midnightblue" d="M463.817,-361.602C475.347,-365.183 487.535,-369.906 498,-376 500.286,-377.331 549.538,-423.621 576.772,-449.28"/>
<polygon fill="midnightblue" stroke="midnightblue" points="574.449,-451.901 584.127,-456.213 579.251,-446.807 574.449,-451.901"/>
</g>
<!-- Node16&#45;&gt;Node9 -->
<g id="edge23" class="edge"><title>Node16&#45;&gt;Node9</title>
<path fill="none" stroke="midnightblue" d="M476.66,-361.516C527.618,-367.274 603.327,-367.839 657,-333 704.582,-302.114 727.111,-234.192 735.67,-200.602"/>
<polygon fill="midnightblue" stroke="midnightblue" points="739.133,-201.169 738.053,-190.63 732.325,-199.542 739.133,-201.169"/>
</g>
<!-- Node16&#45;&gt;Node17 -->
<g id="edge25" class="edge"><title>Node16&#45;&gt;Node17</title>
<path fill="none" stroke="midnightblue" d="M465.155,-342.411C488.293,-337.329 516.902,-331.045 541.327,-325.68"/>
<polygon fill="midnightblue" stroke="midnightblue" points="542.142,-329.084 551.159,-323.52 540.641,-322.247 542.142,-329.084"/>
</g>
<!-- Node18 -->
<g id="node18" class="node"><title>Node18</title>
<g id="a_node18"><a xlink:href="a00387.html#gade94d7e89ba1f668c82be0b00a7f5cd7" target="_top" xlink:title="Set TDS version from given string. ">
<polygon fill="white" stroke="black" points="546.5,-380.5 546.5,-399.5 644.5,-399.5 644.5,-380.5 546.5,-380.5"/>
<text text-anchor="middle" x="595.5" y="-387.5" font-family="Helvetica,sans-Serif" font-size="10.00">tds_config_verstr</text>
</a>
</g>
</g>
<!-- Node16&#45;&gt;Node18 -->
<g id="edge26" class="edge"><title>Node16&#45;&gt;Node18</title>
<path fill="none" stroke="midnightblue" d="M465.155,-361.589C488.293,-366.671 516.902,-372.955 541.327,-378.32"/>
<polygon fill="midnightblue" stroke="midnightblue" points="540.641,-381.753 551.159,-380.48 542.142,-374.916 540.641,-381.753"/>
</g>
<!-- Node18&#45;&gt;Node9 -->
<g id="edge27" class="edge"><title>Node18&#45;&gt;Node9</title>
<path fill="none" stroke="midnightblue" d="M633.707,-380.428C642.111,-376.937 650.469,-372.25 657,-366 706.096,-319.021 728.343,-237.706 736.317,-200.545"/>
<polygon fill="midnightblue" stroke="midnightblue" points="739.793,-201.013 738.347,-190.517 732.932,-199.624 739.793,-201.013"/>
</g>
<!-- Node19&#45;&gt;Node9 -->
<g id="edge32" class="edge"><title>Node19&#45;&gt;Node9</title>
<path fill="none" stroke="midnightblue" d="M447.845,-83.72C492.76,-80.8923 586.164,-79.6666 657,-110 685.013,-121.996 710.563,-146.91 725.704,-163.796"/>
<polygon fill="midnightblue" stroke="midnightblue" points="723.065,-166.095 732.266,-171.349 728.349,-161.504 723.065,-166.095"/>
</g>
<!-- Node20 -->
<g id="node20" class="node"><title>Node20</title>
<g id="a_node20"><a xlink:href="a00391.html#ga11338742dc30fd0c2711f58eb830316f" target="_top" xlink:title="tds_send_cancel() sends an empty packet (8 byte header only) tds_process_cancel should be called dire...">
<polygon fill="white" stroke="black" points="547,-38.5 547,-57.5 644,-57.5 644,-38.5 547,-38.5"/>
<text text-anchor="middle" x="595.5" y="-45.5" font-family="Helvetica,sans-Serif" font-size="10.00">tds_send_cancel</text>
</a>
</g>
</g>
<!-- Node19&#45;&gt;Node20 -->
<g id="edge33" class="edge"><title>Node19&#45;&gt;Node20</title>
<path fill="none" stroke="midnightblue" d="M447.775,-80.2286C472.51,-74.7955 510.288,-66.4974 541.316,-59.6821"/>
<polygon fill="midnightblue" stroke="midnightblue" points="542.111,-63.0909 551.127,-57.5269 540.609,-56.2539 542.111,-63.0909"/>
</g>
<!-- Node20&#45;&gt;Node9 -->
<g id="edge34" class="edge"><title>Node20&#45;&gt;Node9</title>
<path fill="none" stroke="midnightblue" d="M629.917,-57.5567C639.233,-61.1709 648.987,-65.9232 657,-72 690.148,-97.1375 716.744,-138.805 730.269,-162.683"/>
<polygon fill="midnightblue" stroke="midnightblue" points="727.207,-164.378 735.097,-171.449 733.338,-161.001 727.207,-164.378"/>
</g>
<!-- Node21 -->
<g id="node21" class="node"><title>Node21</title>
<g id="a_node21"><a xlink:href="a00392.html#ga5feb53554e8917a81bbbc332163a61fb" target="_top" xlink:title="Flush packet to server. ">
<polygon fill="white" stroke="black" points="693,-38.5 693,-57.5 789,-57.5 789,-38.5 693,-38.5"/>
<text text-anchor="middle" x="741" y="-45.5" font-family="Helvetica,sans-Serif" font-size="10.00">tds_flush_packet</text>
</a>
</g>
</g>
<!-- Node20&#45;&gt;Node21 -->
<g id="edge35" class="edge"><title>Node20&#45;&gt;Node21</title>
<path fill="none" stroke="midnightblue" d="M644.283,-48C656.635,-48 670.058,-48 682.836,-48"/>
<polygon fill="midnightblue" stroke="midnightblue" points="682.913,-51.5001 692.913,-48 682.913,-44.5001 682.913,-51.5001"/>
</g>
</g>
</svg>
