<?xml version="1.0" encoding="UTF-8" standalone="no"?>
<!DOCTYPE svg PUBLIC "-//W3C//DTD SVG 1.1//EN"
 "http://www.w3.org/Graphics/SVG/1.1/DTD/svg11.dtd">
<!-- Generated by graphviz version 2.38.0 (20140413.2041)
 -->
<!-- Title: dbprrow Pages: 1 -->
<svg width="739pt" height="682pt"
 viewBox="0.00 0.00 739.00 682.10" xmlns="http://www.w3.org/2000/svg" xmlns:xlink="http://www.w3.org/1999/xlink">
<g id="graph0" class="graph" transform="scale(1 1) rotate(0) translate(4 678.099)">
<title>dbprrow</title>
<polygon fill="white" stroke="none" points="-4,4 -4,-678.099 735,-678.099 735,4 -4,4"/>
<!-- Node1 -->
<g id="node1" class="node"><title>Node1</title>
<polygon fill="#bfbfbf" stroke="black" points="0,-369.051 0,-388.051 55,-388.051 55,-369.051 0,-369.051"/>
<text text-anchor="middle" x="27.5" y="-376.051" font-family="Helvetica,sans-Serif" font-size="10.00">dbprrow</text>
</g>
<!-- Node2 -->
<g id="node2" class="node"><title>Node2</title>
<g id="a_node2"><a xlink:href="a00219.html#ab45c291105027e69836002e1dd586141" target="_top" xlink:title="Write a message to the debug log. ">
<polygon fill="white" stroke="black" points="644,-255.051 644,-274.051 721,-274.051 721,-255.051 644,-255.051"/>
<text text-anchor="middle" x="682.5" y="-262.051" font-family="Helvetica,sans-Serif" font-size="10.00">tdsdump_log</text>
</a>
</g>
</g>
<!-- Node1&#45;&gt;Node2 -->
<g id="edge1" class="edge"><title>Node1&#45;&gt;Node2</title>
<path fill="none" stroke="midnightblue" d="M55.2001,-386.906C66.2524,-390.303 79.2172,-394.207 91,-397.551 122.838,-406.588 346.18,-469.294 379,-473.551 431.449,-480.355 447.879,-490.436 498,-473.551 590.97,-442.232 651.951,-328.981 673.16,-283.576"/>
<polygon fill="midnightblue" stroke="midnightblue" points="676.438,-284.823 677.389,-274.271 670.065,-281.927 676.438,-284.823"/>
</g>
<!-- Node3 -->
<g id="node3" class="node"><title>Node3</title>
<g id="a_node3"><a xlink:href="a00382.html#ga302a4ce6559b81808e3be51615cd1b67" target="_top" xlink:title="Call client&#45;installed error handler. ">
<polygon fill="white" stroke="black" points="537.5,-597.051 537.5,-616.051 594.5,-616.051 594.5,-597.051 537.5,-597.051"/>
<text text-anchor="middle" x="566" y="-604.051" font-family="Helvetica,sans-Serif" font-size="10.00">dbperror</text>
</a>
</g>
</g>
<!-- Node1&#45;&gt;Node3 -->
<g id="edge2" class="edge"><title>Node1&#45;&gt;Node3</title>
<path fill="none" stroke="midnightblue" d="M29.5259,-388.215C34.0831,-429.15 53.9219,-587.522 91,-617.551 222.848,-724.335 449.665,-652.031 533.045,-619.803"/>
<polygon fill="midnightblue" stroke="midnightblue" points="534.464,-623.006 542.486,-616.086 531.899,-616.492 534.464,-623.006"/>
</g>
<!-- Node6 -->
<g id="node6" class="node"><title>Node6</title>
<g id="a_node6"><a xlink:href="a00219.html#a0383d5dcb629582266a442f0f0dbd13a" target="_top" xlink:title="Return type suitable for conversions (convert all nullable types to fixed type) ">
<polygon fill="white" stroke="black" points="91,-559.051 91,-578.051 227,-578.051 227,-559.051 91,-559.051"/>
<text text-anchor="middle" x="159" y="-566.051" font-family="Helvetica,sans-Serif" font-size="10.00">tds_get_conversion_type</text>
</a>
</g>
</g>
<!-- Node1&#45;&gt;Node6 -->
<g id="edge6" class="edge"><title>Node1&#45;&gt;Node6</title>
<path fill="none" stroke="midnightblue" d="M29.0842,-388.338C31.3593,-417.431 42.1264,-504.171 91,-549.551 92.6917,-551.122 94.5038,-552.564 96.4089,-553.888"/>
<polygon fill="midnightblue" stroke="midnightblue" points="94.8561,-557.032 105.272,-558.969 98.3372,-550.959 94.8561,-557.032"/>
</g>
<!-- Node7 -->
<g id="node7" class="node"><title>Node7</title>
<g id="a_node7"><a xlink:href="a00388.html#ga883855e6e3793de6684b21db39c756c4" target="_top" xlink:title="Convert from db date format to a structured date format. ">
<polygon fill="white" stroke="black" points="117.5,-521.051 117.5,-540.051 200.5,-540.051 200.5,-521.051 117.5,-521.051"/>
<text text-anchor="middle" x="159" y="-528.051" font-family="Helvetica,sans-Serif" font-size="10.00">tds_datecrack</text>
</a>
</g>
</g>
<!-- Node1&#45;&gt;Node7 -->
<g id="edge7" class="edge"><title>Node1&#45;&gt;Node7</title>
<path fill="none" stroke="midnightblue" d="M30.5365,-388.084C36.0433,-411.599 53.4158,-472.898 91,-506.551 96.0095,-511.037 101.917,-514.7 108.114,-517.687"/>
<polygon fill="midnightblue" stroke="midnightblue" points="106.758,-520.914 117.331,-521.598 109.492,-514.47 106.758,-520.914"/>
</g>
<!-- Node8 -->
<g id="node8" class="node"><title>Node8</title>
<g id="a_node8"><a xlink:href="a00376.html#gaee60c306a22383805a4b9caa647a1e16" target="_top" xlink:title="Get address of data in a regular result column. ">
<polygon fill="white" stroke="black" points="278.5,-597.051 278.5,-616.051 327.5,-616.051 327.5,-597.051 278.5,-597.051"/>
<text text-anchor="middle" x="303" y="-604.051" font-family="Helvetica,sans-Serif" font-size="10.00">dbdata</text>
</a>
</g>
</g>
<!-- Node1&#45;&gt;Node8 -->
<g id="edge8" class="edge"><title>Node1&#45;&gt;Node8</title>
<path fill="none" stroke="midnightblue" d="M27.9609,-388.474C26.7084,-422.587 27.6497,-535.795 91,-587.551 141.339,-628.677 222.737,-622.075 268.318,-614.043"/>
<polygon fill="midnightblue" stroke="midnightblue" points="269.108,-617.456 278.286,-612.162 267.81,-610.577 269.108,-617.456"/>
</g>
<!-- Node10 -->
<g id="node10" class="node"><title>Node10</title>
<g id="a_node10"><a xlink:href="a00388.html#ga8c9652e8b1f3e56a3289fd71b12cee1d" target="_top" xlink:title="format a date string according to an &quot;extended&quot; strftime(3) formatting definition. ">
<polygon fill="white" stroke="black" points="123.5,-445.051 123.5,-464.051 194.5,-464.051 194.5,-445.051 123.5,-445.051"/>
<text text-anchor="middle" x="159" y="-452.051" font-family="Helvetica,sans-Serif" font-size="10.00">tds_strftime</text>
</a>
</g>
</g>
<!-- Node1&#45;&gt;Node10 -->
<g id="edge12" class="edge"><title>Node1&#45;&gt;Node10</title>
<path fill="none" stroke="midnightblue" d="M37.8667,-388.184C49.4393,-399.624 70.1636,-418.65 91,-430.551 98.4029,-434.78 106.683,-438.472 114.829,-441.611"/>
<polygon fill="midnightblue" stroke="midnightblue" points="113.675,-444.915 124.269,-445.039 116.065,-438.336 113.675,-444.915"/>
</g>
<!-- Node11 -->
<g id="node11" class="node"><title>Node11</title>
<g id="a_node11"><a xlink:href="a00376.html#ga32eb72f6fb3edb130e59fb3dd0766e7e" target="_top" xlink:title="cf. ">
<polygon fill="white" stroke="black" points="127.5,-369.051 127.5,-388.051 190.5,-388.051 190.5,-369.051 127.5,-369.051"/>
<text text-anchor="middle" x="159" y="-376.051" font-family="Helvetica,sans-Serif" font-size="10.00">dbconvert</text>
</a>
</g>
</g>
<!-- Node1&#45;&gt;Node11 -->
<g id="edge13" class="edge"><title>Node1&#45;&gt;Node11</title>
<path fill="none" stroke="midnightblue" d="M55.0188,-378.551C72.9147,-378.551 96.881,-378.551 117.19,-378.551"/>
<polygon fill="midnightblue" stroke="midnightblue" points="117.426,-382.051 127.426,-378.551 117.426,-375.051 117.426,-382.051"/>
</g>
<!-- Node17 -->
<g id="node17" class="node"><title>Node17</title>
<g id="a_node17"><a xlink:href="a00376.html#gae666d141533126babb0235af21bdca0f" target="_top" xlink:title="Get size of current row&#39;s data in a regular result column. ">
<polygon fill="white" stroke="black" points="274.5,-559.051 274.5,-578.051 331.5,-578.051 331.5,-559.051 274.5,-559.051"/>
<text text-anchor="middle" x="303" y="-566.051" font-family="Helvetica,sans-Serif" font-size="10.00">dbdatlen</text>
</a>
</g>
</g>
<!-- Node1&#45;&gt;Node17 -->
<g id="edge24" class="edge"><title>Node1&#45;&gt;Node17</title>
<path fill="none" stroke="midnightblue" d="M32.1588,-388.296C39.9194,-407.612 59.9083,-450.85 91,-473.551 141.686,-510.56 170.797,-483.624 227,-511.551 248.303,-522.137 269.61,-539.094 284.04,-551.766"/>
<polygon fill="midnightblue" stroke="midnightblue" points="281.914,-554.562 291.689,-558.651 286.598,-549.359 281.914,-554.562"/>
</g>
<!-- Node18 -->
<g id="node18" class="node"><title>Node18</title>
<g id="a_node18"><a xlink:href="a00393.html#gaf0e232f3c35f2d8b43486e8708f7a8fc" target="_top" xlink:title="Returns the length of the string in bytes. ">
<polygon fill="white" stroke="black" points="121.5,-331.051 121.5,-350.051 196.5,-350.051 196.5,-331.051 121.5,-331.051"/>
<text text-anchor="middle" x="159" y="-338.051" font-family="Helvetica,sans-Serif" font-size="10.00">tds_dstr_len</text>
</a>
</g>
</g>
<!-- Node1&#45;&gt;Node18 -->
<g id="edge27" class="edge"><title>Node1&#45;&gt;Node18</title>
<path fill="none" stroke="midnightblue" d="M55.2313,-370.304C66.2884,-366.924 79.2483,-363.003 91,-359.551 98.504,-357.347 106.494,-355.043 114.244,-352.832"/>
<polygon fill="midnightblue" stroke="midnightblue" points="115.217,-356.194 123.88,-350.093 113.304,-349.46 115.217,-356.194"/>
</g>
<!-- Node19 -->
<g id="node19" class="node"><title>Node19</title>
<g id="a_node19"><a xlink:href="a00376.html#ga67934deac3bebbf8238eff8c0559389a" target="_top" xlink:title="Get count of columns in a compute row. ">
<polygon fill="white" stroke="black" points="534,-103.051 534,-122.051 598,-122.051 598,-103.051 534,-103.051"/>
<text text-anchor="middle" x="566" y="-110.051" font-family="Helvetica,sans-Serif" font-size="10.00">dbnumalts</text>
</a>
</g>
</g>
<!-- Node1&#45;&gt;Node19 -->
<g id="edge28" class="edge"><title>Node1&#45;&gt;Node19</title>
<path fill="none" stroke="midnightblue" d="M29.8135,-369.006C35.2943,-330.646 57.62,-188.454 91,-160.551 156.035,-106.188 420.769,-108.106 523.745,-111.032"/>
<polygon fill="midnightblue" stroke="midnightblue" points="523.666,-114.531 533.768,-111.334 523.878,-107.534 523.666,-114.531"/>
</g>
<!-- Node20 -->
<g id="node20" class="node"><title>Node20</title>
<g id="a_node20"><a xlink:href="a00376.html#gad10c9fd75a86c7a0ac375937df0e90a6" target="_top" xlink:title="Get column ID of a compute column. ">
<polygon fill="white" stroke="black" points="535.5,-65.0513 535.5,-84.0513 596.5,-84.0513 596.5,-65.0513 535.5,-65.0513"/>
<text text-anchor="middle" x="566" y="-72.0513" font-family="Helvetica,sans-Serif" font-size="10.00">dbaltcolid</text>
</a>
</g>
</g>
<!-- Node1&#45;&gt;Node20 -->
<g id="edge30" class="edge"><title>Node1&#45;&gt;Node20</title>
<path fill="none" stroke="midnightblue" d="M29.3278,-368.898C33.2402,-325.705 51.3671,-150.79 91,-116.551 155.38,-60.9344 422.978,-67.6234 525.129,-72.3632"/>
<polygon fill="midnightblue" stroke="midnightblue" points="525.18,-75.8696 535.337,-72.8563 525.517,-68.8778 525.18,-75.8696"/>
</g>
<!-- Node21 -->
<g id="node21" class="node"><title>Node21</title>
<g id="a_node21"><a xlink:href="a00376.html#ga947837a5c8fd99898c043435945b668c" target="_top" xlink:title="Get aggregation operator for a compute column. ">
<polygon fill="white" stroke="black" points="540.5,-27.0513 540.5,-46.0513 591.5,-46.0513 591.5,-27.0513 540.5,-27.0513"/>
<text text-anchor="middle" x="566" y="-34.0513" font-family="Helvetica,sans-Serif" font-size="10.00">dbaltop</text>
</a>
</g>
</g>
<!-- Node1&#45;&gt;Node21 -->
<g id="edge32" class="edge"><title>Node1&#45;&gt;Node21</title>
<path fill="none" stroke="midnightblue" d="M28.9705,-368.948C31.4987,-321.646 45.1123,-114.066 91,-73.5513 217.499,38.1355 444.249,-4.96527 530.456,-26.8576"/>
<polygon fill="midnightblue" stroke="midnightblue" points="529.697,-30.2766 540.256,-29.4104 531.461,-23.5026 529.697,-30.2766"/>
</g>
<!-- Node22 -->
<g id="node22" class="node"><title>Node22</title>
<g id="a_node22"><a xlink:href="a00376.html#gac25ae21ca19777ffab1c013bd6049ebf" target="_top" xlink:title="Print a token value&#39;s name to a buffer. ">
<polygon fill="white" stroke="black" points="130,-217.051 130,-236.051 188,-236.051 188,-217.051 130,-217.051"/>
<text text-anchor="middle" x="159" y="-224.051" font-family="Helvetica,sans-Serif" font-size="10.00">dbprtype</text>
</a>
</g>
</g>
<!-- Node1&#45;&gt;Node22 -->
<g id="edge34" class="edge"><title>Node1&#45;&gt;Node22</title>
<path fill="none" stroke="midnightblue" d="M32.2094,-368.812C40.3367,-348.45 61.3818,-300.687 91,-269.551 101.885,-258.108 116.401,-248.314 129.139,-240.976"/>
<polygon fill="midnightblue" stroke="midnightblue" points="130.954,-243.971 138.022,-236.078 127.574,-237.841 130.954,-243.971"/>
</g>
<!-- Node24 -->
<g id="node24" class="node"><title>Node24</title>
<g id="a_node24"><a xlink:href="a00376.html#gaa85171e020dc606f2bd3395ad1d3ab4f" target="_top" xlink:title="Get datatype for a compute column. ">
<polygon fill="white" stroke="black" points="273.5,-255.051 273.5,-274.051 332.5,-274.051 332.5,-255.051 273.5,-255.051"/>
<text text-anchor="middle" x="303" y="-262.051" font-family="Helvetica,sans-Serif" font-size="10.00">dbalttype</text>
</a>
</g>
</g>
<!-- Node1&#45;&gt;Node24 -->
<g id="edge37" class="edge"><title>Node1&#45;&gt;Node24</title>
<path fill="none" stroke="midnightblue" d="M36.3565,-368.972C47.295,-356.26 68.3377,-333.98 91,-321.551 146.596,-291.062 219.514,-276.09 263.453,-269.368"/>
<polygon fill="midnightblue" stroke="midnightblue" points="264.05,-272.818 273.437,-267.907 263.036,-265.892 264.05,-272.818"/>
</g>
<!-- Node25 -->
<g id="node25" class="node"><title>Node25</title>
<g id="a_node25"><a xlink:href="a00376.html#gabcc14a1ca58b65bc46cce6c81c45218c" target="_top" xlink:title="Get address of compute column data. ">
<polygon fill="white" stroke="black" points="538.5,-141.051 538.5,-160.051 593.5,-160.051 593.5,-141.051 538.5,-141.051"/>
<text text-anchor="middle" x="566" y="-148.051" font-family="Helvetica,sans-Serif" font-size="10.00">dbadata</text>
</a>
</g>
</g>
<!-- Node1&#45;&gt;Node25 -->
<g id="edge39" class="edge"><title>Node1&#45;&gt;Node25</title>
<path fill="none" stroke="midnightblue" d="M28.9353,-369.044C30.804,-339.991 40.5737,-251.681 91,-207.551 155.844,-150.804 428.04,-148.636 527.989,-149.823"/>
<polygon fill="midnightblue" stroke="midnightblue" points="528.162,-153.326 538.21,-149.964 528.259,-146.326 528.162,-153.326"/>
</g>
<!-- Node3&#45;&gt;Node2 -->
<g id="edge3" class="edge"><title>Node3&#45;&gt;Node2</title>
<path fill="none" stroke="midnightblue" d="M583.322,-597.001C588.693,-593.132 594.245,-588.228 598,-582.551 663.129,-484.087 677.523,-337.16 680.65,-284.346"/>
<polygon fill="midnightblue" stroke="midnightblue" points="684.149,-284.464 681.172,-274.296 677.158,-284.101 684.149,-284.464"/>
</g>
<!-- Node4 -->
<g id="node4" class="node"><title>Node4</title>
<g id="a_node4"><a xlink:href="a00393.html#gae6d3d12bd1f5f0c56df934a377c245d3" target="_top" xlink:title="test if string is empty ">
<polygon fill="white" stroke="black" points="634,-578.051 634,-597.051 731,-597.051 731,-578.051 634,-578.051"/>
<text text-anchor="middle" x="682.5" y="-585.051" font-family="Helvetica,sans-Serif" font-size="10.00">tds_dstr_isempty</text>
</a>
</g>
</g>
<!-- Node3&#45;&gt;Node4 -->
<g id="edge4" class="edge"><title>Node3&#45;&gt;Node4</title>
<path fill="none" stroke="midnightblue" d="M594.717,-601.952C603.553,-600.486 613.681,-598.805 623.827,-597.121"/>
<polygon fill="midnightblue" stroke="midnightblue" points="624.639,-600.535 633.931,-595.445 623.493,-593.629 624.639,-600.535"/>
</g>
<!-- Node5 -->
<g id="node5" class="node"><title>Node5</title>
<g id="a_node5"><a xlink:href="a00393.html#ga3340b488ed37845018e34572450e64c6" target="_top" xlink:title="Returns a C version (NUL terminated string) of dstr. ">
<polygon fill="white" stroke="black" points="643.5,-616.051 643.5,-635.051 721.5,-635.051 721.5,-616.051 643.5,-616.051"/>
<text text-anchor="middle" x="682.5" y="-623.051" font-family="Helvetica,sans-Serif" font-size="10.00">tds_dstr_cstr</text>
</a>
</g>
</g>
<!-- Node3&#45;&gt;Node5 -->
<g id="edge5" class="edge"><title>Node3&#45;&gt;Node5</title>
<path fill="none" stroke="midnightblue" d="M594.717,-611.151C606.32,-613.076 620.152,-615.371 633.326,-617.557"/>
<polygon fill="midnightblue" stroke="midnightblue" points="632.786,-621.015 643.224,-619.2 633.932,-614.11 632.786,-621.015"/>
</g>
<!-- Node8&#45;&gt;Node2 -->
<g id="edge9" class="edge"><title>Node8&#45;&gt;Node2</title>
<path fill="none" stroke="midnightblue" d="M324.204,-616.114C376.092,-639.116 515.727,-690.966 598,-625.551 652.5,-582.218 674.536,-354.035 680.041,-284.61"/>
<polygon fill="midnightblue" stroke="midnightblue" points="683.562,-284.459 680.833,-274.221 676.583,-283.926 683.562,-284.459"/>
</g>
<!-- Node9 -->
<g id="node9" class="node"><title>Node9</title>
<g id="a_node9"><a xlink:href="a00382.html#ga0fc84c7073ed4876d9596c3eccac3609" target="_top" xlink:title="Sanity checks for column&#45;oriented functions. ">
<polygon fill="white" stroke="black" points="411.5,-597.051 411.5,-616.051 465.5,-616.051 465.5,-597.051 411.5,-597.051"/>
<text text-anchor="middle" x="438.5" y="-604.051" font-family="Helvetica,sans-Serif" font-size="10.00">dbcolptr</text>
</a>
</g>
</g>
<!-- Node8&#45;&gt;Node9 -->
<g id="edge10" class="edge"><title>Node8&#45;&gt;Node9</title>
<path fill="none" stroke="midnightblue" d="M327.56,-606.551C347.942,-606.551 377.741,-606.551 401.174,-606.551"/>
<polygon fill="midnightblue" stroke="midnightblue" points="401.437,-610.051 411.437,-606.551 401.437,-603.051 401.437,-610.051"/>
</g>
<!-- Node9&#45;&gt;Node3 -->
<g id="edge11" class="edge"><title>Node9&#45;&gt;Node3</title>
<path fill="none" stroke="midnightblue" d="M465.504,-606.551C483.356,-606.551 507.336,-606.551 527.28,-606.551"/>
<polygon fill="midnightblue" stroke="midnightblue" points="527.289,-610.051 537.289,-606.551 527.289,-603.051 527.289,-610.051"/>
</g>
<!-- Node11&#45;&gt;Node2 -->
<g id="edge14" class="edge"><title>Node11&#45;&gt;Node2</title>
<path fill="none" stroke="midnightblue" d="M190.622,-370.791C202.135,-367.633 215.272,-363.739 227,-359.551 296.359,-334.783 307.697,-311.991 379,-293.551 446.006,-276.223 465.105,-285.154 534,-278.551 567.295,-275.36 604.821,-271.799 633.69,-269.067"/>
<polygon fill="midnightblue" stroke="midnightblue" points="634.285,-272.526 643.911,-268.1 633.626,-265.557 634.285,-272.526"/>
</g>
<!-- Node12 -->
<g id="node12" class="node"><title>Node12</title>
<g id="a_node12"><a xlink:href="a00376.html#ga8b00d5cdcaa20cba13fa2e03d52a443e" target="_top" xlink:title="Convert one datatype to another. ">
<polygon fill="white" stroke="black" points="263,-369.051 263,-388.051 343,-388.051 343,-369.051 263,-369.051"/>
<text text-anchor="middle" x="303" y="-376.051" font-family="Helvetica,sans-Serif" font-size="10.00">dbconvert_ps</text>
</a>
</g>
</g>
<!-- Node11&#45;&gt;Node12 -->
<g id="edge15" class="edge"><title>Node11&#45;&gt;Node12</title>
<path fill="none" stroke="midnightblue" d="M190.812,-378.551C208.885,-378.551 232.138,-378.551 252.703,-378.551"/>
<polygon fill="midnightblue" stroke="midnightblue" points="252.859,-382.051 262.859,-378.551 252.859,-375.051 252.859,-382.051"/>
</g>
<!-- Node12&#45;&gt;Node2 -->
<g id="edge16" class="edge"><title>Node12&#45;&gt;Node2</title>
<path fill="none" stroke="midnightblue" d="M313.688,-368.755C327.11,-355.796 352.695,-333.237 379,-321.551 390.604,-316.396 551.733,-287.474 633.955,-272.92"/>
<polygon fill="midnightblue" stroke="midnightblue" points="634.577,-276.364 643.815,-271.176 633.358,-269.471 634.577,-276.364"/>
</g>
<!-- Node12&#45;&gt;Node3 -->
<g id="edge22" class="edge"><title>Node12&#45;&gt;Node3</title>
<path fill="none" stroke="midnightblue" d="M310.244,-388.174C322.213,-406.192 349.801,-445.709 379,-473.551 430.911,-523.052 502.203,-568.933 539.656,-591.644"/>
<polygon fill="midnightblue" stroke="midnightblue" points="538.043,-594.757 548.417,-596.907 541.647,-588.757 538.043,-594.757"/>
</g>
<!-- Node13 -->
<g id="node13" class="node"><title>Node13</title>
<g id="a_node13"><a xlink:href="a00266.html#ac7a199aaeb82935f6d1dda2be551a089" target="_top" xlink:title="Returns type in string. ">
<polygon fill="white" stroke="black" points="394.5,-407.051 394.5,-426.051 482.5,-426.051 482.5,-407.051 394.5,-407.051"/>
<text text-anchor="middle" x="438.5" y="-414.051" font-family="Helvetica,sans-Serif" font-size="10.00">tds_prdatatype</text>
</a>
</g>
</g>
<!-- Node12&#45;&gt;Node13 -->
<g id="edge17" class="edge"><title>Node12&#45;&gt;Node13</title>
<path fill="none" stroke="midnightblue" d="M337.688,-388.14C354.763,-393.001 375.7,-398.96 393.982,-404.164"/>
<polygon fill="midnightblue" stroke="midnightblue" points="393.247,-407.594 403.823,-406.965 395.163,-400.861 393.247,-407.594"/>
</g>
<!-- Node14 -->
<g id="node14" class="node"><title>Node14</title>
<g id="a_node14"><a xlink:href="a00219.html#a4c070147d189dede5e08a2dc66852678" target="_top" xlink:title="Return the number of bytes needed by specified type. ">
<polygon fill="white" stroke="black" points="379,-369.051 379,-388.051 498,-388.051 498,-369.051 379,-369.051"/>
<text text-anchor="middle" x="438.5" y="-376.051" font-family="Helvetica,sans-Serif" font-size="10.00">tds_get_size_by_type</text>
</a>
</g>
</g>
<!-- Node12&#45;&gt;Node14 -->
<g id="edge18" class="edge"><title>Node12&#45;&gt;Node14</title>
<path fill="none" stroke="midnightblue" d="M343.332,-378.551C351.293,-378.551 359.883,-378.551 368.523,-378.551"/>
<polygon fill="midnightblue" stroke="midnightblue" points="368.654,-382.051 378.654,-378.551 368.653,-375.051 368.654,-382.051"/>
</g>
<!-- Node15 -->
<g id="node15" class="node"><title>Node15</title>
<g id="a_node15"><a xlink:href="a00266.html#aea6a865806d454280126de940478c214" target="_top" xlink:title="dbgetnull">
<polygon fill="white" stroke="black" points="409,-445.051 409,-464.051 468,-464.051 468,-445.051 409,-445.051"/>
<text text-anchor="middle" x="438.5" y="-452.051" font-family="Helvetica,sans-Serif" font-size="10.00">dbgetnull</text>
</a>
</g>
</g>
<!-- Node12&#45;&gt;Node15 -->
<g id="edge19" class="edge"><title>Node12&#45;&gt;Node15</title>
<path fill="none" stroke="midnightblue" d="M314.394,-388.289C328.198,-400.769 353.785,-422.361 379,-435.551 385.23,-438.81 392.126,-441.65 398.932,-444.07"/>
<polygon fill="midnightblue" stroke="midnightblue" points="398.159,-447.501 408.752,-447.316 400.355,-440.854 398.159,-447.501"/>
</g>
<!-- Node16 -->
<g id="node16" class="node"><title>Node16</title>
<g id="a_node16"><a xlink:href="a00388.html#gaa865e08f7ad70ef92b111c2ea3657457" target="_top" xlink:title="tds_convert convert a type to another. ">
<polygon fill="white" stroke="black" points="402.5,-331.051 402.5,-350.051 474.5,-350.051 474.5,-331.051 402.5,-331.051"/>
<text text-anchor="middle" x="438.5" y="-338.051" font-family="Helvetica,sans-Serif" font-size="10.00">tds_convert</text>
</a>
</g>
</g>
<!-- Node12&#45;&gt;Node16 -->
<g id="edge23" class="edge"><title>Node12&#45;&gt;Node16</title>
<path fill="none" stroke="midnightblue" d="M337.688,-368.962C354.763,-364.102 375.7,-358.142 393.982,-352.939"/>
<polygon fill="midnightblue" stroke="midnightblue" points="395.163,-356.241 403.823,-350.137 393.247,-349.509 395.163,-356.241"/>
</g>
<!-- Node15&#45;&gt;Node2 -->
<g id="edge20" class="edge"><title>Node15&#45;&gt;Node2</title>
<path fill="none" stroke="midnightblue" d="M468.241,-447.93C478.077,-444.971 488.89,-440.915 498,-435.551 570.993,-392.578 639.003,-316.184 667.461,-281.968"/>
<polygon fill="midnightblue" stroke="midnightblue" points="670.18,-284.173 673.823,-274.224 664.771,-279.729 670.18,-284.173"/>
</g>
<!-- Node15&#45;&gt;Node3 -->
<g id="edge21" class="edge"><title>Node15&#45;&gt;Node3</title>
<path fill="none" stroke="midnightblue" d="M449.395,-464.316C461.337,-476.262 481.828,-497.279 498,-516.551 518.138,-540.55 539.417,-569.916 552.455,-588.434"/>
<polygon fill="midnightblue" stroke="midnightblue" points="549.714,-590.622 558.312,-596.812 555.451,-586.611 549.714,-590.622"/>
</g>
<!-- Node17&#45;&gt;Node2 -->
<g id="edge25" class="edge"><title>Node17&#45;&gt;Node2</title>
<path fill="none" stroke="midnightblue" d="M331.809,-571.054C389.061,-574.613 521.154,-574.386 598,-506.551 665.27,-447.17 678.369,-330.938 680.902,-284.456"/>
<polygon fill="midnightblue" stroke="midnightblue" points="684.409,-284.361 681.344,-274.219 677.416,-284.058 684.409,-284.361"/>
</g>
<!-- Node17&#45;&gt;Node9 -->
<g id="edge26" class="edge"><title>Node17&#45;&gt;Node9</title>
<path fill="none" stroke="midnightblue" d="M331.661,-576.425C351.928,-582.194 379.616,-590.075 401.59,-596.33"/>
<polygon fill="midnightblue" stroke="midnightblue" points="400.661,-599.704 411.237,-599.076 402.577,-592.972 400.661,-599.704"/>
</g>
<!-- Node19&#45;&gt;Node2 -->
<g id="edge29" class="edge"><title>Node19&#45;&gt;Node2</title>
<path fill="none" stroke="midnightblue" d="M585.72,-122.109C590.036,-124.812 594.41,-128 598,-131.551 632.888,-166.066 659.997,-217.799 673.017,-245.473"/>
<polygon fill="midnightblue" stroke="midnightblue" points="669.952,-247.186 677.304,-254.815 676.314,-244.266 669.952,-247.186"/>
</g>
<!-- Node20&#45;&gt;Node2 -->
<g id="edge31" class="edge"><title>Node20&#45;&gt;Node2</title>
<path fill="none" stroke="midnightblue" d="M586.641,-84.2559C590.731,-86.8838 594.774,-90.0008 598,-93.5513 640.102,-139.884 665.626,-211.316 676.046,-245.305"/>
<polygon fill="midnightblue" stroke="midnightblue" points="672.705,-246.351 678.9,-254.945 679.417,-244.363 672.705,-246.351"/>
</g>
<!-- Node21&#45;&gt;Node2 -->
<g id="edge33" class="edge"><title>Node21&#45;&gt;Node2</title>
<path fill="none" stroke="midnightblue" d="M586.839,-46.0821C590.919,-48.7191 594.908,-51.8836 598,-55.5513 647.163,-113.859 669.899,-204.754 677.926,-244.646"/>
<polygon fill="midnightblue" stroke="midnightblue" points="674.53,-245.519 679.847,-254.682 681.405,-244.203 674.53,-245.519"/>
</g>
<!-- Node22&#45;&gt;Node2 -->
<g id="edge35" class="edge"><title>Node22&#45;&gt;Node2</title>
<path fill="none" stroke="midnightblue" d="M188.138,-225.247C257.99,-222.498 444.75,-218.153 598,-241.551 613.071,-243.852 629.302,-247.938 643.41,-252.035"/>
<polygon fill="midnightblue" stroke="midnightblue" points="642.676,-255.469 653.261,-254.994 644.69,-248.765 642.676,-255.469"/>
</g>
<!-- Node23 -->
<g id="node23" class="node"><title>Node23</title>
<g id="a_node23"><a xlink:href="a00394.html#ga0cf7e719115b0ae476753442d10505ab" target="_top" xlink:title="Returns string representation of the given type. ">
<polygon fill="white" stroke="black" points="269.5,-179.051 269.5,-198.051 336.5,-198.051 336.5,-179.051 269.5,-179.051"/>
<text text-anchor="middle" x="303" y="-186.051" font-family="Helvetica,sans-Serif" font-size="10.00">tds_prtype</text>
</a>
</g>
</g>
<!-- Node22&#45;&gt;Node23 -->
<g id="edge36" class="edge"><title>Node22&#45;&gt;Node23</title>
<path fill="none" stroke="midnightblue" d="M188.055,-219.044C208.402,-213.599 236.288,-206.136 259.38,-199.957"/>
<polygon fill="midnightblue" stroke="midnightblue" points="260.521,-203.275 269.276,-197.308 258.711,-196.512 260.521,-203.275"/>
</g>
<!-- Node24&#45;&gt;Node2 -->
<g id="edge38" class="edge"><title>Node24&#45;&gt;Node2</title>
<path fill="none" stroke="midnightblue" d="M332.674,-257.914C346.576,-255.026 363.568,-251.979 379,-250.551 475.919,-241.583 501.002,-242.476 598,-250.551 609.669,-251.523 622.162,-253.245 633.835,-255.157"/>
<polygon fill="midnightblue" stroke="midnightblue" points="633.394,-258.633 643.842,-256.873 634.577,-251.733 633.394,-258.633"/>
</g>
<!-- Node25&#45;&gt;Node2 -->
<g id="edge40" class="edge"><title>Node25&#45;&gt;Node2</title>
<path fill="none" stroke="midnightblue" d="M580.357,-160.135C585.975,-164.357 592.475,-169.498 598,-174.551 623.778,-198.128 650.774,-228.406 666.863,-247.141"/>
<polygon fill="midnightblue" stroke="midnightblue" points="664.296,-249.525 673.444,-254.871 669.626,-244.987 664.296,-249.525"/>
</g>
</g>
</svg>
