<?xml version="1.0" encoding="UTF-8" standalone="no"?>
<!DOCTYPE svg PUBLIC "-//W3C//DTD SVG 1.1//EN"
 "http://www.w3.org/Graphics/SVG/1.1/DTD/svg11.dtd">
<!-- Generated by graphviz version 2.38.0 (20140413.2041)
 -->
<!-- Title: tds_socket_set_nonblocking Pages: 1 -->
<svg width="328pt" height="104pt"
 viewBox="0.00 0.00 328.00 104.00" xmlns="http://www.w3.org/2000/svg" xmlns:xlink="http://www.w3.org/1999/xlink">
<g id="graph0" class="graph" transform="scale(1 1) rotate(0) translate(4 100)">
<title>tds_socket_set_nonblocking</title>
<polygon fill="white" stroke="none" points="-4,4 -4,-100 324,-100 324,4 -4,4"/>
<!-- Node1 -->
<g id="node1" class="node"><title>Node1</title>
<polygon fill="#bfbfbf" stroke="black" points="0,-38.5 0,-57.5 150,-57.5 150,-38.5 0,-38.5"/>
<text text-anchor="middle" x="75" y="-45.5" font-family="Helvetica,sans-Serif" font-size="10.00">tds_socket_set_nonblocking</text>
</g>
<!-- Node2 -->
<g id="node2" class="node"><title>Node2</title>
<g id="a_node2"><a xlink:href="a00392.html#gab604dd1d75afa8f852d1a6ee0b681974" target="_top" xlink:title="Setup the socket and attempt a connection. ">
<polygon fill="white" stroke="black" points="203.5,-76.5 203.5,-95.5 302.5,-95.5 302.5,-76.5 203.5,-76.5"/>
<text text-anchor="middle" x="253" y="-83.5" font-family="Helvetica,sans-Serif" font-size="10.00">tds_setup_socket</text>
</a>
</g>
</g>
<!-- Node1&#45;&gt;Node2 -->
<g id="edge1" class="edge"><title>Node1&#45;&gt;Node2</title>
<path fill="none" stroke="midnightblue" d="M130.433,-59.7526C155.319,-65.1258 184.419,-71.4086 207.907,-76.4799"/>
<polygon fill="midnightblue" stroke="midnightblue" points="130.926,-56.2784 120.412,-57.589 129.448,-63.1207 130.926,-56.2784"/>
</g>
<!-- Node3 -->
<g id="node3" class="node"><title>Node3</title>
<g id="a_node3"><a xlink:href="a00392.html#ga954dcc3b0332fa9448d9edf59c0fe439" target="_top" xlink:title="Get port of all instances. ">
<polygon fill="white" stroke="black" points="186,-38.5 186,-57.5 320,-57.5 320,-38.5 186,-38.5"/>
<text text-anchor="middle" x="253" y="-45.5" font-family="Helvetica,sans-Serif" font-size="10.00">tds7_get_instance_ports</text>
</a>
</g>
</g>
<!-- Node1&#45;&gt;Node3 -->
<g id="edge2" class="edge"><title>Node1&#45;&gt;Node3</title>
<path fill="none" stroke="midnightblue" d="M160.179,-48C168.775,-48 177.42,-48 185.785,-48"/>
<polygon fill="midnightblue" stroke="midnightblue" points="160.13,-44.5001 150.13,-48 160.13,-51.5001 160.13,-44.5001"/>
</g>
<!-- Node4 -->
<g id="node4" class="node"><title>Node4</title>
<g id="a_node4"><a xlink:href="a00392.html#gac23c12ccb3e8599f10f305e993e216f6" target="_top" xlink:title="Get port of given instance. ">
<polygon fill="white" stroke="black" points="189,-0.5 189,-19.5 317,-19.5 317,-0.5 189,-0.5"/>
<text text-anchor="middle" x="253" y="-7.5" font-family="Helvetica,sans-Serif" font-size="10.00">tds7_get_instance_port</text>
</a>
</g>
</g>
<!-- Node1&#45;&gt;Node4 -->
<g id="edge3" class="edge"><title>Node1&#45;&gt;Node4</title>
<path fill="none" stroke="midnightblue" d="M130.433,-36.2474C155.319,-30.8742 184.419,-24.5914 207.907,-19.5201"/>
<polygon fill="midnightblue" stroke="midnightblue" points="129.448,-32.8793 120.412,-38.411 130.926,-39.7216 129.448,-32.8793"/>
</g>
</g>
</svg>
