<?xml version="1.0" encoding="UTF-8" standalone="no"?>
<!DOCTYPE svg PUBLIC "-//W3C//DTD SVG 1.1//EN"
 "http://www.w3.org/Graphics/SVG/1.1/DTD/svg11.dtd">
<!-- Generated by graphviz version 2.38.0 (20140413.2041)
 -->
<!-- Title: search_interface_file Pages: 1 -->
<svg width="383pt" height="142pt"
 viewBox="0.00 0.00 383.00 142.00" xmlns="http://www.w3.org/2000/svg" xmlns:xlink="http://www.w3.org/1999/xlink">
<g id="graph0" class="graph" transform="scale(1 1) rotate(0) translate(4 138)">
<title>search_interface_file</title>
<polygon fill="white" stroke="none" points="-4,4 -4,-138 379,-138 379,4 -4,4"/>
<!-- Node1 -->
<g id="node1" class="node"><title>Node1</title>
<polygon fill="#bfbfbf" stroke="black" points="0,-57.5 0,-76.5 116,-76.5 116,-57.5 0,-57.5"/>
<text text-anchor="middle" x="58" y="-64.5" font-family="Helvetica,sans-Serif" font-size="10.00">search_interface_file</text>
</g>
<!-- Node2 -->
<g id="node2" class="node"><title>Node2</title>
<g id="a_node2"><a xlink:href="a00219.html#ab45c291105027e69836002e1dd586141" target="_top" xlink:title="Write a message to the debug log. ">
<polygon fill="white" stroke="black" points="292,-38.5 292,-57.5 369,-57.5 369,-38.5 292,-38.5"/>
<text text-anchor="middle" x="330.5" y="-45.5" font-family="Helvetica,sans-Serif" font-size="10.00">tdsdump_log</text>
</a>
</g>
</g>
<!-- Node1&#45;&gt;Node2 -->
<g id="edge1" class="edge"><title>Node1&#45;&gt;Node2</title>
<path fill="none" stroke="midnightblue" d="M116.036,-70.4789C154.107,-71.9478 205.213,-72.2776 250,-67 262.332,-65.5469 275.521,-62.8674 287.541,-59.9697"/>
<polygon fill="midnightblue" stroke="midnightblue" points="288.477,-63.3435 297.319,-57.5064 286.767,-56.5556 288.477,-63.3435"/>
</g>
<!-- Node3 -->
<g id="node3" class="node"><title>Node3</title>
<g id="a_node3"><a xlink:href="a00393.html#gad96366d9fa93bfc283cef1299fbe97ab" target="_top" xlink:title="copy a string from another ">
<polygon fill="white" stroke="black" points="159.5,-114.5 159.5,-133.5 242.5,-133.5 242.5,-114.5 159.5,-114.5"/>
<text text-anchor="middle" x="201" y="-121.5" font-family="Helvetica,sans-Serif" font-size="10.00">tds_dstr_copy</text>
</a>
</g>
</g>
<!-- Node1&#45;&gt;Node3 -->
<g id="edge2" class="edge"><title>Node1&#45;&gt;Node3</title>
<path fill="none" stroke="midnightblue" d="M82.6002,-76.5405C105.68,-85.8705 141.031,-100.162 166.913,-110.624"/>
<polygon fill="midnightblue" stroke="midnightblue" points="165.74,-113.925 176.323,-114.428 168.363,-107.436 165.74,-113.925"/>
</g>
<!-- Node5 -->
<g id="node5" class="node"><title>Node5</title>
<g id="a_node5"><a xlink:href="a00387.html#ga45281d1cb2ac649db65d80bb3ff06b66" target="_top" xlink:title="Given a portname lookup the port. ">
<polygon fill="white" stroke="black" points="155,-38.5 155,-57.5 247,-57.5 247,-38.5 155,-38.5"/>
<text text-anchor="middle" x="201" y="-45.5" font-family="Helvetica,sans-Serif" font-size="10.00">tds_lookup_port</text>
</a>
</g>
</g>
<!-- Node1&#45;&gt;Node5 -->
<g id="edge4" class="edge"><title>Node1&#45;&gt;Node5</title>
<path fill="none" stroke="midnightblue" d="M116.35,-59.272C125.757,-58.0044 135.487,-56.6932 144.839,-55.4331"/>
<polygon fill="midnightblue" stroke="midnightblue" points="145.362,-58.8943 154.805,-54.0901 144.427,-51.957 145.362,-58.8943"/>
</g>
<!-- Node6 -->
<g id="node6" class="node"><title>Node6</title>
<g id="a_node6"><a xlink:href="a00387.html#gade94d7e89ba1f668c82be0b00a7f5cd7" target="_top" xlink:title="Set TDS version from given string. ">
<polygon fill="white" stroke="black" points="152,-0.5 152,-19.5 250,-19.5 250,-0.5 152,-0.5"/>
<text text-anchor="middle" x="201" y="-7.5" font-family="Helvetica,sans-Serif" font-size="10.00">tds_config_verstr</text>
</a>
</g>
</g>
<!-- Node1&#45;&gt;Node6 -->
<g id="edge5" class="edge"><title>Node1&#45;&gt;Node6</title>
<path fill="none" stroke="midnightblue" d="M82.2853,-57.4028C101.079,-49.6768 128.213,-38.5673 152,-29 156.542,-27.1731 161.331,-25.2608 166.055,-23.3827"/>
<polygon fill="midnightblue" stroke="midnightblue" points="167.555,-26.5534 175.561,-19.614 164.974,-20.0462 167.555,-26.5534"/>
</g>
<!-- Node4 -->
<g id="node4" class="node"><title>Node4</title>
<g id="a_node4"><a xlink:href="a00393.html#ga656718f240d7403f986ae887d84a6ca1" target="_top" xlink:title="Set string to a given buffer of characters. ">
<polygon fill="white" stroke="black" points="286,-114.5 286,-133.5 375,-133.5 375,-114.5 286,-114.5"/>
<text text-anchor="middle" x="330.5" y="-121.5" font-family="Helvetica,sans-Serif" font-size="10.00">tds_dstr_copyn</text>
</a>
</g>
</g>
<!-- Node3&#45;&gt;Node4 -->
<g id="edge3" class="edge"><title>Node3&#45;&gt;Node4</title>
<path fill="none" stroke="midnightblue" d="M242.692,-124C253.075,-124 264.401,-124 275.342,-124"/>
<polygon fill="midnightblue" stroke="midnightblue" points="275.669,-127.5 285.669,-124 275.669,-120.5 275.669,-127.5"/>
</g>
<!-- Node6&#45;&gt;Node2 -->
<g id="edge6" class="edge"><title>Node6&#45;&gt;Node2</title>
<path fill="none" stroke="midnightblue" d="M234.174,-19.589C250.331,-24.4044 270.108,-30.2988 287.452,-35.468"/>
<polygon fill="midnightblue" stroke="midnightblue" points="286.754,-38.912 297.337,-38.4141 288.753,-32.2036 286.754,-38.912"/>
</g>
</g>
</svg>
