<?xml version="1.0" encoding="UTF-8" standalone="no"?>
<!DOCTYPE svg PUBLIC "-//W3C//DTD SVG 1.1//EN"
 "http://www.w3.org/Graphics/SVG/1.1/DTD/svg11.dtd">
<!-- Generated by graphviz version 2.38.0 (20140413.2041)
 -->
<!-- Title: src/tds/iconv.c Pages: 1 -->
<svg width="1141pt" height="252pt"
 viewBox="0.00 0.00 1140.50 252.00" xmlns="http://www.w3.org/2000/svg" xmlns:xlink="http://www.w3.org/1999/xlink">
<g id="graph0" class="graph" transform="scale(1 1) rotate(0) translate(4 248)">
<title>src/tds/iconv.c</title>
<polygon fill="white" stroke="none" points="-4,4 -4,-248 1136.5,-248 1136.5,4 -4,4"/>
<!-- Node1 -->
<g id="node1" class="node"><title>Node1</title>
<polygon fill="#bfbfbf" stroke="black" points="879,-224.5 879,-243.5 962,-243.5 962,-224.5 879,-224.5"/>
<text text-anchor="middle" x="920.5" y="-231.5" font-family="Helvetica,sans-Serif" font-size="10.00">src/tds/iconv.c</text>
</g>
<!-- Node2 -->
<g id="node2" class="node"><title>Node2</title>
<g id="a_node2"><a xlink:href="a00192_source.html" target="_top" xlink:title="config.h">
<polygon fill="white" stroke="black" points="0,-0.5 0,-19.5 53,-19.5 53,-0.5 0,-0.5"/>
<text text-anchor="middle" x="26.5" y="-7.5" font-family="Helvetica,sans-Serif" font-size="10.00">config.h</text>
</a>
</g>
</g>
<!-- Node1&#45;&gt;Node2 -->
<g id="edge1" class="edge"><title>Node1&#45;&gt;Node2</title>
<path fill="none" stroke="midnightblue" d="M878.913,-230.703C715.719,-221.346 124.885,-184.098 60.5,-132 29.9244,-107.259 25.5497,-57.3718 25.6378,-30.0146"/>
<polygon fill="midnightblue" stroke="midnightblue" points="29.1417,-29.8905 25.8854,-19.8085 22.1438,-29.7206 29.1417,-29.8905"/>
</g>
<!-- Node3 -->
<g id="node3" class="node"><title>Node3</title>
<polygon fill="white" stroke="#bfbfbf" points="767,-56.5 767,-75.5 822,-75.5 822,-56.5 767,-56.5"/>
<text text-anchor="middle" x="794.5" y="-63.5" font-family="Helvetica,sans-Serif" font-size="10.00">stdarg.h</text>
</g>
<!-- Node1&#45;&gt;Node3 -->
<g id="edge2" class="edge"><title>Node1&#45;&gt;Node3</title>
<path fill="none" stroke="midnightblue" d="M921.684,-224.276C924.11,-202.705 927.356,-146.138 900.5,-112 883.81,-90.7843 855.239,-79.4301 831.962,-73.4366"/>
<polygon fill="midnightblue" stroke="midnightblue" points="832.567,-69.9835 822.032,-71.1134 830.972,-76.7995 832.567,-69.9835"/>
</g>
<!-- Node4 -->
<g id="node4" class="node"><title>Node4</title>
<polygon fill="white" stroke="#bfbfbf" points="845,-112.5 845,-131.5 892,-131.5 892,-112.5 845,-112.5"/>
<text text-anchor="middle" x="868.5" y="-119.5" font-family="Helvetica,sans-Serif" font-size="10.00">stdio.h</text>
</g>
<!-- Node1&#45;&gt;Node4 -->
<g id="edge3" class="edge"><title>Node1&#45;&gt;Node4</title>
<path fill="none" stroke="midnightblue" d="M916.42,-224.368C907.952,-206.456 888.318,-164.923 876.985,-140.948"/>
<polygon fill="midnightblue" stroke="midnightblue" points="880,-139.136 872.561,-131.591 873.671,-142.128 880,-139.136"/>
</g>
<!-- Node5 -->
<g id="node5" class="node"><title>Node5</title>
<polygon fill="white" stroke="#bfbfbf" points="986.5,-168.5 986.5,-187.5 1040.5,-187.5 1040.5,-168.5 986.5,-168.5"/>
<text text-anchor="middle" x="1013.5" y="-175.5" font-family="Helvetica,sans-Serif" font-size="10.00">assert.h</text>
</g>
<!-- Node1&#45;&gt;Node5 -->
<g id="edge4" class="edge"><title>Node1&#45;&gt;Node5</title>
<path fill="none" stroke="midnightblue" d="M935.442,-224.324C950.085,-215.822 972.634,-202.729 989.738,-192.797"/>
<polygon fill="midnightblue" stroke="midnightblue" points="991.705,-195.703 998.595,-187.655 988.19,-189.649 991.705,-195.703"/>
</g>
<!-- Node6 -->
<g id="node6" class="node"><title>Node6</title>
<g id="a_node6"><a xlink:href="a00219.html" target="_top" xlink:title="Main include file for libtds. ">
<polygon fill="white" stroke="black" points="550,-168.5 550,-187.5 625,-187.5 625,-168.5 550,-168.5"/>
<text text-anchor="middle" x="587.5" y="-175.5" font-family="Helvetica,sans-Serif" font-size="10.00">freetds/tds.h</text>
</a>
</g>
</g>
<!-- Node1&#45;&gt;Node6 -->
<g id="edge5" class="edge"><title>Node1&#45;&gt;Node6</title>
<path fill="none" stroke="midnightblue" d="M878.999,-226.27C817.021,-216.22 700.587,-197.338 635.192,-186.734"/>
<polygon fill="midnightblue" stroke="midnightblue" points="635.582,-183.251 625.151,-185.106 634.462,-190.161 635.582,-183.251"/>
</g>
<!-- Node20 -->
<g id="node20" class="node"><title>Node20</title>
<g id="a_node20"><a xlink:href="a00210_source.html" target="_top" xlink:title="freetds/iconv.h">
<polygon fill="white" stroke="black" points="878.5,-56.5 878.5,-75.5 964.5,-75.5 964.5,-56.5 878.5,-56.5"/>
<text text-anchor="middle" x="921.5" y="-63.5" font-family="Helvetica,sans-Serif" font-size="10.00">freetds/iconv.h</text>
</a>
</g>
</g>
<!-- Node1&#45;&gt;Node20 -->
<g id="edge32" class="edge"><title>Node1&#45;&gt;Node20</title>
<path fill="none" stroke="midnightblue" d="M924.1,-224.222C927.556,-215.285 932.533,-200.942 934.5,-188 939.575,-154.606 939.234,-145.444 934.5,-112 933.232,-103.042 930.611,-93.372 928.052,-85.2998"/>
<polygon fill="midnightblue" stroke="midnightblue" points="931.361,-84.1569 924.844,-75.8034 924.729,-86.3976 931.361,-84.1569"/>
</g>
<!-- Node21 -->
<g id="node21" class="node"><title>Node21</title>
<g id="a_node21"><a xlink:href="a00329_source.html" target="_top" xlink:title="encodings.h">
<polygon fill="white" stroke="black" points="1058.5,-168.5 1058.5,-187.5 1132.5,-187.5 1132.5,-168.5 1058.5,-168.5"/>
<text text-anchor="middle" x="1095.5" y="-175.5" font-family="Helvetica,sans-Serif" font-size="10.00">encodings.h</text>
</a>
</g>
</g>
<!-- Node1&#45;&gt;Node21 -->
<g id="edge35" class="edge"><title>Node1&#45;&gt;Node21</title>
<path fill="none" stroke="midnightblue" d="M948.229,-224.444C977.926,-215.28 1025.22,-200.688 1058.17,-190.519"/>
<polygon fill="midnightblue" stroke="midnightblue" points="1059.38,-193.809 1067.9,-187.516 1057.31,-187.121 1059.38,-193.809"/>
</g>
<!-- Node6&#45;&gt;Node3 -->
<g id="edge6" class="edge"><title>Node6&#45;&gt;Node3</title>
<path fill="none" stroke="midnightblue" d="M625.192,-175.67C662.838,-172.536 720.558,-162.623 759.5,-132 774.579,-120.142 783.99,-99.9314 789.206,-85.1882"/>
<polygon fill="midnightblue" stroke="midnightblue" points="792.554,-86.2081 792.284,-75.6167 785.89,-84.0651 792.554,-86.2081"/>
</g>
<!-- Node6&#45;&gt;Node4 -->
<g id="edge7" class="edge"><title>Node6&#45;&gt;Node4</title>
<path fill="none" stroke="midnightblue" d="M625.079,-170.635C672.926,-162.394 758.082,-147.271 830.5,-132 831.951,-131.694 833.432,-131.375 834.926,-131.046"/>
<polygon fill="midnightblue" stroke="midnightblue" points="835.847,-134.426 844.824,-128.798 834.297,-127.6 835.847,-134.426"/>
</g>
<!-- Node7 -->
<g id="node7" class="node"><title>Node7</title>
<g id="a_node7"><a xlink:href="a00221_source.html" target="_top" xlink:title="time.h">
<polygon fill="white" stroke="black" points="688.5,-112.5 688.5,-131.5 732.5,-131.5 732.5,-112.5 688.5,-112.5"/>
<text text-anchor="middle" x="710.5" y="-119.5" font-family="Helvetica,sans-Serif" font-size="10.00">time.h</text>
</a>
</g>
</g>
<!-- Node6&#45;&gt;Node7 -->
<g id="edge8" class="edge"><title>Node6&#45;&gt;Node7</title>
<path fill="none" stroke="midnightblue" d="M606.99,-168.444C627.142,-159.596 658.823,-145.687 681.831,-135.586"/>
<polygon fill="midnightblue" stroke="midnightblue" points="683.352,-138.741 691.101,-131.516 680.538,-132.332 683.352,-138.741"/>
</g>
<!-- Node8 -->
<g id="node8" class="node"><title>Node8</title>
<g id="a_node8"><a xlink:href="a00224_source.html" target="_top" xlink:title="freetds/version.h">
<polygon fill="white" stroke="black" points="79,-112.5 79,-131.5 174,-131.5 174,-112.5 79,-112.5"/>
<text text-anchor="middle" x="126.5" y="-119.5" font-family="Helvetica,sans-Serif" font-size="10.00">freetds/version.h</text>
</a>
</g>
</g>
<!-- Node6&#45;&gt;Node8 -->
<g id="edge10" class="edge"><title>Node6&#45;&gt;Node8</title>
<path fill="none" stroke="midnightblue" d="M549.834,-173.384C479.988,-166.554 325.431,-150.853 184.206,-132.036"/>
<polygon fill="midnightblue" stroke="midnightblue" points="184.438,-128.536 174.062,-130.676 183.508,-135.474 184.438,-128.536"/>
</g>
<!-- Node9 -->
<g id="node9" class="node"><title>Node9</title>
<g id="a_node9"><a xlink:href="a00238_source.html" target="_top" xlink:title="tds_sysdep_public.h">
<polygon fill="white" stroke="black" points="51,-56.5 51,-75.5 162,-75.5 162,-56.5 51,-56.5"/>
<text text-anchor="middle" x="106.5" y="-63.5" font-family="Helvetica,sans-Serif" font-size="10.00">tds_sysdep_public.h</text>
</a>
</g>
</g>
<!-- Node6&#45;&gt;Node9 -->
<g id="edge11" class="edge"><title>Node6&#45;&gt;Node9</title>
<path fill="none" stroke="midnightblue" d="M549.719,-176.594C435.854,-174.982 101.833,-167.263 69.5,-132 55.8248,-117.085 72.5093,-96.2425 87.659,-82.2157"/>
<polygon fill="midnightblue" stroke="midnightblue" points="90.0409,-84.7825 95.2725,-75.5694 85.4374,-79.5091 90.0409,-84.7825"/>
</g>
<!-- Node11 -->
<g id="node11" class="node"><title>Node11</title>
<g id="a_node11"><a xlink:href="a00218_source.html" target="_top" xlink:title="freetds/sysdep_private.h">
<polygon fill="white" stroke="black" points="616,-56.5 616,-75.5 749,-75.5 749,-56.5 616,-56.5"/>
<text text-anchor="middle" x="682.5" y="-63.5" font-family="Helvetica,sans-Serif" font-size="10.00">freetds/sysdep_private.h</text>
</a>
</g>
</g>
<!-- Node6&#45;&gt;Node11 -->
<g id="edge13" class="edge"><title>Node6&#45;&gt;Node11</title>
<path fill="none" stroke="midnightblue" d="M599.758,-168.244C611.116,-159.768 628.08,-146.153 640.5,-132 653.478,-117.21 665.353,-98.0693 673.139,-84.396"/>
<polygon fill="midnightblue" stroke="midnightblue" points="676.258,-85.9897 678.044,-75.5465 670.135,-82.5966 676.258,-85.9897"/>
</g>
<!-- Node12 -->
<g id="node12" class="node"><title>Node12</title>
<g id="a_node12"><a xlink:href="a00220_source.html" target="_top" xlink:title="freetds/thread.h">
<polygon fill="white" stroke="black" points="192.5,-112.5 192.5,-131.5 284.5,-131.5 284.5,-112.5 192.5,-112.5"/>
<text text-anchor="middle" x="238.5" y="-119.5" font-family="Helvetica,sans-Serif" font-size="10.00">freetds/thread.h</text>
</a>
</g>
</g>
<!-- Node6&#45;&gt;Node12 -->
<g id="edge14" class="edge"><title>Node6&#45;&gt;Node12</title>
<path fill="none" stroke="midnightblue" d="M549.889,-171.37C495.814,-163.248 392.697,-147.656 294.776,-132.19"/>
<polygon fill="midnightblue" stroke="midnightblue" points="295.132,-128.702 284.708,-130.597 294.038,-135.616 295.132,-128.702"/>
</g>
<!-- Node13 -->
<g id="node13" class="node"><title>Node13</title>
<g id="a_node13"><a xlink:href="a00201_source.html" target="_top" xlink:title="freetds/bool.h">
<polygon fill="white" stroke="black" points="302.5,-112.5 302.5,-131.5 382.5,-131.5 382.5,-112.5 302.5,-112.5"/>
<text text-anchor="middle" x="342.5" y="-119.5" font-family="Helvetica,sans-Serif" font-size="10.00">freetds/bool.h</text>
</a>
</g>
</g>
<!-- Node6&#45;&gt;Node13 -->
<g id="edge15" class="edge"><title>Node6&#45;&gt;Node13</title>
<path fill="none" stroke="midnightblue" d="M549.756,-168.681C507.113,-159.282 437.594,-143.96 390.97,-133.683"/>
<polygon fill="midnightblue" stroke="midnightblue" points="391.615,-130.241 381.096,-131.507 390.108,-137.077 391.615,-130.241"/>
</g>
<!-- Node14 -->
<g id="node14" class="node"><title>Node14</title>
<g id="a_node14"><a xlink:href="a00229_source.html" target="_top" xlink:title="replacements.h">
<polygon fill="white" stroke="black" points="543,-112.5 543,-131.5 632,-131.5 632,-112.5 543,-112.5"/>
<text text-anchor="middle" x="587.5" y="-119.5" font-family="Helvetica,sans-Serif" font-size="10.00">replacements.h</text>
</a>
</g>
</g>
<!-- Node6&#45;&gt;Node14 -->
<g id="edge16" class="edge"><title>Node6&#45;&gt;Node14</title>
<path fill="none" stroke="midnightblue" d="M587.5,-168.083C587.5,-161.006 587.5,-150.861 587.5,-141.986"/>
<polygon fill="midnightblue" stroke="midnightblue" points="591,-141.751 587.5,-131.751 584,-141.751 591,-141.751"/>
</g>
<!-- Node16 -->
<g id="node16" class="node"><title>Node16</title>
<g id="a_node16"><a xlink:href="a00214_source.html" target="_top" xlink:title="freetds/pushvis.h">
<polygon fill="white" stroke="black" points="315.5,-0.5 315.5,-19.5 411.5,-19.5 411.5,-0.5 315.5,-0.5"/>
<text text-anchor="middle" x="363.5" y="-7.5" font-family="Helvetica,sans-Serif" font-size="10.00">freetds/pushvis.h</text>
</a>
</g>
</g>
<!-- Node6&#45;&gt;Node16 -->
<g id="edge29" class="edge"><title>Node6&#45;&gt;Node16</title>
<path fill="none" stroke="midnightblue" d="M578.226,-168.045C562.597,-153.547 529.385,-125.227 495.5,-112 437.676,-89.4281 259.466,-122.635 218.5,-76 189.398,-42.8707 253.168,-25.7715 305.179,-17.6002"/>
<polygon fill="midnightblue" stroke="midnightblue" points="306.016,-21.0144 315.394,-16.0829 304.988,-14.0903 306.016,-21.0144"/>
</g>
<!-- Node17 -->
<g id="node17" class="node"><title>Node17</title>
<g id="a_node17"><a xlink:href="a00212_source.html" target="_top" xlink:title="freetds/popvis.h">
<polygon fill="white" stroke="black" points="541.5,-0.5 541.5,-19.5 633.5,-19.5 633.5,-0.5 541.5,-0.5"/>
<text text-anchor="middle" x="587.5" y="-7.5" font-family="Helvetica,sans-Serif" font-size="10.00">freetds/popvis.h</text>
</a>
</g>
</g>
<!-- Node6&#45;&gt;Node17 -->
<g id="edge31" class="edge"><title>Node6&#45;&gt;Node17</title>
<path fill="none" stroke="midnightblue" d="M625.024,-172.688C707.186,-161.803 891.003,-128.736 830.5,-56 807.19,-27.9776 707.778,-17.3297 643.551,-13.3372"/>
<polygon fill="midnightblue" stroke="midnightblue" points="643.75,-9.84295 633.563,-12.7519 643.341,-16.831 643.75,-9.84295"/>
</g>
<!-- Node19 -->
<g id="node19" class="node"><title>Node19</title>
<g id="a_node19"><a xlink:href="a00213_source.html" target="_top" xlink:title="freetds/proto.h">
<polygon fill="white" stroke="black" points="400.5,-112.5 400.5,-131.5 486.5,-131.5 486.5,-112.5 400.5,-112.5"/>
<text text-anchor="middle" x="443.5" y="-119.5" font-family="Helvetica,sans-Serif" font-size="10.00">freetds/proto.h</text>
</a>
</g>
</g>
<!-- Node6&#45;&gt;Node19 -->
<g id="edge30" class="edge"><title>Node6&#45;&gt;Node19</title>
<path fill="none" stroke="midnightblue" d="M564.683,-168.444C540.668,-159.438 502.671,-145.189 475.631,-135.049"/>
<polygon fill="midnightblue" stroke="midnightblue" points="476.803,-131.751 466.21,-131.516 474.345,-138.305 476.803,-131.751"/>
</g>
<!-- Node7&#45;&gt;Node7 -->
<g id="edge9" class="edge"><title>Node7&#45;&gt;Node7</title>
<path fill="none" stroke="midnightblue" d="M727.768,-131.575C739.287,-134.27 750.5,-131.078 750.5,-122 750.5,-115.759 745.2,-112.3 738.145,-111.623"/>
<polygon fill="midnightblue" stroke="midnightblue" points="737.469,-108.165 727.768,-112.425 738.008,-115.144 737.469,-108.165"/>
</g>
<!-- Node10 -->
<g id="node10" class="node"><title>Node10</title>
<polygon fill="white" stroke="#bfbfbf" points="84,-0.5 84,-19.5 129,-19.5 129,-0.5 84,-0.5"/>
<text text-anchor="middle" x="106.5" y="-7.5" font-family="Helvetica,sans-Serif" font-size="10.00">float.h</text>
</g>
<!-- Node9&#45;&gt;Node10 -->
<g id="edge12" class="edge"><title>Node9&#45;&gt;Node10</title>
<path fill="none" stroke="midnightblue" d="M106.5,-56.083C106.5,-49.0059 106.5,-38.8611 106.5,-29.9865"/>
<polygon fill="midnightblue" stroke="midnightblue" points="110,-29.751 106.5,-19.7511 103,-29.7511 110,-29.751"/>
</g>
<!-- Node14&#45;&gt;Node3 -->
<g id="edge17" class="edge"><title>Node14&#45;&gt;Node3</title>
<path fill="none" stroke="midnightblue" d="M620.3,-112.444C657.45,-102.752 717.88,-86.9879 756.905,-76.8075"/>
<polygon fill="midnightblue" stroke="midnightblue" points="758.029,-80.1313 766.822,-74.2203 756.262,-73.3579 758.029,-80.1313"/>
</g>
<!-- Node14&#45;&gt;Node9 -->
<g id="edge18" class="edge"><title>Node14&#45;&gt;Node9</title>
<path fill="none" stroke="midnightblue" d="M542.681,-115.968C457.537,-106.41 272.046,-85.5852 172.603,-74.4211"/>
<polygon fill="midnightblue" stroke="midnightblue" points="172.705,-70.9107 162.377,-73.2731 171.924,-77.867 172.705,-70.9107"/>
</g>
<!-- Node14&#45;&gt;Node11 -->
<g id="edge19" class="edge"><title>Node14&#45;&gt;Node11</title>
<path fill="none" stroke="midnightblue" d="M602.763,-112.324C617.721,-103.822 640.755,-90.7288 658.227,-80.7975"/>
<polygon fill="midnightblue" stroke="midnightblue" points="660.31,-83.639 667.274,-75.6545 656.851,-77.5534 660.31,-83.639"/>
</g>
<!-- Node15 -->
<g id="node15" class="node"><title>Node15</title>
<g id="a_node15"><a xlink:href="a00231_source.html" target="_top" xlink:title="replacements/readpassphrase.h">
<polygon fill="white" stroke="black" points="391,-56.5 391,-75.5 560,-75.5 560,-56.5 391,-56.5"/>
<text text-anchor="middle" x="475.5" y="-63.5" font-family="Helvetica,sans-Serif" font-size="10.00">replacements/readpassphrase.h</text>
</a>
</g>
</g>
<!-- Node14&#45;&gt;Node15 -->
<g id="edge20" class="edge"><title>Node14&#45;&gt;Node15</title>
<path fill="none" stroke="midnightblue" d="M569.505,-112.324C551.462,-103.625 523.453,-90.1202 502.697,-80.113"/>
<polygon fill="midnightblue" stroke="midnightblue" points="503.978,-76.8449 493.45,-75.6545 500.938,-83.1502 503.978,-76.8449"/>
</g>
<!-- Node14&#45;&gt;Node16 -->
<g id="edge27" class="edge"><title>Node14&#45;&gt;Node16</title>
<path fill="none" stroke="midnightblue" d="M542.663,-113.724C485.651,-104.092 393.166,-87.0401 381.5,-76 369.018,-64.1873 364.932,-44.5552 363.717,-29.9519"/>
<polygon fill="midnightblue" stroke="midnightblue" points="367.196,-29.3979 363.253,-19.5641 360.203,-29.7103 367.196,-29.3979"/>
</g>
<!-- Node14&#45;&gt;Node17 -->
<g id="edge28" class="edge"><title>Node14&#45;&gt;Node17</title>
<path fill="none" stroke="midnightblue" d="M587.5,-112.368C587.5,-94.617 587.5,-53.6664 587.5,-29.5974"/>
<polygon fill="midnightblue" stroke="midnightblue" points="591,-29.5914 587.5,-19.5914 584,-29.5915 591,-29.5914"/>
</g>
<!-- Node18 -->
<g id="node18" class="node"><title>Node18</title>
<g id="a_node18"><a xlink:href="a00230.html" target="_top" xlink:title="Provide poll call where missing. ">
<polygon fill="white" stroke="black" points="227.5,-56.5 227.5,-75.5 335.5,-75.5 335.5,-56.5 227.5,-56.5"/>
<text text-anchor="middle" x="281.5" y="-63.5" font-family="Helvetica,sans-Serif" font-size="10.00">replacements/poll.h</text>
</a>
</g>
</g>
<!-- Node14&#45;&gt;Node18 -->
<g id="edge23" class="edge"><title>Node14&#45;&gt;Node18</title>
<path fill="none" stroke="midnightblue" d="M542.677,-113.09C488.93,-103.605 398.718,-87.6855 339.652,-77.2621"/>
<polygon fill="midnightblue" stroke="midnightblue" points="340.183,-73.8017 329.726,-75.5106 338.966,-80.6952 340.183,-73.8017"/>
</g>
<!-- Node15&#45;&gt;Node16 -->
<g id="edge21" class="edge"><title>Node15&#45;&gt;Node16</title>
<path fill="none" stroke="midnightblue" d="M457.505,-56.324C439.462,-47.6247 411.453,-34.1202 390.697,-24.113"/>
<polygon fill="midnightblue" stroke="midnightblue" points="391.978,-20.8449 381.45,-19.6545 388.938,-27.1502 391.978,-20.8449"/>
</g>
<!-- Node15&#45;&gt;Node17 -->
<g id="edge22" class="edge"><title>Node15&#45;&gt;Node17</title>
<path fill="none" stroke="midnightblue" d="M493.495,-56.324C511.538,-47.6247 539.547,-34.1202 560.303,-24.113"/>
<polygon fill="midnightblue" stroke="midnightblue" points="562.062,-27.1502 569.55,-19.6545 559.022,-20.8449 562.062,-27.1502"/>
</g>
<!-- Node18&#45;&gt;Node2 -->
<g id="edge24" class="edge"><title>Node18&#45;&gt;Node2</title>
<path fill="none" stroke="midnightblue" d="M241.094,-56.4435C192.031,-46.0537 110.008,-28.6841 62.8502,-18.6977"/>
<polygon fill="midnightblue" stroke="midnightblue" points="63.5676,-15.2721 53.0594,-16.6243 62.1173,-22.1202 63.5676,-15.2721"/>
</g>
<!-- Node18&#45;&gt;Node16 -->
<g id="edge25" class="edge"><title>Node18&#45;&gt;Node16</title>
<path fill="none" stroke="midnightblue" d="M294.675,-56.324C307.347,-47.979 326.733,-35.2122 341.706,-25.3524"/>
<polygon fill="midnightblue" stroke="midnightblue" points="343.931,-28.0776 350.358,-19.6545 340.081,-22.2313 343.931,-28.0776"/>
</g>
<!-- Node18&#45;&gt;Node17 -->
<g id="edge26" class="edge"><title>Node18&#45;&gt;Node17</title>
<path fill="none" stroke="midnightblue" d="M329.987,-56.4435C384.675,-46.7927 473.488,-31.1197 531.199,-20.9355"/>
<polygon fill="midnightblue" stroke="midnightblue" points="532.004,-24.3476 541.243,-19.1629 530.787,-17.4541 532.004,-24.3476"/>
</g>
<!-- Node20&#45;&gt;Node16 -->
<g id="edge33" class="edge"><title>Node20&#45;&gt;Node16</title>
<path fill="none" stroke="midnightblue" d="M878.452,-60.7201C863.296,-59.2192 846.143,-57.5272 830.5,-56 683.315,-41.6303 510.004,-25.0083 421.659,-16.5568"/>
<polygon fill="midnightblue" stroke="midnightblue" points="421.86,-13.0601 411.572,-15.5919 421.193,-20.0283 421.86,-13.0601"/>
</g>
<!-- Node20&#45;&gt;Node17 -->
<g id="edge34" class="edge"><title>Node20&#45;&gt;Node17</title>
<path fill="none" stroke="midnightblue" d="M878.178,-57.9958C818.28,-48.3118 710.091,-30.8201 643.936,-20.1244"/>
<polygon fill="midnightblue" stroke="midnightblue" points="644.124,-16.6094 633.694,-18.4684 643.007,-23.5197 644.124,-16.6094"/>
</g>
</g>
</svg>
