<?xml version="1.0" encoding="UTF-8" standalone="no"?>
<!DOCTYPE svg PUBLIC "-//W3C//DTD SVG 1.1//EN"
 "http://www.w3.org/Graphics/SVG/1.1/DTD/svg11.dtd">
<!-- Generated by graphviz version 2.38.0 (20140413.2041)
 -->
<!-- Title: src/tds/stream.c Pages: 1 -->
<svg width="1111pt" height="252pt"
 viewBox="0.00 0.00 1111.00 252.00" xmlns="http://www.w3.org/2000/svg" xmlns:xlink="http://www.w3.org/1999/xlink">
<g id="graph0" class="graph" transform="scale(1 1) rotate(0) translate(4 248)">
<title>src/tds/stream.c</title>
<polygon fill="white" stroke="none" points="-4,4 -4,-248 1107,-248 1107,4 -4,4"/>
<!-- Node1 -->
<g id="node1" class="node"><title>Node1</title>
<polygon fill="#bfbfbf" stroke="black" points="471,-224.5 471,-243.5 562,-243.5 562,-224.5 471,-224.5"/>
<text text-anchor="middle" x="516.5" y="-231.5" font-family="Helvetica,sans-Serif" font-size="10.00">src/tds/stream.c</text>
</g>
<!-- Node2 -->
<g id="node2" class="node"><title>Node2</title>
<g id="a_node2"><a xlink:href="a00192_source.html" target="_top" xlink:title="config.h">
<polygon fill="white" stroke="black" points="0,-0.5 0,-19.5 53,-19.5 53,-0.5 0,-0.5"/>
<text text-anchor="middle" x="26.5" y="-7.5" font-family="Helvetica,sans-Serif" font-size="10.00">config.h</text>
</a>
</g>
</g>
<!-- Node1&#45;&gt;Node2 -->
<g id="edge1" class="edge"><title>Node1&#45;&gt;Node2</title>
<path fill="none" stroke="midnightblue" d="M470.959,-228.833C366.924,-218.425 116.131,-188.018 55.5,-132 27.0284,-105.695 24.2227,-56.8147 25.0907,-29.9329"/>
<polygon fill="midnightblue" stroke="midnightblue" points="28.6049,-29.7617 25.6462,-19.5884 21.6149,-29.3863 28.6049,-29.7617"/>
</g>
<!-- Node3 -->
<g id="node3" class="node"><title>Node3</title>
<polygon fill="white" stroke="#bfbfbf" points="406.5,-168.5 406.5,-187.5 460.5,-187.5 460.5,-168.5 406.5,-168.5"/>
<text text-anchor="middle" x="433.5" y="-175.5" font-family="Helvetica,sans-Serif" font-size="10.00">assert.h</text>
</g>
<!-- Node1&#45;&gt;Node3 -->
<g id="edge2" class="edge"><title>Node1&#45;&gt;Node3</title>
<path fill="none" stroke="midnightblue" d="M503.165,-224.324C490.338,-215.979 470.715,-203.212 455.56,-193.352"/>
<polygon fill="midnightblue" stroke="midnightblue" points="457.093,-190.174 446.802,-187.655 453.276,-196.042 457.093,-190.174"/>
</g>
<!-- Node4 -->
<g id="node4" class="node"><title>Node4</title>
<g id="a_node4"><a xlink:href="a00219.html" target="_top" xlink:title="Main include file for libtds. ">
<polygon fill="white" stroke="black" points="479,-168.5 479,-187.5 554,-187.5 554,-168.5 479,-168.5"/>
<text text-anchor="middle" x="516.5" y="-175.5" font-family="Helvetica,sans-Serif" font-size="10.00">freetds/tds.h</text>
</a>
</g>
</g>
<!-- Node1&#45;&gt;Node4 -->
<g id="edge3" class="edge"><title>Node1&#45;&gt;Node4</title>
<path fill="none" stroke="midnightblue" d="M516.5,-224.083C516.5,-217.006 516.5,-206.861 516.5,-197.986"/>
<polygon fill="midnightblue" stroke="midnightblue" points="520,-197.751 516.5,-187.751 513,-197.751 520,-197.751"/>
</g>
<!-- Node20 -->
<g id="node20" class="node"><title>Node20</title>
<g id="a_node20"><a xlink:href="a00210_source.html" target="_top" xlink:title="freetds/iconv.h">
<polygon fill="white" stroke="black" points="905.5,-56.5 905.5,-75.5 991.5,-75.5 991.5,-56.5 905.5,-56.5"/>
<text text-anchor="middle" x="948.5" y="-63.5" font-family="Helvetica,sans-Serif" font-size="10.00">freetds/iconv.h</text>
</a>
</g>
</g>
<!-- Node1&#45;&gt;Node20 -->
<g id="edge30" class="edge"><title>Node1&#45;&gt;Node20</title>
<path fill="none" stroke="midnightblue" d="M562.132,-225.167C630.237,-212.285 761.294,-182.852 862.5,-132 888.703,-118.834 915.047,-97.4346 931.544,-82.8127"/>
<polygon fill="midnightblue" stroke="midnightblue" points="934.156,-85.1697 939.22,-75.8637 929.458,-79.9802 934.156,-85.1697"/>
</g>
<!-- Node21 -->
<g id="node21" class="node"><title>Node21</title>
<g id="a_node21"><a xlink:href="a00216_source.html" target="_top" xlink:title="freetds/stream.h">
<polygon fill="white" stroke="black" points="1010,-56.5 1010,-75.5 1103,-75.5 1103,-56.5 1010,-56.5"/>
<text text-anchor="middle" x="1056.5" y="-63.5" font-family="Helvetica,sans-Serif" font-size="10.00">freetds/stream.h</text>
</a>
</g>
</g>
<!-- Node1&#45;&gt;Node21 -->
<g id="edge33" class="edge"><title>Node1&#45;&gt;Node21</title>
<path fill="none" stroke="midnightblue" d="M562.383,-227.345C611.731,-220.608 692.18,-207.723 759.5,-188 862.654,-157.779 979.133,-104.325 1030.17,-79.8663"/>
<polygon fill="midnightblue" stroke="midnightblue" points="1031.72,-83.0076 1039.21,-75.5126 1028.68,-76.7019 1031.72,-83.0076"/>
</g>
<!-- Node5 -->
<g id="node5" class="node"><title>Node5</title>
<polygon fill="white" stroke="#bfbfbf" points="794,-56.5 794,-75.5 849,-75.5 849,-56.5 794,-56.5"/>
<text text-anchor="middle" x="821.5" y="-63.5" font-family="Helvetica,sans-Serif" font-size="10.00">stdarg.h</text>
</g>
<!-- Node4&#45;&gt;Node5 -->
<g id="edge4" class="edge"><title>Node4&#45;&gt;Node5</title>
<path fill="none" stroke="midnightblue" d="M554.216,-177.216C627.775,-176.754 786.215,-171.122 820.5,-132 831.407,-119.555 830.148,-100.043 827.081,-85.6413"/>
<polygon fill="midnightblue" stroke="midnightblue" points="830.437,-84.6386 824.555,-75.8265 823.658,-86.3833 830.437,-84.6386"/>
</g>
<!-- Node6 -->
<g id="node6" class="node"><title>Node6</title>
<polygon fill="white" stroke="#bfbfbf" points="684,-112.5 684,-131.5 731,-131.5 731,-112.5 684,-112.5"/>
<text text-anchor="middle" x="707.5" y="-119.5" font-family="Helvetica,sans-Serif" font-size="10.00">stdio.h</text>
</g>
<!-- Node4&#45;&gt;Node6 -->
<g id="edge5" class="edge"><title>Node4&#45;&gt;Node6</title>
<path fill="none" stroke="midnightblue" d="M546.765,-168.444C581.326,-158.672 637.723,-142.727 673.697,-132.557"/>
<polygon fill="midnightblue" stroke="midnightblue" points="675.043,-135.814 683.713,-129.725 673.138,-129.078 675.043,-135.814"/>
</g>
<!-- Node7 -->
<g id="node7" class="node"><title>Node7</title>
<g id="a_node7"><a xlink:href="a00221_source.html" target="_top" xlink:title="time.h">
<polygon fill="white" stroke="black" points="749.5,-112.5 749.5,-131.5 793.5,-131.5 793.5,-112.5 749.5,-112.5"/>
<text text-anchor="middle" x="771.5" y="-119.5" font-family="Helvetica,sans-Serif" font-size="10.00">time.h</text>
</a>
</g>
</g>
<!-- Node4&#45;&gt;Node7 -->
<g id="edge6" class="edge"><title>Node4&#45;&gt;Node7</title>
<path fill="none" stroke="midnightblue" d="M554.173,-170.291C596.665,-162.526 668.028,-148.897 739.146,-131.926"/>
<polygon fill="midnightblue" stroke="midnightblue" points="740.275,-135.254 749.177,-129.509 738.635,-128.449 740.275,-135.254"/>
</g>
<!-- Node8 -->
<g id="node8" class="node"><title>Node8</title>
<g id="a_node8"><a xlink:href="a00224_source.html" target="_top" xlink:title="freetds/version.h">
<polygon fill="white" stroke="black" points="74,-112.5 74,-131.5 169,-131.5 169,-112.5 74,-112.5"/>
<text text-anchor="middle" x="121.5" y="-119.5" font-family="Helvetica,sans-Serif" font-size="10.00">freetds/version.h</text>
</a>
</g>
</g>
<!-- Node4&#45;&gt;Node8 -->
<g id="edge8" class="edge"><title>Node4&#45;&gt;Node8</title>
<path fill="none" stroke="midnightblue" d="M478.827,-169.566C475.676,-169.011 472.536,-168.481 469.5,-168 342.966,-147.942 310.454,-149.203 183.5,-132 182.197,-131.823 180.878,-131.643 179.548,-131.461"/>
<polygon fill="midnightblue" stroke="midnightblue" points="179.602,-127.934 169.215,-130.019 178.635,-134.867 179.602,-127.934"/>
</g>
<!-- Node9 -->
<g id="node9" class="node"><title>Node9</title>
<g id="a_node9"><a xlink:href="a00238_source.html" target="_top" xlink:title="tds_sysdep_public.h">
<polygon fill="white" stroke="black" points="48,-56.5 48,-75.5 159,-75.5 159,-56.5 48,-56.5"/>
<text text-anchor="middle" x="103.5" y="-63.5" font-family="Helvetica,sans-Serif" font-size="10.00">tds_sysdep_public.h</text>
</a>
</g>
</g>
<!-- Node4&#45;&gt;Node9 -->
<g id="edge9" class="edge"><title>Node4&#45;&gt;Node9</title>
<path fill="none" stroke="midnightblue" d="M478.845,-169.444C475.69,-168.916 472.544,-168.426 469.5,-168 424.758,-161.744 94.9983,-165.329 64.5,-132 50.6554,-116.87 68.1179,-96.0742 83.9023,-82.1169"/>
<polygon fill="midnightblue" stroke="midnightblue" points="86.3898,-84.5999 91.8289,-75.5077 81.907,-79.2236 86.3898,-84.5999"/>
</g>
<!-- Node11 -->
<g id="node11" class="node"><title>Node11</title>
<g id="a_node11"><a xlink:href="a00218_source.html" target="_top" xlink:title="freetds/sysdep_private.h">
<polygon fill="white" stroke="black" points="253,-56.5 253,-75.5 386,-75.5 386,-56.5 253,-56.5"/>
<text text-anchor="middle" x="319.5" y="-63.5" font-family="Helvetica,sans-Serif" font-size="10.00">freetds/sysdep_private.h</text>
</a>
</g>
</g>
<!-- Node4&#45;&gt;Node11 -->
<g id="edge11" class="edge"><title>Node4&#45;&gt;Node11</title>
<path fill="none" stroke="midnightblue" d="M505.943,-168.42C489.325,-155.179 455.734,-129.471 424.5,-112 401.488,-99.1286 374.06,-87.4898 353.008,-79.2747"/>
<polygon fill="midnightblue" stroke="midnightblue" points="354.119,-75.9522 343.529,-75.6379 351.612,-82.4877 354.119,-75.9522"/>
</g>
<!-- Node12 -->
<g id="node12" class="node"><title>Node12</title>
<g id="a_node12"><a xlink:href="a00220_source.html" target="_top" xlink:title="freetds/thread.h">
<polygon fill="white" stroke="black" points="225.5,-112.5 225.5,-131.5 317.5,-131.5 317.5,-112.5 225.5,-112.5"/>
<text text-anchor="middle" x="271.5" y="-119.5" font-family="Helvetica,sans-Serif" font-size="10.00">freetds/thread.h</text>
</a>
</g>
</g>
<!-- Node4&#45;&gt;Node12 -->
<g id="edge12" class="edge"><title>Node4&#45;&gt;Node12</title>
<path fill="none" stroke="midnightblue" d="M478.756,-168.681C436.113,-159.282 366.594,-143.96 319.97,-133.683"/>
<polygon fill="midnightblue" stroke="midnightblue" points="320.615,-130.241 310.096,-131.507 319.108,-137.077 320.615,-130.241"/>
</g>
<!-- Node13 -->
<g id="node13" class="node"><title>Node13</title>
<g id="a_node13"><a xlink:href="a00201_source.html" target="_top" xlink:title="freetds/bool.h">
<polygon fill="white" stroke="black" points="335.5,-112.5 335.5,-131.5 415.5,-131.5 415.5,-112.5 335.5,-112.5"/>
<text text-anchor="middle" x="375.5" y="-119.5" font-family="Helvetica,sans-Serif" font-size="10.00">freetds/bool.h</text>
</a>
</g>
</g>
<!-- Node4&#45;&gt;Node13 -->
<g id="edge13" class="edge"><title>Node4&#45;&gt;Node13</title>
<path fill="none" stroke="midnightblue" d="M494.158,-168.444C470.747,-159.478 433.764,-145.314 407.31,-135.183"/>
<polygon fill="midnightblue" stroke="midnightblue" points="408.328,-131.824 397.737,-131.516 405.824,-138.361 408.328,-131.824"/>
</g>
<!-- Node14 -->
<g id="node14" class="node"><title>Node14</title>
<g id="a_node14"><a xlink:href="a00229_source.html" target="_top" xlink:title="replacements.h">
<polygon fill="white" stroke="black" points="472,-112.5 472,-131.5 561,-131.5 561,-112.5 472,-112.5"/>
<text text-anchor="middle" x="516.5" y="-119.5" font-family="Helvetica,sans-Serif" font-size="10.00">replacements.h</text>
</a>
</g>
</g>
<!-- Node4&#45;&gt;Node14 -->
<g id="edge14" class="edge"><title>Node4&#45;&gt;Node14</title>
<path fill="none" stroke="midnightblue" d="M516.5,-168.083C516.5,-161.006 516.5,-150.861 516.5,-141.986"/>
<polygon fill="midnightblue" stroke="midnightblue" points="520,-141.751 516.5,-131.751 513,-141.751 520,-141.751"/>
</g>
<!-- Node16 -->
<g id="node16" class="node"><title>Node16</title>
<g id="a_node16"><a xlink:href="a00214_source.html" target="_top" xlink:title="freetds/pushvis.h">
<polygon fill="white" stroke="black" points="526.5,-0.5 526.5,-19.5 622.5,-19.5 622.5,-0.5 526.5,-0.5"/>
<text text-anchor="middle" x="574.5" y="-7.5" font-family="Helvetica,sans-Serif" font-size="10.00">freetds/pushvis.h</text>
</a>
</g>
</g>
<!-- Node4&#45;&gt;Node16 -->
<g id="edge27" class="edge"><title>Node4&#45;&gt;Node16</title>
<path fill="none" stroke="midnightblue" d="M478.818,-169.62C475.669,-169.053 472.532,-168.506 469.5,-168 413.485,-158.657 253.72,-174.891 216.5,-132 210.674,-125.286 214.52,-120.666 216.5,-112 222.655,-85.0635 221.146,-72.2412 243.5,-56 285.837,-25.2398 432.983,-15.4854 516.123,-12.4072"/>
<polygon fill="midnightblue" stroke="midnightblue" points="516.308,-15.903 526.179,-12.0558 516.063,-8.90723 516.308,-15.903"/>
</g>
<!-- Node17 -->
<g id="node17" class="node"><title>Node17</title>
<g id="a_node17"><a xlink:href="a00212_source.html" target="_top" xlink:title="freetds/popvis.h">
<polygon fill="white" stroke="black" points="775.5,-0.5 775.5,-19.5 867.5,-19.5 867.5,-0.5 775.5,-0.5"/>
<text text-anchor="middle" x="821.5" y="-7.5" font-family="Helvetica,sans-Serif" font-size="10.00">freetds/popvis.h</text>
</a>
</g>
</g>
<!-- Node4&#45;&gt;Node17 -->
<g id="edge29" class="edge"><title>Node4&#45;&gt;Node17</title>
<path fill="none" stroke="midnightblue" d="M554.123,-176.633C629.83,-175.135 796.976,-167.753 839.5,-132 866.069,-109.661 868.99,-88.7554 857.5,-56 853.715,-45.2094 846.133,-35.084 838.9,-27.1808"/>
<polygon fill="midnightblue" stroke="midnightblue" points="841.167,-24.4943 831.662,-19.8145 836.174,-29.4005 841.167,-24.4943"/>
</g>
<!-- Node19 -->
<g id="node19" class="node"><title>Node19</title>
<g id="a_node19"><a xlink:href="a00213_source.html" target="_top" xlink:title="freetds/proto.h">
<polygon fill="white" stroke="black" points="579.5,-112.5 579.5,-131.5 665.5,-131.5 665.5,-112.5 579.5,-112.5"/>
<text text-anchor="middle" x="622.5" y="-119.5" font-family="Helvetica,sans-Serif" font-size="10.00">freetds/proto.h</text>
</a>
</g>
</g>
<!-- Node4&#45;&gt;Node19 -->
<g id="edge28" class="edge"><title>Node4&#45;&gt;Node19</title>
<path fill="none" stroke="midnightblue" d="M533.531,-168.324C550.53,-159.664 576.876,-146.242 596.493,-136.249"/>
<polygon fill="midnightblue" stroke="midnightblue" points="598.19,-139.312 605.512,-131.655 595.012,-133.075 598.19,-139.312"/>
</g>
<!-- Node7&#45;&gt;Node7 -->
<g id="edge7" class="edge"><title>Node7&#45;&gt;Node7</title>
<path fill="none" stroke="midnightblue" d="M788.768,-131.575C800.287,-134.27 811.5,-131.078 811.5,-122 811.5,-115.759 806.2,-112.3 799.145,-111.623"/>
<polygon fill="midnightblue" stroke="midnightblue" points="798.469,-108.165 788.768,-112.425 799.008,-115.144 798.469,-108.165"/>
</g>
<!-- Node10 -->
<g id="node10" class="node"><title>Node10</title>
<polygon fill="white" stroke="#bfbfbf" points="81,-0.5 81,-19.5 126,-19.5 126,-0.5 81,-0.5"/>
<text text-anchor="middle" x="103.5" y="-7.5" font-family="Helvetica,sans-Serif" font-size="10.00">float.h</text>
</g>
<!-- Node9&#45;&gt;Node10 -->
<g id="edge10" class="edge"><title>Node9&#45;&gt;Node10</title>
<path fill="none" stroke="midnightblue" d="M103.5,-56.083C103.5,-49.0059 103.5,-38.8611 103.5,-29.9865"/>
<polygon fill="midnightblue" stroke="midnightblue" points="107,-29.751 103.5,-19.7511 100,-29.7511 107,-29.751"/>
</g>
<!-- Node14&#45;&gt;Node5 -->
<g id="edge15" class="edge"><title>Node14&#45;&gt;Node5</title>
<path fill="none" stroke="midnightblue" d="M561.114,-113.471C630.484,-101.748 758.462,-80.052 779.5,-76 780.965,-75.7179 782.457,-75.425 783.963,-75.1246"/>
<polygon fill="midnightblue" stroke="midnightblue" points="784.879,-78.5097 793.971,-73.0705 783.471,-71.6526 784.879,-78.5097"/>
</g>
<!-- Node14&#45;&gt;Node9 -->
<g id="edge16" class="edge"><title>Node14&#45;&gt;Node9</title>
<path fill="none" stroke="midnightblue" d="M471.909,-115.17C398.952,-105.631 253.736,-86.6435 169.041,-75.5695"/>
<polygon fill="midnightblue" stroke="midnightblue" points="169.391,-72.0856 159.021,-74.2595 168.483,-79.0265 169.391,-72.0856"/>
</g>
<!-- Node14&#45;&gt;Node11 -->
<g id="edge17" class="edge"><title>Node14&#45;&gt;Node11</title>
<path fill="none" stroke="midnightblue" d="M485.285,-112.444C451.567,-103.201 397.7,-88.4356 360.568,-78.2572"/>
<polygon fill="midnightblue" stroke="midnightblue" points="361.139,-74.7846 350.569,-75.5164 359.288,-81.5356 361.139,-74.7846"/>
</g>
<!-- Node15 -->
<g id="node15" class="node"><title>Node15</title>
<g id="a_node15"><a xlink:href="a00231_source.html" target="_top" xlink:title="replacements/readpassphrase.h">
<polygon fill="white" stroke="black" points="569,-56.5 569,-75.5 738,-75.5 738,-56.5 569,-56.5"/>
<text text-anchor="middle" x="653.5" y="-63.5" font-family="Helvetica,sans-Serif" font-size="10.00">replacements/readpassphrase.h</text>
</a>
</g>
</g>
<!-- Node14&#45;&gt;Node15 -->
<g id="edge18" class="edge"><title>Node14&#45;&gt;Node15</title>
<path fill="none" stroke="midnightblue" d="M538.208,-112.444C560.855,-103.517 596.572,-89.4387 622.252,-79.3168"/>
<polygon fill="midnightblue" stroke="midnightblue" points="623.874,-82.4397 631.894,-75.5164 621.307,-75.9273 623.874,-82.4397"/>
</g>
<!-- Node14&#45;&gt;Node16 -->
<g id="edge25" class="edge"><title>Node14&#45;&gt;Node16</title>
<path fill="none" stroke="midnightblue" d="M488.479,-112.428C457.769,-101.544 415.146,-81.1242 433.5,-56 452.429,-30.0885 486.444,-18.7488 516.322,-13.9301"/>
<polygon fill="midnightblue" stroke="midnightblue" points="516.852,-17.3902 526.268,-12.5343 515.879,-10.4581 516.852,-17.3902"/>
</g>
<!-- Node14&#45;&gt;Node17 -->
<g id="edge26" class="edge"><title>Node14&#45;&gt;Node17</title>
<path fill="none" stroke="midnightblue" d="M561.185,-113.534C623.317,-102.959 730.065,-84.013 746.5,-76 770.806,-64.1493 793.497,-42.4005 807.419,-27.3431"/>
<polygon fill="midnightblue" stroke="midnightblue" points="810.137,-29.5542 814.205,-19.7716 804.924,-24.882 810.137,-29.5542"/>
</g>
<!-- Node18 -->
<g id="node18" class="node"><title>Node18</title>
<g id="a_node18"><a xlink:href="a00230.html" target="_top" xlink:title="Provide poll call where missing. ">
<polygon fill="white" stroke="black" points="442.5,-56.5 442.5,-75.5 550.5,-75.5 550.5,-56.5 442.5,-56.5"/>
<text text-anchor="middle" x="496.5" y="-63.5" font-family="Helvetica,sans-Serif" font-size="10.00">replacements/poll.h</text>
</a>
</g>
</g>
<!-- Node14&#45;&gt;Node18 -->
<g id="edge21" class="edge"><title>Node14&#45;&gt;Node18</title>
<path fill="none" stroke="midnightblue" d="M513.197,-112.083C510.518,-104.849 506.651,-94.4087 503.314,-85.3968"/>
<polygon fill="midnightblue" stroke="midnightblue" points="506.496,-83.9129 499.741,-75.7511 499.932,-86.3442 506.496,-83.9129"/>
</g>
<!-- Node15&#45;&gt;Node16 -->
<g id="edge19" class="edge"><title>Node15&#45;&gt;Node16</title>
<path fill="none" stroke="midnightblue" d="M640.807,-56.324C628.599,-47.979 609.922,-35.2122 595.497,-25.3524"/>
<polygon fill="midnightblue" stroke="midnightblue" points="597.392,-22.4082 587.161,-19.6545 593.442,-28.1871 597.392,-22.4082"/>
</g>
<!-- Node15&#45;&gt;Node17 -->
<g id="edge20" class="edge"><title>Node15&#45;&gt;Node17</title>
<path fill="none" stroke="midnightblue" d="M680.12,-56.4435C708.506,-47.3196 753.637,-32.8133 785.253,-22.6509"/>
<polygon fill="midnightblue" stroke="midnightblue" points="786.555,-25.9087 795.004,-19.5164 784.413,-19.2445 786.555,-25.9087"/>
</g>
<!-- Node18&#45;&gt;Node2 -->
<g id="edge22" class="edge"><title>Node18&#45;&gt;Node2</title>
<path fill="none" stroke="midnightblue" d="M442.149,-59.8742C344.179,-50.5298 141.639,-30.704 71.5,-20 68.7877,-19.5861 65.9908,-19.1206 63.1811,-18.6251"/>
<polygon fill="midnightblue" stroke="midnightblue" points="63.5517,-15.1338 53.0788,-16.7365 62.2653,-22.0146 63.5517,-15.1338"/>
</g>
<!-- Node18&#45;&gt;Node16 -->
<g id="edge23" class="edge"><title>Node18&#45;&gt;Node16</title>
<path fill="none" stroke="midnightblue" d="M509.032,-56.324C521.086,-47.979 539.527,-35.2122 553.769,-25.3524"/>
<polygon fill="midnightblue" stroke="midnightblue" points="555.769,-28.2243 561.999,-19.6545 551.785,-22.469 555.769,-28.2243"/>
</g>
<!-- Node18&#45;&gt;Node17 -->
<g id="edge24" class="edge"><title>Node18&#45;&gt;Node17</title>
<path fill="none" stroke="midnightblue" d="M547.997,-56.4435C607.217,-46.604 704.111,-30.5046 765.259,-20.3446"/>
<polygon fill="midnightblue" stroke="midnightblue" points="766.207,-23.7351 775.498,-18.6433 765.06,-16.8298 766.207,-23.7351"/>
</g>
<!-- Node20&#45;&gt;Node16 -->
<g id="edge31" class="edge"><title>Node20&#45;&gt;Node16</title>
<path fill="none" stroke="midnightblue" d="M905.232,-58.7528C838.018,-49.0481 708.421,-30.3362 632.952,-19.4396"/>
<polygon fill="midnightblue" stroke="midnightblue" points="633.072,-15.9207 622.675,-17.9557 632.072,-22.8489 633.072,-15.9207"/>
</g>
<!-- Node20&#45;&gt;Node17 -->
<g id="edge32" class="edge"><title>Node20&#45;&gt;Node17</title>
<path fill="none" stroke="midnightblue" d="M928.376,-56.4435C907.476,-47.5566 874.565,-33.5632 850.784,-23.4514"/>
<polygon fill="midnightblue" stroke="midnightblue" points="852.102,-20.2085 841.529,-19.5164 849.362,-26.6504 852.102,-20.2085"/>
</g>
<!-- Node21&#45;&gt;Node16 -->
<g id="edge34" class="edge"><title>Node21&#45;&gt;Node16</title>
<path fill="none" stroke="midnightblue" d="M1009.78,-57.2971C1006.64,-56.8398 1003.53,-56.4027 1000.5,-56 869.358,-38.5484 714.772,-23.6214 632.648,-16.1373"/>
<polygon fill="midnightblue" stroke="midnightblue" points="632.791,-12.636 622.515,-15.2183 632.158,-19.6074 632.791,-12.636"/>
</g>
<!-- Node21&#45;&gt;Node17 -->
<g id="edge35" class="edge"><title>Node21&#45;&gt;Node17</title>
<path fill="none" stroke="midnightblue" d="M1019.26,-56.4435C978.44,-47.0629 912.857,-31.9926 868.516,-21.8036"/>
<polygon fill="midnightblue" stroke="midnightblue" points="869.092,-18.3449 858.562,-19.5164 867.524,-25.1671 869.092,-18.3449"/>
</g>
</g>
</svg>
