<?xml version="1.0" encoding="UTF-8" standalone="no"?>
<!DOCTYPE svg PUBLIC "-//W3C//DTD SVG 1.1//EN"
 "http://www.w3.org/Graphics/SVG/1.1/DTD/svg11.dtd">
<!-- Generated by graphviz version 2.38.0 (20140413.2041)
 -->
<!-- Title: src/tds/read.c Pages: 1 -->
<svg width="1255pt" height="252pt"
 viewBox="0.00 0.00 1255.05 252.00" xmlns="http://www.w3.org/2000/svg" xmlns:xlink="http://www.w3.org/1999/xlink">
<g id="graph0" class="graph" transform="scale(1 1) rotate(0) translate(4 248)">
<title>src/tds/read.c</title>
<polygon fill="white" stroke="none" points="-4,4 -4,-248 1251.05,-248 1251.05,4 -4,4"/>
<!-- Node1 -->
<g id="node1" class="node"><title>Node1</title>
<polygon fill="#bfbfbf" stroke="black" points="923.048,-224.5 923.048,-243.5 1003.05,-243.5 1003.05,-224.5 923.048,-224.5"/>
<text text-anchor="middle" x="963.048" y="-231.5" font-family="Helvetica,sans-Serif" font-size="10.00">src/tds/read.c</text>
</g>
<!-- Node2 -->
<g id="node2" class="node"><title>Node2</title>
<g id="a_node2"><a xlink:href="a00192_source.html" target="_top" xlink:title="config.h">
<polygon fill="white" stroke="black" points="3.54758,-0.5 3.54758,-19.5 56.5476,-19.5 56.5476,-0.5 3.54758,-0.5"/>
<text text-anchor="middle" x="30.0476" y="-7.5" font-family="Helvetica,sans-Serif" font-size="10.00">config.h</text>
</a>
</g>
</g>
<!-- Node1&#45;&gt;Node2 -->
<g id="edge1" class="edge"><title>Node1&#45;&gt;Node2</title>
<path fill="none" stroke="midnightblue" d="M923.003,-231.084C753.714,-222.662 102.16,-186.892 30.0476,-132 1.6414,-110.377 -5.19771,-90.4818 4.04758,-56 6.70115,-46.1031 12.1168,-36.1315 17.3219,-28.099"/>
<polygon fill="midnightblue" stroke="midnightblue" points="20.3366,-29.8935 23.1573,-19.6811 14.5837,-25.9055 20.3366,-29.8935"/>
</g>
<!-- Node3 -->
<g id="node3" class="node"><title>Node3</title>
<polygon fill="white" stroke="#bfbfbf" points="375.048,-168.5 375.048,-187.5 429.048,-187.5 429.048,-168.5 375.048,-168.5"/>
<text text-anchor="middle" x="402.048" y="-175.5" font-family="Helvetica,sans-Serif" font-size="10.00">assert.h</text>
</g>
<!-- Node1&#45;&gt;Node3 -->
<g id="edge2" class="edge"><title>Node1&#45;&gt;Node3</title>
<path fill="none" stroke="midnightblue" d="M922.93,-231.742C836.253,-228.557 624.988,-218.277 439.034,-187.899"/>
<polygon fill="midnightblue" stroke="midnightblue" points="439.515,-184.431 429.077,-186.249 438.37,-191.337 439.515,-184.431"/>
</g>
<!-- Node4 -->
<g id="node4" class="node"><title>Node4</title>
<g id="a_node4"><a xlink:href="a00219.html" target="_top" xlink:title="Main include file for libtds. ">
<polygon fill="white" stroke="black" points="447.548,-168.5 447.548,-187.5 522.548,-187.5 522.548,-168.5 447.548,-168.5"/>
<text text-anchor="middle" x="485.048" y="-175.5" font-family="Helvetica,sans-Serif" font-size="10.00">freetds/tds.h</text>
</a>
</g>
</g>
<!-- Node1&#45;&gt;Node4 -->
<g id="edge3" class="edge"><title>Node1&#45;&gt;Node4</title>
<path fill="none" stroke="midnightblue" d="M922.706,-228.443C834.952,-218.529 627.06,-195.043 532.885,-184.404"/>
<polygon fill="midnightblue" stroke="midnightblue" points="533.116,-180.908 522.786,-183.263 532.33,-187.864 533.116,-180.908"/>
</g>
<!-- Node20 -->
<g id="node20" class="node"><title>Node20</title>
<g id="a_node20"><a xlink:href="a00210_source.html" target="_top" xlink:title="freetds/iconv.h">
<polygon fill="white" stroke="black" points="832.048,-56.5 832.048,-75.5 918.048,-75.5 918.048,-56.5 832.048,-56.5"/>
<text text-anchor="middle" x="875.048" y="-63.5" font-family="Helvetica,sans-Serif" font-size="10.00">freetds/iconv.h</text>
</a>
</g>
</g>
<!-- Node1&#45;&gt;Node20 -->
<g id="edge30" class="edge"><title>Node1&#45;&gt;Node20</title>
<path fill="none" stroke="midnightblue" d="M959.933,-224.333C950.264,-197.465 921.214,-117.058 918.048,-112 911.269,-101.172 901.581,-90.7487 893.116,-82.6648"/>
<polygon fill="midnightblue" stroke="midnightblue" points="895.248,-79.8706 885.511,-75.6944 890.518,-85.0312 895.248,-79.8706"/>
</g>
<!-- Node21 -->
<g id="node21" class="node"><title>Node21</title>
<g id="a_node21"><a xlink:href="a00202_source.html" target="_top" xlink:title="freetds/bytes.h">
<polygon fill="white" stroke="black" points="956.048,-168.5 956.048,-187.5 1042.05,-187.5 1042.05,-168.5 956.048,-168.5"/>
<text text-anchor="middle" x="999.048" y="-175.5" font-family="Helvetica,sans-Serif" font-size="10.00">freetds/bytes.h</text>
</a>
</g>
</g>
<!-- Node1&#45;&gt;Node21 -->
<g id="edge33" class="edge"><title>Node1&#45;&gt;Node21</title>
<path fill="none" stroke="midnightblue" d="M968.992,-224.083C974.025,-216.534 981.384,-205.495 987.561,-196.23"/>
<polygon fill="midnightblue" stroke="midnightblue" points="990.579,-198.013 993.214,-187.751 984.754,-194.13 990.579,-198.013"/>
</g>
<!-- Node22 -->
<g id="node22" class="node"><title>Node22</title>
<g id="a_node22"><a xlink:href="a00216_source.html" target="_top" xlink:title="freetds/stream.h">
<polygon fill="white" stroke="black" points="936.548,-56.5 936.548,-75.5 1029.55,-75.5 1029.55,-56.5 936.548,-56.5"/>
<text text-anchor="middle" x="983.048" y="-63.5" font-family="Helvetica,sans-Serif" font-size="10.00">freetds/stream.h</text>
</a>
</g>
</g>
<!-- Node1&#45;&gt;Node22 -->
<g id="edge34" class="edge"><title>Node1&#45;&gt;Node22</title>
<path fill="none" stroke="midnightblue" d="M998.9,-224.397C1017.93,-217.81 1039.67,-206.589 1051.05,-188 1073.95,-150.557 1029.83,-105.137 1002.48,-82.049"/>
<polygon fill="midnightblue" stroke="midnightblue" points="1004.58,-79.2456 994.615,-75.6343 1000.15,-84.6687 1004.58,-79.2456"/>
</g>
<!-- Node23 -->
<g id="node23" class="node"><title>Node23</title>
<g id="a_node23"><a xlink:href="a00217_source.html" target="_top" xlink:title="freetds/string.h">
<polygon fill="white" stroke="black" points="1047.55,-56.5 1047.55,-75.5 1134.55,-75.5 1134.55,-56.5 1047.55,-56.5"/>
<text text-anchor="middle" x="1091.05" y="-63.5" font-family="Helvetica,sans-Serif" font-size="10.00">freetds/string.h</text>
</a>
</g>
</g>
<!-- Node1&#45;&gt;Node23 -->
<g id="edge37" class="edge"><title>Node1&#45;&gt;Node23</title>
<path fill="none" stroke="midnightblue" d="M1003.27,-225.707C1025.94,-219.498 1052.88,-208.219 1069.05,-188 1092.75,-158.369 1094.14,-111.571 1092.78,-85.717"/>
<polygon fill="midnightblue" stroke="midnightblue" points="1096.27,-85.4598 1092.06,-75.7386 1089.29,-85.9652 1096.27,-85.4598"/>
</g>
<!-- Node24 -->
<g id="node24" class="node"><title>Node24</title>
<g id="a_node24"><a xlink:href="a00203_source.html" target="_top" xlink:title="freetds/checks.h">
<polygon fill="white" stroke="black" points="1153.05,-56.5 1153.05,-75.5 1247.05,-75.5 1247.05,-56.5 1153.05,-56.5"/>
<text text-anchor="middle" x="1200.05" y="-63.5" font-family="Helvetica,sans-Serif" font-size="10.00">freetds/checks.h</text>
</a>
</g>
</g>
<!-- Node1&#45;&gt;Node24 -->
<g id="edge40" class="edge"><title>Node1&#45;&gt;Node24</title>
<path fill="none" stroke="midnightblue" d="M1001.65,-224.426C1027.81,-217.413 1062.34,-205.721 1089.05,-188 1132.42,-159.227 1170.39,-109.949 1188.6,-84.0496"/>
<polygon fill="midnightblue" stroke="midnightblue" points="1191.59,-85.8675 1194.38,-75.6468 1185.83,-81.8963 1191.59,-85.8675"/>
</g>
<!-- Node5 -->
<g id="node5" class="node"><title>Node5</title>
<polygon fill="white" stroke="#bfbfbf" points="13.5476,-56.5 13.5476,-75.5 68.5476,-75.5 68.5476,-56.5 13.5476,-56.5"/>
<text text-anchor="middle" x="41.0476" y="-63.5" font-family="Helvetica,sans-Serif" font-size="10.00">stdarg.h</text>
</g>
<!-- Node4&#45;&gt;Node5 -->
<g id="edge4" class="edge"><title>Node4&#45;&gt;Node5</title>
<path fill="none" stroke="midnightblue" d="M447.392,-169.451C444.237,-168.922 441.091,-168.429 438.048,-168 394.298,-161.838 72.0909,-164.394 42.0476,-132 30.7949,-119.867 32.1042,-100.309 35.277,-85.8121"/>
<polygon fill="midnightblue" stroke="midnightblue" points="38.7201,-86.4816 37.8894,-75.9194 31.9521,-84.6943 38.7201,-86.4816"/>
</g>
<!-- Node6 -->
<g id="node6" class="node"><title>Node6</title>
<polygon fill="white" stroke="#bfbfbf" points="51.5476,-112.5 51.5476,-131.5 98.5476,-131.5 98.5476,-112.5 51.5476,-112.5"/>
<text text-anchor="middle" x="75.0476" y="-119.5" font-family="Helvetica,sans-Serif" font-size="10.00">stdio.h</text>
</g>
<!-- Node4&#45;&gt;Node6 -->
<g id="edge5" class="edge"><title>Node4&#45;&gt;Node6</title>
<path fill="none" stroke="midnightblue" d="M447.383,-169.511C444.23,-168.968 441.088,-168.456 438.048,-168 295.421,-146.6 254.812,-158.912 108.959,-131.868"/>
<polygon fill="midnightblue" stroke="midnightblue" points="109.212,-128.354 98.7364,-129.941 107.915,-135.233 109.212,-128.354"/>
</g>
<!-- Node7 -->
<g id="node7" class="node"><title>Node7</title>
<g id="a_node7"><a xlink:href="a00221_source.html" target="_top" xlink:title="time.h">
<polygon fill="white" stroke="black" points="117.048,-112.5 117.048,-131.5 161.048,-131.5 161.048,-112.5 117.048,-112.5"/>
<text text-anchor="middle" x="139.048" y="-119.5" font-family="Helvetica,sans-Serif" font-size="10.00">time.h</text>
</a>
</g>
</g>
<!-- Node4&#45;&gt;Node7 -->
<g id="edge6" class="edge"><title>Node4&#45;&gt;Node7</title>
<path fill="none" stroke="midnightblue" d="M447.365,-169.626C444.216,-169.058 441.079,-168.508 438.048,-168 327.336,-149.439 298.829,-150.143 188.048,-132 182.742,-131.131 177.125,-130.154 171.659,-129.171"/>
<polygon fill="midnightblue" stroke="midnightblue" points="171.925,-125.662 161.458,-127.304 170.664,-132.548 171.925,-125.662"/>
</g>
<!-- Node8 -->
<g id="node8" class="node"><title>Node8</title>
<g id="a_node8"><a xlink:href="a00224_source.html" target="_top" xlink:title="freetds/version.h">
<polygon fill="white" stroke="black" points="197.548,-112.5 197.548,-131.5 292.548,-131.5 292.548,-112.5 197.548,-112.5"/>
<text text-anchor="middle" x="245.048" y="-119.5" font-family="Helvetica,sans-Serif" font-size="10.00">freetds/version.h</text>
</a>
</g>
</g>
<!-- Node4&#45;&gt;Node8 -->
<g id="edge8" class="edge"><title>Node4&#45;&gt;Node8</title>
<path fill="none" stroke="midnightblue" d="M447.284,-168.503C405.557,-159.115 338.271,-143.975 292.888,-133.764"/>
<polygon fill="midnightblue" stroke="midnightblue" points="293.512,-130.317 282.987,-131.536 291.975,-137.146 293.512,-130.317"/>
</g>
<!-- Node9 -->
<g id="node9" class="node"><title>Node9</title>
<g id="a_node9"><a xlink:href="a00238_source.html" target="_top" xlink:title="tds_sysdep_public.h">
<polygon fill="white" stroke="black" points="86.5476,-56.5 86.5476,-75.5 197.548,-75.5 197.548,-56.5 86.5476,-56.5"/>
<text text-anchor="middle" x="142.048" y="-63.5" font-family="Helvetica,sans-Serif" font-size="10.00">tds_sysdep_public.h</text>
</a>
</g>
</g>
<!-- Node4&#45;&gt;Node9 -->
<g id="edge9" class="edge"><title>Node4&#45;&gt;Node9</title>
<path fill="none" stroke="midnightblue" d="M453.334,-168.49C424.039,-160.285 379.521,-146.939 342.048,-132 323.214,-124.492 319.988,-119.234 301.048,-112 264.289,-97.9612 221.278,-86.0484 189.266,-78.0133"/>
<polygon fill="midnightblue" stroke="midnightblue" points="189.829,-74.547 179.281,-75.5429 188.148,-81.3421 189.829,-74.547"/>
</g>
<!-- Node11 -->
<g id="node11" class="node"><title>Node11</title>
<g id="a_node11"><a xlink:href="a00218_source.html" target="_top" xlink:title="freetds/sysdep_private.h">
<polygon fill="white" stroke="black" points="215.548,-56.5 215.548,-75.5 348.548,-75.5 348.548,-56.5 215.548,-56.5"/>
<text text-anchor="middle" x="282.048" y="-63.5" font-family="Helvetica,sans-Serif" font-size="10.00">freetds/sysdep_private.h</text>
</a>
</g>
</g>
<!-- Node4&#45;&gt;Node11 -->
<g id="edge11" class="edge"><title>Node4&#45;&gt;Node11</title>
<path fill="none" stroke="midnightblue" d="M461.048,-168.464C438.943,-160.24 405.51,-146.883 378.048,-132 350.091,-116.849 320.08,-95.6441 301.196,-81.6269"/>
<polygon fill="midnightblue" stroke="midnightblue" points="303.213,-78.7644 293.114,-75.5606 299.011,-84.3629 303.213,-78.7644"/>
</g>
<!-- Node12 -->
<g id="node12" class="node"><title>Node12</title>
<g id="a_node12"><a xlink:href="a00220_source.html" target="_top" xlink:title="freetds/thread.h">
<polygon fill="white" stroke="black" points="387.048,-112.5 387.048,-131.5 479.048,-131.5 479.048,-112.5 387.048,-112.5"/>
<text text-anchor="middle" x="433.048" y="-119.5" font-family="Helvetica,sans-Serif" font-size="10.00">freetds/thread.h</text>
</a>
</g>
</g>
<!-- Node4&#45;&gt;Node12 -->
<g id="edge12" class="edge"><title>Node4&#45;&gt;Node12</title>
<path fill="none" stroke="midnightblue" d="M476.461,-168.083C468.889,-160.22 457.669,-148.569 448.533,-139.081"/>
<polygon fill="midnightblue" stroke="midnightblue" points="450.932,-136.527 441.475,-131.751 445.89,-141.382 450.932,-136.527"/>
</g>
<!-- Node13 -->
<g id="node13" class="node"><title>Node13</title>
<g id="a_node13"><a xlink:href="a00201_source.html" target="_top" xlink:title="freetds/bool.h">
<polygon fill="white" stroke="black" points="497.048,-112.5 497.048,-131.5 577.048,-131.5 577.048,-112.5 497.048,-112.5"/>
<text text-anchor="middle" x="537.048" y="-119.5" font-family="Helvetica,sans-Serif" font-size="10.00">freetds/bool.h</text>
</a>
</g>
</g>
<!-- Node4&#45;&gt;Node13 -->
<g id="edge13" class="edge"><title>Node4&#45;&gt;Node13</title>
<path fill="none" stroke="midnightblue" d="M493.634,-168.083C501.207,-160.22 512.426,-148.569 521.562,-139.081"/>
<polygon fill="midnightblue" stroke="midnightblue" points="524.205,-141.382 528.621,-131.751 519.163,-136.527 524.205,-141.382"/>
</g>
<!-- Node14 -->
<g id="node14" class="node"><title>Node14</title>
<g id="a_node14"><a xlink:href="a00229_source.html" target="_top" xlink:title="replacements.h">
<polygon fill="white" stroke="black" points="595.548,-112.5 595.548,-131.5 684.548,-131.5 684.548,-112.5 595.548,-112.5"/>
<text text-anchor="middle" x="640.048" y="-119.5" font-family="Helvetica,sans-Serif" font-size="10.00">replacements.h</text>
</a>
</g>
</g>
<!-- Node4&#45;&gt;Node14 -->
<g id="edge14" class="edge"><title>Node4&#45;&gt;Node14</title>
<path fill="none" stroke="midnightblue" d="M509.608,-168.444C535.57,-159.399 576.716,-145.064 605.845,-134.916"/>
<polygon fill="midnightblue" stroke="midnightblue" points="607.31,-138.112 615.602,-131.516 605.007,-131.501 607.31,-138.112"/>
</g>
<!-- Node16 -->
<g id="node16" class="node"><title>Node16</title>
<g id="a_node16"><a xlink:href="a00214_source.html" target="_top" xlink:title="freetds/pushvis.h">
<polygon fill="white" stroke="black" points="716.048,-0.5 716.048,-19.5 812.048,-19.5 812.048,-0.5 716.048,-0.5"/>
<text text-anchor="middle" x="764.048" y="-7.5" font-family="Helvetica,sans-Serif" font-size="10.00">freetds/pushvis.h</text>
</a>
</g>
</g>
<!-- Node4&#45;&gt;Node16 -->
<g id="edge27" class="edge"><title>Node4&#45;&gt;Node16</title>
<path fill="none" stroke="midnightblue" d="M522.867,-177.637C567.582,-176.544 642.321,-168.723 693.048,-132 728.768,-106.141 749.476,-56.3355 758.54,-29.3903"/>
<polygon fill="midnightblue" stroke="midnightblue" points="761.933,-30.2677 761.631,-19.6772 755.263,-28.1445 761.933,-30.2677"/>
</g>
<!-- Node17 -->
<g id="node17" class="node"><title>Node17</title>
<g id="a_node17"><a xlink:href="a00212_source.html" target="_top" xlink:title="freetds/popvis.h">
<polygon fill="white" stroke="black" points="830.048,-0.5 830.048,-19.5 922.048,-19.5 922.048,-0.5 830.048,-0.5"/>
<text text-anchor="middle" x="876.048" y="-7.5" font-family="Helvetica,sans-Serif" font-size="10.00">freetds/popvis.h</text>
</a>
</g>
</g>
<!-- Node4&#45;&gt;Node17 -->
<g id="edge29" class="edge"><title>Node4&#45;&gt;Node17</title>
<path fill="none" stroke="midnightblue" d="M522.788,-174.961C570.053,-171.242 652.642,-160.843 717.048,-132 747.838,-118.211 823.634,-55.5188 858.267,-26.2002"/>
<polygon fill="midnightblue" stroke="midnightblue" points="860.779,-28.6584 866.132,-19.5154 856.246,-23.3245 860.779,-28.6584"/>
</g>
<!-- Node19 -->
<g id="node19" class="node"><title>Node19</title>
<g id="a_node19"><a xlink:href="a00213_source.html" target="_top" xlink:title="freetds/proto.h">
<polygon fill="white" stroke="black" points="823.048,-112.5 823.048,-131.5 909.048,-131.5 909.048,-112.5 823.048,-112.5"/>
<text text-anchor="middle" x="866.048" y="-119.5" font-family="Helvetica,sans-Serif" font-size="10.00">freetds/proto.h</text>
</a>
</g>
</g>
<!-- Node4&#45;&gt;Node19 -->
<g id="edge28" class="edge"><title>Node4&#45;&gt;Node19</title>
<path fill="none" stroke="midnightblue" d="M522.99,-171.963C583.528,-163.874 705.686,-147.337 809.048,-132 810.302,-131.814 811.571,-131.624 812.852,-131.432"/>
<polygon fill="midnightblue" stroke="midnightblue" points="813.442,-134.882 822.801,-129.915 812.387,-127.962 813.442,-134.882"/>
</g>
<!-- Node7&#45;&gt;Node7 -->
<g id="edge7" class="edge"><title>Node7&#45;&gt;Node7</title>
<path fill="none" stroke="midnightblue" d="M156.316,-131.575C167.835,-134.27 179.048,-131.078 179.048,-122 179.048,-115.759 173.748,-112.3 166.692,-111.623"/>
<polygon fill="midnightblue" stroke="midnightblue" points="166.016,-108.165 156.316,-112.425 166.556,-115.144 166.016,-108.165"/>
</g>
<!-- Node10 -->
<g id="node10" class="node"><title>Node10</title>
<polygon fill="white" stroke="#bfbfbf" points="119.548,-0.5 119.548,-19.5 164.548,-19.5 164.548,-0.5 119.548,-0.5"/>
<text text-anchor="middle" x="142.048" y="-7.5" font-family="Helvetica,sans-Serif" font-size="10.00">float.h</text>
</g>
<!-- Node9&#45;&gt;Node10 -->
<g id="edge10" class="edge"><title>Node9&#45;&gt;Node10</title>
<path fill="none" stroke="midnightblue" d="M142.048,-56.083C142.048,-49.0059 142.048,-38.8611 142.048,-29.9865"/>
<polygon fill="midnightblue" stroke="midnightblue" points="145.548,-29.751 142.048,-19.7511 138.548,-29.7511 145.548,-29.751"/>
</g>
<!-- Node14&#45;&gt;Node5 -->
<g id="edge15" class="edge"><title>Node14&#45;&gt;Node5</title>
<path fill="none" stroke="midnightblue" d="M595.305,-113.208C592.177,-112.767 589.068,-112.358 586.048,-112 364.133,-85.7191 302.805,-110.878 78.9492,-76.0546"/>
<polygon fill="midnightblue" stroke="midnightblue" points="79.2801,-72.5636 68.8567,-74.4614 78.1886,-79.478 79.2801,-72.5636"/>
</g>
<!-- Node14&#45;&gt;Node9 -->
<g id="edge16" class="edge"><title>Node14&#45;&gt;Node9</title>
<path fill="none" stroke="midnightblue" d="M595.295,-113.291C592.169,-112.83 589.063,-112.394 586.048,-112 421.033,-90.4597 376.226,-95.6071 207.825,-76.163"/>
<polygon fill="midnightblue" stroke="midnightblue" points="208.214,-72.6848 197.876,-75.0025 207.403,-79.6377 208.214,-72.6848"/>
</g>
<!-- Node14&#45;&gt;Node11 -->
<g id="edge17" class="edge"><title>Node14&#45;&gt;Node11</title>
<path fill="none" stroke="midnightblue" d="M595.269,-113.472C592.149,-112.968 589.052,-112.473 586.048,-112 505.793,-99.3733 413.455,-85.8464 351.802,-76.9577"/>
<polygon fill="midnightblue" stroke="midnightblue" points="352.195,-73.4782 341.799,-75.5172 351.198,-80.4068 352.195,-73.4782"/>
</g>
<!-- Node15 -->
<g id="node15" class="node"><title>Node15</title>
<g id="a_node15"><a xlink:href="a00231_source.html" target="_top" xlink:title="replacements/readpassphrase.h">
<polygon fill="white" stroke="black" points="531.548,-56.5 531.548,-75.5 700.548,-75.5 700.548,-56.5 531.548,-56.5"/>
<text text-anchor="middle" x="616.048" y="-63.5" font-family="Helvetica,sans-Serif" font-size="10.00">replacements/readpassphrase.h</text>
</a>
</g>
</g>
<!-- Node14&#45;&gt;Node15 -->
<g id="edge18" class="edge"><title>Node14&#45;&gt;Node15</title>
<path fill="none" stroke="midnightblue" d="M636.084,-112.083C632.834,-104.77 628.128,-94.1814 624.094,-85.1034"/>
<polygon fill="midnightblue" stroke="midnightblue" points="627.197,-83.4677 619.937,-75.7511 620.8,-86.3107 627.197,-83.4677"/>
</g>
<!-- Node14&#45;&gt;Node16 -->
<g id="edge25" class="edge"><title>Node14&#45;&gt;Node16</title>
<path fill="none" stroke="midnightblue" d="M595.452,-113.515C525.922,-101.742 399.243,-79.8382 396.048,-76 390.361,-69.1684 390.156,-62.6559 396.048,-56 416.211,-33.2203 607.3,-19.5438 705.856,-13.9488"/>
<polygon fill="midnightblue" stroke="midnightblue" points="706.171,-17.4368 715.96,-13.3852 705.781,-10.4477 706.171,-17.4368"/>
</g>
<!-- Node14&#45;&gt;Node17 -->
<g id="edge26" class="edge"><title>Node14&#45;&gt;Node17</title>
<path fill="none" stroke="midnightblue" d="M658.566,-112.368C699.839,-93.131 799.567,-46.6478 848.304,-23.9314"/>
<polygon fill="midnightblue" stroke="midnightblue" points="850.03,-26.9885 857.615,-19.5914 847.073,-20.6438 850.03,-26.9885"/>
</g>
<!-- Node18 -->
<g id="node18" class="node"><title>Node18</title>
<g id="a_node18"><a xlink:href="a00230.html" target="_top" xlink:title="Provide poll call where missing. ">
<polygon fill="white" stroke="black" points="405.048,-56.5 405.048,-75.5 513.048,-75.5 513.048,-56.5 405.048,-56.5"/>
<text text-anchor="middle" x="459.048" y="-63.5" font-family="Helvetica,sans-Serif" font-size="10.00">replacements/poll.h</text>
</a>
</g>
</g>
<!-- Node14&#45;&gt;Node18 -->
<g id="edge21" class="edge"><title>Node14&#45;&gt;Node18</title>
<path fill="none" stroke="midnightblue" d="M611.368,-112.444C580.521,-103.241 531.319,-88.5617 497.218,-78.3879"/>
<polygon fill="midnightblue" stroke="midnightblue" points="498.177,-75.0215 487.593,-75.5164 496.175,-81.7293 498.177,-75.0215"/>
</g>
<!-- Node15&#45;&gt;Node16 -->
<g id="edge19" class="edge"><title>Node15&#45;&gt;Node16</title>
<path fill="none" stroke="midnightblue" d="M639.499,-56.4435C664.18,-47.4381 703.233,-33.1891 731.024,-23.049"/>
<polygon fill="midnightblue" stroke="midnightblue" points="732.512,-26.2321 740.706,-19.5164 730.112,-19.6561 732.512,-26.2321"/>
</g>
<!-- Node15&#45;&gt;Node17 -->
<g id="edge20" class="edge"><title>Node15&#45;&gt;Node17</title>
<path fill="none" stroke="midnightblue" d="M657.245,-56.4435C702.697,-47.0036 775.89,-31.802 824.957,-21.6111"/>
<polygon fill="midnightblue" stroke="midnightblue" points="825.963,-24.9769 835.043,-19.5164 824.54,-18.1232 825.963,-24.9769"/>
</g>
<!-- Node18&#45;&gt;Node2 -->
<g id="edge22" class="edge"><title>Node18&#45;&gt;Node2</title>
<path fill="none" stroke="midnightblue" d="M404.714,-58.1609C315.996,-46.9935 142.347,-25.1356 66.7138,-15.6153"/>
<polygon fill="midnightblue" stroke="midnightblue" points="67.0701,-12.1326 56.7112,-14.3563 66.1958,-19.0778 67.0701,-12.1326"/>
</g>
<!-- Node18&#45;&gt;Node16 -->
<g id="edge23" class="edge"><title>Node18&#45;&gt;Node16</title>
<path fill="none" stroke="midnightblue" d="M507.376,-56.4435C561.251,-46.9049 648.354,-31.4834 705.911,-21.293"/>
<polygon fill="midnightblue" stroke="midnightblue" points="706.709,-24.7063 715.946,-19.5164 705.488,-17.8135 706.709,-24.7063"/>
</g>
<!-- Node18&#45;&gt;Node17 -->
<g id="edge24" class="edge"><title>Node18&#45;&gt;Node17</title>
<path fill="none" stroke="midnightblue" d="M513.333,-57.1674C516.28,-56.7664 519.2,-56.3748 522.048,-56 651.512,-38.9608 686.819,-38.8088 819.694,-20.1412"/>
<polygon fill="midnightblue" stroke="midnightblue" points="820.444,-23.57 829.856,-18.7043 819.464,-16.6389 820.444,-23.57"/>
</g>
<!-- Node20&#45;&gt;Node16 -->
<g id="edge31" class="edge"><title>Node20&#45;&gt;Node16</title>
<path fill="none" stroke="midnightblue" d="M857.214,-56.324C839.332,-47.6247 811.573,-34.1202 791.002,-24.113"/>
<polygon fill="midnightblue" stroke="midnightblue" points="792.361,-20.8819 781.837,-19.6545 789.299,-27.1765 792.361,-20.8819"/>
</g>
<!-- Node20&#45;&gt;Node17 -->
<g id="edge32" class="edge"><title>Node20&#45;&gt;Node17</title>
<path fill="none" stroke="midnightblue" d="M875.213,-56.083C875.344,-49.0059 875.532,-38.8611 875.696,-29.9865"/>
<polygon fill="midnightblue" stroke="midnightblue" points="879.2,-29.8142 875.886,-19.7511 872.201,-29.6845 879.2,-29.8142"/>
</g>
<!-- Node22&#45;&gt;Node16 -->
<g id="edge35" class="edge"><title>Node22&#45;&gt;Node16</title>
<path fill="none" stroke="midnightblue" d="M948.346,-56.4435C910.463,-47.1024 849.699,-32.1194 808.385,-21.9326"/>
<polygon fill="midnightblue" stroke="midnightblue" points="809.134,-18.5123 798.586,-19.5164 807.458,-25.3088 809.134,-18.5123"/>
</g>
<!-- Node22&#45;&gt;Node17 -->
<g id="edge36" class="edge"><title>Node22&#45;&gt;Node17</title>
<path fill="none" stroke="midnightblue" d="M965.856,-56.324C948.697,-47.6641 922.102,-34.2424 902.3,-24.249"/>
<polygon fill="midnightblue" stroke="midnightblue" points="903.701,-21.0354 893.196,-19.6545 900.547,-27.2847 903.701,-21.0354"/>
</g>
<!-- Node23&#45;&gt;Node16 -->
<g id="edge38" class="edge"><title>Node23&#45;&gt;Node16</title>
<path fill="none" stroke="midnightblue" d="M1047.38,-57.5651C1044.22,-57.0335 1041.09,-56.5074 1038.05,-56 963.519,-43.5521 877.536,-29.4774 822.065,-20.4347"/>
<polygon fill="midnightblue" stroke="midnightblue" points="822.505,-16.9603 812.072,-18.8063 821.379,-23.8691 822.505,-16.9603"/>
</g>
<!-- Node23&#45;&gt;Node17 -->
<g id="edge39" class="edge"><title>Node23&#45;&gt;Node17</title>
<path fill="none" stroke="midnightblue" d="M1056.98,-56.4435C1019.87,-47.1221 960.386,-32.1828 919.833,-21.9972"/>
<polygon fill="midnightblue" stroke="midnightblue" points="920.507,-18.5579 909.956,-19.5164 918.802,-25.347 920.507,-18.5579"/>
</g>
<!-- Node24&#45;&gt;Node16 -->
<g id="edge41" class="edge"><title>Node24&#45;&gt;Node16</title>
<path fill="none" stroke="midnightblue" d="M1152.79,-57.3703C1149.5,-56.89 1146.22,-56.4282 1143.05,-56 1003.54,-37.1976 965.457,-39.1345 822.266,-20.1094"/>
<polygon fill="midnightblue" stroke="midnightblue" points="822.603,-16.6234 812.227,-18.7643 821.674,-23.5614 822.603,-16.6234"/>
</g>
<!-- Node24&#45;&gt;Node17 -->
<g id="edge42" class="edge"><title>Node24&#45;&gt;Node17</title>
<path fill="none" stroke="midnightblue" d="M1152.94,-57.1479C1094.41,-47.3944 994.682,-30.7725 932.237,-20.3648"/>
<polygon fill="midnightblue" stroke="midnightblue" points="932.607,-16.8784 922.168,-18.6867 931.456,-23.7831 932.607,-16.8784"/>
</g>
</g>
</svg>
