<?xml version="1.0" encoding="UTF-8" standalone="no"?>
<!DOCTYPE svg PUBLIC "-//W3C//DTD SVG 1.1//EN"
 "http://www.w3.org/Graphics/SVG/1.1/DTD/svg11.dtd">
<!-- Generated by graphviz version 2.38.0 (20140413.2041)
 -->
<!-- Title: src/tds/token.c Pages: 1 -->
<svg width="1388pt" height="252pt"
 viewBox="0.00 0.00 1388.00 252.00" xmlns="http://www.w3.org/2000/svg" xmlns:xlink="http://www.w3.org/1999/xlink">
<g id="graph0" class="graph" transform="scale(1 1) rotate(0) translate(4 248)">
<title>src/tds/token.c</title>
<polygon fill="white" stroke="none" points="-4,4 -4,-248 1384,-248 1384,4 -4,4"/>
<!-- Node1 -->
<g id="node1" class="node"><title>Node1</title>
<polygon fill="#bfbfbf" stroke="black" points="1021,-224.5 1021,-243.5 1106,-243.5 1106,-224.5 1021,-224.5"/>
<text text-anchor="middle" x="1063.5" y="-231.5" font-family="Helvetica,sans-Serif" font-size="10.00">src/tds/token.c</text>
</g>
<!-- Node2 -->
<g id="node2" class="node"><title>Node2</title>
<g id="a_node2"><a xlink:href="a00192_source.html" target="_top" xlink:title="config.h">
<polygon fill="white" stroke="black" points="0,-0.5 0,-19.5 53,-19.5 53,-0.5 0,-0.5"/>
<text text-anchor="middle" x="26.5" y="-7.5" font-family="Helvetica,sans-Serif" font-size="10.00">config.h</text>
</a>
</g>
</g>
<!-- Node1&#45;&gt;Node2 -->
<g id="edge1" class="edge"><title>Node1&#45;&gt;Node2</title>
<path fill="none" stroke="midnightblue" d="M1020.75,-230.819C861.708,-222.321 304.817,-189.055 137.5,-132 88.9198,-115.434 65.8444,-118.111 36.5,-76 27.2186,-62.6806 25.1625,-44.105 25.1687,-30.2209"/>
<polygon fill="midnightblue" stroke="midnightblue" points="28.6789,-30.001 25.5456,-19.8801 21.6836,-29.7459 28.6789,-30.001"/>
</g>
<!-- Node3 -->
<g id="node3" class="node"><title>Node3</title>
<polygon fill="white" stroke="#bfbfbf" points="514.5,-168.5 514.5,-187.5 568.5,-187.5 568.5,-168.5 514.5,-168.5"/>
<text text-anchor="middle" x="541.5" y="-175.5" font-family="Helvetica,sans-Serif" font-size="10.00">assert.h</text>
</g>
<!-- Node1&#45;&gt;Node3 -->
<g id="edge2" class="edge"><title>Node1&#45;&gt;Node3</title>
<path fill="none" stroke="midnightblue" d="M1020.82,-230.771C936.601,-225.985 743.268,-213.069 582.5,-188 581.244,-187.804 579.97,-187.593 578.684,-187.37"/>
<polygon fill="midnightblue" stroke="midnightblue" points="579.238,-183.913 568.759,-185.473 577.924,-190.788 579.238,-183.913"/>
</g>
<!-- Node4 -->
<g id="node4" class="node"><title>Node4</title>
<g id="a_node4"><a xlink:href="a00219.html" target="_top" xlink:title="Main include file for libtds. ">
<polygon fill="white" stroke="black" points="625,-168.5 625,-187.5 700,-187.5 700,-168.5 625,-168.5"/>
<text text-anchor="middle" x="662.5" y="-175.5" font-family="Helvetica,sans-Serif" font-size="10.00">freetds/tds.h</text>
</a>
</g>
</g>
<!-- Node1&#45;&gt;Node4 -->
<g id="edge3" class="edge"><title>Node1&#45;&gt;Node4</title>
<path fill="none" stroke="midnightblue" d="M1020.97,-227.272C945.636,-217.128 789.29,-196.074 710.334,-185.441"/>
<polygon fill="midnightblue" stroke="midnightblue" points="710.559,-181.94 700.181,-184.074 709.624,-188.878 710.559,-181.94"/>
</g>
<!-- Node14 -->
<g id="node14" class="node"><title>Node14</title>
<g id="a_node14"><a xlink:href="a00229_source.html" target="_top" xlink:title="replacements.h">
<polygon fill="white" stroke="black" points="279,-112.5 279,-131.5 368,-131.5 368,-112.5 279,-112.5"/>
<text text-anchor="middle" x="323.5" y="-119.5" font-family="Helvetica,sans-Serif" font-size="10.00">replacements.h</text>
</a>
</g>
</g>
<!-- Node1&#45;&gt;Node14 -->
<g id="edge45" class="edge"><title>Node1&#45;&gt;Node14</title>
<path fill="none" stroke="midnightblue" d="M1020.77,-230.796C924.003,-225.468 690.728,-210.637 615.5,-188 597.224,-182.501 595.556,-174.183 577.5,-168 568.124,-164.789 450.234,-144.497 378.406,-132.285"/>
<polygon fill="midnightblue" stroke="midnightblue" points="378.606,-128.769 368.161,-130.545 377.434,-135.67 378.606,-128.769"/>
</g>
<!-- Node20 -->
<g id="node20" class="node"><title>Node20</title>
<g id="a_node20"><a xlink:href="a00217_source.html" target="_top" xlink:title="freetds/string.h">
<polygon fill="white" stroke="black" points="1005,-56.5 1005,-75.5 1092,-75.5 1092,-56.5 1005,-56.5"/>
<text text-anchor="middle" x="1048.5" y="-63.5" font-family="Helvetica,sans-Serif" font-size="10.00">freetds/string.h</text>
</a>
</g>
</g>
<!-- Node1&#45;&gt;Node20 -->
<g id="edge30" class="edge"><title>Node1&#45;&gt;Node20</title>
<path fill="none" stroke="midnightblue" d="M1072.52,-224.34C1080.57,-215.932 1091.8,-202.363 1096.5,-188 1107.01,-155.899 1109.93,-142.994 1096.5,-112 1091.23,-99.8399 1080.88,-89.4594 1071.14,-81.7429"/>
<polygon fill="midnightblue" stroke="midnightblue" points="1073,-78.7707 1062.87,-75.6698 1068.86,-84.4116 1073,-78.7707"/>
</g>
<!-- Node21 -->
<g id="node21" class="node"><title>Node21</title>
<g id="a_node21"><a xlink:href="a00205_source.html" target="_top" xlink:title="freetds/convert.h">
<polygon fill="white" stroke="black" points="1110.5,-56.5 1110.5,-75.5 1206.5,-75.5 1206.5,-56.5 1110.5,-56.5"/>
<text text-anchor="middle" x="1158.5" y="-63.5" font-family="Helvetica,sans-Serif" font-size="10.00">freetds/convert.h</text>
</a>
</g>
</g>
<!-- Node1&#45;&gt;Node21 -->
<g id="edge33" class="edge"><title>Node1&#45;&gt;Node21</title>
<path fill="none" stroke="midnightblue" d="M1076.17,-224.345C1087.35,-216.137 1103.39,-202.874 1113.5,-188 1135.68,-155.37 1148.64,-110.399 1154.56,-85.4899"/>
<polygon fill="midnightblue" stroke="midnightblue" points="1158.01,-86.0982 1156.8,-75.5731 1151.19,-84.5575 1158.01,-86.0982"/>
</g>
<!-- Node22 -->
<g id="node22" class="node"><title>Node22</title>
<g id="a_node22"><a xlink:href="a00210_source.html" target="_top" xlink:title="freetds/iconv.h">
<polygon fill="white" stroke="black" points="788.5,-56.5 788.5,-75.5 874.5,-75.5 874.5,-56.5 788.5,-56.5"/>
<text text-anchor="middle" x="831.5" y="-63.5" font-family="Helvetica,sans-Serif" font-size="10.00">freetds/iconv.h</text>
</a>
</g>
</g>
<!-- Node1&#45;&gt;Node22 -->
<g id="edge36" class="edge"><title>Node1&#45;&gt;Node22</title>
<path fill="none" stroke="midnightblue" d="M1063.45,-224.48C1062.82,-202.379 1057.95,-142.793 1024.5,-112 1014.16,-102.478 938.33,-86.7682 884.866,-76.6557"/>
<polygon fill="midnightblue" stroke="midnightblue" points="885.304,-73.177 874.831,-74.7733 884.014,-80.057 885.304,-73.177"/>
</g>
<!-- Node23 -->
<g id="node23" class="node"><title>Node23</title>
<g id="a_node23"><a xlink:href="a00203_source.html" target="_top" xlink:title="freetds/checks.h">
<polygon fill="white" stroke="black" points="892.5,-56.5 892.5,-75.5 986.5,-75.5 986.5,-56.5 892.5,-56.5"/>
<text text-anchor="middle" x="939.5" y="-63.5" font-family="Helvetica,sans-Serif" font-size="10.00">freetds/checks.h</text>
</a>
</g>
</g>
<!-- Node1&#45;&gt;Node23 -->
<g id="edge39" class="edge"><title>Node1&#45;&gt;Node23</title>
<path fill="none" stroke="midnightblue" d="M1066.07,-224.355C1071.87,-202.964 1083.61,-146.776 1058.5,-112 1049.32,-99.2891 1013.73,-86.8384 983.846,-78.2675"/>
<polygon fill="midnightblue" stroke="midnightblue" points="984.548,-74.8296 973.975,-75.5148 982.667,-81.5724 984.548,-74.8296"/>
</g>
<!-- Node24 -->
<g id="node24" class="node"><title>Node24</title>
<g id="a_node24"><a xlink:href="a00202_source.html" target="_top" xlink:title="freetds/bytes.h">
<polygon fill="white" stroke="black" points="1186.5,-168.5 1186.5,-187.5 1272.5,-187.5 1272.5,-168.5 1186.5,-168.5"/>
<text text-anchor="middle" x="1229.5" y="-175.5" font-family="Helvetica,sans-Serif" font-size="10.00">freetds/bytes.h</text>
</a>
</g>
</g>
<!-- Node1&#45;&gt;Node24 -->
<g id="edge42" class="edge"><title>Node1&#45;&gt;Node24</title>
<path fill="none" stroke="midnightblue" d="M1089.8,-224.444C1117.85,-215.32 1162.44,-200.813 1193.68,-190.651"/>
<polygon fill="midnightblue" stroke="midnightblue" points="1194.89,-193.938 1203.32,-187.516 1192.73,-187.282 1194.89,-193.938"/>
</g>
<!-- Node25 -->
<g id="node25" class="node"><title>Node25</title>
<g id="a_node25"><a xlink:href="a00199_source.html" target="_top" xlink:title="freetds/alloca.h">
<polygon fill="white" stroke="black" points="1291,-168.5 1291,-187.5 1380,-187.5 1380,-168.5 1291,-168.5"/>
<text text-anchor="middle" x="1335.5" y="-175.5" font-family="Helvetica,sans-Serif" font-size="10.00">freetds/alloca.h</text>
</a>
</g>
</g>
<!-- Node1&#45;&gt;Node25 -->
<g id="edge43" class="edge"><title>Node1&#45;&gt;Node25</title>
<path fill="none" stroke="midnightblue" d="M1106.3,-224.503C1153.99,-215.036 1231.13,-199.72 1282.57,-189.508"/>
<polygon fill="midnightblue" stroke="midnightblue" points="1283.37,-192.917 1292.5,-187.536 1282.01,-186.051 1283.37,-192.917"/>
</g>
<!-- Node5 -->
<g id="node5" class="node"><title>Node5</title>
<polygon fill="white" stroke="#bfbfbf" points="564,-56.5 564,-75.5 619,-75.5 619,-56.5 564,-56.5"/>
<text text-anchor="middle" x="591.5" y="-63.5" font-family="Helvetica,sans-Serif" font-size="10.00">stdarg.h</text>
</g>
<!-- Node4&#45;&gt;Node5 -->
<g id="edge4" class="edge"><title>Node4&#45;&gt;Node5</title>
<path fill="none" stroke="midnightblue" d="M632.408,-168.427C603.987,-159.65 564.421,-145.429 555.5,-132 544.76,-115.832 559.082,-96.2143 572.715,-82.7879"/>
<polygon fill="midnightblue" stroke="midnightblue" points="575.468,-85.0118 580.468,-75.6709 570.735,-79.8551 575.468,-85.0118"/>
</g>
<!-- Node6 -->
<g id="node6" class="node"><title>Node6</title>
<polygon fill="white" stroke="#bfbfbf" points="775,-112.5 775,-131.5 822,-131.5 822,-112.5 775,-112.5"/>
<text text-anchor="middle" x="798.5" y="-119.5" font-family="Helvetica,sans-Serif" font-size="10.00">stdio.h</text>
</g>
<!-- Node4&#45;&gt;Node6 -->
<g id="edge5" class="edge"><title>Node4&#45;&gt;Node6</title>
<path fill="none" stroke="midnightblue" d="M684.05,-168.444C706.531,-159.517 741.988,-145.439 767.48,-135.317"/>
<polygon fill="midnightblue" stroke="midnightblue" points="769.049,-138.46 777.051,-131.516 766.465,-131.954 769.049,-138.46"/>
</g>
<!-- Node7 -->
<g id="node7" class="node"><title>Node7</title>
<g id="a_node7"><a xlink:href="a00221_source.html" target="_top" xlink:title="time.h">
<polygon fill="white" stroke="black" points="840.5,-112.5 840.5,-131.5 884.5,-131.5 884.5,-112.5 840.5,-112.5"/>
<text text-anchor="middle" x="862.5" y="-119.5" font-family="Helvetica,sans-Serif" font-size="10.00">time.h</text>
</a>
</g>
</g>
<!-- Node4&#45;&gt;Node7 -->
<g id="edge6" class="edge"><title>Node4&#45;&gt;Node7</title>
<path fill="none" stroke="midnightblue" d="M694.739,-168.492C728.583,-159.531 783.33,-144.95 830.5,-132 830.601,-131.972 830.702,-131.945 830.803,-131.917"/>
<polygon fill="midnightblue" stroke="midnightblue" points="831.776,-135.279 840.476,-129.233 829.904,-128.534 831.776,-135.279"/>
</g>
<!-- Node8 -->
<g id="node8" class="node"><title>Node8</title>
<g id="a_node8"><a xlink:href="a00224_source.html" target="_top" xlink:title="freetds/version.h">
<polygon fill="white" stroke="black" points="921,-112.5 921,-131.5 1016,-131.5 1016,-112.5 921,-112.5"/>
<text text-anchor="middle" x="968.5" y="-119.5" font-family="Helvetica,sans-Serif" font-size="10.00">freetds/version.h</text>
</a>
</g>
</g>
<!-- Node4&#45;&gt;Node8 -->
<g id="edge8" class="edge"><title>Node4&#45;&gt;Node8</title>
<path fill="none" stroke="midnightblue" d="M700.022,-170.379C752.706,-161.081 849.066,-144.077 910.878,-133.169"/>
<polygon fill="midnightblue" stroke="midnightblue" points="911.626,-136.591 920.866,-131.406 910.41,-129.697 911.626,-136.591"/>
</g>
<!-- Node9 -->
<g id="node9" class="node"><title>Node9</title>
<g id="a_node9"><a xlink:href="a00238_source.html" target="_top" xlink:title="tds_sysdep_public.h">
<polygon fill="white" stroke="black" points="46,-56.5 46,-75.5 157,-75.5 157,-56.5 46,-56.5"/>
<text text-anchor="middle" x="101.5" y="-63.5" font-family="Helvetica,sans-Serif" font-size="10.00">tds_sysdep_public.h</text>
</a>
</g>
</g>
<!-- Node4&#45;&gt;Node9 -->
<g id="edge9" class="edge"><title>Node4&#45;&gt;Node9</title>
<path fill="none" stroke="midnightblue" d="M624.855,-172.875C610.094,-171.294 593.008,-169.508 577.5,-168 487.349,-159.231 254.263,-168.802 171.5,-132 147.685,-121.41 126.729,-99.3264 114.097,-83.8515"/>
<polygon fill="midnightblue" stroke="midnightblue" points="116.586,-81.3529 107.663,-75.6407 111.076,-85.6707 116.586,-81.3529"/>
</g>
<!-- Node11 -->
<g id="node11" class="node"><title>Node11</title>
<g id="a_node11"><a xlink:href="a00218_source.html" target="_top" xlink:title="freetds/sysdep_private.h">
<polygon fill="white" stroke="black" points="637,-56.5 637,-75.5 770,-75.5 770,-56.5 637,-56.5"/>
<text text-anchor="middle" x="703.5" y="-63.5" font-family="Helvetica,sans-Serif" font-size="10.00">freetds/sysdep_private.h</text>
</a>
</g>
</g>
<!-- Node4&#45;&gt;Node11 -->
<g id="edge11" class="edge"><title>Node4&#45;&gt;Node11</title>
<path fill="none" stroke="midnightblue" d="M625.963,-168.5C590.135,-158.377 543.576,-139.332 563.5,-112 573.869,-97.7763 613.684,-85.8198 648.217,-77.8147"/>
<polygon fill="midnightblue" stroke="midnightblue" points="649.265,-81.1666 658.255,-75.5612 647.732,-74.3366 649.265,-81.1666"/>
</g>
<!-- Node12 -->
<g id="node12" class="node"><title>Node12</title>
<g id="a_node12"><a xlink:href="a00220_source.html" target="_top" xlink:title="freetds/thread.h">
<polygon fill="white" stroke="black" points="386.5,-112.5 386.5,-131.5 478.5,-131.5 478.5,-112.5 386.5,-112.5"/>
<text text-anchor="middle" x="432.5" y="-119.5" font-family="Helvetica,sans-Serif" font-size="10.00">freetds/thread.h</text>
</a>
</g>
</g>
<!-- Node4&#45;&gt;Node12 -->
<g id="edge12" class="edge"><title>Node4&#45;&gt;Node12</title>
<path fill="none" stroke="midnightblue" d="M626.056,-168.444C586.101,-159.063 521.913,-143.993 478.515,-133.804"/>
<polygon fill="midnightblue" stroke="midnightblue" points="479.309,-130.395 468.774,-131.516 477.709,-137.21 479.309,-130.395"/>
</g>
<!-- Node13 -->
<g id="node13" class="node"><title>Node13</title>
<g id="a_node13"><a xlink:href="a00201_source.html" target="_top" xlink:title="freetds/bool.h">
<polygon fill="white" stroke="black" points="572.5,-112.5 572.5,-131.5 652.5,-131.5 652.5,-112.5 572.5,-112.5"/>
<text text-anchor="middle" x="612.5" y="-119.5" font-family="Helvetica,sans-Serif" font-size="10.00">freetds/bool.h</text>
</a>
</g>
</g>
<!-- Node4&#45;&gt;Node13 -->
<g id="edge13" class="edge"><title>Node4&#45;&gt;Node13</title>
<path fill="none" stroke="midnightblue" d="M654.244,-168.083C647.035,-160.298 636.39,-148.801 627.654,-139.367"/>
<polygon fill="midnightblue" stroke="midnightblue" points="629.965,-136.711 620.603,-131.751 624.829,-141.467 629.965,-136.711"/>
</g>
<!-- Node4&#45;&gt;Node14 -->
<g id="edge14" class="edge"><title>Node4&#45;&gt;Node14</title>
<path fill="none" stroke="midnightblue" d="M624.74,-170.382C619.949,-169.567 615.111,-168.755 610.5,-168 510.224,-151.577 482.612,-148.775 378.282,-132.108"/>
<polygon fill="midnightblue" stroke="midnightblue" points="378.71,-128.632 368.282,-130.506 377.603,-135.544 378.71,-128.632"/>
</g>
<!-- Node16 -->
<g id="node16" class="node"><title>Node16</title>
<g id="a_node16"><a xlink:href="a00214_source.html" target="_top" xlink:title="freetds/pushvis.h">
<polygon fill="white" stroke="black" points="598.5,-0.5 598.5,-19.5 694.5,-19.5 694.5,-0.5 598.5,-0.5"/>
<text text-anchor="middle" x="646.5" y="-7.5" font-family="Helvetica,sans-Serif" font-size="10.00">freetds/pushvis.h</text>
</a>
</g>
</g>
<!-- Node4&#45;&gt;Node16 -->
<g id="edge27" class="edge"><title>Node4&#45;&gt;Node16</title>
<path fill="none" stroke="midnightblue" d="M624.661,-172.964C527.746,-162.589 277.61,-135.55 269.5,-132 228.783,-114.178 174.706,-88.9818 204.5,-56 229.758,-28.0399 473.966,-16.5457 588.168,-12.6707"/>
<polygon fill="midnightblue" stroke="midnightblue" points="588.595,-16.1586 598.473,-12.3298 588.363,-9.16245 588.595,-16.1586"/>
</g>
<!-- Node17 -->
<g id="node17" class="node"><title>Node17</title>
<g id="a_node17"><a xlink:href="a00212_source.html" target="_top" xlink:title="freetds/popvis.h">
<polygon fill="white" stroke="black" points="947.5,-0.5 947.5,-19.5 1039.5,-19.5 1039.5,-0.5 947.5,-0.5"/>
<text text-anchor="middle" x="993.5" y="-7.5" font-family="Helvetica,sans-Serif" font-size="10.00">freetds/popvis.h</text>
</a>
</g>
</g>
<!-- Node4&#45;&gt;Node17 -->
<g id="edge29" class="edge"><title>Node4&#45;&gt;Node17</title>
<path fill="none" stroke="midnightblue" d="M700.016,-176.626C816.791,-174.565 1169.91,-161.27 1235.5,-76 1240.92,-68.9544 1241.18,-62.8358 1235.5,-56 1212.37,-28.1769 1113.97,-17.4728 1049.99,-13.4141"/>
<polygon fill="midnightblue" stroke="midnightblue" points="1049.83,-9.89859 1039.64,-12.7962 1049.41,-16.8861 1049.83,-9.89859"/>
</g>
<!-- Node19 -->
<g id="node19" class="node"><title>Node19</title>
<g id="a_node19"><a xlink:href="a00213_source.html" target="_top" xlink:title="freetds/proto.h">
<polygon fill="white" stroke="black" points="670.5,-112.5 670.5,-131.5 756.5,-131.5 756.5,-112.5 670.5,-112.5"/>
<text text-anchor="middle" x="713.5" y="-119.5" font-family="Helvetica,sans-Serif" font-size="10.00">freetds/proto.h</text>
</a>
</g>
</g>
<!-- Node4&#45;&gt;Node19 -->
<g id="edge28" class="edge"><title>Node4&#45;&gt;Node19</title>
<path fill="none" stroke="midnightblue" d="M670.922,-168.083C678.348,-160.22 689.352,-148.569 698.312,-139.081"/>
<polygon fill="midnightblue" stroke="midnightblue" points="700.913,-141.424 705.235,-131.751 695.824,-136.618 700.913,-141.424"/>
</g>
<!-- Node7&#45;&gt;Node7 -->
<g id="edge7" class="edge"><title>Node7&#45;&gt;Node7</title>
<path fill="none" stroke="midnightblue" d="M879.768,-131.575C891.287,-134.27 902.5,-131.078 902.5,-122 902.5,-115.759 897.2,-112.3 890.145,-111.623"/>
<polygon fill="midnightblue" stroke="midnightblue" points="889.469,-108.165 879.768,-112.425 890.008,-115.144 889.469,-108.165"/>
</g>
<!-- Node10 -->
<g id="node10" class="node"><title>Node10</title>
<polygon fill="white" stroke="#bfbfbf" points="79,-0.5 79,-19.5 124,-19.5 124,-0.5 79,-0.5"/>
<text text-anchor="middle" x="101.5" y="-7.5" font-family="Helvetica,sans-Serif" font-size="10.00">float.h</text>
</g>
<!-- Node9&#45;&gt;Node10 -->
<g id="edge10" class="edge"><title>Node9&#45;&gt;Node10</title>
<path fill="none" stroke="midnightblue" d="M101.5,-56.083C101.5,-49.0059 101.5,-38.8611 101.5,-29.9865"/>
<polygon fill="midnightblue" stroke="midnightblue" points="105,-29.751 101.5,-19.7511 98.0001,-29.7511 105,-29.751"/>
</g>
<!-- Node14&#45;&gt;Node5 -->
<g id="edge15" class="edge"><title>Node14&#45;&gt;Node5</title>
<path fill="none" stroke="midnightblue" d="M368.342,-112.9C412.882,-104.712 483.354,-91.3761 553.725,-76.0895"/>
<polygon fill="midnightblue" stroke="midnightblue" points="554.63,-79.4746 563.652,-73.9199 553.135,-72.636 554.63,-79.4746"/>
</g>
<!-- Node14&#45;&gt;Node9 -->
<g id="edge16" class="edge"><title>Node14&#45;&gt;Node9</title>
<path fill="none" stroke="midnightblue" d="M288.323,-112.444C249.921,-103.102 188.324,-88.1194 146.445,-77.9326"/>
<polygon fill="midnightblue" stroke="midnightblue" points="147.056,-74.4792 136.512,-75.5164 145.401,-81.2809 147.056,-74.4792"/>
</g>
<!-- Node14&#45;&gt;Node11 -->
<g id="edge17" class="edge"><title>Node14&#45;&gt;Node11</title>
<path fill="none" stroke="midnightblue" d="M368.274,-113.439C371.395,-112.942 374.493,-112.458 377.5,-112 463.191,-98.9475 561.809,-85.5613 627.938,-76.821"/>
<polygon fill="midnightblue" stroke="midnightblue" points="628.402,-80.2901 637.859,-75.5124 627.487,-73.3502 628.402,-80.2901"/>
</g>
<!-- Node15 -->
<g id="node15" class="node"><title>Node15</title>
<g id="a_node15"><a xlink:href="a00231_source.html" target="_top" xlink:title="replacements/readpassphrase.h">
<polygon fill="white" stroke="black" points="377,-56.5 377,-75.5 546,-75.5 546,-56.5 377,-56.5"/>
<text text-anchor="middle" x="461.5" y="-63.5" font-family="Helvetica,sans-Serif" font-size="10.00">replacements/readpassphrase.h</text>
</a>
</g>
</g>
<!-- Node14&#45;&gt;Node15 -->
<g id="edge18" class="edge"><title>Node14&#45;&gt;Node15</title>
<path fill="none" stroke="midnightblue" d="M345.367,-112.444C368.279,-103.478 404.475,-89.314 430.366,-79.1827"/>
<polygon fill="midnightblue" stroke="midnightblue" points="431.699,-82.4198 439.736,-75.5164 429.148,-75.9011 431.699,-82.4198"/>
</g>
<!-- Node14&#45;&gt;Node16 -->
<g id="edge25" class="edge"><title>Node14&#45;&gt;Node16</title>
<path fill="none" stroke="midnightblue" d="M326.777,-112.136C332.587,-97.7676 346.131,-69.6312 367.5,-56 403.18,-33.2399 517.473,-20.7197 588.222,-14.9742"/>
<polygon fill="midnightblue" stroke="midnightblue" points="588.637,-18.4524 598.33,-14.1753 588.085,-11.4742 588.637,-18.4524"/>
</g>
<!-- Node14&#45;&gt;Node17 -->
<g id="edge26" class="edge"><title>Node14&#45;&gt;Node17</title>
<path fill="none" stroke="midnightblue" d="M368.232,-113.112C371.363,-112.693 374.475,-112.316 377.5,-112 423.847,-107.161 1183.26,-109.65 1215.5,-76 1266.32,-22.951 1131.16,-12.5266 1049.86,-10.8978"/>
<polygon fill="midnightblue" stroke="midnightblue" points="1049.8,-7.39639 1039.74,-10.7344 1049.69,-14.3955 1049.8,-7.39639"/>
</g>
<!-- Node18 -->
<g id="node18" class="node"><title>Node18</title>
<g id="a_node18"><a xlink:href="a00230.html" target="_top" xlink:title="Provide poll call where missing. ">
<polygon fill="white" stroke="black" points="213.5,-56.5 213.5,-75.5 321.5,-75.5 321.5,-56.5 213.5,-56.5"/>
<text text-anchor="middle" x="267.5" y="-63.5" font-family="Helvetica,sans-Serif" font-size="10.00">replacements/poll.h</text>
</a>
</g>
</g>
<!-- Node14&#45;&gt;Node18 -->
<g id="edge21" class="edge"><title>Node14&#45;&gt;Node18</title>
<path fill="none" stroke="midnightblue" d="M314.503,-112.324C306.306,-104.42 293.994,-92.5482 284.028,-82.9377"/>
<polygon fill="midnightblue" stroke="midnightblue" points="286.289,-80.2558 276.661,-75.8339 281.43,-85.2947 286.289,-80.2558"/>
</g>
<!-- Node15&#45;&gt;Node16 -->
<g id="edge19" class="edge"><title>Node15&#45;&gt;Node16</title>
<path fill="none" stroke="midnightblue" d="M490.814,-56.4435C522.342,-47.2406 572.631,-32.5617 607.486,-22.3879"/>
<polygon fill="midnightblue" stroke="midnightblue" points="608.705,-25.6783 617.323,-19.5164 606.743,-18.9587 608.705,-25.6783"/>
</g>
<!-- Node15&#45;&gt;Node17 -->
<g id="edge20" class="edge"><title>Node15&#45;&gt;Node17</title>
<path fill="none" stroke="midnightblue" d="M545.503,-56.4733C655.005,-45.3585 843.559,-26.2195 937.259,-16.7087"/>
<polygon fill="midnightblue" stroke="midnightblue" points="937.792,-20.1727 947.387,-15.6806 937.085,-13.2084 937.792,-20.1727"/>
</g>
<!-- Node18&#45;&gt;Node2 -->
<g id="edge22" class="edge"><title>Node18&#45;&gt;Node2</title>
<path fill="none" stroke="midnightblue" d="M229.313,-56.4435C183.753,-46.2352 108.123,-29.2889 63.2202,-19.2278"/>
<polygon fill="midnightblue" stroke="midnightblue" points="63.8387,-15.7796 53.3153,-17.0084 62.3081,-22.6103 63.8387,-15.7796"/>
</g>
<!-- Node18&#45;&gt;Node16 -->
<g id="edge23" class="edge"><title>Node18&#45;&gt;Node16</title>
<path fill="none" stroke="midnightblue" d="M321.801,-57.2631C392.423,-47.201 515.317,-29.691 587.96,-19.3408"/>
<polygon fill="midnightblue" stroke="midnightblue" points="588.895,-22.743 598.301,-17.8674 587.907,-15.813 588.895,-22.743"/>
</g>
<!-- Node18&#45;&gt;Node17 -->
<g id="edge24" class="edge"><title>Node18&#45;&gt;Node17</title>
<path fill="none" stroke="midnightblue" d="M321.719,-59.9411C336.558,-58.6054 352.645,-57.2023 367.5,-56 577.398,-39.0117 827.156,-22.0265 936.961,-14.7221"/>
<polygon fill="midnightblue" stroke="midnightblue" points="937.398,-18.2008 947.144,-14.0457 936.934,-11.2162 937.398,-18.2008"/>
</g>
<!-- Node20&#45;&gt;Node16 -->
<g id="edge31" class="edge"><title>Node20&#45;&gt;Node16</title>
<path fill="none" stroke="midnightblue" d="M1004.85,-57.4455C1001.69,-56.942 998.546,-56.4548 995.5,-56 893.488,-40.7681 774.234,-26.0546 704.851,-17.8008"/>
<polygon fill="midnightblue" stroke="midnightblue" points="704.912,-14.2836 694.569,-16.5816 704.087,-21.2349 704.912,-14.2836"/>
</g>
<!-- Node20&#45;&gt;Node17 -->
<g id="edge32" class="edge"><title>Node20&#45;&gt;Node17</title>
<path fill="none" stroke="midnightblue" d="M1039.42,-56.083C1031.33,-48.1409 1019.3,-36.3354 1009.59,-26.7973"/>
<polygon fill="midnightblue" stroke="midnightblue" points="1012,-24.2595 1002.41,-19.7511 1007.1,-29.2545 1012,-24.2595"/>
</g>
<!-- Node21&#45;&gt;Node16 -->
<g id="edge34" class="edge"><title>Node21&#45;&gt;Node16</title>
<path fill="none" stroke="midnightblue" d="M1110.42,-57.3307C1107.07,-56.8598 1103.73,-56.411 1100.5,-56 958.74,-37.9897 791.301,-23.0147 704.786,-15.7419"/>
<polygon fill="midnightblue" stroke="midnightblue" points="704.901,-12.2394 694.644,-14.8935 704.318,-19.215 704.901,-12.2394"/>
</g>
<!-- Node21&#45;&gt;Node17 -->
<g id="edge35" class="edge"><title>Node21&#45;&gt;Node17</title>
<path fill="none" stroke="midnightblue" d="M1132.36,-56.4435C1104.48,-47.3196 1060.15,-32.8133 1029.1,-22.6509"/>
<polygon fill="midnightblue" stroke="midnightblue" points="1030.12,-19.3005 1019.52,-19.5164 1027.94,-25.9533 1030.12,-19.3005"/>
</g>
<!-- Node22&#45;&gt;Node16 -->
<g id="edge37" class="edge"><title>Node22&#45;&gt;Node16</title>
<path fill="none" stroke="midnightblue" d="M802.186,-56.4435C770.658,-47.2406 720.369,-32.5617 685.514,-22.3879"/>
<polygon fill="midnightblue" stroke="midnightblue" points="686.257,-18.9587 675.677,-19.5164 684.295,-25.6783 686.257,-18.9587"/>
</g>
<!-- Node22&#45;&gt;Node17 -->
<g id="edge38" class="edge"><title>Node22&#45;&gt;Node17</title>
<path fill="none" stroke="midnightblue" d="M857.169,-56.4435C884.423,-47.3591 927.684,-32.9388 958.151,-22.7831"/>
<polygon fill="midnightblue" stroke="midnightblue" points="959.571,-25.9992 967.951,-19.5164 957.357,-19.3584 959.571,-25.9992"/>
</g>
<!-- Node23&#45;&gt;Node16 -->
<g id="edge40" class="edge"><title>Node23&#45;&gt;Node16</title>
<path fill="none" stroke="midnightblue" d="M893.073,-56.4435C841.424,-46.9246 757.988,-31.5472 702.693,-21.3563"/>
<polygon fill="midnightblue" stroke="midnightblue" points="703.178,-17.887 692.71,-19.5164 701.909,-24.771 703.178,-17.887"/>
</g>
<!-- Node23&#45;&gt;Node17 -->
<g id="edge41" class="edge"><title>Node23&#45;&gt;Node17</title>
<path fill="none" stroke="midnightblue" d="M948.417,-56.083C956.28,-48.2195 967.931,-36.5688 977.419,-27.0813"/>
<polygon fill="midnightblue" stroke="midnightblue" points="980.153,-29.2971 984.749,-19.7511 975.203,-24.3473 980.153,-29.2971"/>
</g>
<!-- Node26 -->
<g id="node26" class="node"><title>Node26</title>
<polygon fill="white" stroke="#bfbfbf" points="1308.5,-112.5 1308.5,-131.5 1362.5,-131.5 1362.5,-112.5 1308.5,-112.5"/>
<text text-anchor="middle" x="1335.5" y="-119.5" font-family="Helvetica,sans-Serif" font-size="10.00">stddef.h</text>
</g>
<!-- Node25&#45;&gt;Node26 -->
<g id="edge44" class="edge"><title>Node25&#45;&gt;Node26</title>
<path fill="none" stroke="midnightblue" d="M1335.5,-168.083C1335.5,-161.006 1335.5,-150.861 1335.5,-141.986"/>
<polygon fill="midnightblue" stroke="midnightblue" points="1339,-141.751 1335.5,-131.751 1332,-141.751 1339,-141.751"/>
</g>
</g>
</svg>
