<?xml version="1.0" encoding="UTF-8" standalone="no"?>
<!DOCTYPE svg PUBLIC "-//W3C//DTD SVG 1.1//EN"
 "http://www.w3.org/Graphics/SVG/1.1/DTD/svg11.dtd">
<!-- Generated by graphviz version 2.38.0 (20140413.2041)
 -->
<!-- Title: src/tds/data.c Pages: 1 -->
<svg width="1457pt" height="252pt"
 viewBox="0.00 0.00 1457.48 252.00" xmlns="http://www.w3.org/2000/svg" xmlns:xlink="http://www.w3.org/1999/xlink">
<g id="graph0" class="graph" transform="scale(1 1) rotate(0) translate(4 248)">
<title>src/tds/data.c</title>
<polygon fill="white" stroke="none" points="-4,4 -4,-248 1453.48,-248 1453.48,4 -4,4"/>
<!-- Node1 -->
<g id="node1" class="node"><title>Node1</title>
<polygon fill="#bfbfbf" stroke="black" points="862.98,-224.5 862.98,-243.5 942.98,-243.5 942.98,-224.5 862.98,-224.5"/>
<text text-anchor="middle" x="902.98" y="-231.5" font-family="Helvetica,sans-Serif" font-size="10.00">src/tds/data.c</text>
</g>
<!-- Node2 -->
<g id="node2" class="node"><title>Node2</title>
<g id="a_node2"><a xlink:href="a00192_source.html" target="_top" xlink:title="config.h">
<polygon fill="white" stroke="black" points="30.4797,-0.5 30.4797,-19.5 83.4797,-19.5 83.4797,-0.5 30.4797,-0.5"/>
<text text-anchor="middle" x="56.9797" y="-7.5" font-family="Helvetica,sans-Serif" font-size="10.00">config.h</text>
</a>
</g>
</g>
<!-- Node1&#45;&gt;Node2 -->
<g id="edge1" class="edge"><title>Node1&#45;&gt;Node2</title>
<path fill="none" stroke="midnightblue" d="M862.705,-232.919C722.713,-232.293 258.03,-227.236 114.98,-188 62.8365,-173.698 35.0665,-178.202 6.97972,-132 -14.3555,-96.9045 19.3384,-51.0691 41.0073,-27.1401"/>
<polygon fill="midnightblue" stroke="midnightblue" points="43.7573,-29.3249 48.0604,-19.6432 38.659,-24.5283 43.7573,-29.3249"/>
</g>
<!-- Node3 -->
<g id="node3" class="node"><title>Node3</title>
<polygon fill="white" stroke="#bfbfbf" points="54.4797,-56.5 54.4797,-75.5 109.48,-75.5 109.48,-56.5 54.4797,-56.5"/>
<text text-anchor="middle" x="81.9797" y="-63.5" font-family="Helvetica,sans-Serif" font-size="10.00">stdarg.h</text>
</g>
<!-- Node1&#45;&gt;Node3 -->
<g id="edge2" class="edge"><title>Node1&#45;&gt;Node3</title>
<path fill="none" stroke="midnightblue" d="M862.977,-231.702C696.962,-225.891 68.4137,-199.531 14.9797,-132 -0.714071,-112.166 27.6262,-92.3579 52.1449,-79.9153"/>
<polygon fill="midnightblue" stroke="midnightblue" points="53.7677,-83.0186 61.255,-75.5225 50.7273,-76.7133 53.7677,-83.0186"/>
</g>
<!-- Node4 -->
<g id="node4" class="node"><title>Node4</title>
<polygon fill="white" stroke="#bfbfbf" points="24.4797,-112.5 24.4797,-131.5 71.4797,-131.5 71.4797,-112.5 24.4797,-112.5"/>
<text text-anchor="middle" x="47.9797" y="-119.5" font-family="Helvetica,sans-Serif" font-size="10.00">stdio.h</text>
</g>
<!-- Node1&#45;&gt;Node4 -->
<g id="edge3" class="edge"><title>Node1&#45;&gt;Node4</title>
<path fill="none" stroke="midnightblue" d="M862.838,-231.156C774.014,-226.735 554.256,-213.922 371.98,-188 265.083,-172.798 140.251,-144.818 81.6262,-131.064"/>
<polygon fill="midnightblue" stroke="midnightblue" points="82.3373,-127.636 71.8008,-128.746 80.7301,-134.449 82.3373,-127.636"/>
</g>
<!-- Node5 -->
<g id="node5" class="node"><title>Node5</title>
<polygon fill="white" stroke="#bfbfbf" points="380.98,-168.5 380.98,-187.5 434.98,-187.5 434.98,-168.5 380.98,-168.5"/>
<text text-anchor="middle" x="407.98" y="-175.5" font-family="Helvetica,sans-Serif" font-size="10.00">assert.h</text>
</g>
<!-- Node1&#45;&gt;Node5 -->
<g id="edge4" class="edge"><title>Node1&#45;&gt;Node5</title>
<path fill="none" stroke="midnightblue" d="M862.806,-231.054C784.308,-226.824 604.987,-215.052 445.036,-187.936"/>
<polygon fill="midnightblue" stroke="midnightblue" points="445.464,-184.458 435.016,-186.213 444.278,-191.357 445.464,-184.458"/>
</g>
<!-- Node6 -->
<g id="node6" class="node"><title>Node6</title>
<g id="a_node6"><a xlink:href="a00219.html" target="_top" xlink:title="Main include file for libtds. ">
<polygon fill="white" stroke="black" points="453.48,-168.5 453.48,-187.5 528.48,-187.5 528.48,-168.5 453.48,-168.5"/>
<text text-anchor="middle" x="490.98" y="-175.5" font-family="Helvetica,sans-Serif" font-size="10.00">freetds/tds.h</text>
</a>
</g>
</g>
<!-- Node1&#45;&gt;Node6 -->
<g id="edge5" class="edge"><title>Node1&#45;&gt;Node6</title>
<path fill="none" stroke="midnightblue" d="M862.725,-227.724C786.317,-217.709 620.601,-195.989 538.729,-185.258"/>
<polygon fill="midnightblue" stroke="midnightblue" points="539.068,-181.773 528.698,-183.944 538.158,-188.714 539.068,-181.773"/>
</g>
<!-- Node16 -->
<g id="node16" class="node"><title>Node16</title>
<g id="a_node16"><a xlink:href="a00214_source.html" target="_top" xlink:title="freetds/pushvis.h">
<polygon fill="white" stroke="black" points="984.98,-0.5 984.98,-19.5 1080.98,-19.5 1080.98,-0.5 984.98,-0.5"/>
<text text-anchor="middle" x="1032.98" y="-7.5" font-family="Helvetica,sans-Serif" font-size="10.00">freetds/pushvis.h</text>
</a>
</g>
</g>
<!-- Node1&#45;&gt;Node16 -->
<g id="edge45" class="edge"><title>Node1&#45;&gt;Node16</title>
<path fill="none" stroke="midnightblue" d="M943.296,-232.327C1029.93,-228.375 1232.22,-205.105 1308.98,-76 1313.52,-68.3595 1314.74,-62.7723 1308.98,-56 1281.63,-23.8299 1164.02,-14.6015 1091.44,-11.9906"/>
<polygon fill="midnightblue" stroke="midnightblue" points="1091.18,-8.48044 1081.07,-11.6515 1090.95,-15.4767 1091.18,-8.48044"/>
</g>
<!-- Node17 -->
<g id="node17" class="node"><title>Node17</title>
<g id="a_node17"><a xlink:href="a00212_source.html" target="_top" xlink:title="freetds/popvis.h">
<polygon fill="white" stroke="black" points="799.98,-0.5 799.98,-19.5 891.98,-19.5 891.98,-0.5 799.98,-0.5"/>
<text text-anchor="middle" x="845.98" y="-7.5" font-family="Helvetica,sans-Serif" font-size="10.00">freetds/popvis.h</text>
</a>
</g>
</g>
<!-- Node1&#45;&gt;Node17 -->
<g id="edge46" class="edge"><title>Node1&#45;&gt;Node17</title>
<path fill="none" stroke="midnightblue" d="M900.745,-224.297C892.341,-191.563 862.508,-75.3752 850.772,-29.6664"/>
<polygon fill="midnightblue" stroke="midnightblue" points="854.138,-28.6991 848.261,-19.8837 847.358,-30.44 854.138,-28.6991"/>
</g>
<!-- Node20 -->
<g id="node20" class="node"><title>Node20</title>
<g id="a_node20"><a xlink:href="a00202_source.html" target="_top" xlink:title="freetds/bytes.h">
<polygon fill="white" stroke="black" points="930.98,-168.5 930.98,-187.5 1016.98,-187.5 1016.98,-168.5 930.98,-168.5"/>
<text text-anchor="middle" x="973.98" y="-175.5" font-family="Helvetica,sans-Serif" font-size="10.00">freetds/bytes.h</text>
</a>
</g>
</g>
<!-- Node1&#45;&gt;Node20 -->
<g id="edge32" class="edge"><title>Node1&#45;&gt;Node20</title>
<path fill="none" stroke="midnightblue" d="M914.387,-224.324C925.089,-216.185 941.32,-203.839 954.143,-194.087"/>
<polygon fill="midnightblue" stroke="midnightblue" points="956.524,-196.673 962.365,-187.834 952.287,-191.102 956.524,-196.673"/>
</g>
<!-- Node21 -->
<g id="node21" class="node"><title>Node21</title>
<g id="a_node21"><a xlink:href="a00210_source.html" target="_top" xlink:title="freetds/iconv.h">
<polygon fill="white" stroke="black" points="1197.98,-56.5 1197.98,-75.5 1283.98,-75.5 1283.98,-56.5 1197.98,-56.5"/>
<text text-anchor="middle" x="1240.98" y="-63.5" font-family="Helvetica,sans-Serif" font-size="10.00">freetds/iconv.h</text>
</a>
</g>
</g>
<!-- Node1&#45;&gt;Node21 -->
<g id="edge33" class="edge"><title>Node1&#45;&gt;Node21</title>
<path fill="none" stroke="midnightblue" d="M943.073,-226.436C978.017,-219.753 1029.46,-207.555 1070.98,-188 1132.13,-159.201 1194.45,-108.106 1223.75,-82.5134"/>
<polygon fill="midnightblue" stroke="midnightblue" points="1226.25,-84.9712 1231.43,-75.726 1221.62,-79.7264 1226.25,-84.9712"/>
</g>
<!-- Node22 -->
<g id="node22" class="node"><title>Node22</title>
<g id="a_node22"><a xlink:href="a00203_source.html" target="_top" xlink:title="freetds/checks.h">
<polygon fill="white" stroke="black" points="873.98,-56.5 873.98,-75.5 967.98,-75.5 967.98,-56.5 873.98,-56.5"/>
<text text-anchor="middle" x="920.98" y="-63.5" font-family="Helvetica,sans-Serif" font-size="10.00">freetds/checks.h</text>
</a>
</g>
</g>
<!-- Node1&#45;&gt;Node22 -->
<g id="edge36" class="edge"><title>Node1&#45;&gt;Node22</title>
<path fill="none" stroke="midnightblue" d="M903.947,-224.075C906.781,-197.945 915.101,-121.211 918.965,-85.577"/>
<polygon fill="midnightblue" stroke="midnightblue" points="922.452,-85.8872 920.051,-75.5681 915.493,-85.1325 922.452,-85.8872"/>
</g>
<!-- Node23 -->
<g id="node23" class="node"><title>Node23</title>
<g id="a_node23"><a xlink:href="a00216_source.html" target="_top" xlink:title="freetds/stream.h">
<polygon fill="white" stroke="black" points="986.48,-56.5 986.48,-75.5 1079.48,-75.5 1079.48,-56.5 986.48,-56.5"/>
<text text-anchor="middle" x="1032.98" y="-63.5" font-family="Helvetica,sans-Serif" font-size="10.00">freetds/stream.h</text>
</a>
</g>
</g>
<!-- Node1&#45;&gt;Node23 -->
<g id="edge39" class="edge"><title>Node1&#45;&gt;Node23</title>
<path fill="none" stroke="midnightblue" d="M943.271,-229.547C971.238,-224.852 1006.79,-213.828 1025.98,-188 1048.28,-157.984 1042.99,-111.336 1037.67,-85.609"/>
<polygon fill="midnightblue" stroke="midnightblue" points="1041.04,-84.6495 1035.4,-75.6839 1034.22,-86.2131 1041.04,-84.6495"/>
</g>
<!-- Node24 -->
<g id="node24" class="node"><title>Node24</title>
<g id="a_node24"><a xlink:href="a00206_source.html" target="_top" xlink:title="freetds/data.h">
<polygon fill="white" stroke="black" points="1097.98,-56.5 1097.98,-75.5 1179.98,-75.5 1179.98,-56.5 1097.98,-56.5"/>
<text text-anchor="middle" x="1138.98" y="-63.5" font-family="Helvetica,sans-Serif" font-size="10.00">freetds/data.h</text>
</a>
</g>
</g>
<!-- Node1&#45;&gt;Node24 -->
<g id="edge42" class="edge"><title>Node1&#45;&gt;Node24</title>
<path fill="none" stroke="midnightblue" d="M943.192,-226.922C973.316,-220.868 1014.43,-209.291 1044.98,-188 1084.65,-160.354 1115.38,-110.962 1129.86,-84.6443"/>
<polygon fill="midnightblue" stroke="midnightblue" points="1132.97,-86.25 1134.6,-75.7813 1126.8,-82.9488 1132.97,-86.25"/>
</g>
<!-- Node25 -->
<g id="node25" class="node"><title>Node25</title>
<g id="a_node25"><a xlink:href="a00348_source.html" target="_top" xlink:title="tds_types.h">
<polygon fill="white" stroke="black" points="1378.48,-168.5 1378.48,-187.5 1449.48,-187.5 1449.48,-168.5 1378.48,-168.5"/>
<text text-anchor="middle" x="1413.98" y="-175.5" font-family="Helvetica,sans-Serif" font-size="10.00">tds_types.h</text>
</a>
</g>
</g>
<!-- Node1&#45;&gt;Node25 -->
<g id="edge47" class="edge"><title>Node1&#45;&gt;Node25</title>
<path fill="none" stroke="midnightblue" d="M943.189,-230.174C1023.43,-224.291 1209.05,-209.469 1363.98,-188 1365.43,-187.799 1366.9,-187.587 1368.38,-187.366"/>
<polygon fill="midnightblue" stroke="midnightblue" points="1368.93,-190.822 1378.26,-185.792 1367.83,-183.909 1368.93,-190.822"/>
</g>
<!-- Node6&#45;&gt;Node3 -->
<g id="edge6" class="edge"><title>Node6&#45;&gt;Node3</title>
<path fill="none" stroke="midnightblue" d="M453.314,-169.522C450.161,-168.977 447.019,-168.461 443.98,-168 373.23,-157.263 184.814,-169.682 123.98,-132 106.533,-121.193 94.9533,-100.141 88.4507,-84.9174"/>
<polygon fill="midnightblue" stroke="midnightblue" points="91.667,-83.5323 84.7504,-75.5067 85.1525,-86.0939 91.667,-83.5323"/>
</g>
<!-- Node6&#45;&gt;Node4 -->
<g id="edge7" class="edge"><title>Node6&#45;&gt;Node4</title>
<path fill="none" stroke="midnightblue" d="M453.32,-169.483C450.166,-168.946 447.022,-168.443 443.98,-168 285.738,-144.94 243.685,-158.485 85.9797,-132 84.5171,-131.754 83.0271,-131.485 81.5248,-131.198"/>
<polygon fill="midnightblue" stroke="midnightblue" points="82.1049,-127.743 71.5979,-129.104 80.6605,-134.593 82.1049,-127.743"/>
</g>
<!-- Node7 -->
<g id="node7" class="node"><title>Node7</title>
<g id="a_node7"><a xlink:href="a00221_source.html" target="_top" xlink:title="time.h">
<polygon fill="white" stroke="black" points="307.98,-112.5 307.98,-131.5 351.98,-131.5 351.98,-112.5 307.98,-112.5"/>
<text text-anchor="middle" x="329.98" y="-119.5" font-family="Helvetica,sans-Serif" font-size="10.00">time.h</text>
</a>
</g>
</g>
<!-- Node6&#45;&gt;Node7 -->
<g id="edge8" class="edge"><title>Node6&#45;&gt;Node7</title>
<path fill="none" stroke="midnightblue" d="M465.469,-168.444C437.428,-159.038 392.335,-143.914 361.954,-133.724"/>
<polygon fill="midnightblue" stroke="midnightblue" points="362.854,-130.335 352.26,-130.473 360.628,-136.971 362.854,-130.335"/>
</g>
<!-- Node8 -->
<g id="node8" class="node"><title>Node8</title>
<g id="a_node8"><a xlink:href="a00224_source.html" target="_top" xlink:title="freetds/version.h">
<polygon fill="white" stroke="black" points="388.48,-112.5 388.48,-131.5 483.48,-131.5 483.48,-112.5 388.48,-112.5"/>
<text text-anchor="middle" x="435.98" y="-119.5" font-family="Helvetica,sans-Serif" font-size="10.00">freetds/version.h</text>
</a>
</g>
</g>
<!-- Node6&#45;&gt;Node8 -->
<g id="edge10" class="edge"><title>Node6&#45;&gt;Node8</title>
<path fill="none" stroke="midnightblue" d="M481.898,-168.083C473.808,-160.141 461.784,-148.335 452.07,-138.797"/>
<polygon fill="midnightblue" stroke="midnightblue" points="454.481,-136.26 444.893,-131.751 449.576,-141.254 454.481,-136.26"/>
</g>
<!-- Node9 -->
<g id="node9" class="node"><title>Node9</title>
<g id="a_node9"><a xlink:href="a00238_source.html" target="_top" xlink:title="tds_sysdep_public.h">
<polygon fill="white" stroke="black" points="166.48,-56.5 166.48,-75.5 277.48,-75.5 277.48,-56.5 166.48,-56.5"/>
<text text-anchor="middle" x="221.98" y="-63.5" font-family="Helvetica,sans-Serif" font-size="10.00">tds_sysdep_public.h</text>
</a>
</g>
</g>
<!-- Node6&#45;&gt;Node9 -->
<g id="edge11" class="edge"><title>Node6&#45;&gt;Node9</title>
<path fill="none" stroke="midnightblue" d="M453.297,-169.627C450.148,-169.059 447.011,-168.509 443.98,-168 388.843,-158.74 231.576,-174.267 194.98,-132 182.811,-117.945 194.642,-97.6384 206.245,-83.4748"/>
<polygon fill="midnightblue" stroke="midnightblue" points="208.895,-85.7613 212.867,-75.9391 203.637,-81.1406 208.895,-85.7613"/>
</g>
<!-- Node11 -->
<g id="node11" class="node"><title>Node11</title>
<g id="a_node11"><a xlink:href="a00218_source.html" target="_top" xlink:title="freetds/sysdep_private.h">
<polygon fill="white" stroke="black" points="684.48,-56.5 684.48,-75.5 817.48,-75.5 817.48,-56.5 684.48,-56.5"/>
<text text-anchor="middle" x="750.98" y="-63.5" font-family="Helvetica,sans-Serif" font-size="10.00">freetds/sysdep_private.h</text>
</a>
</g>
</g>
<!-- Node6&#45;&gt;Node11 -->
<g id="edge13" class="edge"><title>Node6&#45;&gt;Node11</title>
<path fill="none" stroke="midnightblue" d="M528.591,-177.521C604.569,-177.684 772.179,-173.242 807.98,-132 823.39,-114.248 798.608,-93.8869 777.045,-80.7545"/>
<polygon fill="midnightblue" stroke="midnightblue" points="778.537,-77.574 768.128,-75.5976 775.032,-83.6337 778.537,-77.574"/>
</g>
<!-- Node12 -->
<g id="node12" class="node"><title>Node12</title>
<g id="a_node12"><a xlink:href="a00220_source.html" target="_top" xlink:title="freetds/thread.h">
<polygon fill="white" stroke="black" points="608.98,-112.5 608.98,-131.5 700.98,-131.5 700.98,-112.5 608.98,-112.5"/>
<text text-anchor="middle" x="654.98" y="-119.5" font-family="Helvetica,sans-Serif" font-size="10.00">freetds/thread.h</text>
</a>
</g>
</g>
<!-- Node6&#45;&gt;Node12 -->
<g id="edge14" class="edge"><title>Node6&#45;&gt;Node12</title>
<path fill="none" stroke="midnightblue" d="M516.966,-168.444C544.676,-159.32 588.732,-144.813 619.595,-134.651"/>
<polygon fill="midnightblue" stroke="midnightblue" points="620.711,-137.968 629.115,-131.516 618.522,-131.32 620.711,-137.968"/>
</g>
<!-- Node13 -->
<g id="node13" class="node"><title>Node13</title>
<g id="a_node13"><a xlink:href="a00201_source.html" target="_top" xlink:title="freetds/bool.h">
<polygon fill="white" stroke="black" points="718.98,-112.5 718.98,-131.5 798.98,-131.5 798.98,-112.5 718.98,-112.5"/>
<text text-anchor="middle" x="758.98" y="-119.5" font-family="Helvetica,sans-Serif" font-size="10.00">freetds/bool.h</text>
</a>
</g>
</g>
<!-- Node6&#45;&gt;Node13 -->
<g id="edge15" class="edge"><title>Node6&#45;&gt;Node13</title>
<path fill="none" stroke="midnightblue" d="M528.526,-169.435C575.525,-159.965 656.199,-143.709 708.55,-133.161"/>
<polygon fill="midnightblue" stroke="midnightblue" points="709.512,-136.538 718.624,-131.131 708.13,-129.676 709.512,-136.538"/>
</g>
<!-- Node14 -->
<g id="node14" class="node"><title>Node14</title>
<g id="a_node14"><a xlink:href="a00229_source.html" target="_top" xlink:title="replacements.h">
<polygon fill="white" stroke="black" points="501.48,-112.5 501.48,-131.5 590.48,-131.5 590.48,-112.5 501.48,-112.5"/>
<text text-anchor="middle" x="545.98" y="-119.5" font-family="Helvetica,sans-Serif" font-size="10.00">replacements.h</text>
</a>
</g>
</g>
<!-- Node6&#45;&gt;Node14 -->
<g id="edge16" class="edge"><title>Node6&#45;&gt;Node14</title>
<path fill="none" stroke="midnightblue" d="M500.062,-168.083C508.151,-160.141 520.175,-148.335 529.89,-138.797"/>
<polygon fill="midnightblue" stroke="midnightblue" points="532.383,-141.254 537.067,-131.751 527.479,-136.26 532.383,-141.254"/>
</g>
<!-- Node6&#45;&gt;Node16 -->
<g id="edge29" class="edge"><title>Node6&#45;&gt;Node16</title>
<path fill="none" stroke="midnightblue" d="M528.72,-175.127C680.628,-167.209 1241.66,-134.183 1292.98,-76 1298.86,-69.3335 1298.7,-62.8003 1292.98,-56 1267.72,-25.9987 1159.96,-15.9989 1091.34,-12.666"/>
<polygon fill="midnightblue" stroke="midnightblue" points="1091.25,-9.15834 1081.1,-12.2037 1090.93,-16.1512 1091.25,-9.15834"/>
</g>
<!-- Node6&#45;&gt;Node17 -->
<g id="edge31" class="edge"><title>Node6&#45;&gt;Node17</title>
<path fill="none" stroke="midnightblue" d="M453.3,-169.611C450.15,-169.046 447.012,-168.502 443.98,-168 386.867,-158.553 233.235,-165.437 185.98,-132 156.467,-111.117 132.263,-82.3842 156.98,-56 199.84,-10.2486 632.735,-9.2209 789.601,-10.3745"/>
<polygon fill="midnightblue" stroke="midnightblue" points="789.941,-13.8773 799.969,-10.457 789.997,-6.87748 789.941,-13.8773"/>
</g>
<!-- Node19 -->
<g id="node19" class="node"><title>Node19</title>
<g id="a_node19"><a xlink:href="a00213_source.html" target="_top" xlink:title="freetds/proto.h">
<polygon fill="white" stroke="black" points="203.98,-112.5 203.98,-131.5 289.98,-131.5 289.98,-112.5 203.98,-112.5"/>
<text text-anchor="middle" x="246.98" y="-119.5" font-family="Helvetica,sans-Serif" font-size="10.00">freetds/proto.h</text>
</a>
</g>
</g>
<!-- Node6&#45;&gt;Node19 -->
<g id="edge30" class="edge"><title>Node6&#45;&gt;Node19</title>
<path fill="none" stroke="midnightblue" d="M453.389,-168.681C410.921,-159.282 341.686,-143.96 295.252,-133.683"/>
<polygon fill="midnightblue" stroke="midnightblue" points="295.938,-130.25 285.418,-131.507 294.426,-137.085 295.938,-130.25"/>
</g>
<!-- Node7&#45;&gt;Node7 -->
<g id="edge9" class="edge"><title>Node7&#45;&gt;Node7</title>
<path fill="none" stroke="midnightblue" d="M347.248,-131.575C358.767,-134.27 369.98,-131.078 369.98,-122 369.98,-115.759 364.68,-112.3 357.625,-111.623"/>
<polygon fill="midnightblue" stroke="midnightblue" points="356.949,-108.165 347.248,-112.425 357.488,-115.144 356.949,-108.165"/>
</g>
<!-- Node10 -->
<g id="node10" class="node"><title>Node10</title>
<polygon fill="white" stroke="#bfbfbf" points="199.48,-0.5 199.48,-19.5 244.48,-19.5 244.48,-0.5 199.48,-0.5"/>
<text text-anchor="middle" x="221.98" y="-7.5" font-family="Helvetica,sans-Serif" font-size="10.00">float.h</text>
</g>
<!-- Node9&#45;&gt;Node10 -->
<g id="edge12" class="edge"><title>Node9&#45;&gt;Node10</title>
<path fill="none" stroke="midnightblue" d="M221.98,-56.083C221.98,-49.0059 221.98,-38.8611 221.98,-29.9865"/>
<polygon fill="midnightblue" stroke="midnightblue" points="225.48,-29.751 221.98,-19.7511 218.48,-29.7511 225.48,-29.751"/>
</g>
<!-- Node14&#45;&gt;Node3 -->
<g id="edge17" class="edge"><title>Node14&#45;&gt;Node3</title>
<path fill="none" stroke="midnightblue" d="M501.221,-113.335C498.097,-112.863 494.993,-112.413 491.98,-112 343.618,-91.6824 305.767,-92.9211 156.98,-76 144.886,-74.6246 131.703,-73.0636 119.811,-71.6322"/>
<polygon fill="midnightblue" stroke="midnightblue" points="120.1,-68.1417 109.752,-70.4157 119.259,-75.0911 120.1,-68.1417"/>
</g>
<!-- Node14&#45;&gt;Node9 -->
<g id="edge18" class="edge"><title>Node14&#45;&gt;Node9</title>
<path fill="none" stroke="midnightblue" d="M501.269,-113.548C444.584,-104.101 346.605,-87.7709 283.059,-77.1799"/>
<polygon fill="midnightblue" stroke="midnightblue" points="283.607,-73.723 273.168,-75.5313 282.456,-80.6278 283.607,-73.723"/>
</g>
<!-- Node14&#45;&gt;Node11 -->
<g id="edge19" class="edge"><title>Node14&#45;&gt;Node11</title>
<path fill="none" stroke="midnightblue" d="M578.463,-112.444C613.7,-103.162 670.083,-88.3093 708.738,-78.127"/>
<polygon fill="midnightblue" stroke="midnightblue" points="709.87,-81.4483 718.649,-75.5164 708.087,-74.6792 709.87,-81.4483"/>
</g>
<!-- Node15 -->
<g id="node15" class="node"><title>Node15</title>
<g id="a_node15"><a xlink:href="a00231_source.html" target="_top" xlink:title="replacements/readpassphrase.h">
<polygon fill="white" stroke="black" points="459.48,-56.5 459.48,-75.5 628.48,-75.5 628.48,-56.5 459.48,-56.5"/>
<text text-anchor="middle" x="543.98" y="-63.5" font-family="Helvetica,sans-Serif" font-size="10.00">replacements/readpassphrase.h</text>
</a>
</g>
</g>
<!-- Node14&#45;&gt;Node15 -->
<g id="edge20" class="edge"><title>Node14&#45;&gt;Node15</title>
<path fill="none" stroke="midnightblue" d="M545.649,-112.083C545.387,-105.006 545.012,-94.8611 544.683,-85.9865"/>
<polygon fill="midnightblue" stroke="midnightblue" points="548.172,-85.6147 544.304,-75.7511 541.176,-85.8738 548.172,-85.6147"/>
</g>
<!-- Node14&#45;&gt;Node16 -->
<g id="edge27" class="edge"><title>Node14&#45;&gt;Node16</title>
<path fill="none" stroke="midnightblue" d="M563.832,-112.337C582.228,-103.371 611.705,-88.8981 636.98,-76 653.979,-67.3249 656.774,-61.7268 674.98,-56 729.458,-38.8633 887.948,-23.3091 974.647,-15.7768"/>
<polygon fill="midnightblue" stroke="midnightblue" points="975.189,-19.2431 984.852,-14.8984 974.589,-12.2689 975.189,-19.2431"/>
</g>
<!-- Node14&#45;&gt;Node17 -->
<g id="edge28" class="edge"><title>Node14&#45;&gt;Node17</title>
<path fill="none" stroke="midnightblue" d="M512.723,-112.469C476.71,-101.694 427.258,-81.4494 449.98,-56 472.194,-31.118 685.621,-18.1886 789.599,-13.3227"/>
<polygon fill="midnightblue" stroke="midnightblue" points="789.782,-16.8181 799.611,-12.8633 789.461,-9.82546 789.782,-16.8181"/>
</g>
<!-- Node18 -->
<g id="node18" class="node"><title>Node18</title>
<g id="a_node18"><a xlink:href="a00230.html" target="_top" xlink:title="Provide poll call where missing. ">
<polygon fill="white" stroke="black" points="295.98,-56.5 295.98,-75.5 403.98,-75.5 403.98,-56.5 295.98,-56.5"/>
<text text-anchor="middle" x="349.98" y="-63.5" font-family="Helvetica,sans-Serif" font-size="10.00">replacements/poll.h</text>
</a>
</g>
</g>
<!-- Node14&#45;&gt;Node18 -->
<g id="edge23" class="edge"><title>Node14&#45;&gt;Node18</title>
<path fill="none" stroke="midnightblue" d="M514.923,-112.444C481.376,-103.201 427.783,-88.4356 390.839,-78.2572"/>
<polygon fill="midnightblue" stroke="midnightblue" points="391.462,-74.7984 380.891,-75.5164 389.602,-81.5469 391.462,-74.7984"/>
</g>
<!-- Node15&#45;&gt;Node16 -->
<g id="edge21" class="edge"><title>Node15&#45;&gt;Node16</title>
<path fill="none" stroke="midnightblue" d="M621.193,-56.4733C719.311,-45.6383 886.478,-27.1781 974.616,-17.445"/>
<polygon fill="midnightblue" stroke="midnightblue" points="975.149,-20.9075 984.705,-16.331 974.381,-13.9498 975.149,-20.9075"/>
</g>
<!-- Node15&#45;&gt;Node17 -->
<g id="edge22" class="edge"><title>Node15&#45;&gt;Node17</title>
<path fill="none" stroke="midnightblue" d="M591.833,-56.4435C645.649,-46.8207 732.949,-31.2108 789.917,-21.0245"/>
<polygon fill="midnightblue" stroke="midnightblue" points="790.609,-24.4564 799.836,-19.2508 789.376,-17.5657 790.609,-24.4564"/>
</g>
<!-- Node18&#45;&gt;Node2 -->
<g id="edge24" class="edge"><title>Node18&#45;&gt;Node2</title>
<path fill="none" stroke="midnightblue" d="M303.553,-56.4435C245.311,-45.7095 146.647,-27.5258 93.497,-17.7302"/>
<polygon fill="midnightblue" stroke="midnightblue" points="93.9681,-14.2581 83.4993,-15.8876 92.6993,-21.1422 93.9681,-14.2581"/>
</g>
<!-- Node18&#45;&gt;Node16 -->
<g id="edge25" class="edge"><title>Node18&#45;&gt;Node16</title>
<path fill="none" stroke="midnightblue" d="M404.203,-59.9932C419.042,-58.6576 435.128,-57.2415 449.98,-56 642.115,-39.9394 870.051,-22.9409 974.913,-15.2361"/>
<polygon fill="midnightblue" stroke="midnightblue" points="975.256,-18.7204 984.973,-14.4977 974.744,-11.7392 975.256,-18.7204"/>
</g>
<!-- Node18&#45;&gt;Node17 -->
<g id="edge26" class="edge"><title>Node18&#45;&gt;Node17</title>
<path fill="none" stroke="midnightblue" d="M404.154,-57.6967C408.828,-57.1069 413.486,-56.5335 417.98,-56 551.032,-40.2034 707.7,-24.4561 789.608,-16.4406"/>
<polygon fill="midnightblue" stroke="midnightblue" points="790.087,-19.9105 799.7,-15.4551 789.407,-12.9436 790.087,-19.9105"/>
</g>
<!-- Node21&#45;&gt;Node16 -->
<g id="edge34" class="edge"><title>Node21&#45;&gt;Node16</title>
<path fill="none" stroke="midnightblue" d="M1208.02,-56.4435C1172.19,-47.1419 1114.82,-32.246 1075.59,-22.062"/>
<polygon fill="midnightblue" stroke="midnightblue" points="1076.34,-18.6417 1065.78,-19.5164 1074.58,-25.4171 1076.34,-18.6417"/>
</g>
<!-- Node21&#45;&gt;Node17 -->
<g id="edge35" class="edge"><title>Node21&#45;&gt;Node17</title>
<path fill="none" stroke="midnightblue" d="M1197.87,-57.3991C1194.86,-56.912 1191.88,-56.4408 1188.98,-56 1088.17,-40.6695 970.205,-25.8803 902.184,-17.6576"/>
<polygon fill="midnightblue" stroke="midnightblue" points="902.459,-14.1656 892.112,-16.444 901.622,-21.1153 902.459,-14.1656"/>
</g>
<!-- Node22&#45;&gt;Node16 -->
<g id="edge37" class="edge"><title>Node22&#45;&gt;Node16</title>
<path fill="none" stroke="midnightblue" d="M938.974,-56.324C957.017,-47.6247 985.027,-34.1202 1005.78,-24.113"/>
<polygon fill="midnightblue" stroke="midnightblue" points="1007.54,-27.1502 1015.03,-19.6545 1004.5,-20.8449 1007.54,-27.1502"/>
</g>
<!-- Node22&#45;&gt;Node17 -->
<g id="edge38" class="edge"><title>Node22&#45;&gt;Node17</title>
<path fill="none" stroke="midnightblue" d="M908.93,-56.324C897.517,-48.1066 880.149,-35.6017 866.545,-25.8069"/>
<polygon fill="midnightblue" stroke="midnightblue" points="868.409,-22.8366 858.249,-19.8339 864.319,-28.5174 868.409,-22.8366"/>
</g>
<!-- Node23&#45;&gt;Node16 -->
<g id="edge40" class="edge"><title>Node23&#45;&gt;Node16</title>
<path fill="none" stroke="midnightblue" d="M1032.98,-56.083C1032.98,-49.0059 1032.98,-38.8611 1032.98,-29.9865"/>
<polygon fill="midnightblue" stroke="midnightblue" points="1036.48,-29.751 1032.98,-19.7511 1029.48,-29.7511 1036.48,-29.751"/>
</g>
<!-- Node23&#45;&gt;Node17 -->
<g id="edge41" class="edge"><title>Node23&#45;&gt;Node17</title>
<path fill="none" stroke="midnightblue" d="M1003.35,-56.4435C971.48,-47.2406 920.647,-32.5617 885.416,-22.3879"/>
<polygon fill="midnightblue" stroke="midnightblue" points="886.05,-18.9282 875.472,-19.5164 884.108,-25.6534 886.05,-18.9282"/>
</g>
<!-- Node24&#45;&gt;Node16 -->
<g id="edge43" class="edge"><title>Node24&#45;&gt;Node16</title>
<path fill="none" stroke="midnightblue" d="M1121.95,-56.324C1104.95,-47.6641 1078.6,-34.2424 1058.99,-24.249"/>
<polygon fill="midnightblue" stroke="midnightblue" points="1060.47,-21.0752 1049.97,-19.6545 1057.29,-27.3125 1060.47,-21.0752"/>
</g>
<!-- Node24&#45;&gt;Node17 -->
<g id="edge44" class="edge"><title>Node24&#45;&gt;Node17</title>
<path fill="none" stroke="midnightblue" d="M1097.93,-57.4347C1046.82,-48.0151 959.284,-31.8821 902.029,-21.3299"/>
<polygon fill="midnightblue" stroke="midnightblue" points="902.527,-17.8628 892.058,-19.4923 901.258,-24.7468 902.527,-17.8628"/>
</g>
</g>
</svg>
