<?xml version="1.0" encoding="UTF-8" standalone="no"?>
<!DOCTYPE svg PUBLIC "-//W3C//DTD SVG 1.1//EN"
 "http://www.w3.org/Graphics/SVG/1.1/DTD/svg11.dtd">
<!-- Generated by graphviz version 2.38.0 (20140413.2041)
 -->
<!-- Title: src/replacements/iconv.c Pages: 1 -->
<svg width="1293pt" height="252pt"
 viewBox="0.00 0.00 1292.91 252.00" xmlns="http://www.w3.org/2000/svg" xmlns:xlink="http://www.w3.org/1999/xlink">
<g id="graph0" class="graph" transform="scale(1 1) rotate(0) translate(4 248)">
<title>src/replacements/iconv.c</title>
<polygon fill="white" stroke="none" points="-4,4 -4,-248 1288.91,-248 1288.91,4 -4,4"/>
<!-- Node1 -->
<g id="node1" class="node"><title>Node1</title>
<polygon fill="#bfbfbf" stroke="black" points="826.065,-224.5 826.065,-243.5 959.065,-243.5 959.065,-224.5 826.065,-224.5"/>
<text text-anchor="middle" x="892.565" y="-231.5" font-family="Helvetica,sans-Serif" font-size="10.00">src/replacements/iconv.c</text>
</g>
<!-- Node2 -->
<g id="node2" class="node"><title>Node2</title>
<g id="a_node2"><a xlink:href="a00192_source.html" target="_top" xlink:title="config.h">
<polygon fill="white" stroke="black" points="386.065,-0.5 386.065,-19.5 439.065,-19.5 439.065,-0.5 386.065,-0.5"/>
<text text-anchor="middle" x="412.565" y="-7.5" font-family="Helvetica,sans-Serif" font-size="10.00">config.h</text>
</a>
</g>
</g>
<!-- Node1&#45;&gt;Node2 -->
<g id="edge1" class="edge"><title>Node1&#45;&gt;Node2</title>
<path fill="none" stroke="midnightblue" d="M825.975,-233.845C703.713,-234.236 435.692,-229.69 214.565,-188 110.233,-168.33 32.1728,-178.243 3.56466,-76 1.1695,-67.4399 -2.36708,-62.6202 3.56466,-56 28.2042,-28.5008 279.812,-16.0682 375.712,-12.3024"/>
<polygon fill="midnightblue" stroke="midnightblue" points="375.961,-15.7955 385.82,-11.915 375.693,-8.80059 375.961,-15.7955"/>
</g>
<!-- Node3 -->
<g id="node3" class="node"><title>Node3</title>
<polygon fill="white" stroke="#bfbfbf" points="920.565,-168.5 920.565,-187.5 974.565,-187.5 974.565,-168.5 920.565,-168.5"/>
<text text-anchor="middle" x="947.565" y="-175.5" font-family="Helvetica,sans-Serif" font-size="10.00">assert.h</text>
</g>
<!-- Node1&#45;&gt;Node3 -->
<g id="edge2" class="edge"><title>Node1&#45;&gt;Node3</title>
<path fill="none" stroke="midnightblue" d="M901.647,-224.083C909.736,-216.141 921.76,-204.335 931.475,-194.797"/>
<polygon fill="midnightblue" stroke="midnightblue" points="933.968,-197.254 938.652,-187.751 929.064,-192.26 933.968,-197.254"/>
</g>
<!-- Node4 -->
<g id="node4" class="node"><title>Node4</title>
<polygon fill="white" stroke="#bfbfbf" points="992.565,-168.5 992.565,-187.5 1042.56,-187.5 1042.56,-168.5 992.565,-168.5"/>
<text text-anchor="middle" x="1017.56" y="-175.5" font-family="Helvetica,sans-Serif" font-size="10.00">ctype.h</text>
</g>
<!-- Node1&#45;&gt;Node4 -->
<g id="edge3" class="edge"><title>Node1&#45;&gt;Node4</title>
<path fill="none" stroke="midnightblue" d="M912.371,-224.444C932.851,-215.596 965.047,-201.687 988.429,-191.586"/>
<polygon fill="midnightblue" stroke="midnightblue" points="990.059,-194.695 997.851,-187.516 987.283,-188.269 990.059,-194.695"/>
</g>
<!-- Node5 -->
<g id="node5" class="node"><title>Node5</title>
<g id="a_node5"><a xlink:href="a00219.html" target="_top" xlink:title="Main include file for libtds. ">
<polygon fill="white" stroke="black" points="562.065,-168.5 562.065,-187.5 637.065,-187.5 637.065,-168.5 562.065,-168.5"/>
<text text-anchor="middle" x="599.565" y="-175.5" font-family="Helvetica,sans-Serif" font-size="10.00">freetds/tds.h</text>
</a>
</g>
</g>
<!-- Node1&#45;&gt;Node5 -->
<g id="edge4" class="edge"><title>Node1&#45;&gt;Node5</title>
<path fill="none" stroke="midnightblue" d="M846.138,-224.444C791.868,-214.441 702.5,-197.971 647.563,-187.846"/>
<polygon fill="midnightblue" stroke="midnightblue" points="647.857,-184.342 637.389,-185.971 646.589,-191.226 647.857,-184.342"/>
</g>
<!-- Node21 -->
<g id="node21" class="node"><title>Node21</title>
<g id="a_node21"><a xlink:href="a00202_source.html" target="_top" xlink:title="freetds/bytes.h">
<polygon fill="white" stroke="black" points="1060.56,-168.5 1060.56,-187.5 1146.56,-187.5 1146.56,-168.5 1060.56,-168.5"/>
<text text-anchor="middle" x="1103.56" y="-175.5" font-family="Helvetica,sans-Serif" font-size="10.00">freetds/bytes.h</text>
</a>
</g>
</g>
<!-- Node1&#45;&gt;Node21 -->
<g id="edge31" class="edge"><title>Node1&#45;&gt;Node21</title>
<path fill="none" stroke="midnightblue" d="M925.998,-224.444C962.421,-215.122 1020.8,-200.183 1060.59,-189.997"/>
<polygon fill="midnightblue" stroke="midnightblue" points="1061.47,-193.387 1070.29,-187.516 1059.73,-186.605 1061.47,-193.387"/>
</g>
<!-- Node22 -->
<g id="node22" class="node"><title>Node22</title>
<g id="a_node22"><a xlink:href="a00210_source.html" target="_top" xlink:title="freetds/iconv.h">
<polygon fill="white" stroke="black" points="1185.56,-56.5 1185.56,-75.5 1271.56,-75.5 1271.56,-56.5 1185.56,-56.5"/>
<text text-anchor="middle" x="1228.56" y="-63.5" font-family="Helvetica,sans-Serif" font-size="10.00">freetds/iconv.h</text>
</a>
</g>
</g>
<!-- Node1&#45;&gt;Node22 -->
<g id="edge32" class="edge"><title>Node1&#45;&gt;Node22</title>
<path fill="none" stroke="midnightblue" d="M892.642,-224.141C893.249,-210.286 896.453,-183.48 911.565,-168 948.566,-130.098 1095.26,-94.6639 1175.48,-77.6155"/>
<polygon fill="midnightblue" stroke="midnightblue" points="1176.32,-81.0136 1185.39,-75.5302 1174.88,-74.1635 1176.32,-81.0136"/>
</g>
<!-- Node23 -->
<g id="node23" class="node"><title>Node23</title>
<g id="a_node23"><a xlink:href="a00200_source.html" target="_top" xlink:title="freetds/bjoern&#45;utf8.h">
<polygon fill="white" stroke="black" points="223.565,-168.5 223.565,-187.5 333.565,-187.5 333.565,-168.5 223.565,-168.5"/>
<text text-anchor="middle" x="278.565" y="-175.5" font-family="Helvetica,sans-Serif" font-size="10.00">freetds/bjoern&#45;utf8.h</text>
</a>
</g>
</g>
<!-- Node1&#45;&gt;Node23 -->
<g id="edge35" class="edge"><title>Node1&#45;&gt;Node23</title>
<path fill="none" stroke="midnightblue" d="M825.98,-227.144C707.547,-216.728 461.697,-195.106 344.054,-184.76"/>
<polygon fill="midnightblue" stroke="midnightblue" points="344.028,-181.244 333.76,-183.854 343.415,-188.217 344.028,-181.244"/>
</g>
<!-- Node6 -->
<g id="node6" class="node"><title>Node6</title>
<polygon fill="white" stroke="#bfbfbf" points="572.065,-56.5 572.065,-75.5 627.065,-75.5 627.065,-56.5 572.065,-56.5"/>
<text text-anchor="middle" x="599.565" y="-63.5" font-family="Helvetica,sans-Serif" font-size="10.00">stdarg.h</text>
</g>
<!-- Node5&#45;&gt;Node6 -->
<g id="edge5" class="edge"><title>Node5&#45;&gt;Node6</title>
<path fill="none" stroke="midnightblue" d="M633.364,-168.388C651.958,-161.735 673.454,-150.453 684.565,-132 699.243,-107.621 665.921,-89.1438 636.787,-78.2348"/>
<polygon fill="midnightblue" stroke="midnightblue" points="637.738,-74.8587 627.143,-74.8278 635.406,-81.459 637.738,-74.8587"/>
</g>
<!-- Node7 -->
<g id="node7" class="node"><title>Node7</title>
<polygon fill="white" stroke="#bfbfbf" points="89.0647,-112.5 89.0647,-131.5 136.065,-131.5 136.065,-112.5 89.0647,-112.5"/>
<text text-anchor="middle" x="112.565" y="-119.5" font-family="Helvetica,sans-Serif" font-size="10.00">stdio.h</text>
</g>
<!-- Node5&#45;&gt;Node7 -->
<g id="edge6" class="edge"><title>Node5&#45;&gt;Node7</title>
<path fill="none" stroke="midnightblue" d="M561.895,-175.401C485.328,-171.694 305.979,-160.679 146.254,-131.806"/>
<polygon fill="midnightblue" stroke="midnightblue" points="146.716,-128.333 136.248,-129.969 145.452,-135.217 146.716,-128.333"/>
</g>
<!-- Node8 -->
<g id="node8" class="node"><title>Node8</title>
<g id="a_node8"><a xlink:href="a00221_source.html" target="_top" xlink:title="time.h">
<polygon fill="white" stroke="black" points="154.565,-112.5 154.565,-131.5 198.565,-131.5 198.565,-112.5 154.565,-112.5"/>
<text text-anchor="middle" x="176.565" y="-119.5" font-family="Helvetica,sans-Serif" font-size="10.00">time.h</text>
</a>
</g>
</g>
<!-- Node5&#45;&gt;Node8 -->
<g id="edge7" class="edge"><title>Node5&#45;&gt;Node8</title>
<path fill="none" stroke="midnightblue" d="M562.036,-173.262C494.538,-166.365 348.253,-150.63 225.565,-132 220.25,-131.193 214.627,-130.247 209.159,-129.278"/>
<polygon fill="midnightblue" stroke="midnightblue" points="209.424,-125.768 198.958,-127.414 208.166,-132.654 209.424,-125.768"/>
</g>
<!-- Node9 -->
<g id="node9" class="node"><title>Node9</title>
<g id="a_node9"><a xlink:href="a00224_source.html" target="_top" xlink:title="freetds/version.h">
<polygon fill="white" stroke="black" points="235.065,-112.5 235.065,-131.5 330.065,-131.5 330.065,-112.5 235.065,-112.5"/>
<text text-anchor="middle" x="282.565" y="-119.5" font-family="Helvetica,sans-Serif" font-size="10.00">freetds/version.h</text>
</a>
</g>
</g>
<!-- Node5&#45;&gt;Node9 -->
<g id="edge9" class="edge"><title>Node5&#45;&gt;Node9</title>
<path fill="none" stroke="midnightblue" d="M561.956,-170.593C507.08,-161.246 404.606,-143.789 340.182,-132.815"/>
<polygon fill="midnightblue" stroke="midnightblue" points="340.628,-129.341 330.182,-131.112 339.452,-136.241 340.628,-129.341"/>
</g>
<!-- Node10 -->
<g id="node10" class="node"><title>Node10</title>
<g id="a_node10"><a xlink:href="a00238_source.html" target="_top" xlink:title="tds_sysdep_public.h">
<polygon fill="white" stroke="black" points="13.0647,-56.5 13.0647,-75.5 124.065,-75.5 124.065,-56.5 13.0647,-56.5"/>
<text text-anchor="middle" x="68.5647" y="-63.5" font-family="Helvetica,sans-Serif" font-size="10.00">tds_sysdep_public.h</text>
</a>
</g>
</g>
<!-- Node5&#45;&gt;Node10 -->
<g id="edge10" class="edge"><title>Node5&#45;&gt;Node10</title>
<path fill="none" stroke="midnightblue" d="M561.982,-175.002C445.507,-168.646 97.3039,-148.352 79.5647,-132 67.0917,-120.502 65.3745,-100.529 66.1395,-85.7493"/>
<polygon fill="midnightblue" stroke="midnightblue" points="69.6344,-85.9657 67.0713,-75.6856 62.6642,-85.3203 69.6344,-85.9657"/>
</g>
<!-- Node12 -->
<g id="node12" class="node"><title>Node12</title>
<g id="a_node12"><a xlink:href="a00218_source.html" target="_top" xlink:title="freetds/sysdep_private.h">
<polygon fill="white" stroke="black" points="1034.06,-56.5 1034.06,-75.5 1167.06,-75.5 1167.06,-56.5 1034.06,-56.5"/>
<text text-anchor="middle" x="1100.56" y="-63.5" font-family="Helvetica,sans-Serif" font-size="10.00">freetds/sysdep_private.h</text>
</a>
</g>
</g>
<!-- Node5&#45;&gt;Node12 -->
<g id="edge12" class="edge"><title>Node5&#45;&gt;Node12</title>
<path fill="none" stroke="midnightblue" d="M637.283,-172.585C684.28,-166.449 766.674,-153.591 834.565,-132 855.035,-125.49 858.129,-118.621 878.565,-112 928.023,-95.9765 985.603,-84.5017 1029.73,-77.1509"/>
<polygon fill="midnightblue" stroke="midnightblue" points="1030.48,-80.5746 1039.78,-75.5079 1029.35,-73.6662 1030.48,-80.5746"/>
</g>
<!-- Node13 -->
<g id="node13" class="node"><title>Node13</title>
<g id="a_node13"><a xlink:href="a00220_source.html" target="_top" xlink:title="freetds/thread.h">
<polygon fill="white" stroke="black" points="348.565,-112.5 348.565,-131.5 440.565,-131.5 440.565,-112.5 348.565,-112.5"/>
<text text-anchor="middle" x="394.565" y="-119.5" font-family="Helvetica,sans-Serif" font-size="10.00">freetds/thread.h</text>
</a>
</g>
</g>
<!-- Node5&#45;&gt;Node13 -->
<g id="edge13" class="edge"><title>Node5&#45;&gt;Node13</title>
<path fill="none" stroke="midnightblue" d="M567.082,-168.444C531.845,-159.162 475.461,-144.309 436.806,-134.127"/>
<polygon fill="midnightblue" stroke="midnightblue" points="437.457,-130.679 426.896,-131.516 435.674,-137.448 437.457,-130.679"/>
</g>
<!-- Node14 -->
<g id="node14" class="node"><title>Node14</title>
<g id="a_node14"><a xlink:href="a00201_source.html" target="_top" xlink:title="freetds/bool.h">
<polygon fill="white" stroke="black" points="458.565,-112.5 458.565,-131.5 538.565,-131.5 538.565,-112.5 458.565,-112.5"/>
<text text-anchor="middle" x="498.565" y="-119.5" font-family="Helvetica,sans-Serif" font-size="10.00">freetds/bool.h</text>
</a>
</g>
</g>
<!-- Node5&#45;&gt;Node14 -->
<g id="edge14" class="edge"><title>Node5&#45;&gt;Node14</title>
<path fill="none" stroke="midnightblue" d="M583.337,-168.324C567.214,-159.703 542.265,-146.364 523.601,-136.386"/>
<polygon fill="midnightblue" stroke="midnightblue" points="525.221,-133.283 514.752,-131.655 521.92,-139.456 525.221,-133.283"/>
</g>
<!-- Node15 -->
<g id="node15" class="node"><title>Node15</title>
<g id="a_node15"><a xlink:href="a00229_source.html" target="_top" xlink:title="replacements.h">
<polygon fill="white" stroke="black" points="737.065,-112.5 737.065,-131.5 826.065,-131.5 826.065,-112.5 737.065,-112.5"/>
<text text-anchor="middle" x="781.565" y="-119.5" font-family="Helvetica,sans-Serif" font-size="10.00">replacements.h</text>
</a>
</g>
</g>
<!-- Node5&#45;&gt;Node15 -->
<g id="edge15" class="edge"><title>Node5&#45;&gt;Node15</title>
<path fill="none" stroke="midnightblue" d="M628.403,-168.444C659.42,-159.241 708.894,-144.562 743.183,-134.388"/>
<polygon fill="midnightblue" stroke="midnightblue" points="744.27,-137.716 752.861,-131.516 742.279,-131.006 744.27,-137.716"/>
</g>
<!-- Node17 -->
<g id="node17" class="node"><title>Node17</title>
<g id="a_node17"><a xlink:href="a00214_source.html" target="_top" xlink:title="freetds/pushvis.h">
<polygon fill="white" stroke="black" points="957.565,-0.5 957.565,-19.5 1053.56,-19.5 1053.56,-0.5 957.565,-0.5"/>
<text text-anchor="middle" x="1005.56" y="-7.5" font-family="Helvetica,sans-Serif" font-size="10.00">freetds/pushvis.h</text>
</a>
</g>
</g>
<!-- Node5&#45;&gt;Node17 -->
<g id="edge28" class="edge"><title>Node5&#45;&gt;Node17</title>
<path fill="none" stroke="midnightblue" d="M637.312,-174.245C774.1,-163.884 1238.02,-125.324 1280.56,-76 1286.37,-69.2693 1286.32,-62.7739 1280.56,-56 1253.36,-23.9795 1136.46,-14.6946 1064.11,-12.0341"/>
<polygon fill="midnightblue" stroke="midnightblue" points="1063.89,-8.52476 1053.78,-11.6877 1063.65,-15.5208 1063.89,-8.52476"/>
</g>
<!-- Node18 -->
<g id="node18" class="node"><title>Node18</title>
<g id="a_node18"><a xlink:href="a00212_source.html" target="_top" xlink:title="freetds/popvis.h">
<polygon fill="white" stroke="black" points="735.565,-0.5 735.565,-19.5 827.565,-19.5 827.565,-0.5 735.565,-0.5"/>
<text text-anchor="middle" x="781.565" y="-7.5" font-family="Helvetica,sans-Serif" font-size="10.00">freetds/popvis.h</text>
</a>
</g>
</g>
<!-- Node5&#45;&gt;Node18 -->
<g id="edge30" class="edge"><title>Node5&#45;&gt;Node18</title>
<path fill="none" stroke="midnightblue" d="M615.449,-168.31C635.532,-156.163 665.864,-133.209 651.565,-112 625.439,-73.2502 533.031,-92.2195 562.565,-56 582.696,-31.311 667.048,-19.782 724.988,-14.6872"/>
<polygon fill="midnightblue" stroke="midnightblue" points="725.447,-18.1612 735.119,-13.8377 724.862,-11.1856 725.447,-18.1612"/>
</g>
<!-- Node20 -->
<g id="node20" class="node"><title>Node20</title>
<g id="a_node20"><a xlink:href="a00213_source.html" target="_top" xlink:title="freetds/proto.h">
<polygon fill="white" stroke="black" points="556.565,-112.5 556.565,-131.5 642.565,-131.5 642.565,-112.5 556.565,-112.5"/>
<text text-anchor="middle" x="599.565" y="-119.5" font-family="Helvetica,sans-Serif" font-size="10.00">freetds/proto.h</text>
</a>
</g>
</g>
<!-- Node5&#45;&gt;Node20 -->
<g id="edge29" class="edge"><title>Node5&#45;&gt;Node20</title>
<path fill="none" stroke="midnightblue" d="M599.565,-168.083C599.565,-161.006 599.565,-150.861 599.565,-141.986"/>
<polygon fill="midnightblue" stroke="midnightblue" points="603.065,-141.751 599.565,-131.751 596.065,-141.751 603.065,-141.751"/>
</g>
<!-- Node8&#45;&gt;Node8 -->
<g id="edge8" class="edge"><title>Node8&#45;&gt;Node8</title>
<path fill="none" stroke="midnightblue" d="M193.833,-131.575C205.352,-134.27 216.565,-131.078 216.565,-122 216.565,-115.759 211.265,-112.3 204.21,-111.623"/>
<polygon fill="midnightblue" stroke="midnightblue" points="203.533,-108.165 193.833,-112.425 204.073,-115.144 203.533,-108.165"/>
</g>
<!-- Node11 -->
<g id="node11" class="node"><title>Node11</title>
<polygon fill="white" stroke="#bfbfbf" points="46.0647,-0.5 46.0647,-19.5 91.0647,-19.5 91.0647,-0.5 46.0647,-0.5"/>
<text text-anchor="middle" x="68.5647" y="-7.5" font-family="Helvetica,sans-Serif" font-size="10.00">float.h</text>
</g>
<!-- Node10&#45;&gt;Node11 -->
<g id="edge11" class="edge"><title>Node10&#45;&gt;Node11</title>
<path fill="none" stroke="midnightblue" d="M68.5647,-56.083C68.5647,-49.0059 68.5647,-38.8611 68.5647,-29.9865"/>
<polygon fill="midnightblue" stroke="midnightblue" points="72.0648,-29.751 68.5647,-19.7511 65.0648,-29.7511 72.0648,-29.751"/>
</g>
<!-- Node15&#45;&gt;Node6 -->
<g id="edge16" class="edge"><title>Node15&#45;&gt;Node6</title>
<path fill="none" stroke="midnightblue" d="M752.726,-112.444C721.344,-103.132 671.069,-88.2155 636.742,-78.0308"/>
<polygon fill="midnightblue" stroke="midnightblue" points="637.659,-74.6521 627.077,-75.1629 635.668,-81.3629 637.659,-74.6521"/>
</g>
<!-- Node15&#45;&gt;Node10 -->
<g id="edge17" class="edge"><title>Node15&#45;&gt;Node10</title>
<path fill="none" stroke="midnightblue" d="M736.963,-117.622C615.343,-108.411 277.474,-82.822 134.171,-71.9688"/>
<polygon fill="midnightblue" stroke="midnightblue" points="134.431,-68.4785 124.195,-71.2132 133.902,-75.4585 134.431,-68.4785"/>
</g>
<!-- Node15&#45;&gt;Node12 -->
<g id="edge18" class="edge"><title>Node15&#45;&gt;Node12</title>
<path fill="none" stroke="midnightblue" d="M826.256,-113.435C882.05,-103.99 977.717,-87.7955 1040.04,-77.2452"/>
<polygon fill="midnightblue" stroke="midnightblue" points="1040.85,-80.6578 1050.13,-75.5378 1039.68,-73.756 1040.85,-80.6578"/>
</g>
<!-- Node16 -->
<g id="node16" class="node"><title>Node16</title>
<g id="a_node16"><a xlink:href="a00231_source.html" target="_top" xlink:title="replacements/readpassphrase.h">
<polygon fill="white" stroke="black" points="809.065,-56.5 809.065,-75.5 978.065,-75.5 978.065,-56.5 809.065,-56.5"/>
<text text-anchor="middle" x="893.565" y="-63.5" font-family="Helvetica,sans-Serif" font-size="10.00">replacements/readpassphrase.h</text>
</a>
</g>
</g>
<!-- Node15&#45;&gt;Node16 -->
<g id="edge19" class="edge"><title>Node15&#45;&gt;Node16</title>
<path fill="none" stroke="midnightblue" d="M799.559,-112.324C817.602,-103.625 845.612,-90.1202 866.367,-80.113"/>
<polygon fill="midnightblue" stroke="midnightblue" points="868.127,-83.1502 875.615,-75.6545 865.087,-76.8449 868.127,-83.1502"/>
</g>
<!-- Node15&#45;&gt;Node17 -->
<g id="edge26" class="edge"><title>Node15&#45;&gt;Node17</title>
<path fill="none" stroke="midnightblue" d="M826.162,-113.686C882.872,-104.011 974.881,-86.912 986.565,-76 999.175,-64.2225 1003.57,-44.5852 1005.03,-29.9711"/>
<polygon fill="midnightblue" stroke="midnightblue" points="1008.55,-29.7696 1005.66,-19.574 1001.56,-29.341 1008.55,-29.7696"/>
</g>
<!-- Node15&#45;&gt;Node18 -->
<g id="edge27" class="edge"><title>Node15&#45;&gt;Node18</title>
<path fill="none" stroke="midnightblue" d="M781.565,-112.368C781.565,-94.617 781.565,-53.6664 781.565,-29.5974"/>
<polygon fill="midnightblue" stroke="midnightblue" points="785.065,-29.5914 781.565,-19.5914 778.065,-29.5915 785.065,-29.5914"/>
</g>
<!-- Node19 -->
<g id="node19" class="node"><title>Node19</title>
<g id="a_node19"><a xlink:href="a00230.html" target="_top" xlink:title="Provide poll call where missing. ">
<polygon fill="white" stroke="black" points="645.565,-56.5 645.565,-75.5 753.565,-75.5 753.565,-56.5 645.565,-56.5"/>
<text text-anchor="middle" x="699.565" y="-63.5" font-family="Helvetica,sans-Serif" font-size="10.00">replacements/poll.h</text>
</a>
</g>
</g>
<!-- Node15&#45;&gt;Node19 -->
<g id="edge22" class="edge"><title>Node15&#45;&gt;Node19</title>
<path fill="none" stroke="midnightblue" d="M768.39,-112.324C755.718,-103.979 736.331,-91.2122 721.359,-81.3524"/>
<polygon fill="midnightblue" stroke="midnightblue" points="722.983,-78.2313 712.707,-75.6545 719.133,-84.0776 722.983,-78.2313"/>
</g>
<!-- Node16&#45;&gt;Node17 -->
<g id="edge20" class="edge"><title>Node16&#45;&gt;Node17</title>
<path fill="none" stroke="midnightblue" d="M911.559,-56.324C929.602,-47.6247 957.612,-34.1202 978.367,-24.113"/>
<polygon fill="midnightblue" stroke="midnightblue" points="980.127,-27.1502 987.615,-19.6545 977.087,-20.8449 980.127,-27.1502"/>
</g>
<!-- Node16&#45;&gt;Node18 -->
<g id="edge21" class="edge"><title>Node16&#45;&gt;Node18</title>
<path fill="none" stroke="midnightblue" d="M875.57,-56.324C857.527,-47.6247 829.518,-34.1202 808.762,-24.113"/>
<polygon fill="midnightblue" stroke="midnightblue" points="810.043,-20.8449 799.515,-19.6545 807.002,-27.1502 810.043,-20.8449"/>
</g>
<!-- Node19&#45;&gt;Node2 -->
<g id="edge23" class="edge"><title>Node19&#45;&gt;Node2</title>
<path fill="none" stroke="midnightblue" d="M654.089,-56.4435C597.336,-45.7653 501.399,-27.7145 449.149,-17.8835"/>
<polygon fill="midnightblue" stroke="midnightblue" points="449.781,-14.441 439.306,-16.0315 448.487,-21.3203 449.781,-14.441"/>
</g>
<!-- Node19&#45;&gt;Node17 -->
<g id="edge24" class="edge"><title>Node19&#45;&gt;Node17</title>
<path fill="none" stroke="midnightblue" d="M748.051,-56.4435C802.183,-46.8909 889.749,-31.438 947.492,-21.2481"/>
<polygon fill="midnightblue" stroke="midnightblue" points="948.317,-24.6566 957.557,-19.4719 947.101,-17.7631 948.317,-24.6566"/>
</g>
<!-- Node19&#45;&gt;Node18 -->
<g id="edge25" class="edge"><title>Node19&#45;&gt;Node18</title>
<path fill="none" stroke="midnightblue" d="M712.739,-56.324C725.411,-47.979 744.798,-35.2122 759.77,-25.3524"/>
<polygon fill="midnightblue" stroke="midnightblue" points="761.996,-28.0776 768.423,-19.6545 758.146,-22.2313 761.996,-28.0776"/>
</g>
<!-- Node22&#45;&gt;Node17 -->
<g id="edge33" class="edge"><title>Node22&#45;&gt;Node17</title>
<path fill="none" stroke="midnightblue" d="M1193.23,-56.4435C1154.65,-47.1024 1092.78,-32.1194 1050.71,-21.9326"/>
<polygon fill="midnightblue" stroke="midnightblue" points="1051.28,-18.4683 1040.73,-19.5164 1049.63,-25.2717 1051.28,-18.4683"/>
</g>
<!-- Node22&#45;&gt;Node18 -->
<g id="edge34" class="edge"><title>Node22&#45;&gt;Node18</title>
<path fill="none" stroke="midnightblue" d="M1185.5,-57.4848C1182.14,-56.9606 1178.8,-56.4589 1175.56,-56 1055.78,-39.0014 914.783,-24.1352 838.146,-16.4841"/>
<polygon fill="midnightblue" stroke="midnightblue" points="838.065,-12.9589 827.768,-15.4529 837.373,-19.9246 838.065,-12.9589"/>
</g>
<!-- Node23&#45;&gt;Node10 -->
<g id="edge36" class="edge"><title>Node23&#45;&gt;Node10</title>
<path fill="none" stroke="midnightblue" d="M223.49,-174.169C162.108,-169.725 68.557,-158.668 46.5647,-132 35.1239,-118.127 44.8219,-98.0171 54.709,-83.8477"/>
<polygon fill="midnightblue" stroke="midnightblue" points="57.7683,-85.6051 61.0132,-75.5194 52.187,-81.3802 57.7683,-85.6051"/>
</g>
</g>
</svg>
