<?xml version="1.0" encoding="UTF-8" standalone="no"?>
<!DOCTYPE svg PUBLIC "-//W3C//DTD SVG 1.1//EN"
 "http://www.w3.org/Graphics/SVG/1.1/DTD/svg11.dtd">
<!-- Generated by graphviz version 2.38.0 (20140413.2041)
 -->
<!-- Title: src/dblib/dblib.c Pages: 1 -->
<svg width="1459pt" height="252pt"
 viewBox="0.00 0.00 1458.50 252.00" xmlns="http://www.w3.org/2000/svg" xmlns:xlink="http://www.w3.org/1999/xlink">
<g id="graph0" class="graph" transform="scale(1 1) rotate(0) translate(4 248)">
<title>src/dblib/dblib.c</title>
<polygon fill="white" stroke="none" points="-4,4 -4,-248 1454.5,-248 1454.5,4 -4,4"/>
<!-- Node1 -->
<g id="node1" class="node"><title>Node1</title>
<polygon fill="#bfbfbf" stroke="black" points="870.5,-224.5 870.5,-243.5 956.5,-243.5 956.5,-224.5 870.5,-224.5"/>
<text text-anchor="middle" x="913.5" y="-231.5" font-family="Helvetica,sans-Serif" font-size="10.00">src/dblib/dblib.c</text>
</g>
<!-- Node2 -->
<g id="node2" class="node"><title>Node2</title>
<g id="a_node2"><a xlink:href="a00192_source.html" target="_top" xlink:title="config.h">
<polygon fill="white" stroke="black" points="0,-0.5 0,-19.5 53,-19.5 53,-0.5 0,-0.5"/>
<text text-anchor="middle" x="26.5" y="-7.5" font-family="Helvetica,sans-Serif" font-size="10.00">config.h</text>
</a>
</g>
</g>
<!-- Node1&#45;&gt;Node2 -->
<g id="edge1" class="edge"><title>Node1&#45;&gt;Node2</title>
<path fill="none" stroke="midnightblue" d="M870.356,-233.192C750.252,-232.515 403.148,-222.279 133.5,-132 78.4527,-113.57 46.5247,-125.065 15.5,-76 6.62876,-61.9704 11.3396,-42.9751 17.0906,-29.1434"/>
<polygon fill="midnightblue" stroke="midnightblue" points="20.4217,-30.282 21.4834,-19.7404 14.0797,-27.3191 20.4217,-30.282"/>
</g>
<!-- Node3 -->
<g id="node3" class="node"><title>Node3</title>
<polygon fill="white" stroke="#bfbfbf" points="543,-56.5 543,-75.5 598,-75.5 598,-56.5 543,-56.5"/>
<text text-anchor="middle" x="570.5" y="-63.5" font-family="Helvetica,sans-Serif" font-size="10.00">stdarg.h</text>
</g>
<!-- Node1&#45;&gt;Node3 -->
<g id="edge2" class="edge"><title>Node1&#45;&gt;Node3</title>
<path fill="none" stroke="midnightblue" d="M870.317,-227.587C782.631,-215.606 588.771,-183.735 550.5,-132 540.017,-117.829 548.563,-98.0794 557.509,-84.0779"/>
<polygon fill="midnightblue" stroke="midnightblue" points="560.413,-86.0316 563.249,-75.8233 554.666,-82.0351 560.413,-86.0316"/>
</g>
<!-- Node4 -->
<g id="node4" class="node"><title>Node4</title>
<g id="a_node4"><a xlink:href="a00221_source.html" target="_top" xlink:title="freetds/time.h">
<polygon fill="white" stroke="black" points="1106.5,-112.5 1106.5,-131.5 1186.5,-131.5 1186.5,-112.5 1106.5,-112.5"/>
<text text-anchor="middle" x="1146.5" y="-119.5" font-family="Helvetica,sans-Serif" font-size="10.00">freetds/time.h</text>
</a>
</g>
</g>
<!-- Node1&#45;&gt;Node4 -->
<g id="edge3" class="edge"><title>Node1&#45;&gt;Node4</title>
<path fill="none" stroke="midnightblue" d="M918.618,-224.354C927.399,-210.301 946.709,-182.606 970.5,-168 991.446,-155.141 1052.12,-141.26 1096.39,-132.367"/>
<polygon fill="midnightblue" stroke="midnightblue" points="1097.28,-135.759 1106.41,-130.383 1095.92,-128.893 1097.28,-135.759"/>
</g>
<!-- Node5 -->
<g id="node5" class="node"><title>Node5</title>
<polygon fill="white" stroke="#bfbfbf" points="1168.5,-168.5 1168.5,-187.5 1222.5,-187.5 1222.5,-168.5 1168.5,-168.5"/>
<text text-anchor="middle" x="1195.5" y="-175.5" font-family="Helvetica,sans-Serif" font-size="10.00">assert.h</text>
</g>
<!-- Node1&#45;&gt;Node5 -->
<g id="edge5" class="edge"><title>Node1&#45;&gt;Node5</title>
<path fill="none" stroke="midnightblue" d="M956.679,-225.361C1004.97,-216.719 1085.47,-202.018 1154.5,-188 1155.75,-187.747 1157.01,-187.487 1158.29,-187.222"/>
<polygon fill="midnightblue" stroke="midnightblue" points="1159.12,-190.623 1168.18,-185.123 1157.67,-183.775 1159.12,-190.623"/>
</g>
<!-- Node6 -->
<g id="node6" class="node"><title>Node6</title>
<polygon fill="white" stroke="#bfbfbf" points="1223,-112.5 1223,-131.5 1270,-131.5 1270,-112.5 1223,-112.5"/>
<text text-anchor="middle" x="1246.5" y="-119.5" font-family="Helvetica,sans-Serif" font-size="10.00">stdio.h</text>
</g>
<!-- Node1&#45;&gt;Node6 -->
<g id="edge6" class="edge"><title>Node1&#45;&gt;Node6</title>
<path fill="none" stroke="midnightblue" d="M922.942,-224.453C939.154,-210.285 973.893,-182.102 1008.5,-168 1091.24,-134.285 1121.17,-150.949 1212.81,-131.912"/>
<polygon fill="midnightblue" stroke="midnightblue" points="1213.74,-135.291 1222.77,-129.753 1212.26,-128.45 1213.74,-135.291"/>
</g>
<!-- Node7 -->
<g id="node7" class="node"><title>Node7</title>
<g id="a_node7"><a xlink:href="a00219.html" target="_top" xlink:title="Main include file for libtds. ">
<polygon fill="white" stroke="black" points="843,-168.5 843,-187.5 918,-187.5 918,-168.5 843,-168.5"/>
<text text-anchor="middle" x="880.5" y="-175.5" font-family="Helvetica,sans-Serif" font-size="10.00">freetds/tds.h</text>
</a>
</g>
</g>
<!-- Node1&#45;&gt;Node7 -->
<g id="edge7" class="edge"><title>Node1&#45;&gt;Node7</title>
<path fill="none" stroke="midnightblue" d="M908.051,-224.083C903.486,-216.613 896.832,-205.724 891.207,-196.52"/>
<polygon fill="midnightblue" stroke="midnightblue" points="894.049,-194.459 885.848,-187.751 888.076,-198.109 894.049,-194.459"/>
</g>
<!-- Node12 -->
<g id="node12" class="node"><title>Node12</title>
<g id="a_node12"><a xlink:href="a00220_source.html" target="_top" xlink:title="freetds/thread.h">
<polygon fill="white" stroke="black" points="1288.5,-112.5 1288.5,-131.5 1380.5,-131.5 1380.5,-112.5 1288.5,-112.5"/>
<text text-anchor="middle" x="1334.5" y="-119.5" font-family="Helvetica,sans-Serif" font-size="10.00">freetds/thread.h</text>
</a>
</g>
</g>
<!-- Node1&#45;&gt;Node12 -->
<g id="edge33" class="edge"><title>Node1&#45;&gt;Node12</title>
<path fill="none" stroke="midnightblue" d="M931.382,-224.395C949.802,-215.475 979.297,-201.038 1004.5,-188 1021.1,-179.411 1023.77,-173.936 1041.5,-168 1139.57,-135.158 1171.38,-147.657 1278.46,-131.949"/>
<polygon fill="midnightblue" stroke="midnightblue" points="1279,-135.407 1288.36,-130.448 1277.95,-128.486 1279,-135.407"/>
</g>
<!-- Node14 -->
<g id="node14" class="node"><title>Node14</title>
<g id="a_node14"><a xlink:href="a00229_source.html" target="_top" xlink:title="replacements.h">
<polygon fill="white" stroke="black" points="570,-112.5 570,-131.5 659,-131.5 659,-112.5 570,-112.5"/>
<text text-anchor="middle" x="614.5" y="-119.5" font-family="Helvetica,sans-Serif" font-size="10.00">replacements.h</text>
</a>
</g>
</g>
<!-- Node1&#45;&gt;Node14 -->
<g id="edge43" class="edge"><title>Node1&#45;&gt;Node14</title>
<path fill="none" stroke="midnightblue" d="M890.038,-224.368C837.092,-204.89 708.22,-157.479 647.36,-135.089"/>
<polygon fill="midnightblue" stroke="midnightblue" points="648.447,-131.759 637.853,-131.591 646.03,-138.329 648.447,-131.759"/>
</g>
<!-- Node20 -->
<g id="node20" class="node"><title>Node20</title>
<g id="a_node20"><a xlink:href="a00205_source.html" target="_top" xlink:title="freetds/convert.h">
<polygon fill="white" stroke="black" points="158.5,-56.5 158.5,-75.5 254.5,-75.5 254.5,-56.5 158.5,-56.5"/>
<text text-anchor="middle" x="206.5" y="-63.5" font-family="Helvetica,sans-Serif" font-size="10.00">freetds/convert.h</text>
</a>
</g>
</g>
<!-- Node1&#45;&gt;Node20 -->
<g id="edge34" class="edge"><title>Node1&#45;&gt;Node20</title>
<path fill="none" stroke="midnightblue" d="M870.204,-233.367C789.501,-233.019 611.239,-227.368 467.5,-188 374.602,-162.556 273.553,-106.781 229.352,-80.8116"/>
<polygon fill="midnightblue" stroke="midnightblue" points="230.953,-77.6916 220.566,-75.6003 227.382,-83.7122 230.953,-77.6916"/>
</g>
<!-- Node21 -->
<g id="node21" class="node"><title>Node21</title>
<g id="a_node21"><a xlink:href="a00217_source.html" target="_top" xlink:title="freetds/string.h">
<polygon fill="white" stroke="black" points="337,-56.5 337,-75.5 424,-75.5 424,-56.5 337,-56.5"/>
<text text-anchor="middle" x="380.5" y="-63.5" font-family="Helvetica,sans-Serif" font-size="10.00">freetds/string.h</text>
</a>
</g>
</g>
<!-- Node1&#45;&gt;Node21 -->
<g id="edge37" class="edge"><title>Node1&#45;&gt;Node21</title>
<path fill="none" stroke="midnightblue" d="M870.25,-233.317C803.623,-232.499 672.766,-225.668 569.5,-188 500.245,-162.738 430.117,-108.719 398.239,-82.2521"/>
<polygon fill="midnightblue" stroke="midnightblue" points="400.199,-79.3269 390.295,-75.5644 395.691,-84.6821 400.199,-79.3269"/>
</g>
<!-- Node22 -->
<g id="node22" class="node"><title>Node22</title>
<g id="a_node22"><a xlink:href="a00206_source.html" target="_top" xlink:title="freetds/data.h">
<polygon fill="white" stroke="black" points="442.5,-56.5 442.5,-75.5 524.5,-75.5 524.5,-56.5 442.5,-56.5"/>
<text text-anchor="middle" x="483.5" y="-63.5" font-family="Helvetica,sans-Serif" font-size="10.00">freetds/data.h</text>
</a>
</g>
</g>
<!-- Node1&#45;&gt;Node22 -->
<g id="edge40" class="edge"><title>Node1&#45;&gt;Node22</title>
<path fill="none" stroke="midnightblue" d="M870.452,-229.897C796.767,-224.069 649.922,-210.049 603.5,-188 554.015,-164.496 513.334,-111.689 494.611,-84.2657"/>
<polygon fill="midnightblue" stroke="midnightblue" points="497.377,-82.1039 488.926,-75.7141 491.548,-85.9795 497.377,-82.1039"/>
</g>
<!-- Node23 -->
<g id="node23" class="node"><title>Node23</title>
<g id="a_node23"><a xlink:href="a00237_source.html" target="_top" xlink:title="sybfront.h">
<polygon fill="white" stroke="black" points="1050.5,-168.5 1050.5,-187.5 1112.5,-187.5 1112.5,-168.5 1050.5,-168.5"/>
<text text-anchor="middle" x="1081.5" y="-175.5" font-family="Helvetica,sans-Serif" font-size="10.00">sybfront.h</text>
</a>
</g>
</g>
<!-- Node1&#45;&gt;Node23 -->
<g id="edge44" class="edge"><title>Node1&#45;&gt;Node23</title>
<path fill="none" stroke="midnightblue" d="M940.12,-224.444C968.506,-215.32 1013.64,-200.813 1045.25,-190.651"/>
<polygon fill="midnightblue" stroke="midnightblue" points="1046.56,-193.909 1055,-187.516 1044.41,-187.244 1046.56,-193.909"/>
</g>
<!-- Node24 -->
<g id="node24" class="node"><title>Node24</title>
<g id="a_node24"><a xlink:href="a00235.html" target="_top" xlink:title="Primary include file for db&#45;lib applications. ">
<polygon fill="white" stroke="black" points="1398.5,-112.5 1398.5,-131.5 1450.5,-131.5 1450.5,-112.5 1398.5,-112.5"/>
<text text-anchor="middle" x="1424.5" y="-119.5" font-family="Helvetica,sans-Serif" font-size="10.00">sybdb.h</text>
</a>
</g>
</g>
<!-- Node1&#45;&gt;Node24 -->
<g id="edge47" class="edge"><title>Node1&#45;&gt;Node24</title>
<path fill="none" stroke="midnightblue" d="M956.679,-227.161C999.425,-220.573 1066.29,-208.076 1121.5,-188 1139.44,-181.478 1141.38,-174.001 1159.5,-168 1254.65,-136.482 1286.2,-151.867 1388.1,-132.082"/>
<polygon fill="midnightblue" stroke="midnightblue" points="1389.08,-135.457 1398.19,-130.055 1387.7,-128.594 1389.08,-135.457"/>
</g>
<!-- Node25 -->
<g id="node25" class="node"><title>Node25</title>
<g id="a_node25"><a xlink:href="a00236_source.html" target="_top" xlink:title="syberror.h">
<polygon fill="white" stroke="black" points="1240.5,-168.5 1240.5,-187.5 1304.5,-187.5 1304.5,-168.5 1240.5,-168.5"/>
<text text-anchor="middle" x="1272.5" y="-175.5" font-family="Helvetica,sans-Serif" font-size="10.00">syberror.h</text>
</a>
</g>
</g>
<!-- Node1&#45;&gt;Node25 -->
<g id="edge48" class="edge"><title>Node1&#45;&gt;Node25</title>
<path fill="none" stroke="midnightblue" d="M956.613,-227.948C1016,-220.758 1126.5,-206.554 1230.3,-188.104"/>
<polygon fill="midnightblue" stroke="midnightblue" points="1231.09,-191.517 1240.32,-186.305 1229.86,-184.627 1231.09,-191.517"/>
</g>
<!-- Node26 -->
<g id="node26" class="node"><title>Node26</title>
<g id="a_node26"><a xlink:href="a00197_source.html" target="_top" xlink:title="dblib.h">
<polygon fill="white" stroke="black" points="272.5,-56.5 272.5,-75.5 318.5,-75.5 318.5,-56.5 272.5,-56.5"/>
<text text-anchor="middle" x="295.5" y="-63.5" font-family="Helvetica,sans-Serif" font-size="10.00">dblib.h</text>
</a>
</g>
</g>
<!-- Node1&#45;&gt;Node26 -->
<g id="edge49" class="edge"><title>Node1&#45;&gt;Node26</title>
<path fill="none" stroke="midnightblue" d="M870.477,-233.245C797.299,-232.526 644.652,-226.075 522.5,-188 440.794,-162.532 354.21,-107.389 315.838,-81.2702"/>
<polygon fill="midnightblue" stroke="midnightblue" points="317.788,-78.3636 307.566,-75.5784 313.82,-84.1304 317.788,-78.3636"/>
</g>
<!-- Node27 -->
<g id="node27" class="node"><title>Node27</title>
<g id="a_node27"><a xlink:href="a00265_source.html" target="_top" xlink:title="buffering.h">
<polygon fill="white" stroke="black" points="1323,-168.5 1323,-187.5 1388,-187.5 1388,-168.5 1323,-168.5"/>
<text text-anchor="middle" x="1355.5" y="-175.5" font-family="Helvetica,sans-Serif" font-size="10.00">buffering.h</text>
</a>
</g>
</g>
<!-- Node1&#45;&gt;Node27 -->
<g id="edge52" class="edge"><title>Node1&#45;&gt;Node27</title>
<path fill="none" stroke="midnightblue" d="M956.607,-229.561C1028.33,-223.532 1176.87,-209.744 1312.39,-188.03"/>
<polygon fill="midnightblue" stroke="midnightblue" points="1313.23,-191.44 1322.54,-186.385 1312.11,-184.53 1313.23,-191.44"/>
</g>
<!-- Node4&#45;&gt;Node4 -->
<g id="edge4" class="edge"><title>Node4&#45;&gt;Node4</title>
<path fill="none" stroke="midnightblue" d="M1171.24,-131.525C1188.05,-134.308 1204.5,-131.133 1204.5,-122 1204.5,-114.722 1194.05,-111.228 1181.3,-111.517"/>
<polygon fill="midnightblue" stroke="midnightblue" points="1180.86,-108.043 1171.24,-112.475 1181.52,-115.011 1180.86,-108.043"/>
</g>
<!-- Node7&#45;&gt;Node3 -->
<g id="edge8" class="edge"><title>Node7&#45;&gt;Node3</title>
<path fill="none" stroke="midnightblue" d="M842.829,-177.578C766.276,-177.862 596.707,-173.654 560.5,-132 549.41,-119.241 554.493,-99.4978 560.751,-85.1171"/>
<polygon fill="midnightblue" stroke="midnightblue" points="564.071,-86.2932 565.301,-75.77 557.778,-83.2294 564.071,-86.2932"/>
</g>
<!-- Node7&#45;&gt;Node4 -->
<g id="edge10" class="edge"><title>Node7&#45;&gt;Node4</title>
<path fill="none" stroke="midnightblue" d="M918.047,-169.378C964.635,-159.92 1044.25,-143.758 1096.11,-133.229"/>
<polygon fill="midnightblue" stroke="midnightblue" points="1096.99,-136.622 1106.1,-131.202 1095.6,-129.762 1096.99,-136.622"/>
</g>
<!-- Node7&#45;&gt;Node6 -->
<g id="edge9" class="edge"><title>Node7&#45;&gt;Node6</title>
<path fill="none" stroke="midnightblue" d="M918.141,-172.549C989.232,-164.043 1141.74,-145.297 1212.56,-131.887"/>
<polygon fill="midnightblue" stroke="midnightblue" points="1213.66,-135.237 1222.8,-129.866 1212.31,-128.369 1213.66,-135.237"/>
</g>
<!-- Node8 -->
<g id="node8" class="node"><title>Node8</title>
<g id="a_node8"><a xlink:href="a00224_source.html" target="_top" xlink:title="freetds/version.h">
<polygon fill="white" stroke="black" points="677,-112.5 677,-131.5 772,-131.5 772,-112.5 677,-112.5"/>
<text text-anchor="middle" x="724.5" y="-119.5" font-family="Helvetica,sans-Serif" font-size="10.00">freetds/version.h</text>
</a>
</g>
</g>
<!-- Node7&#45;&gt;Node8 -->
<g id="edge11" class="edge"><title>Node7&#45;&gt;Node8</title>
<path fill="none" stroke="midnightblue" d="M855.781,-168.444C829.652,-159.399 788.241,-145.064 758.924,-134.916"/>
<polygon fill="midnightblue" stroke="midnightblue" points="759.698,-131.48 749.103,-131.516 757.408,-138.095 759.698,-131.48"/>
</g>
<!-- Node9 -->
<g id="node9" class="node"><title>Node9</title>
<g id="a_node9"><a xlink:href="a00238_source.html" target="_top" xlink:title="tds_sysdep_public.h">
<polygon fill="white" stroke="black" points="1069,-56.5 1069,-75.5 1180,-75.5 1180,-56.5 1069,-56.5"/>
<text text-anchor="middle" x="1124.5" y="-63.5" font-family="Helvetica,sans-Serif" font-size="10.00">tds_sysdep_public.h</text>
</a>
</g>
</g>
<!-- Node7&#45;&gt;Node9 -->
<g id="edge12" class="edge"><title>Node7&#45;&gt;Node9</title>
<path fill="none" stroke="midnightblue" d="M918.34,-169.487C962.138,-160.398 1031.23,-144.732 1054.5,-132 1077.12,-119.621 1098.09,-98.3015 1111.06,-83.468"/>
<polygon fill="midnightblue" stroke="midnightblue" points="1113.93,-85.4918 1117.73,-75.6004 1108.59,-80.9655 1113.93,-85.4918"/>
</g>
<!-- Node11 -->
<g id="node11" class="node"><title>Node11</title>
<g id="a_node11"><a xlink:href="a00218_source.html" target="_top" xlink:title="freetds/sysdep_private.h">
<polygon fill="white" stroke="black" points="879,-56.5 879,-75.5 1012,-75.5 1012,-56.5 879,-56.5"/>
<text text-anchor="middle" x="945.5" y="-63.5" font-family="Helvetica,sans-Serif" font-size="10.00">freetds/sysdep_private.h</text>
</a>
</g>
</g>
<!-- Node7&#45;&gt;Node11 -->
<g id="edge14" class="edge"><title>Node7&#45;&gt;Node11</title>
<path fill="none" stroke="midnightblue" d="M918.112,-171.118C941.22,-165.352 969.075,-154.044 983.5,-132 994.371,-115.388 978.968,-95.6092 964.641,-82.2678"/>
<polygon fill="midnightblue" stroke="midnightblue" points="966.804,-79.5102 956.965,-75.5792 962.205,-84.7876 966.804,-79.5102"/>
</g>
<!-- Node7&#45;&gt;Node12 -->
<g id="edge15" class="edge"><title>Node7&#45;&gt;Node12</title>
<path fill="none" stroke="midnightblue" d="M918.161,-173.335C987.238,-166.483 1139.06,-150.831 1278.37,-131.952"/>
<polygon fill="midnightblue" stroke="midnightblue" points="1278.95,-135.406 1288.38,-130.587 1278,-128.471 1278.95,-135.406"/>
</g>
<!-- Node13 -->
<g id="node13" class="node"><title>Node13</title>
<g id="a_node13"><a xlink:href="a00201_source.html" target="_top" xlink:title="freetds/bool.h">
<polygon fill="white" stroke="black" points="790.5,-112.5 790.5,-131.5 870.5,-131.5 870.5,-112.5 790.5,-112.5"/>
<text text-anchor="middle" x="830.5" y="-119.5" font-family="Helvetica,sans-Serif" font-size="10.00">freetds/bool.h</text>
</a>
</g>
</g>
<!-- Node7&#45;&gt;Node13 -->
<g id="edge16" class="edge"><title>Node7&#45;&gt;Node13</title>
<path fill="none" stroke="midnightblue" d="M872.244,-168.083C865.035,-160.298 854.39,-148.801 845.654,-139.367"/>
<polygon fill="midnightblue" stroke="midnightblue" points="847.965,-136.711 838.603,-131.751 842.829,-141.467 847.965,-136.711"/>
</g>
<!-- Node7&#45;&gt;Node14 -->
<g id="edge17" class="edge"><title>Node7&#45;&gt;Node14</title>
<path fill="none" stroke="midnightblue" d="M842.953,-169.378C796.902,-160.029 718.583,-144.13 666.692,-133.595"/>
<polygon fill="midnightblue" stroke="midnightblue" points="667.181,-130.123 656.684,-131.564 665.788,-136.983 667.181,-130.123"/>
</g>
<!-- Node16 -->
<g id="node16" class="node"><title>Node16</title>
<g id="a_node16"><a xlink:href="a00214_source.html" target="_top" xlink:title="freetds/pushvis.h">
<polygon fill="white" stroke="black" points="397.5,-0.5 397.5,-19.5 493.5,-19.5 493.5,-0.5 397.5,-0.5"/>
<text text-anchor="middle" x="445.5" y="-7.5" font-family="Helvetica,sans-Serif" font-size="10.00">freetds/pushvis.h</text>
</a>
</g>
</g>
<!-- Node7&#45;&gt;Node16 -->
<g id="edge30" class="edge"><title>Node7&#45;&gt;Node16</title>
<path fill="none" stroke="midnightblue" d="M918.207,-171.142C944.122,-165.301 977.665,-153.896 999.5,-132 1024.25,-107.186 1044.29,-81.728 1020.5,-56 985.928,-18.6163 643.275,-12.2302 503.951,-11.184"/>
<polygon fill="midnightblue" stroke="midnightblue" points="503.905,-7.68371 493.881,-11.1151 503.857,-14.6835 503.905,-7.68371"/>
</g>
<!-- Node17 -->
<g id="node17" class="node"><title>Node17</title>
<g id="a_node17"><a xlink:href="a00212_source.html" target="_top" xlink:title="freetds/popvis.h">
<polygon fill="white" stroke="black" points="268.5,-0.5 268.5,-19.5 360.5,-19.5 360.5,-0.5 268.5,-0.5"/>
<text text-anchor="middle" x="314.5" y="-7.5" font-family="Helvetica,sans-Serif" font-size="10.00">freetds/popvis.h</text>
</a>
</g>
</g>
<!-- Node7&#45;&gt;Node17 -->
<g id="edge32" class="edge"><title>Node7&#45;&gt;Node17</title>
<path fill="none" stroke="midnightblue" d="M842.893,-175.452C684.693,-168.562 78.8394,-138.244 23.5,-76 17.5939,-69.357 17.7148,-62.7486 23.5,-56 53.0923,-21.4798 182.062,-13.2056 258.015,-11.3703"/>
<polygon fill="midnightblue" stroke="midnightblue" points="258.441,-14.8622 268.365,-11.152 258.293,-7.86371 258.441,-14.8622"/>
</g>
<!-- Node19 -->
<g id="node19" class="node"><title>Node19</title>
<g id="a_node19"><a xlink:href="a00213_source.html" target="_top" xlink:title="freetds/proto.h">
<polygon fill="white" stroke="black" points="888.5,-112.5 888.5,-131.5 974.5,-131.5 974.5,-112.5 888.5,-112.5"/>
<text text-anchor="middle" x="931.5" y="-119.5" font-family="Helvetica,sans-Serif" font-size="10.00">freetds/proto.h</text>
</a>
</g>
</g>
<!-- Node7&#45;&gt;Node19 -->
<g id="edge31" class="edge"><title>Node7&#45;&gt;Node19</title>
<path fill="none" stroke="midnightblue" d="M888.922,-168.083C896.348,-160.22 907.352,-148.569 916.312,-139.081"/>
<polygon fill="midnightblue" stroke="midnightblue" points="918.913,-141.424 923.235,-131.751 913.824,-136.618 918.913,-141.424"/>
</g>
<!-- Node10 -->
<g id="node10" class="node"><title>Node10</title>
<polygon fill="white" stroke="#bfbfbf" points="1102,-0.5 1102,-19.5 1147,-19.5 1147,-0.5 1102,-0.5"/>
<text text-anchor="middle" x="1124.5" y="-7.5" font-family="Helvetica,sans-Serif" font-size="10.00">float.h</text>
</g>
<!-- Node9&#45;&gt;Node10 -->
<g id="edge13" class="edge"><title>Node9&#45;&gt;Node10</title>
<path fill="none" stroke="midnightblue" d="M1124.5,-56.083C1124.5,-49.0059 1124.5,-38.8611 1124.5,-29.9865"/>
<polygon fill="midnightblue" stroke="midnightblue" points="1128,-29.751 1124.5,-19.7511 1121,-29.7511 1128,-29.751"/>
</g>
<!-- Node14&#45;&gt;Node3 -->
<g id="edge18" class="edge"><title>Node14&#45;&gt;Node3</title>
<path fill="none" stroke="midnightblue" d="M607.234,-112.083C600.955,-104.377 591.712,-93.0333 584.069,-83.6531"/>
<polygon fill="midnightblue" stroke="midnightblue" points="586.661,-81.2926 577.631,-75.7511 581.234,-85.7143 586.661,-81.2926"/>
</g>
<!-- Node14&#45;&gt;Node9 -->
<g id="edge19" class="edge"><title>Node14&#45;&gt;Node9</title>
<path fill="none" stroke="midnightblue" d="M659.286,-113.168C662.062,-112.753 664.817,-112.359 667.5,-112 741.369,-102.104 951.105,-82.6595 1058.85,-72.8928"/>
<polygon fill="midnightblue" stroke="midnightblue" points="1059.3,-76.3659 1068.95,-71.9785 1058.67,-69.3944 1059.3,-76.3659"/>
</g>
<!-- Node14&#45;&gt;Node11 -->
<g id="edge20" class="edge"><title>Node14&#45;&gt;Node11</title>
<path fill="none" stroke="midnightblue" d="M659.029,-113.413C661.895,-112.932 664.738,-112.458 667.5,-112 741.06,-99.801 825.637,-86.1663 881.999,-77.1358"/>
<polygon fill="midnightblue" stroke="midnightblue" points="882.865,-80.5419 892.186,-75.5046 881.758,-73.6299 882.865,-80.5419"/>
</g>
<!-- Node15 -->
<g id="node15" class="node"><title>Node15</title>
<g id="a_node15"><a xlink:href="a00231_source.html" target="_top" xlink:title="replacements/readpassphrase.h">
<polygon fill="white" stroke="black" points="654,-56.5 654,-75.5 823,-75.5 823,-56.5 654,-56.5"/>
<text text-anchor="middle" x="738.5" y="-63.5" font-family="Helvetica,sans-Serif" font-size="10.00">replacements/readpassphrase.h</text>
</a>
</g>
</g>
<!-- Node14&#45;&gt;Node15 -->
<g id="edge21" class="edge"><title>Node14&#45;&gt;Node15</title>
<path fill="none" stroke="midnightblue" d="M634.148,-112.444C654.465,-103.596 686.403,-89.6875 709.598,-79.5865"/>
<polygon fill="midnightblue" stroke="midnightblue" points="711.173,-82.7181 718.944,-75.5164 708.378,-76.3002 711.173,-82.7181"/>
</g>
<!-- Node14&#45;&gt;Node16 -->
<g id="edge28" class="edge"><title>Node14&#45;&gt;Node16</title>
<path fill="none" stroke="midnightblue" d="M659.075,-113.232C720.974,-102.234 826.035,-82.7141 831.5,-76 837.111,-69.1059 837.41,-62.6393 831.5,-56 810.113,-31.9749 606.393,-18.7725 503.857,-13.6004"/>
<polygon fill="midnightblue" stroke="midnightblue" points="503.823,-10.0946 493.662,-13.0959 503.477,-17.086 503.823,-10.0946"/>
</g>
<!-- Node14&#45;&gt;Node17 -->
<g id="edge29" class="edge"><title>Node14&#45;&gt;Node17</title>
<path fill="none" stroke="midnightblue" d="M616.335,-112.483C618.776,-98.6145 621.225,-71.1798 606.5,-56 598.347,-47.5949 453.213,-28.2795 370.694,-17.8986"/>
<polygon fill="midnightblue" stroke="midnightblue" points="371.068,-14.4181 360.71,-16.6478 370.197,-21.3638 371.068,-14.4181"/>
</g>
<!-- Node18 -->
<g id="node18" class="node"><title>Node18</title>
<g id="a_node18"><a xlink:href="a00230.html" target="_top" xlink:title="Provide poll call where missing. ">
<polygon fill="white" stroke="black" points="32.5,-56.5 32.5,-75.5 140.5,-75.5 140.5,-56.5 32.5,-56.5"/>
<text text-anchor="middle" x="86.5" y="-63.5" font-family="Helvetica,sans-Serif" font-size="10.00">replacements/poll.h</text>
</a>
</g>
</g>
<!-- Node14&#45;&gt;Node18 -->
<g id="edge24" class="edge"><title>Node14&#45;&gt;Node18</title>
<path fill="none" stroke="midnightblue" d="M569.864,-117.36C488.634,-110.587 310.996,-95.0963 150.813,-76.1103"/>
<polygon fill="midnightblue" stroke="midnightblue" points="151.12,-72.6222 140.776,-74.9132 150.291,-79.5729 151.12,-72.6222"/>
</g>
<!-- Node15&#45;&gt;Node16 -->
<g id="edge22" class="edge"><title>Node15&#45;&gt;Node16</title>
<path fill="none" stroke="midnightblue" d="M692.073,-56.4435C640.424,-46.9246 556.988,-31.5472 501.693,-21.3563"/>
<polygon fill="midnightblue" stroke="midnightblue" points="502.178,-17.887 491.71,-19.5164 500.909,-24.771 502.178,-17.887"/>
</g>
<!-- Node15&#45;&gt;Node17 -->
<g id="edge23" class="edge"><title>Node15&#45;&gt;Node17</title>
<path fill="none" stroke="midnightblue" d="M671.316,-56.4435C588.295,-45.8701 448.517,-28.0682 370.84,-18.1754"/>
<polygon fill="midnightblue" stroke="midnightblue" points="371.126,-14.6836 360.764,-16.8921 370.242,-21.6275 371.126,-14.6836"/>
</g>
<!-- Node18&#45;&gt;Node2 -->
<g id="edge25" class="edge"><title>Node18&#45;&gt;Node2</title>
<path fill="none" stroke="midnightblue" d="M76.86,-56.324C67.9904,-48.3414 54.6253,-36.3128 43.8921,-26.6529"/>
<polygon fill="midnightblue" stroke="midnightblue" points="46.0898,-23.922 36.3154,-19.8339 41.407,-29.1251 46.0898,-23.922"/>
</g>
<!-- Node18&#45;&gt;Node16 -->
<g id="edge26" class="edge"><title>Node18&#45;&gt;Node16</title>
<path fill="none" stroke="midnightblue" d="M140.635,-56.8572C206.963,-46.8803 318.905,-30.0422 387.115,-19.7822"/>
<polygon fill="midnightblue" stroke="midnightblue" points="387.893,-23.2046 397.261,-18.256 386.852,-16.2824 387.893,-23.2046"/>
</g>
<!-- Node18&#45;&gt;Node17 -->
<g id="edge27" class="edge"><title>Node18&#45;&gt;Node17</title>
<path fill="none" stroke="midnightblue" d="M122.627,-56.4435C162.151,-47.0826 225.597,-32.0561 268.613,-21.868"/>
<polygon fill="midnightblue" stroke="midnightblue" points="269.618,-25.2269 278.542,-19.5164 268.004,-18.4154 269.618,-25.2269"/>
</g>
<!-- Node20&#45;&gt;Node16 -->
<g id="edge35" class="edge"><title>Node20&#45;&gt;Node16</title>
<path fill="none" stroke="midnightblue" d="M244.37,-56.4435C285.976,-47.0431 352.869,-31.9291 397.969,-21.7393"/>
<polygon fill="midnightblue" stroke="midnightblue" points="398.824,-25.1343 407.807,-19.5164 397.281,-18.3064 398.824,-25.1343"/>
</g>
<!-- Node20&#45;&gt;Node17 -->
<g id="edge36" class="edge"><title>Node20&#45;&gt;Node17</title>
<path fill="none" stroke="midnightblue" d="M223.852,-56.324C241.172,-47.6641 268.015,-34.2424 288.002,-24.249"/>
<polygon fill="midnightblue" stroke="midnightblue" points="289.812,-27.2572 297.191,-19.6545 286.681,-20.9962 289.812,-27.2572"/>
</g>
<!-- Node21&#45;&gt;Node16 -->
<g id="edge38" class="edge"><title>Node21&#45;&gt;Node16</title>
<path fill="none" stroke="midnightblue" d="M390.943,-56.324C400.646,-48.2631 415.315,-36.0765 427,-26.3695"/>
<polygon fill="midnightblue" stroke="midnightblue" points="429.411,-28.9163 434.867,-19.8339 424.938,-23.532 429.411,-28.9163"/>
</g>
<!-- Node21&#45;&gt;Node17 -->
<g id="edge39" class="edge"><title>Node21&#45;&gt;Node17</title>
<path fill="none" stroke="midnightblue" d="M369.896,-56.324C360.044,-48.2631 345.149,-36.0765 333.285,-26.3695"/>
<polygon fill="midnightblue" stroke="midnightblue" points="335.253,-23.4575 325.297,-19.8339 330.82,-28.8752 335.253,-23.4575"/>
</g>
<!-- Node22&#45;&gt;Node16 -->
<g id="edge41" class="edge"><title>Node22&#45;&gt;Node16</title>
<path fill="none" stroke="midnightblue" d="M477.225,-56.083C471.858,-48.4554 463.982,-37.2645 457.421,-27.9408"/>
<polygon fill="midnightblue" stroke="midnightblue" points="460.275,-25.9149 451.658,-19.7511 454.551,-29.9434 460.275,-25.9149"/>
</g>
<!-- Node22&#45;&gt;Node17 -->
<g id="edge42" class="edge"><title>Node22&#45;&gt;Node17</title>
<path fill="none" stroke="midnightblue" d="M456.721,-56.4435C428.167,-47.3196 382.767,-32.8133 350.963,-22.6509"/>
<polygon fill="midnightblue" stroke="midnightblue" points="351.744,-19.2262 341.153,-19.5164 349.614,-25.8941 351.744,-19.2262"/>
</g>
<!-- Node23&#45;&gt;Node24 -->
<g id="edge45" class="edge"><title>Node23&#45;&gt;Node24</title>
<path fill="none" stroke="midnightblue" d="M1112.93,-170.459C1117.47,-169.588 1122.1,-168.74 1126.5,-168 1239.66,-148.957 1271.98,-154.403 1388.2,-132.062"/>
<polygon fill="midnightblue" stroke="midnightblue" points="1389.06,-135.46 1398.2,-130.11 1387.72,-128.589 1389.06,-135.46"/>
</g>
<!-- Node24&#45;&gt;Node9 -->
<g id="edge46" class="edge"><title>Node24&#45;&gt;Node9</title>
<path fill="none" stroke="midnightblue" d="M1398.18,-113.982C1395.26,-113.277 1392.32,-112.601 1389.5,-112 1321.97,-97.6097 1243.97,-84.8212 1190.17,-76.5901"/>
<polygon fill="midnightblue" stroke="midnightblue" points="1190.49,-73.0988 1180.08,-75.0563 1189.44,-80.0193 1190.49,-73.0988"/>
</g>
<!-- Node26&#45;&gt;Node16 -->
<g id="edge50" class="edge"><title>Node26&#45;&gt;Node16</title>
<path fill="none" stroke="midnightblue" d="M318.609,-56.6808C343.603,-47.6829 383.678,-33.2558 412.098,-23.0247"/>
<polygon fill="midnightblue" stroke="midnightblue" points="413.397,-26.2769 421.621,-19.5966 411.026,-19.6907 413.397,-26.2769"/>
</g>
<!-- Node26&#45;&gt;Node17 -->
<g id="edge51" class="edge"><title>Node26&#45;&gt;Node17</title>
<path fill="none" stroke="midnightblue" d="M298.637,-56.083C301.183,-48.8486 304.856,-38.4087 308.027,-29.3968"/>
<polygon fill="midnightblue" stroke="midnightblue" points="311.403,-30.3459 311.421,-19.7511 304.8,-28.0225 311.403,-30.3459"/>
</g>
</g>
</svg>
