<?xml version="1.0" encoding="UTF-8" standalone="no"?>
<!DOCTYPE svg PUBLIC "-//W3C//DTD SVG 1.1//EN"
 "http://www.w3.org/Graphics/SVG/1.1/DTD/svg11.dtd">
<!-- Generated by graphviz version 2.38.0 (20140413.2041)
 -->
<!-- Title: include/freetds/tds.h Pages: 1 -->
<svg width="1325pt" height="196pt"
 viewBox="0.00 0.00 1324.50 196.00" xmlns="http://www.w3.org/2000/svg" xmlns:xlink="http://www.w3.org/1999/xlink">
<g id="graph0" class="graph" transform="scale(1 1) rotate(0) translate(4 192)">
<title>include/freetds/tds.h</title>
<polygon fill="white" stroke="none" points="-4,4 -4,-192 1320.5,-192 1320.5,4 -4,4"/>
<!-- Node1 -->
<g id="node1" class="node"><title>Node1</title>
<polygon fill="#bfbfbf" stroke="black" points="705,-168.5 705,-187.5 816,-187.5 816,-168.5 705,-168.5"/>
<text text-anchor="middle" x="760.5" y="-175.5" font-family="Helvetica,sans-Serif" font-size="10.00">include/freetds/tds.h</text>
</g>
<!-- Node2 -->
<g id="node2" class="node"><title>Node2</title>
<polygon fill="white" stroke="#bfbfbf" points="0,-56.5 0,-75.5 55,-75.5 55,-56.5 0,-56.5"/>
<text text-anchor="middle" x="27.5" y="-63.5" font-family="Helvetica,sans-Serif" font-size="10.00">stdarg.h</text>
</g>
<!-- Node1&#45;&gt;Node2 -->
<g id="edge1" class="edge"><title>Node1&#45;&gt;Node2</title>
<path fill="none" stroke="midnightblue" d="M704.705,-175.393C576.773,-171.288 265.553,-158.794 164.5,-132 121.893,-120.703 76.4137,-96.3776 50.0462,-80.899"/>
<polygon fill="midnightblue" stroke="midnightblue" points="51.6172,-77.7606 41.2373,-75.6372 48.0275,-83.7701 51.6172,-77.7606"/>
</g>
<!-- Node3 -->
<g id="node3" class="node"><title>Node3</title>
<polygon fill="white" stroke="#bfbfbf" points="763,-112.5 763,-131.5 810,-131.5 810,-112.5 763,-112.5"/>
<text text-anchor="middle" x="786.5" y="-119.5" font-family="Helvetica,sans-Serif" font-size="10.00">stdio.h</text>
</g>
<!-- Node1&#45;&gt;Node3 -->
<g id="edge2" class="edge"><title>Node1&#45;&gt;Node3</title>
<path fill="none" stroke="midnightblue" d="M764.793,-168.083C768.352,-160.691 773.522,-149.953 777.924,-140.811"/>
<polygon fill="midnightblue" stroke="midnightblue" points="781.102,-142.279 782.287,-131.751 774.795,-139.243 781.102,-142.279"/>
</g>
<!-- Node4 -->
<g id="node4" class="node"><title>Node4</title>
<g id="a_node4"><a xlink:href="a00221_source.html" target="_top" xlink:title="time.h">
<polygon fill="white" stroke="black" points="828.5,-112.5 828.5,-131.5 872.5,-131.5 872.5,-112.5 828.5,-112.5"/>
<text text-anchor="middle" x="850.5" y="-119.5" font-family="Helvetica,sans-Serif" font-size="10.00">time.h</text>
</a>
</g>
</g>
<!-- Node1&#45;&gt;Node4 -->
<g id="edge3" class="edge"><title>Node1&#45;&gt;Node4</title>
<path fill="none" stroke="midnightblue" d="M774.96,-168.324C789,-159.9 810.548,-146.971 827.043,-137.074"/>
<polygon fill="midnightblue" stroke="midnightblue" points="829.302,-139.801 836.076,-131.655 825.7,-133.798 829.302,-139.801"/>
</g>
<!-- Node5 -->
<g id="node5" class="node"><title>Node5</title>
<g id="a_node5"><a xlink:href="a00224_source.html" target="_top" xlink:title="freetds/version.h">
<polygon fill="white" stroke="black" points="909,-112.5 909,-131.5 1004,-131.5 1004,-112.5 909,-112.5"/>
<text text-anchor="middle" x="956.5" y="-119.5" font-family="Helvetica,sans-Serif" font-size="10.00">freetds/version.h</text>
</a>
</g>
</g>
<!-- Node1&#45;&gt;Node5 -->
<g id="edge5" class="edge"><title>Node1&#45;&gt;Node5</title>
<path fill="none" stroke="midnightblue" d="M791.557,-168.444C825.103,-159.201 878.697,-144.436 915.641,-134.257"/>
<polygon fill="midnightblue" stroke="midnightblue" points="916.877,-137.547 925.589,-131.516 915.018,-130.798 916.877,-137.547"/>
</g>
<!-- Node6 -->
<g id="node6" class="node"><title>Node6</title>
<g id="a_node6"><a xlink:href="a00238_source.html" target="_top" xlink:title="tds_sysdep_public.h">
<polygon fill="white" stroke="black" points="73,-56.5 73,-75.5 184,-75.5 184,-56.5 73,-56.5"/>
<text text-anchor="middle" x="128.5" y="-63.5" font-family="Helvetica,sans-Serif" font-size="10.00">tds_sysdep_public.h</text>
</a>
</g>
</g>
<!-- Node1&#45;&gt;Node6 -->
<g id="edge6" class="edge"><title>Node1&#45;&gt;Node6</title>
<path fill="none" stroke="midnightblue" d="M704.914,-177.138C581.453,-176.711 288.219,-171.437 198.5,-132 174.64,-121.512 153.695,-99.405 141.077,-83.897"/>
<polygon fill="midnightblue" stroke="midnightblue" points="143.564,-81.395 134.651,-75.6665 138.047,-85.7026 143.564,-81.395"/>
</g>
<!-- Node8 -->
<g id="node8" class="node"><title>Node8</title>
<g id="a_node8"><a xlink:href="a00218_source.html" target="_top" xlink:title="freetds/sysdep_private.h">
<polygon fill="white" stroke="black" points="630,-56.5 630,-75.5 763,-75.5 763,-56.5 630,-56.5"/>
<text text-anchor="middle" x="696.5" y="-63.5" font-family="Helvetica,sans-Serif" font-size="10.00">freetds/sysdep_private.h</text>
</a>
</g>
</g>
<!-- Node1&#45;&gt;Node8 -->
<g id="edge8" class="edge"><title>Node1&#45;&gt;Node8</title>
<path fill="none" stroke="midnightblue" d="M751.137,-168.492C742.24,-159.986 728.994,-146.164 720.5,-132 711.8,-117.492 705.416,-99.3095 701.429,-85.867"/>
<polygon fill="midnightblue" stroke="midnightblue" points="704.701,-84.5687 698.645,-75.8749 697.958,-86.4473 704.701,-84.5687"/>
</g>
<!-- Node9 -->
<g id="node9" class="node"><title>Node9</title>
<g id="a_node9"><a xlink:href="a00220_source.html" target="_top" xlink:title="freetds/thread.h">
<polygon fill="white" stroke="black" points="1022.5,-112.5 1022.5,-131.5 1114.5,-131.5 1114.5,-112.5 1022.5,-112.5"/>
<text text-anchor="middle" x="1068.5" y="-119.5" font-family="Helvetica,sans-Serif" font-size="10.00">freetds/thread.h</text>
</a>
</g>
</g>
<!-- Node1&#45;&gt;Node9 -->
<g id="edge9" class="edge"><title>Node1&#45;&gt;Node9</title>
<path fill="none" stroke="midnightblue" d="M809.304,-168.444C864.509,-158.765 954.263,-143.029 1012.34,-132.847"/>
<polygon fill="midnightblue" stroke="midnightblue" points="1013.19,-136.25 1022.44,-131.075 1011.99,-129.355 1013.19,-136.25"/>
</g>
<!-- Node10 -->
<g id="node10" class="node"><title>Node10</title>
<g id="a_node10"><a xlink:href="a00201_source.html" target="_top" xlink:title="freetds/bool.h">
<polygon fill="white" stroke="black" points="1132.5,-112.5 1132.5,-131.5 1212.5,-131.5 1212.5,-112.5 1132.5,-112.5"/>
<text text-anchor="middle" x="1172.5" y="-119.5" font-family="Helvetica,sans-Serif" font-size="10.00">freetds/bool.h</text>
</a>
</g>
</g>
<!-- Node1&#45;&gt;Node10 -->
<g id="edge10" class="edge"><title>Node1&#45;&gt;Node10</title>
<path fill="none" stroke="midnightblue" d="M816.297,-171.105C885.661,-163.55 1007.9,-149.489 1122.43,-132.088"/>
<polygon fill="midnightblue" stroke="midnightblue" points="1123.07,-135.531 1132.42,-130.558 1122.01,-128.612 1123.07,-135.531"/>
</g>
<!-- Node11 -->
<g id="node11" class="node"><title>Node11</title>
<g id="a_node11"><a xlink:href="a00229_source.html" target="_top" xlink:title="replacements.h">
<polygon fill="white" stroke="black" points="366,-112.5 366,-131.5 455,-131.5 455,-112.5 366,-112.5"/>
<text text-anchor="middle" x="410.5" y="-119.5" font-family="Helvetica,sans-Serif" font-size="10.00">replacements.h</text>
</a>
</g>
</g>
<!-- Node1&#45;&gt;Node11 -->
<g id="edge11" class="edge"><title>Node1&#45;&gt;Node11</title>
<path fill="none" stroke="midnightblue" d="M705.041,-168.444C639.356,-158.309 530.632,-141.535 465.256,-131.448"/>
<polygon fill="midnightblue" stroke="midnightblue" points="465.565,-127.954 455.148,-129.889 464.498,-134.873 465.565,-127.954"/>
</g>
<!-- Node13 -->
<g id="node13" class="node"><title>Node13</title>
<g id="a_node13"><a xlink:href="a00214_source.html" target="_top" xlink:title="freetds/pushvis.h">
<polygon fill="white" stroke="black" points="202.5,-0.5 202.5,-19.5 298.5,-19.5 298.5,-0.5 202.5,-0.5"/>
<text text-anchor="middle" x="250.5" y="-7.5" font-family="Helvetica,sans-Serif" font-size="10.00">freetds/pushvis.h</text>
</a>
</g>
</g>
<!-- Node1&#45;&gt;Node13 -->
<g id="edge24" class="edge"><title>Node1&#45;&gt;Node13</title>
<path fill="none" stroke="midnightblue" d="M704.862,-177.575C625.634,-176.892 476.601,-170.01 356.5,-132 307.194,-116.396 282.193,-119.677 254.5,-76 245.892,-62.4233 245.612,-43.8762 247.064,-30.0683"/>
<polygon fill="midnightblue" stroke="midnightblue" points="250.582,-30.195 248.547,-19.7975 243.654,-29.1947 250.582,-30.195"/>
</g>
<!-- Node14 -->
<g id="node14" class="node"><title>Node14</title>
<g id="a_node14"><a xlink:href="a00212_source.html" target="_top" xlink:title="freetds/popvis.h">
<polygon fill="white" stroke="black" points="499.5,-0.5 499.5,-19.5 591.5,-19.5 591.5,-0.5 499.5,-0.5"/>
<text text-anchor="middle" x="545.5" y="-7.5" font-family="Helvetica,sans-Serif" font-size="10.00">freetds/popvis.h</text>
</a>
</g>
</g>
<!-- Node1&#45;&gt;Node14 -->
<g id="edge26" class="edge"><title>Node1&#45;&gt;Node14</title>
<path fill="none" stroke="midnightblue" d="M759.009,-168.407C757.524,-159.376 755.346,-144.74 754.5,-132 753.911,-123.131 752.458,-120.651 754.5,-112 758.61,-94.59 768.39,-93.41 772.5,-76 774.542,-67.3489 778.141,-62.8694 772.5,-56 751.289,-30.1714 661.769,-18.9081 601.688,-14.1874"/>
<polygon fill="midnightblue" stroke="midnightblue" points="601.808,-10.6867 591.575,-13.4323 601.287,-17.6673 601.808,-10.6867"/>
</g>
<!-- Node17 -->
<g id="node17" class="node"><title>Node17</title>
<g id="a_node17"><a xlink:href="a00213_source.html" target="_top" xlink:title="freetds/proto.h">
<polygon fill="white" stroke="black" points="1230.5,-112.5 1230.5,-131.5 1316.5,-131.5 1316.5,-112.5 1230.5,-112.5"/>
<text text-anchor="middle" x="1273.5" y="-119.5" font-family="Helvetica,sans-Serif" font-size="10.00">freetds/proto.h</text>
</a>
</g>
</g>
<!-- Node1&#45;&gt;Node17 -->
<g id="edge25" class="edge"><title>Node1&#45;&gt;Node17</title>
<path fill="none" stroke="midnightblue" d="M816.004,-172.918C900.894,-166.38 1068.28,-152.331 1220.41,-132.056"/>
<polygon fill="midnightblue" stroke="midnightblue" points="1220.96,-135.513 1230.41,-130.711 1220.03,-128.575 1220.96,-135.513"/>
</g>
<!-- Node4&#45;&gt;Node4 -->
<g id="edge4" class="edge"><title>Node4&#45;&gt;Node4</title>
<path fill="none" stroke="midnightblue" d="M867.768,-131.575C879.287,-134.27 890.5,-131.078 890.5,-122 890.5,-115.759 885.2,-112.3 878.145,-111.623"/>
<polygon fill="midnightblue" stroke="midnightblue" points="877.469,-108.165 867.768,-112.425 878.008,-115.144 877.469,-108.165"/>
</g>
<!-- Node7 -->
<g id="node7" class="node"><title>Node7</title>
<polygon fill="white" stroke="#bfbfbf" points="106,-0.5 106,-19.5 151,-19.5 151,-0.5 106,-0.5"/>
<text text-anchor="middle" x="128.5" y="-7.5" font-family="Helvetica,sans-Serif" font-size="10.00">float.h</text>
</g>
<!-- Node6&#45;&gt;Node7 -->
<g id="edge7" class="edge"><title>Node6&#45;&gt;Node7</title>
<path fill="none" stroke="midnightblue" d="M128.5,-56.083C128.5,-49.0059 128.5,-38.8611 128.5,-29.9865"/>
<polygon fill="midnightblue" stroke="midnightblue" points="132,-29.751 128.5,-19.7511 125,-29.7511 132,-29.751"/>
</g>
<!-- Node11&#45;&gt;Node2 -->
<g id="edge12" class="edge"><title>Node11&#45;&gt;Node2</title>
<path fill="none" stroke="midnightblue" d="M365.87,-116.885C301.433,-110.577 178.456,-97.1696 65.2127,-76.1552"/>
<polygon fill="midnightblue" stroke="midnightblue" points="65.8121,-72.7066 55.3375,-74.2983 64.5185,-79.5861 65.8121,-72.7066"/>
</g>
<!-- Node11&#45;&gt;Node6 -->
<g id="edge13" class="edge"><title>Node11&#45;&gt;Node6</title>
<path fill="none" stroke="midnightblue" d="M365.816,-112.444C316.21,-102.944 236.135,-87.611 182.915,-77.4198"/>
<polygon fill="midnightblue" stroke="midnightblue" points="183.455,-73.9597 172.975,-75.5164 182.138,-80.8348 183.455,-73.9597"/>
</g>
<!-- Node11&#45;&gt;Node8 -->
<g id="edge14" class="edge"><title>Node11&#45;&gt;Node8</title>
<path fill="none" stroke="midnightblue" d="M455.188,-112.562C505.369,-103.088 586.856,-87.702 641.058,-77.468"/>
<polygon fill="midnightblue" stroke="midnightblue" points="642.005,-80.8511 651.182,-75.5565 640.707,-73.9726 642.005,-80.8511"/>
</g>
<!-- Node12 -->
<g id="node12" class="node"><title>Node12</title>
<g id="a_node12"><a xlink:href="a00231_source.html" target="_top" xlink:title="replacements/readpassphrase.h">
<polygon fill="white" stroke="black" points="405,-56.5 405,-75.5 574,-75.5 574,-56.5 405,-56.5"/>
<text text-anchor="middle" x="489.5" y="-63.5" font-family="Helvetica,sans-Serif" font-size="10.00">replacements/readpassphrase.h</text>
</a>
</g>
</g>
<!-- Node11&#45;&gt;Node12 -->
<g id="edge15" class="edge"><title>Node11&#45;&gt;Node12</title>
<path fill="none" stroke="midnightblue" d="M423.193,-112.324C435.401,-103.979 454.078,-91.2122 468.503,-81.3524"/>
<polygon fill="midnightblue" stroke="midnightblue" points="470.558,-84.1871 476.839,-75.6545 466.608,-78.4082 470.558,-84.1871"/>
</g>
<!-- Node11&#45;&gt;Node13 -->
<g id="edge22" class="edge"><title>Node11&#45;&gt;Node13</title>
<path fill="none" stroke="midnightblue" d="M365.691,-117.565C334.722,-112.871 294.713,-101.84 269.5,-76 257.579,-63.7827 253.068,-44.5162 251.397,-30.1259"/>
<polygon fill="midnightblue" stroke="midnightblue" points="254.862,-29.5484 250.578,-19.8584 247.884,-30.1051 254.862,-29.5484"/>
</g>
<!-- Node11&#45;&gt;Node14 -->
<g id="edge23" class="edge"><title>Node11&#45;&gt;Node14</title>
<path fill="none" stroke="midnightblue" d="M455.183,-115.504C500.794,-108.868 567.033,-96.0344 582.5,-76 594.618,-60.3032 579.111,-40.2022 564.625,-26.538"/>
<polygon fill="midnightblue" stroke="midnightblue" points="566.675,-23.6787 556.865,-19.6778 562.039,-28.9233 566.675,-23.6787"/>
</g>
<!-- Node15 -->
<g id="node15" class="node"><title>Node15</title>
<g id="a_node15"><a xlink:href="a00230.html" target="_top" xlink:title="Provide poll call where missing. ">
<polygon fill="white" stroke="black" points="278.5,-56.5 278.5,-75.5 386.5,-75.5 386.5,-56.5 278.5,-56.5"/>
<text text-anchor="middle" x="332.5" y="-63.5" font-family="Helvetica,sans-Serif" font-size="10.00">replacements/poll.h</text>
</a>
</g>
</g>
<!-- Node11&#45;&gt;Node15 -->
<g id="edge18" class="edge"><title>Node11&#45;&gt;Node15</title>
<path fill="none" stroke="midnightblue" d="M397.968,-112.324C385.914,-103.979 367.473,-91.2122 353.231,-81.3524"/>
<polygon fill="midnightblue" stroke="midnightblue" points="355.215,-78.469 345.001,-75.6545 351.231,-84.2243 355.215,-78.469"/>
</g>
<!-- Node12&#45;&gt;Node13 -->
<g id="edge16" class="edge"><title>Node12&#45;&gt;Node13</title>
<path fill="none" stroke="midnightblue" d="M451.63,-56.4435C410.024,-47.0431 343.131,-31.9291 298.031,-21.7393"/>
<polygon fill="midnightblue" stroke="midnightblue" points="298.719,-18.3064 288.193,-19.5164 297.176,-25.1343 298.719,-18.3064"/>
</g>
<!-- Node12&#45;&gt;Node14 -->
<g id="edge17" class="edge"><title>Node12&#45;&gt;Node14</title>
<path fill="none" stroke="midnightblue" d="M498.497,-56.324C506.694,-48.4196 519.006,-36.5482 528.972,-26.9377"/>
<polygon fill="midnightblue" stroke="midnightblue" points="531.57,-29.2947 536.339,-19.8339 526.711,-24.2558 531.57,-29.2947"/>
</g>
<!-- Node15&#45;&gt;Node13 -->
<g id="edge20" class="edge"><title>Node15&#45;&gt;Node13</title>
<path fill="none" stroke="midnightblue" d="M319.325,-56.324C306.653,-47.979 287.267,-35.2122 272.294,-25.3524"/>
<polygon fill="midnightblue" stroke="midnightblue" points="273.919,-22.2313 263.642,-19.6545 270.069,-28.0776 273.919,-22.2313"/>
</g>
<!-- Node15&#45;&gt;Node14 -->
<g id="edge21" class="edge"><title>Node15&#45;&gt;Node14</title>
<path fill="none" stroke="midnightblue" d="M366.25,-56.4435C403.018,-47.1221 461.946,-32.1828 502.122,-21.9972"/>
<polygon fill="midnightblue" stroke="midnightblue" points="503.074,-25.3666 511.907,-19.5164 501.354,-18.5813 503.074,-25.3666"/>
</g>
<!-- Node16 -->
<g id="node16" class="node"><title>Node16</title>
<g id="a_node16"><a xlink:href="a00192_source.html" target="_top" xlink:title="config.h">
<polygon fill="white" stroke="black" points="317,-0.5 317,-19.5 370,-19.5 370,-0.5 317,-0.5"/>
<text text-anchor="middle" x="343.5" y="-7.5" font-family="Helvetica,sans-Serif" font-size="10.00">config.h</text>
</a>
</g>
</g>
<!-- Node15&#45;&gt;Node16 -->
<g id="edge19" class="edge"><title>Node15&#45;&gt;Node16</title>
<path fill="none" stroke="midnightblue" d="M334.316,-56.083C335.774,-48.9272 337.871,-38.6353 339.693,-29.6911"/>
<polygon fill="midnightblue" stroke="midnightblue" points="343.151,-30.2485 341.717,-19.7511 336.292,-28.8512 343.151,-30.2485"/>
</g>
</g>
</svg>
