<?xml version="1.0" encoding="UTF-8" standalone="no"?>
<!DOCTYPE svg PUBLIC "-//W3C//DTD SVG 1.1//EN"
 "http://www.w3.org/Graphics/SVG/1.1/DTD/svg11.dtd">
<!-- Generated by graphviz version 2.38.0 (20140413.2041)
 -->
<!-- Title: src/tds/bulk.c Pages: 1 -->
<svg width="1257pt" height="252pt"
 viewBox="0.00 0.00 1256.96 252.00" xmlns="http://www.w3.org/2000/svg" xmlns:xlink="http://www.w3.org/1999/xlink">
<g id="graph0" class="graph" transform="scale(1 1) rotate(0) translate(4 248)">
<title>src/tds/bulk.c</title>
<polygon fill="white" stroke="none" points="-4,4 -4,-248 1252.96,-248 1252.96,4 -4,4"/>
<!-- Node1 -->
<g id="node1" class="node"><title>Node1</title>
<polygon fill="#bfbfbf" stroke="black" points="888.462,-224.5 888.462,-243.5 965.462,-243.5 965.462,-224.5 888.462,-224.5"/>
<text text-anchor="middle" x="926.962" y="-231.5" font-family="Helvetica,sans-Serif" font-size="10.00">src/tds/bulk.c</text>
</g>
<!-- Node2 -->
<g id="node2" class="node"><title>Node2</title>
<g id="a_node2"><a xlink:href="a00192_source.html" target="_top" xlink:title="config.h">
<polygon fill="white" stroke="black" points="158.462,-0.5 158.462,-19.5 211.462,-19.5 211.462,-0.5 158.462,-0.5"/>
<text text-anchor="middle" x="184.962" y="-7.5" font-family="Helvetica,sans-Serif" font-size="10.00">config.h</text>
</a>
</g>
</g>
<!-- Node1&#45;&gt;Node2 -->
<g id="edge1" class="edge"><title>Node1&#45;&gt;Node2</title>
<path fill="none" stroke="midnightblue" d="M888.253,-233.394C725.871,-234.081 103.465,-226.75 3.96161,-76 -0.935062,-68.5814 -1.51327,-63.0027 3.96161,-56 21.5201,-33.5416 100.553,-20.6887 148.188,-14.8524"/>
<polygon fill="midnightblue" stroke="midnightblue" points="148.609,-18.3272 158.13,-13.68 147.789,-11.3753 148.609,-18.3272"/>
</g>
<!-- Node3 -->
<g id="node3" class="node"><title>Node3</title>
<polygon fill="white" stroke="#bfbfbf" points="465.962,-168.5 465.962,-187.5 519.962,-187.5 519.962,-168.5 465.962,-168.5"/>
<text text-anchor="middle" x="492.962" y="-175.5" font-family="Helvetica,sans-Serif" font-size="10.00">assert.h</text>
</g>
<!-- Node1&#45;&gt;Node3 -->
<g id="edge2" class="edge"><title>Node1&#45;&gt;Node3</title>
<path fill="none" stroke="midnightblue" d="M888.289,-229.891C817.62,-223.918 663.01,-209.494 533.962,-188 532.708,-187.791 531.435,-187.569 530.151,-187.336"/>
<polygon fill="midnightblue" stroke="midnightblue" points="530.72,-183.881 520.233,-185.393 529.374,-190.751 530.72,-183.881"/>
</g>
<!-- Node4 -->
<g id="node4" class="node"><title>Node4</title>
<g id="a_node4"><a xlink:href="a00219.html" target="_top" xlink:title="Main include file for libtds. ">
<polygon fill="white" stroke="black" points="576.462,-168.5 576.462,-187.5 651.462,-187.5 651.462,-168.5 576.462,-168.5"/>
<text text-anchor="middle" x="613.962" y="-175.5" font-family="Helvetica,sans-Serif" font-size="10.00">freetds/tds.h</text>
</a>
</g>
</g>
<!-- Node1&#45;&gt;Node4 -->
<g id="edge3" class="edge"><title>Node1&#45;&gt;Node4</title>
<path fill="none" stroke="midnightblue" d="M888.268,-226.324C830.941,-216.434 723.559,-197.908 661.515,-187.204"/>
<polygon fill="midnightblue" stroke="midnightblue" points="662.041,-183.743 651.592,-185.492 660.851,-190.641 662.041,-183.743"/>
</g>
<!-- Node14 -->
<g id="node14" class="node"><title>Node14</title>
<g id="a_node14"><a xlink:href="a00229_source.html" target="_top" xlink:title="replacements.h">
<polygon fill="white" stroke="black" points="190.462,-112.5 190.462,-131.5 279.462,-131.5 279.462,-112.5 190.462,-112.5"/>
<text text-anchor="middle" x="234.962" y="-119.5" font-family="Helvetica,sans-Serif" font-size="10.00">replacements.h</text>
</a>
</g>
</g>
<!-- Node1&#45;&gt;Node14 -->
<g id="edge43" class="edge"><title>Node1&#45;&gt;Node14</title>
<path fill="none" stroke="midnightblue" d="M888.434,-232.681C821.503,-231.145 680.082,-223.54 566.962,-188 548.754,-182.279 547.1,-173.938 528.962,-168 429.053,-135.292 396.794,-148.243 289.416,-132.164"/>
<polygon fill="midnightblue" stroke="midnightblue" points="289.902,-128.697 279.484,-130.627 288.831,-135.615 289.902,-128.697"/>
</g>
<!-- Node20 -->
<g id="node20" class="node"><title>Node20</title>
<g id="a_node20"><a xlink:href="a00203_source.html" target="_top" xlink:title="freetds/checks.h">
<polygon fill="white" stroke="black" points="1050.96,-56.5 1050.96,-75.5 1144.96,-75.5 1144.96,-56.5 1050.96,-56.5"/>
<text text-anchor="middle" x="1097.96" y="-63.5" font-family="Helvetica,sans-Serif" font-size="10.00">freetds/checks.h</text>
</a>
</g>
</g>
<!-- Node1&#45;&gt;Node20 -->
<g id="edge30" class="edge"><title>Node1&#45;&gt;Node20</title>
<path fill="none" stroke="midnightblue" d="M965.59,-230.584C997.157,-226.539 1040.71,-215.882 1066.96,-188 1093.51,-159.806 1098.1,-112.069 1098.45,-85.7726"/>
<polygon fill="midnightblue" stroke="midnightblue" points="1101.95,-85.6169 1098.39,-75.6397 1094.95,-85.6621 1101.95,-85.6169"/>
</g>
<!-- Node21 -->
<g id="node21" class="node"><title>Node21</title>
<g id="a_node21"><a xlink:href="a00202_source.html" target="_top" xlink:title="freetds/bytes.h">
<polygon fill="white" stroke="black" points="954.962,-168.5 954.962,-187.5 1040.96,-187.5 1040.96,-168.5 954.962,-168.5"/>
<text text-anchor="middle" x="997.962" y="-175.5" font-family="Helvetica,sans-Serif" font-size="10.00">freetds/bytes.h</text>
</a>
</g>
</g>
<!-- Node1&#45;&gt;Node21 -->
<g id="edge33" class="edge"><title>Node1&#45;&gt;Node21</title>
<path fill="none" stroke="midnightblue" d="M938.369,-224.324C949.07,-216.185 965.302,-203.839 978.124,-194.087"/>
<polygon fill="midnightblue" stroke="midnightblue" points="980.506,-196.673 986.347,-187.834 976.268,-191.102 980.506,-196.673"/>
</g>
<!-- Node22 -->
<g id="node22" class="node"><title>Node22</title>
<g id="a_node22"><a xlink:href="a00210_source.html" target="_top" xlink:title="freetds/iconv.h">
<polygon fill="white" stroke="black" points="1162.96,-56.5 1162.96,-75.5 1248.96,-75.5 1248.96,-56.5 1162.96,-56.5"/>
<text text-anchor="middle" x="1205.96" y="-63.5" font-family="Helvetica,sans-Serif" font-size="10.00">freetds/iconv.h</text>
</a>
</g>
</g>
<!-- Node1&#45;&gt;Node22 -->
<g id="edge34" class="edge"><title>Node1&#45;&gt;Node22</title>
<path fill="none" stroke="midnightblue" d="M965.629,-228.007C999.719,-222.299 1049.77,-210.649 1087.96,-188 1134.47,-160.421 1175.16,-109.851 1194.32,-83.6785"/>
<polygon fill="midnightblue" stroke="midnightblue" points="1197.19,-85.683 1200.17,-75.5161 1191.5,-81.6051 1197.19,-85.683"/>
</g>
<!-- Node23 -->
<g id="node23" class="node"><title>Node23</title>
<g id="a_node23"><a xlink:href="a00216_source.html" target="_top" xlink:title="freetds/stream.h">
<polygon fill="white" stroke="black" points="795.462,-56.5 795.462,-75.5 888.462,-75.5 888.462,-56.5 795.462,-56.5"/>
<text text-anchor="middle" x="841.962" y="-63.5" font-family="Helvetica,sans-Serif" font-size="10.00">freetds/stream.h</text>
</a>
</g>
</g>
<!-- Node1&#45;&gt;Node23 -->
<g id="edge37" class="edge"><title>Node1&#45;&gt;Node23</title>
<path fill="none" stroke="midnightblue" d="M928.487,-224.219C930.946,-211.372 936.492,-186.926 945.962,-168 958.326,-143.29 989.015,-134.489 972.962,-112 955.976,-88.2058 925.581,-76.8625 898.342,-71.5104"/>
<polygon fill="midnightblue" stroke="midnightblue" points="898.931,-68.0605 888.48,-69.7977 897.734,-74.9573 898.931,-68.0605"/>
</g>
<!-- Node24 -->
<g id="node24" class="node"><title>Node24</title>
<g id="a_node24"><a xlink:href="a00217_source.html" target="_top" xlink:title="freetds/string.h">
<polygon fill="white" stroke="black" points="945.462,-56.5 945.462,-75.5 1032.46,-75.5 1032.46,-56.5 945.462,-56.5"/>
<text text-anchor="middle" x="988.962" y="-63.5" font-family="Helvetica,sans-Serif" font-size="10.00">freetds/string.h</text>
</a>
</g>
</g>
<!-- Node1&#45;&gt;Node24 -->
<g id="edge40" class="edge"><title>Node1&#45;&gt;Node24</title>
<path fill="none" stroke="midnightblue" d="M965.628,-230.198C994.121,-225.871 1031.07,-215.024 1049.96,-188 1058.12,-176.334 1060.43,-140.893 1044.96,-112 1038.09,-99.1587 1025.83,-88.6688 1014.53,-81.0573"/>
<polygon fill="midnightblue" stroke="midnightblue" points="1016.13,-77.9281 1005.8,-75.5801 1012.41,-83.8583 1016.13,-77.9281"/>
</g>
<!-- Node5 -->
<g id="node5" class="node"><title>Node5</title>
<polygon fill="white" stroke="#bfbfbf" points="532.462,-56.5 532.462,-75.5 587.462,-75.5 587.462,-56.5 532.462,-56.5"/>
<text text-anchor="middle" x="559.962" y="-63.5" font-family="Helvetica,sans-Serif" font-size="10.00">stdarg.h</text>
</g>
<!-- Node4&#45;&gt;Node5 -->
<g id="edge4" class="edge"><title>Node4&#45;&gt;Node5</title>
<path fill="none" stroke="midnightblue" d="M577.259,-168.349C558.128,-161.775 536.389,-150.583 524.962,-132 514.86,-115.572 528.724,-96.0004 541.872,-82.6556"/>
<polygon fill="midnightblue" stroke="midnightblue" points="544.484,-85.0032 549.344,-75.5888 539.674,-79.9175 544.484,-85.0032"/>
</g>
<!-- Node6 -->
<g id="node6" class="node"><title>Node6</title>
<polygon fill="white" stroke="#bfbfbf" points="917.462,-112.5 917.462,-131.5 964.462,-131.5 964.462,-112.5 917.462,-112.5"/>
<text text-anchor="middle" x="940.962" y="-119.5" font-family="Helvetica,sans-Serif" font-size="10.00">stdio.h</text>
</g>
<!-- Node4&#45;&gt;Node6 -->
<g id="edge5" class="edge"><title>Node4&#45;&gt;Node6</title>
<path fill="none" stroke="midnightblue" d="M651.803,-172.614C706.159,-166.008 809.623,-152.294 907.216,-131.937"/>
<polygon fill="midnightblue" stroke="midnightblue" points="908.188,-135.309 917.248,-129.816 906.74,-128.46 908.188,-135.309"/>
</g>
<!-- Node7 -->
<g id="node7" class="node"><title>Node7</title>
<g id="a_node7"><a xlink:href="a00221_source.html" target="_top" xlink:title="time.h">
<polygon fill="white" stroke="black" points="296.962,-112.5 296.962,-131.5 340.962,-131.5 340.962,-112.5 296.962,-112.5"/>
<text text-anchor="middle" x="318.962" y="-119.5" font-family="Helvetica,sans-Serif" font-size="10.00">time.h</text>
</a>
</g>
</g>
<!-- Node4&#45;&gt;Node7 -->
<g id="edge6" class="edge"><title>Node4&#45;&gt;Node7</title>
<path fill="none" stroke="midnightblue" d="M576.451,-170.147C528.212,-161.332 441.842,-145.542 367.962,-132 362.674,-131.031 357.065,-130.002 351.603,-128.999"/>
<polygon fill="midnightblue" stroke="midnightblue" points="351.871,-125.489 341.403,-127.125 350.606,-132.374 351.871,-125.489"/>
</g>
<!-- Node8 -->
<g id="node8" class="node"><title>Node8</title>
<g id="a_node8"><a xlink:href="a00224_source.html" target="_top" xlink:title="freetds/version.h">
<polygon fill="white" stroke="black" points="377.462,-112.5 377.462,-131.5 472.462,-131.5 472.462,-112.5 377.462,-112.5"/>
<text text-anchor="middle" x="424.962" y="-119.5" font-family="Helvetica,sans-Serif" font-size="10.00">freetds/version.h</text>
</a>
</g>
</g>
<!-- Node4&#45;&gt;Node8 -->
<g id="edge8" class="edge"><title>Node4&#45;&gt;Node8</title>
<path fill="none" stroke="midnightblue" d="M584.014,-168.444C551.804,-159.241 500.427,-144.562 464.819,-134.388"/>
<polygon fill="midnightblue" stroke="midnightblue" points="465.346,-130.898 454.769,-131.516 463.423,-137.629 465.346,-130.898"/>
</g>
<!-- Node9 -->
<g id="node9" class="node"><title>Node9</title>
<g id="a_node9"><a xlink:href="a00238_source.html" target="_top" xlink:title="tds_sysdep_public.h">
<polygon fill="white" stroke="black" points="13.4616,-56.5 13.4616,-75.5 124.462,-75.5 124.462,-56.5 13.4616,-56.5"/>
<text text-anchor="middle" x="68.9616" y="-63.5" font-family="Helvetica,sans-Serif" font-size="10.00">tds_sysdep_public.h</text>
</a>
</g>
</g>
<!-- Node4&#45;&gt;Node9 -->
<g id="edge9" class="edge"><title>Node4&#45;&gt;Node9</title>
<path fill="none" stroke="midnightblue" d="M576.305,-172.993C561.542,-171.427 544.458,-169.622 528.962,-168 374.314,-151.814 328.829,-180.095 180.962,-132 145.793,-120.561 109.576,-96.9839 88.1792,-81.5914"/>
<polygon fill="midnightblue" stroke="midnightblue" points="90.094,-78.6551 79.9628,-75.5549 85.9494,-84.2963 90.094,-78.6551"/>
</g>
<!-- Node11 -->
<g id="node11" class="node"><title>Node11</title>
<g id="a_node11"><a xlink:href="a00218_source.html" target="_top" xlink:title="freetds/sysdep_private.h">
<polygon fill="white" stroke="black" points="605.462,-56.5 605.462,-75.5 738.462,-75.5 738.462,-56.5 605.462,-56.5"/>
<text text-anchor="middle" x="671.962" y="-63.5" font-family="Helvetica,sans-Serif" font-size="10.00">freetds/sysdep_private.h</text>
</a>
</g>
</g>
<!-- Node4&#45;&gt;Node11 -->
<g id="edge11" class="edge"><title>Node4&#45;&gt;Node11</title>
<path fill="none" stroke="midnightblue" d="M598.689,-168.484C578.967,-156.356 548.765,-133.221 562.962,-112 573.868,-95.6986 591.876,-85.296 610.143,-78.6602"/>
<polygon fill="midnightblue" stroke="midnightblue" points="611.277,-81.9716 619.683,-75.5221 609.09,-75.3221 611.277,-81.9716"/>
</g>
<!-- Node12 -->
<g id="node12" class="node"><title>Node12</title>
<g id="a_node12"><a xlink:href="a00220_source.html" target="_top" xlink:title="freetds/thread.h">
<polygon fill="white" stroke="black" points="604.962,-112.5 604.962,-131.5 696.962,-131.5 696.962,-112.5 604.962,-112.5"/>
<text text-anchor="middle" x="650.962" y="-119.5" font-family="Helvetica,sans-Serif" font-size="10.00">freetds/thread.h</text>
</a>
</g>
</g>
<!-- Node4&#45;&gt;Node12 -->
<g id="edge12" class="edge"><title>Node4&#45;&gt;Node12</title>
<path fill="none" stroke="midnightblue" d="M620.071,-168.083C625.244,-160.534 632.808,-149.495 639.156,-140.23"/>
<polygon fill="midnightblue" stroke="midnightblue" points="642.2,-141.979 644.966,-131.751 636.426,-138.022 642.2,-141.979"/>
</g>
<!-- Node13 -->
<g id="node13" class="node"><title>Node13</title>
<g id="a_node13"><a xlink:href="a00201_source.html" target="_top" xlink:title="freetds/bool.h">
<polygon fill="white" stroke="black" points="714.962,-112.5 714.962,-131.5 794.962,-131.5 794.962,-112.5 714.962,-112.5"/>
<text text-anchor="middle" x="754.962" y="-119.5" font-family="Helvetica,sans-Serif" font-size="10.00">freetds/bool.h</text>
</a>
</g>
</g>
<!-- Node4&#45;&gt;Node13 -->
<g id="edge13" class="edge"><title>Node4&#45;&gt;Node13</title>
<path fill="none" stroke="midnightblue" d="M636.303,-168.444C659.715,-159.478 696.697,-145.314 723.151,-135.183"/>
<polygon fill="midnightblue" stroke="midnightblue" points="724.637,-138.361 732.724,-131.516 722.134,-131.824 724.637,-138.361"/>
</g>
<!-- Node4&#45;&gt;Node14 -->
<g id="edge14" class="edge"><title>Node4&#45;&gt;Node14</title>
<path fill="none" stroke="midnightblue" d="M576.217,-170.282C571.424,-169.483 566.581,-168.703 561.962,-168 443.737,-150.01 411.121,-150.258 289.551,-132.192"/>
<polygon fill="midnightblue" stroke="midnightblue" points="289.883,-128.703 279.475,-130.684 288.847,-135.626 289.883,-128.703"/>
</g>
<!-- Node16 -->
<g id="node16" class="node"><title>Node16</title>
<g id="a_node16"><a xlink:href="a00214_source.html" target="_top" xlink:title="freetds/pushvis.h">
<polygon fill="white" stroke="black" points="727.962,-0.5 727.962,-19.5 823.962,-19.5 823.962,-0.5 727.962,-0.5"/>
<text text-anchor="middle" x="775.962" y="-7.5" font-family="Helvetica,sans-Serif" font-size="10.00">freetds/pushvis.h</text>
</a>
</g>
</g>
<!-- Node4&#45;&gt;Node16 -->
<g id="edge27" class="edge"><title>Node4&#45;&gt;Node16</title>
<path fill="none" stroke="midnightblue" d="M607.323,-168.48C597.75,-155.091 582.61,-128.909 595.962,-112 638.717,-57.8531 693.866,-120.054 746.962,-76 761.057,-64.3051 768.552,-44.3633 772.364,-29.6445"/>
<polygon fill="midnightblue" stroke="midnightblue" points="775.837,-30.1537 774.61,-19.6301 769.007,-28.6218 775.837,-30.1537"/>
</g>
<!-- Node17 -->
<g id="node17" class="node"><title>Node17</title>
<g id="a_node17"><a xlink:href="a00212_source.html" target="_top" xlink:title="freetds/popvis.h">
<polygon fill="white" stroke="black" points="860.962,-0.5 860.962,-19.5 952.962,-19.5 952.962,-0.5 860.962,-0.5"/>
<text text-anchor="middle" x="906.962" y="-7.5" font-family="Helvetica,sans-Serif" font-size="10.00">freetds/popvis.h</text>
</a>
</g>
</g>
<!-- Node4&#45;&gt;Node17 -->
<g id="edge29" class="edge"><title>Node4&#45;&gt;Node17</title>
<path fill="none" stroke="midnightblue" d="M651.689,-175.049C739.539,-170.122 951.921,-155.843 972.962,-132 996.163,-105.709 940.144,-81.9926 935.962,-76 925.805,-61.4484 917.917,-42.768 912.949,-29.1703"/>
<polygon fill="midnightblue" stroke="midnightblue" points="916.189,-27.8303 909.604,-19.5309 909.576,-30.1257 916.189,-27.8303"/>
</g>
<!-- Node19 -->
<g id="node19" class="node"><title>Node19</title>
<g id="a_node19"><a xlink:href="a00213_source.html" target="_top" xlink:title="freetds/proto.h">
<polygon fill="white" stroke="black" points="812.962,-112.5 812.962,-131.5 898.962,-131.5 898.962,-112.5 812.962,-112.5"/>
<text text-anchor="middle" x="855.962" y="-119.5" font-family="Helvetica,sans-Serif" font-size="10.00">freetds/proto.h</text>
</a>
</g>
</g>
<!-- Node4&#45;&gt;Node19 -->
<g id="edge28" class="edge"><title>Node4&#45;&gt;Node19</title>
<path fill="none" stroke="midnightblue" d="M651.509,-168.622C693.473,-159.258 761.549,-144.067 807.501,-133.814"/>
<polygon fill="midnightblue" stroke="midnightblue" points="808.528,-137.17 817.526,-131.577 807.004,-130.338 808.528,-137.17"/>
</g>
<!-- Node7&#45;&gt;Node7 -->
<g id="edge7" class="edge"><title>Node7&#45;&gt;Node7</title>
<path fill="none" stroke="midnightblue" d="M336.23,-131.575C347.749,-134.27 358.962,-131.078 358.962,-122 358.962,-115.759 353.662,-112.3 346.606,-111.623"/>
<polygon fill="midnightblue" stroke="midnightblue" points="345.93,-108.165 336.23,-112.425 346.47,-115.144 345.93,-108.165"/>
</g>
<!-- Node10 -->
<g id="node10" class="node"><title>Node10</title>
<polygon fill="white" stroke="#bfbfbf" points="46.4616,-0.5 46.4616,-19.5 91.4616,-19.5 91.4616,-0.5 46.4616,-0.5"/>
<text text-anchor="middle" x="68.9616" y="-7.5" font-family="Helvetica,sans-Serif" font-size="10.00">float.h</text>
</g>
<!-- Node9&#45;&gt;Node10 -->
<g id="edge10" class="edge"><title>Node9&#45;&gt;Node10</title>
<path fill="none" stroke="midnightblue" d="M68.9616,-56.083C68.9616,-49.0059 68.9616,-38.8611 68.9616,-29.9865"/>
<polygon fill="midnightblue" stroke="midnightblue" points="72.4617,-29.751 68.9616,-19.7511 65.4617,-29.7511 72.4617,-29.751"/>
</g>
<!-- Node14&#45;&gt;Node5 -->
<g id="edge15" class="edge"><title>Node14&#45;&gt;Node5</title>
<path fill="none" stroke="midnightblue" d="M279.488,-113.396C282.355,-112.92 285.198,-112.451 287.962,-112 390.078,-95.3387 416.226,-94.847 517.962,-76 519.428,-75.7283 520.922,-75.4442 522.429,-75.1511"/>
<polygon fill="midnightblue" stroke="midnightblue" points="523.335,-78.539 532.443,-73.1267 521.948,-71.6778 523.335,-78.539"/>
</g>
<!-- Node14&#45;&gt;Node9 -->
<g id="edge16" class="edge"><title>Node14&#45;&gt;Node9</title>
<path fill="none" stroke="midnightblue" d="M208.658,-112.444C180.611,-103.32 136.017,-88.8133 104.777,-78.6509"/>
<polygon fill="midnightblue" stroke="midnightblue" points="105.734,-75.2816 95.1417,-75.5164 103.569,-81.9383 105.734,-75.2816"/>
</g>
<!-- Node14&#45;&gt;Node11 -->
<g id="edge17" class="edge"><title>Node14&#45;&gt;Node11</title>
<path fill="none" stroke="midnightblue" d="M279.468,-113.27C282.34,-112.825 285.19,-112.397 287.962,-112 421.192,-92.9149 457.403,-92.1309 595.139,-76.0895"/>
<polygon fill="midnightblue" stroke="midnightblue" points="595.709,-79.5468 605.234,-74.9077 594.895,-72.5943 595.709,-79.5468"/>
</g>
<!-- Node15 -->
<g id="node15" class="node"><title>Node15</title>
<g id="a_node15"><a xlink:href="a00231_source.html" target="_top" xlink:title="replacements/readpassphrase.h">
<polygon fill="white" stroke="black" points="307.462,-56.5 307.462,-75.5 476.462,-75.5 476.462,-56.5 307.462,-56.5"/>
<text text-anchor="middle" x="391.962" y="-63.5" font-family="Helvetica,sans-Serif" font-size="10.00">replacements/readpassphrase.h</text>
</a>
</g>
</g>
<!-- Node14&#45;&gt;Node15 -->
<g id="edge18" class="edge"><title>Node14&#45;&gt;Node15</title>
<path fill="none" stroke="midnightblue" d="M259.839,-112.444C286.251,-103.359 328.177,-88.9388 357.703,-78.7831"/>
<polygon fill="midnightblue" stroke="midnightblue" points="358.883,-82.0787 367.201,-75.5164 356.606,-75.4593 358.883,-82.0787"/>
</g>
<!-- Node14&#45;&gt;Node16 -->
<g id="edge25" class="edge"><title>Node14&#45;&gt;Node16</title>
<path fill="none" stroke="midnightblue" d="M216.097,-112.492C191.25,-100.181 152.823,-76.617 171.962,-56 208.595,-16.5356 573.294,-11.4152 717.613,-10.9448"/>
<polygon fill="midnightblue" stroke="midnightblue" points="717.625,-14.4449 727.615,-10.9186 717.606,-7.44493 717.625,-14.4449"/>
</g>
<!-- Node14&#45;&gt;Node17 -->
<g id="edge26" class="edge"><title>Node14&#45;&gt;Node17</title>
<path fill="none" stroke="midnightblue" d="M279.479,-113.35C348.713,-101.4 475.305,-79.3215 484.962,-76 503.009,-69.7924 504.729,-61.6409 522.962,-56 655.468,-15.0044 695.228,-36.373 832.962,-20 838.725,-19.3149 844.739,-18.5937 850.741,-17.87"/>
<polygon fill="midnightblue" stroke="midnightblue" points="851.274,-21.3311 860.781,-16.6557 850.433,-14.3818 851.274,-21.3311"/>
</g>
<!-- Node18 -->
<g id="node18" class="node"><title>Node18</title>
<g id="a_node18"><a xlink:href="a00230.html" target="_top" xlink:title="Provide poll call where missing. ">
<polygon fill="white" stroke="black" points="180.962,-56.5 180.962,-75.5 288.962,-75.5 288.962,-56.5 180.962,-56.5"/>
<text text-anchor="middle" x="234.962" y="-63.5" font-family="Helvetica,sans-Serif" font-size="10.00">replacements/poll.h</text>
</a>
</g>
</g>
<!-- Node14&#45;&gt;Node18 -->
<g id="edge21" class="edge"><title>Node14&#45;&gt;Node18</title>
<path fill="none" stroke="midnightblue" d="M234.962,-112.083C234.962,-105.006 234.962,-94.8611 234.962,-85.9865"/>
<polygon fill="midnightblue" stroke="midnightblue" points="238.462,-85.751 234.962,-75.7511 231.462,-85.7511 238.462,-85.751"/>
</g>
<!-- Node15&#45;&gt;Node16 -->
<g id="edge19" class="edge"><title>Node15&#45;&gt;Node16</title>
<path fill="none" stroke="midnightblue" d="M452.808,-56.4435C525.472,-46.2251 646.146,-29.2553 717.665,-19.1979"/>
<polygon fill="midnightblue" stroke="midnightblue" points="718.434,-22.6243 727.849,-17.7658 717.459,-15.6925 718.434,-22.6243"/>
</g>
<!-- Node15&#45;&gt;Node17 -->
<g id="edge20" class="edge"><title>Node15&#45;&gt;Node17</title>
<path fill="none" stroke="midnightblue" d="M476.556,-56.858C565.371,-48.195 709.059,-33.8549 832.962,-20 838.729,-19.3551 844.747,-18.6599 850.75,-17.9519"/>
<polygon fill="midnightblue" stroke="midnightblue" points="851.277,-21.414 860.793,-16.7549 850.449,-14.4632 851.277,-21.414"/>
</g>
<!-- Node18&#45;&gt;Node2 -->
<g id="edge22" class="edge"><title>Node18&#45;&gt;Node2</title>
<path fill="none" stroke="midnightblue" d="M226.705,-56.083C219.497,-48.2982 208.852,-36.8015 200.116,-27.3665"/>
<polygon fill="midnightblue" stroke="midnightblue" points="202.427,-24.7108 193.064,-19.7511 197.29,-29.4666 202.427,-24.7108"/>
</g>
<!-- Node18&#45;&gt;Node16 -->
<g id="edge23" class="edge"><title>Node18&#45;&gt;Node16</title>
<path fill="none" stroke="midnightblue" d="M289.236,-57.0778C292.186,-56.6999 295.109,-56.3378 297.962,-56 448.999,-38.1126 627.568,-22.8627 717.69,-15.5779"/>
<polygon fill="midnightblue" stroke="midnightblue" points="718.022,-19.0626 727.709,-14.7714 717.46,-12.0851 718.022,-19.0626"/>
</g>
<!-- Node18&#45;&gt;Node17 -->
<g id="edge24" class="edge"><title>Node18&#45;&gt;Node17</title>
<path fill="none" stroke="midnightblue" d="M289.226,-56.9855C292.178,-56.6315 295.105,-56.2998 297.962,-56 534.976,-31.1312 595.701,-42.3943 832.962,-20 838.74,-19.4546 844.764,-18.8242 850.771,-18.1552"/>
<polygon fill="midnightblue" stroke="midnightblue" points="851.283,-21.6195 860.818,-17.0011 850.484,-14.6652 851.283,-21.6195"/>
</g>
<!-- Node20&#45;&gt;Node16 -->
<g id="edge31" class="edge"><title>Node20&#45;&gt;Node16</title>
<path fill="none" stroke="midnightblue" d="M1050.8,-57.0901C993.293,-47.4469 896.128,-31.1522 834.069,-20.7447"/>
<polygon fill="midnightblue" stroke="midnightblue" points="834.485,-17.2656 824.044,-19.0634 833.327,-24.1692 834.485,-17.2656"/>
</g>
<!-- Node20&#45;&gt;Node17 -->
<g id="edge32" class="edge"><title>Node20&#45;&gt;Node17</title>
<path fill="none" stroke="midnightblue" d="M1067.7,-56.4435C1035.01,-47.2011 982.78,-32.4356 946.779,-22.2572"/>
<polygon fill="midnightblue" stroke="midnightblue" points="947.66,-18.8691 937.085,-19.5164 945.755,-25.6051 947.66,-18.8691"/>
</g>
<!-- Node22&#45;&gt;Node16 -->
<g id="edge35" class="edge"><title>Node22&#45;&gt;Node16</title>
<path fill="none" stroke="midnightblue" d="M1162.86,-57.3593C1159.85,-56.8816 1156.86,-56.4234 1153.96,-56 1146.13,-54.8569 938.24,-30.2129 834.172,-17.8898"/>
<polygon fill="midnightblue" stroke="midnightblue" points="834.475,-14.4013 824.132,-16.7011 833.651,-21.3527 834.475,-14.4013"/>
</g>
<!-- Node22&#45;&gt;Node17 -->
<g id="edge36" class="edge"><title>Node22&#45;&gt;Node17</title>
<path fill="none" stroke="midnightblue" d="M1162.8,-57.2056C1110.17,-47.6998 1021.07,-31.6088 963.138,-21.1455"/>
<polygon fill="midnightblue" stroke="midnightblue" points="963.517,-17.6574 953.054,-19.3243 962.273,-24.546 963.517,-17.6574"/>
</g>
<!-- Node23&#45;&gt;Node16 -->
<g id="edge38" class="edge"><title>Node23&#45;&gt;Node16</title>
<path fill="none" stroke="midnightblue" d="M831.358,-56.324C821.505,-48.2631 806.611,-36.0765 794.747,-26.3695"/>
<polygon fill="midnightblue" stroke="midnightblue" points="796.715,-23.4575 786.759,-19.8339 792.282,-28.8752 796.715,-23.4575"/>
</g>
<!-- Node23&#45;&gt;Node17 -->
<g id="edge39" class="edge"><title>Node23&#45;&gt;Node17</title>
<path fill="none" stroke="midnightblue" d="M852.405,-56.324C862.108,-48.2631 876.777,-36.0765 888.461,-26.3695"/>
<polygon fill="midnightblue" stroke="midnightblue" points="890.873,-28.9163 896.328,-19.8339 886.4,-23.532 890.873,-28.9163"/>
</g>
<!-- Node24&#45;&gt;Node16 -->
<g id="edge41" class="edge"><title>Node24&#45;&gt;Node16</title>
<path fill="none" stroke="midnightblue" d="M955.211,-56.4435C918.443,-47.1221 859.516,-32.1828 819.34,-21.9972"/>
<polygon fill="midnightblue" stroke="midnightblue" points="820.108,-18.5813 809.554,-19.5164 818.387,-25.3666 820.108,-18.5813"/>
</g>
<!-- Node24&#45;&gt;Node17 -->
<g id="edge42" class="edge"><title>Node24&#45;&gt;Node17</title>
<path fill="none" stroke="midnightblue" d="M975.787,-56.324C963.115,-47.979 943.728,-35.2122 928.756,-25.3524"/>
<polygon fill="midnightblue" stroke="midnightblue" points="930.38,-22.2313 920.104,-19.6545 926.53,-28.0776 930.38,-22.2313"/>
</g>
</g>
</svg>
