<?xml version="1.0" encoding="UTF-8" standalone="no"?>
<!DOCTYPE svg PUBLIC "-//W3C//DTD SVG 1.1//EN"
 "http://www.w3.org/Graphics/SVG/1.1/DTD/svg11.dtd">
<!-- Generated by graphviz version 2.38.0 (20140413.2041)
 -->
<!-- Title: src Pages: 1 -->
<svg width="768pt" height="132pt"
 viewBox="0.00 0.00 768.00 132.00" xmlns="http://www.w3.org/2000/svg" xmlns:xlink="http://www.w3.org/1999/xlink">
<g id="graph0" class="graph" transform="scale(1 1) rotate(0) translate(4 128)">
<title>src</title>
<polygon fill="white" stroke="none" points="-4,4 -4,-128 764,-128 764,4 -4,4"/>
<g id="clust1" class="cluster"><title>clusterdir_000003</title>
<g id="a_clust1"><a xlink:href="dir_000003.html" target="_top">
<polygon fill="#eeeeff" stroke="black" points="8,-64 8,-116 752,-116 752,-64 8,-64"/>
</a>
</g>
</g>
<!-- dir_000003 -->
<g id="node1" class="node"><title>dir_000003</title>
<text text-anchor="middle" x="717" y="-87.5" font-family="Helvetica,sans-Serif" font-size="10.00">src</text>
</g>
<!-- dir_000004 -->
<g id="node2" class="node"><title>dir_000004</title>
<g id="a_node2"><a xlink:href="dir_000004.html" target="_top" xlink:title="apps">
<polygon fill="white" stroke="red" points="672,-108 618,-108 618,-72 672,-72 672,-108"/>
<text text-anchor="middle" x="645" y="-87.5" font-family="Helvetica,sans-Serif" font-size="10.00">apps</text>
</a>
</g>
</g>
<!-- dir_000000 -->
<g id="node11" class="node"><title>dir_000000</title>
<g id="a_node11"><a xlink:href="dir_000000.html" target="_top" xlink:title="include">
<polygon fill="white" stroke="red" points="420,-36 366,-36 366,-0 420,-0 420,-36"/>
<text text-anchor="middle" x="393" y="-15.5" font-family="Helvetica,sans-Serif" font-size="10.00">include</text>
</a>
</g>
</g>
<!-- dir_000004&#45;&gt;dir_000000 -->
<g id="edge1" class="edge"><title>dir_000004&#45;&gt;dir_000000</title>
<path fill="none" stroke="black" d="M623.352,-71.9183C618.802,-68.9274 613.893,-66.1046 609,-64 549.547,-38.4288 474.486,-27.0098 430.315,-22.2007"/>
<polygon fill="black" stroke="black" points="430.617,-18.7135 420.311,-21.1677 429.898,-25.6764 430.617,-18.7135"/>
<g id="a_edge1&#45;headlabel"><a xlink:href="dir_000004_000000.html" target="_top" xlink:title="10">
<text text-anchor="middle" x="434.485" y="-13.7583" font-family="Helvetica,sans-Serif" font-size="10.00">10</text>
</a>
</g>
</g>
<!-- dir_000007 -->
<g id="node3" class="node"><title>dir_000007</title>
<g id="a_node3"><a xlink:href="dir_000007.html" target="_top" xlink:title="ctlib">
<polygon fill="white" stroke="black" points="600,-108 546,-108 546,-72 600,-72 600,-108"/>
<text text-anchor="middle" x="573" y="-87.5" font-family="Helvetica,sans-Serif" font-size="10.00">ctlib</text>
</a>
</g>
</g>
<!-- dir_000007&#45;&gt;dir_000000 -->
<g id="edge2" class="edge"><title>dir_000007&#45;&gt;dir_000000</title>
<path fill="none" stroke="black" d="M550.4,-71.7749C546.089,-68.9373 541.511,-66.2067 537,-64 502.378,-47.0644 459.98,-34.7301 430.185,-27.3029"/>
<polygon fill="black" stroke="black" points="430.748,-23.8381 420.205,-24.881 429.097,-30.6407 430.748,-23.8381"/>
<g id="a_edge2&#45;headlabel"><a xlink:href="dir_000007_000000.html" target="_top" xlink:title="1">
<text text-anchor="middle" x="434.911" y="-19.4266" font-family="Helvetica,sans-Serif" font-size="10.00">1</text>
</a>
</g>
</g>
<!-- dir_000008 -->
<g id="node4" class="node"><title>dir_000008</title>
<g id="a_node4"><a xlink:href="dir_000008.html" target="_top" xlink:title="dblib">
<polygon fill="white" stroke="black" points="528,-108 474,-108 474,-72 528,-72 528,-108"/>
<text text-anchor="middle" x="501" y="-87.5" font-family="Helvetica,sans-Serif" font-size="10.00">dblib</text>
</a>
</g>
</g>
<!-- dir_000008&#45;&gt;dir_000000 -->
<g id="edge3" class="edge"><title>dir_000008&#45;&gt;dir_000000</title>
<path fill="none" stroke="black" d="M476.709,-71.8948C472.815,-69.2208 468.812,-66.5127 465,-64 453.329,-56.307 440.425,-48.1387 428.803,-40.9029"/>
<polygon fill="black" stroke="black" points="430.551,-37.8683 420.207,-35.5746 426.863,-43.818 430.551,-37.8683"/>
<g id="a_edge3&#45;headlabel"><a xlink:href="dir_000008_000000.html" target="_top" xlink:title="14">
<text text-anchor="middle" x="435.102" y="-34.8488" font-family="Helvetica,sans-Serif" font-size="10.00">14</text>
</a>
</g>
</g>
<!-- dir_000009 -->
<g id="node5" class="node"><title>dir_000009</title>
<g id="a_node5"><a xlink:href="dir_000009.html" target="_top" xlink:title="odbc">
<polygon fill="white" stroke="black" points="456,-108 402,-108 402,-72 456,-72 456,-108"/>
<text text-anchor="middle" x="429" y="-87.5" font-family="Helvetica,sans-Serif" font-size="10.00">odbc</text>
</a>
</g>
</g>
<!-- dir_000009&#45;&gt;dir_000000 -->
<g id="edge4" class="edge"><title>dir_000009&#45;&gt;dir_000000</title>
<path fill="none" stroke="black" d="M420.101,-71.6966C416.003,-63.7284 411.051,-54.0995 406.507,-45.2641"/>
<polygon fill="black" stroke="black" points="409.483,-43.3965 401.797,-36.1043 403.258,-46.598 409.483,-43.3965"/>
<g id="a_edge4&#45;headlabel"><a xlink:href="dir_000009_000000.html" target="_top" xlink:title="3">
<text text-anchor="middle" x="413.651" y="-42.7946" font-family="Helvetica,sans-Serif" font-size="10.00">3</text>
</a>
</g>
</g>
<!-- dir_000010 -->
<g id="node6" class="node"><title>dir_000010</title>
<g id="a_node6"><a xlink:href="dir_000010.html" target="_top" xlink:title="pool">
<polygon fill="white" stroke="black" points="384,-108 330,-108 330,-72 384,-72 384,-108"/>
<text text-anchor="middle" x="357" y="-87.5" font-family="Helvetica,sans-Serif" font-size="10.00">pool</text>
</a>
</g>
</g>
<!-- dir_000010&#45;&gt;dir_000000 -->
<g id="edge5" class="edge"><title>dir_000010&#45;&gt;dir_000000</title>
<path fill="none" stroke="black" d="M365.899,-71.6966C369.997,-63.7284 374.949,-54.0995 379.493,-45.2641"/>
<polygon fill="black" stroke="black" points="382.742,-46.598 384.203,-36.1043 376.517,-43.3965 382.742,-46.598"/>
<g id="a_edge5&#45;headlabel"><a xlink:href="dir_000010_000000.html" target="_top" xlink:title="2">
<text text-anchor="middle" x="383.623" y="-48.5931" font-family="Helvetica,sans-Serif" font-size="10.00">2</text>
</a>
</g>
</g>
<!-- dir_000012 -->
<g id="node7" class="node"><title>dir_000012</title>
<g id="a_node7"><a xlink:href="dir_000012.html" target="_top" xlink:title="replacements">
<polygon fill="white" stroke="black" points="312,-108 232,-108 232,-72 312,-72 312,-108"/>
<text text-anchor="middle" x="272" y="-87.5" font-family="Helvetica,sans-Serif" font-size="10.00">replacements</text>
</a>
</g>
</g>
<!-- dir_000012&#45;&gt;dir_000000 -->
<g id="edge7" class="edge"><title>dir_000012&#45;&gt;dir_000000</title>
<path fill="none" stroke="black" d="M301.6,-71.8761C318.282,-62.2252 339.249,-50.0956 356.892,-39.8891"/>
<polygon fill="black" stroke="black" points="358.871,-42.7874 365.775,-34.7503 355.366,-36.7283 358.871,-42.7874"/>
<g id="a_edge7&#45;headlabel"><a xlink:href="dir_000012_000000.html" target="_top" xlink:title="3">
<text text-anchor="middle" x="357.182" y="-44.545" font-family="Helvetica,sans-Serif" font-size="10.00">3</text>
</a>
</g>
</g>
<!-- dir_000013 -->
<g id="node8" class="node"><title>dir_000013</title>
<g id="a_node8"><a xlink:href="dir_000013.html" target="_top" xlink:title="server">
<polygon fill="white" stroke="black" points="214,-108 160,-108 160,-72 214,-72 214,-108"/>
<text text-anchor="middle" x="187" y="-87.5" font-family="Helvetica,sans-Serif" font-size="10.00">server</text>
</a>
</g>
</g>
<!-- dir_000013&#45;&gt;dir_000000 -->
<g id="edge8" class="edge"><title>dir_000013&#45;&gt;dir_000000</title>
<path fill="none" stroke="black" d="M209.13,-71.8664C213.561,-68.9519 218.303,-66.1705 223,-64 266.512,-43.8926 320.594,-31.523 355.915,-24.963"/>
<polygon fill="black" stroke="black" points="356.575,-28.4006 365.799,-23.1883 355.338,-21.5108 356.575,-28.4006"/>
<g id="a_edge8&#45;headlabel"><a xlink:href="dir_000013_000000.html" target="_top" xlink:title="4">
<text text-anchor="middle" x="353.538" y="-29.3304" font-family="Helvetica,sans-Serif" font-size="10.00">4</text>
</a>
</g>
</g>
<!-- dir_000011 -->
<g id="node9" class="node"><title>dir_000011</title>
<g id="a_node9"><a xlink:href="dir_000011.html" target="_top" xlink:title="tds">
<polygon fill="white" stroke="red" points="142,-108 88,-108 88,-72 142,-72 142,-108"/>
<text text-anchor="middle" x="115" y="-87.5" font-family="Helvetica,sans-Serif" font-size="10.00">tds</text>
</a>
</g>
</g>
<!-- dir_000011&#45;&gt;dir_000000 -->
<g id="edge6" class="edge"><title>dir_000011&#45;&gt;dir_000000</title>
<path fill="none" stroke="black" d="M136.613,-71.8347C141.166,-68.8506 146.085,-66.0517 151,-64 219.705,-35.3223 306.975,-24.8362 355.722,-21.0631"/>
<polygon fill="black" stroke="black" points="356.085,-24.5461 365.808,-20.3364 355.582,-17.5642 356.085,-24.5461"/>
<g id="a_edge6&#45;headlabel"><a xlink:href="dir_000011_000000.html" target="_top" xlink:title="26">
<text text-anchor="middle" x="352.704" y="-25.1362" font-family="Helvetica,sans-Serif" font-size="10.00">26</text>
</a>
</g>
</g>
<!-- dir_000015 -->
<g id="node10" class="node"><title>dir_000015</title>
<g id="a_node10"><a xlink:href="dir_000015.html" target="_top" xlink:title="utils">
<polygon fill="white" stroke="black" points="70,-108 16,-108 16,-72 70,-72 70,-108"/>
<text text-anchor="middle" x="43" y="-87.5" font-family="Helvetica,sans-Serif" font-size="10.00">utils</text>
</a>
</g>
</g>
</g>
</svg>
